G04*
G04 #@! TF.GenerationSoftware,Altium Limited,Altium Designer,18.1.5 (160)*
G04*
G04 Layer_Color=2752767*
%FSTAX24Y24*%
%MOIN*%
G70*
G01*
G75*
%ADD58C,0.0020*%
%ADD59C,0.0027*%
D58*
X01803Y043425D02*
Y043585D01*
X01819D01*
Y043425D01*
X01803D01*
X01703D02*
Y043585D01*
X01719D01*
Y043425D01*
X01703D01*
X01603D02*
Y043585D01*
X01619D01*
Y043425D01*
X01603D01*
X01503D02*
Y043585D01*
X01519D01*
Y043425D01*
X01503D01*
X01403D02*
Y043585D01*
X01419D01*
Y043425D01*
X01403D01*
X01303D02*
Y043585D01*
X01319D01*
Y043425D01*
X01303D01*
X01203D02*
Y043585D01*
X01219D01*
Y043425D01*
X01203D01*
X01803Y042425D02*
Y042585D01*
X01819D01*
Y042425D01*
X01803D01*
X01703D02*
Y042585D01*
X01719D01*
Y042425D01*
X01703D01*
X01603D02*
Y042585D01*
X01619D01*
Y042425D01*
X01603D01*
X01503D02*
Y042585D01*
X01519D01*
Y042425D01*
X01503D01*
X01403D02*
Y042585D01*
X01419D01*
Y042425D01*
X01403D01*
X01303D02*
Y042585D01*
X01319D01*
Y042425D01*
X01303D01*
X01203D02*
Y042585D01*
X01219D01*
Y042425D01*
X01203D01*
X016461Y023095D02*
X016381Y023255D01*
X016541D01*
X016461Y023095D01*
X015461D02*
X015381Y023255D01*
X015541D01*
X015461Y023095D01*
X014461D02*
X014381Y023255D01*
X014541D01*
X014461Y023095D01*
X013461D02*
X013381Y023255D01*
X013541D01*
X013461Y023095D01*
X018191Y038385D02*
X018111Y038545D01*
X018271D01*
X018191Y038385D01*
X019191D02*
X019111Y038545D01*
X019271D01*
X019191Y038385D01*
X022191Y034385D02*
X022111Y034545D01*
X022271D01*
X022191Y034385D01*
X023191D02*
X023111Y034545D01*
X023271D01*
X023191Y034385D01*
X022191Y033385D02*
X022111Y033545D01*
X022271D01*
X022191Y033385D01*
X023191D02*
X023111Y033545D01*
X023271D01*
X023191Y033385D01*
X022191Y032385D02*
X022111Y032545D01*
X022271D01*
X022191Y032385D01*
X023191D02*
X023111Y032545D01*
X023271D01*
X023191Y032385D01*
X022191Y031385D02*
X022111Y031545D01*
X022271D01*
X022191Y031385D01*
X023191D02*
X023111Y031545D01*
X023271D01*
X023191Y031385D01*
X022191Y030385D02*
X022111Y030545D01*
X022271D01*
X022191Y030385D01*
X023191D02*
X023111Y030545D01*
X023271D01*
X023191Y030385D01*
X022191Y029385D02*
X022111Y029545D01*
X022271D01*
X022191Y029385D01*
X023191D02*
X023111Y029545D01*
X023271D01*
X023191Y029385D01*
X022191Y028385D02*
X022111Y028545D01*
X022271D01*
X022191Y028385D01*
X023191D02*
X023111Y028545D01*
X023271D01*
X023191Y028385D01*
X022191Y027385D02*
X022111Y027545D01*
X022271D01*
X022191Y027385D01*
X023191D02*
X023111Y027545D01*
X023271D01*
X023191Y027385D01*
X022191Y026385D02*
X022111Y026545D01*
X022271D01*
X022191Y026385D01*
X023191D02*
X023111Y026545D01*
X023271D01*
X023191Y026385D01*
X022191Y025385D02*
X022111Y025545D01*
X022271D01*
X022191Y025385D01*
X023191D02*
X023111Y025545D01*
X023271D01*
X023191Y025385D01*
X005191Y034385D02*
X005111Y034545D01*
X005271D01*
X005191Y034385D01*
X006191D02*
X006111Y034545D01*
X006271D01*
X006191Y034385D01*
X005191Y033385D02*
X005111Y033545D01*
X005271D01*
X005191Y033385D01*
X006191D02*
X006111Y033545D01*
X006271D01*
X006191Y033385D01*
X005191Y032385D02*
X005111Y032545D01*
X005271D01*
X005191Y032385D01*
X006191D02*
X006111Y032545D01*
X006271D01*
X006191Y032385D01*
X005191Y031385D02*
X005111Y031545D01*
X005271D01*
X005191Y031385D01*
X006191D02*
X006111Y031545D01*
X006271D01*
X006191Y031385D01*
X005191Y030385D02*
X005111Y030545D01*
X005271D01*
X005191Y030385D01*
X006191D02*
X006111Y030545D01*
X006271D01*
X006191Y030385D01*
X005191Y029385D02*
X005111Y029545D01*
X005271D01*
X005191Y029385D01*
X006191D02*
X006111Y029545D01*
X006271D01*
X006191Y029385D01*
X005191Y028385D02*
X005111Y028545D01*
X005271D01*
X005191Y028385D01*
X006191D02*
X006111Y028545D01*
X006271D01*
X006191Y028385D01*
X005191Y027385D02*
X005111Y027545D01*
X005271D01*
X005191Y027385D01*
X006191D02*
X006111Y027545D01*
X006271D01*
X006191Y027385D01*
X005191Y026385D02*
X005111Y026545D01*
X005271D01*
X005191Y026385D01*
X006191D02*
X006111Y026545D01*
X006271D01*
X006191Y026385D01*
X005191Y025385D02*
X005111Y025545D01*
X005271D01*
X005191Y025385D01*
X006191D02*
X006111Y025545D01*
X006271D01*
X006191Y025385D01*
X024941Y02064D02*
X024981Y02068D01*
X025021D01*
X024981Y02072D01*
X025021Y02076D01*
X024981D01*
X024941Y0208D01*
X024901Y02076D01*
X024861D01*
X024901Y02072D01*
X024861Y02068D01*
X024901D01*
X024941Y02064D01*
Y043475D02*
X024981Y043515D01*
X025021D01*
X024981Y043555D01*
X025021Y043595D01*
X024981D01*
X024941Y043635D01*
X024901Y043595D01*
X024861D01*
X024901Y043555D01*
X024861Y043515D01*
X024901D01*
X024941Y043475D01*
X00565D02*
X00569Y043515D01*
X00573D01*
X00569Y043555D01*
X00573Y043595D01*
X00569D01*
X00565Y043635D01*
X00561Y043595D01*
X00557D01*
X00561Y043555D01*
X00557Y043515D01*
X00561D01*
X00565Y043475D01*
X025441Y022475D02*
X025361Y022635D01*
X025521D01*
X025441Y022475D01*
X024441D02*
X024361Y022635D01*
X024521D01*
X024441Y022475D01*
X025441Y023475D02*
X025361Y023635D01*
X025521D01*
X025441Y023475D01*
X024441D02*
X024361Y023635D01*
X024521D01*
X024441Y023475D01*
X025441Y024475D02*
X025361Y024635D01*
X025521D01*
X025441Y024475D01*
X024441D02*
X024361Y024635D01*
X024521D01*
X024441Y024475D01*
X025441Y025475D02*
X025361Y025635D01*
X025521D01*
X025441Y025475D01*
X024441D02*
X024361Y025635D01*
X024521D01*
X024441Y025475D01*
X025441Y026475D02*
X025361Y026635D01*
X025521D01*
X025441Y026475D01*
X024441D02*
X024361Y026635D01*
X024521D01*
X024441Y026475D01*
X025441Y027475D02*
X025361Y027635D01*
X025521D01*
X025441Y027475D01*
X024441D02*
X024361Y027635D01*
X024521D01*
X024441Y027475D01*
X025441Y028475D02*
X025361Y028635D01*
X025521D01*
X025441Y028475D01*
X024441D02*
X024361Y028635D01*
X024521D01*
X024441Y028475D01*
X025441Y029475D02*
X025361Y029635D01*
X025521D01*
X025441Y029475D01*
X024441D02*
X024361Y029635D01*
X024521D01*
X024441Y029475D01*
X025441Y030475D02*
X025361Y030635D01*
X025521D01*
X025441Y030475D01*
X024441D02*
X024361Y030635D01*
X024521D01*
X024441Y030475D01*
X025441Y031475D02*
X025361Y031635D01*
X025521D01*
X025441Y031475D01*
X024441D02*
X024361Y031635D01*
X024521D01*
X024441Y031475D01*
X025441Y032475D02*
X025361Y032635D01*
X025521D01*
X025441Y032475D01*
X024441D02*
X024361Y032635D01*
X024521D01*
X024441Y032475D01*
X025441Y033475D02*
X025361Y033635D01*
X025521D01*
X025441Y033475D01*
X024441D02*
X024361Y033635D01*
X024521D01*
X024441Y033475D01*
X025441Y034475D02*
X025361Y034635D01*
X025521D01*
X025441Y034475D01*
X024441D02*
X024361Y034635D01*
X024521D01*
X024441Y034475D01*
X025441Y035475D02*
X025361Y035635D01*
X025521D01*
X025441Y035475D01*
X024441D02*
X024361Y035635D01*
X024521D01*
X024441Y035475D01*
X025441Y036475D02*
X025361Y036635D01*
X025521D01*
X025441Y036475D01*
X024441D02*
X024361Y036635D01*
X024521D01*
X024441Y036475D01*
X025441Y037475D02*
X025361Y037635D01*
X025521D01*
X025441Y037475D01*
X024441D02*
X024361Y037635D01*
X024521D01*
X024441Y037475D01*
X025441Y038475D02*
X025361Y038635D01*
X025521D01*
X025441Y038475D01*
X024441D02*
X024361Y038635D01*
X024521D01*
X024441Y038475D01*
X025441Y039475D02*
X025361Y039635D01*
X025521D01*
X025441Y039475D01*
X024441D02*
X024361Y039635D01*
X024521D01*
X024441Y039475D01*
X025441Y040475D02*
X025361Y040635D01*
X025521D01*
X025441Y040475D01*
X024441D02*
X024361Y040635D01*
X024521D01*
X024441Y040475D01*
X025441Y041475D02*
X025361Y041635D01*
X025521D01*
X025441Y041475D01*
X024441D02*
X024361Y041635D01*
X024521D01*
X024441Y041475D01*
X00565Y02064D02*
X00569Y02068D01*
X00573D01*
X00569Y02072D01*
X00573Y02076D01*
X00569D01*
X00565Y0208D01*
X00561Y02076D01*
X00557D01*
X00561Y02072D01*
X00557Y02068D01*
X00561D01*
X00565Y02064D01*
X008841Y03815D02*
X008881Y03823D01*
X008841Y03831D01*
X008921Y03827D01*
X009001Y03831D01*
X008961Y03823D01*
X009001Y03815D01*
X008921Y03819D01*
X008841Y03815D01*
X013291Y026175D02*
Y026135D01*
X013371D01*
Y026175D01*
X013411D01*
Y026255D01*
X013371D01*
Y026295D01*
X013291D01*
Y026255D01*
X013251D01*
Y026175D01*
X013291D01*
X014011Y034685D02*
X014051Y034765D01*
X014011Y034845D01*
X014091Y034805D01*
X014171Y034845D01*
X014131Y034765D01*
X014171Y034685D01*
X014091Y034725D01*
X014011Y034685D01*
X007151Y032435D02*
Y032395D01*
X007231D01*
Y032435D01*
X007271D01*
Y032515D01*
X007231D01*
Y032555D01*
X007151D01*
Y032515D01*
X007111D01*
Y032435D01*
X007151D01*
X015971Y038585D02*
Y038545D01*
X016051D01*
Y038585D01*
X016091D01*
Y038665D01*
X016051D01*
Y038705D01*
X015971D01*
Y038665D01*
X015931D01*
Y038585D01*
X015971D01*
X015901Y039085D02*
Y039045D01*
X015981D01*
Y039085D01*
X016021D01*
Y039165D01*
X015981D01*
Y039205D01*
X015901D01*
Y039165D01*
X015861D01*
Y039085D01*
X015901D01*
X015911Y038055D02*
Y038015D01*
X015991D01*
Y038055D01*
X016031D01*
Y038135D01*
X015991D01*
Y038175D01*
X015911D01*
Y038135D01*
X015871D01*
Y038055D01*
X015911D01*
X014881Y037905D02*
Y037865D01*
X014961D01*
Y037905D01*
X015001D01*
Y037985D01*
X014961D01*
Y038025D01*
X014881D01*
Y037985D01*
X014841D01*
Y037905D01*
X014881D01*
X012241Y025125D02*
Y025085D01*
X012321D01*
Y025125D01*
X012361D01*
Y025205D01*
X012321D01*
Y025245D01*
X012241D01*
Y025205D01*
X012201D01*
Y025125D01*
X012241D01*
X011941Y028755D02*
Y028715D01*
X012021D01*
Y028755D01*
X012061D01*
Y028835D01*
X012021D01*
Y028875D01*
X011941D01*
Y028835D01*
X011901D01*
Y028755D01*
X011941D01*
X015341Y030735D02*
Y030695D01*
X015421D01*
Y030735D01*
X015461D01*
Y030815D01*
X015421D01*
Y030855D01*
X015341D01*
Y030815D01*
X015301D01*
Y030735D01*
X015341D01*
X007764Y033392D02*
X007804Y033472D01*
X007764Y033552D01*
X007844Y033512D01*
X007924Y033552D01*
X007884Y033472D01*
X007924Y033392D01*
X007844Y033432D01*
X007764Y033392D01*
X009851Y036125D02*
Y036085D01*
X009931D01*
Y036125D01*
X009971D01*
Y036205D01*
X009931D01*
Y036245D01*
X009851D01*
Y036205D01*
X009811D01*
Y036125D01*
X009851D01*
X009101Y031675D02*
X009141Y031755D01*
X009101Y031835D01*
X009181Y031795D01*
X009261Y031835D01*
X009221Y031755D01*
X009261Y031675D01*
X009181Y031715D01*
X009101Y031675D01*
X010831Y026735D02*
X010871Y026815D01*
X010831Y026895D01*
X010911Y026855D01*
X010991Y026895D01*
X010951Y026815D01*
X010991Y026735D01*
X010911Y026775D01*
X010831Y026735D01*
X007801Y033435D02*
Y033395D01*
X007881D01*
Y033435D01*
X007921D01*
Y033515D01*
X007881D01*
Y033555D01*
X007801D01*
Y033515D01*
X007761D01*
Y033435D01*
X007801D01*
X018931Y028785D02*
Y028745D01*
X019011D01*
Y028785D01*
X019051D01*
Y028865D01*
X019011D01*
Y028905D01*
X018931D01*
Y028865D01*
X018891D01*
Y028785D01*
X018931D01*
X018951Y029505D02*
Y029465D01*
X019031D01*
Y029505D01*
X019071D01*
Y029585D01*
X019031D01*
Y029625D01*
X018951D01*
Y029585D01*
X018911D01*
Y029505D01*
X018951D01*
X015301Y030245D02*
Y030205D01*
X015381D01*
Y030245D01*
X015421D01*
Y030325D01*
X015381D01*
Y030365D01*
X015301D01*
Y030325D01*
X015261D01*
Y030245D01*
X015301D01*
X010271Y027525D02*
Y027485D01*
X010351D01*
Y027525D01*
X010391D01*
Y027605D01*
X010351D01*
Y027645D01*
X010271D01*
Y027605D01*
X010231D01*
Y027525D01*
X010271D01*
X018111Y028215D02*
Y028175D01*
X018191D01*
Y028215D01*
X018231D01*
Y028295D01*
X018191D01*
Y028335D01*
X018111D01*
Y028295D01*
X018071D01*
Y028215D01*
X018111D01*
X010611Y036155D02*
Y036115D01*
X010691D01*
Y036155D01*
X010731D01*
Y036235D01*
X010691D01*
Y036275D01*
X010611D01*
Y036235D01*
X010571D01*
Y036155D01*
X010611D01*
X010641Y034295D02*
Y034255D01*
X010721D01*
Y034295D01*
X010761D01*
Y034375D01*
X010721D01*
Y034415D01*
X010641D01*
Y034375D01*
X010601D01*
Y034295D01*
X010641D01*
D59*
X011371Y021245D02*
G03*
X011371Y021245I-00008J0D01*
G01*
X010371D02*
G03*
X010371Y021245I-00008J0D01*
G01*
X009371D02*
G03*
X009371Y021245I-00008J0D01*
G01*
X008371D02*
G03*
X008371Y021245I-00008J0D01*
G01*
X021941D02*
G03*
X021941Y021245I-00008J0D01*
G01*
X020941D02*
G03*
X020941Y021245I-00008J0D01*
G01*
X019941D02*
G03*
X019941Y021245I-00008J0D01*
G01*
X018941D02*
G03*
X018941Y021245I-00008J0D01*
G01*
M02*
