G04*
G04 #@! TF.GenerationSoftware,Altium Limited,Altium Designer,18.1.5 (160)*
G04*
G04 Layer_Color=8388736*
%FSTAX24Y24*%
%MOIN*%
G70*
G01*
G75*
%ADD25R,0.0630X0.0580*%
%ADD26R,0.0580X0.0630*%
%ADD27R,0.0474X0.1025*%
%ADD28R,0.1379X0.1025*%
%ADD29R,0.0890X0.0320*%
%ADD30R,0.0860X0.0300*%
%ADD31O,0.0760X0.0880*%
G04:AMPARAMS|DCode=32|XSize=88mil|YSize=76mil|CornerRadius=12.5mil|HoleSize=0mil|Usage=FLASHONLY|Rotation=90.000|XOffset=0mil|YOffset=0mil|HoleType=Round|Shape=RoundedRectangle|*
%AMROUNDEDRECTD32*
21,1,0.0880,0.0510,0,0,90.0*
21,1,0.0630,0.0760,0,0,90.0*
1,1,0.0250,0.0255,0.0315*
1,1,0.0250,0.0255,-0.0315*
1,1,0.0250,-0.0255,-0.0315*
1,1,0.0250,-0.0255,0.0315*
%
%ADD32ROUNDEDRECTD32*%
%ADD33O,0.0830X0.0980*%
%ADD34R,0.0830X0.0980*%
%ADD35C,0.0671*%
%ADD36R,0.0671X0.0671*%
%ADD37R,0.0671X0.0671*%
%ADD38C,0.1460*%
%ADD39C,0.0580*%
%ADD40C,0.0230*%
D25*
X009571Y039265D02*
D03*
Y040165D02*
D03*
X012001Y027885D02*
D03*
Y028785D02*
D03*
X017131Y040045D02*
D03*
Y039145D02*
D03*
D26*
X008521Y034605D02*
D03*
X007621D02*
D03*
D27*
X008547Y037866D02*
D03*
X007641D02*
D03*
X006736D02*
D03*
D28*
X007641Y035583D02*
D03*
D29*
X015311Y027775D02*
D03*
Y028275D02*
D03*
Y028775D02*
D03*
Y029275D02*
D03*
Y029775D02*
D03*
Y030275D02*
D03*
Y030775D02*
D03*
X013421D02*
D03*
Y030275D02*
D03*
Y029775D02*
D03*
Y029275D02*
D03*
Y028775D02*
D03*
Y028275D02*
D03*
Y027775D02*
D03*
D30*
X012281Y040125D02*
D03*
Y039625D02*
D03*
Y039125D02*
D03*
Y038625D02*
D03*
Y038125D02*
D03*
Y037625D02*
D03*
Y037125D02*
D03*
Y036625D02*
D03*
Y036125D02*
D03*
Y035625D02*
D03*
X015961D02*
D03*
Y036125D02*
D03*
Y036625D02*
D03*
Y037125D02*
D03*
Y037625D02*
D03*
Y038125D02*
D03*
Y038625D02*
D03*
Y039125D02*
D03*
Y039625D02*
D03*
Y040125D02*
D03*
D31*
X01811Y043505D02*
D03*
X01711D02*
D03*
X01611D02*
D03*
X01511D02*
D03*
X01411D02*
D03*
X01311D02*
D03*
X01211D02*
D03*
X01811Y042505D02*
D03*
X01711D02*
D03*
X01611D02*
D03*
X01511D02*
D03*
X01411D02*
D03*
X01311D02*
D03*
D32*
X01211D02*
D03*
D33*
X011291Y021245D02*
D03*
X010291D02*
D03*
X009291D02*
D03*
X021861D02*
D03*
X020861D02*
D03*
X019861D02*
D03*
D34*
X008291D02*
D03*
X018861D02*
D03*
D35*
X016461Y023175D02*
D03*
X015461D02*
D03*
X014461D02*
D03*
X019191Y038465D02*
D03*
X023191Y034465D02*
D03*
X022191Y033465D02*
D03*
X023191D02*
D03*
X022191Y032465D02*
D03*
X023191D02*
D03*
X022191Y031465D02*
D03*
X023191D02*
D03*
X022191Y030465D02*
D03*
X023191D02*
D03*
X022191Y029465D02*
D03*
X023191D02*
D03*
X022191Y028465D02*
D03*
X023191D02*
D03*
X022191Y027465D02*
D03*
X023191D02*
D03*
X022191Y026465D02*
D03*
X023191D02*
D03*
X022191Y025465D02*
D03*
X023191D02*
D03*
X006191Y034465D02*
D03*
X005191Y033465D02*
D03*
X006191D02*
D03*
X005191Y032465D02*
D03*
X006191D02*
D03*
X005191Y031465D02*
D03*
X006191D02*
D03*
X005191Y030465D02*
D03*
X006191D02*
D03*
X005191Y029465D02*
D03*
X006191D02*
D03*
X005191Y028465D02*
D03*
X006191D02*
D03*
X005191Y027465D02*
D03*
X006191D02*
D03*
X005191Y026465D02*
D03*
X006191D02*
D03*
X005191Y025465D02*
D03*
X006191D02*
D03*
X025441Y022555D02*
D03*
X024441D02*
D03*
X025441Y023555D02*
D03*
X024441D02*
D03*
X025441Y024555D02*
D03*
X024441D02*
D03*
X025441Y025555D02*
D03*
X024441D02*
D03*
X025441Y026555D02*
D03*
X024441D02*
D03*
X025441Y027555D02*
D03*
X024441D02*
D03*
X025441Y028555D02*
D03*
X024441D02*
D03*
X025441Y029555D02*
D03*
X024441D02*
D03*
X025441Y030555D02*
D03*
X024441D02*
D03*
X025441Y031555D02*
D03*
X024441D02*
D03*
X025441Y032555D02*
D03*
X024441D02*
D03*
X025441Y033555D02*
D03*
X024441D02*
D03*
X025441Y034555D02*
D03*
X024441D02*
D03*
X025441Y035555D02*
D03*
X024441D02*
D03*
X025441Y036555D02*
D03*
X024441D02*
D03*
X025441Y037555D02*
D03*
X024441D02*
D03*
X025441Y038555D02*
D03*
X024441D02*
D03*
X025441Y039555D02*
D03*
X024441D02*
D03*
X025441Y040555D02*
D03*
X024441D02*
D03*
X025441Y041555D02*
D03*
D36*
X013461Y023175D02*
D03*
X018191Y038465D02*
D03*
D37*
X022191Y034465D02*
D03*
X005191D02*
D03*
X024441Y041555D02*
D03*
D38*
X024941Y02072D02*
D03*
Y043555D02*
D03*
X00565D02*
D03*
Y02072D02*
D03*
D39*
X008921Y03823D02*
D03*
X014091Y034765D02*
D03*
X007844Y033472D02*
D03*
X009181Y031755D02*
D03*
X010911Y026815D02*
D03*
D40*
X013331Y026215D02*
D03*
X007191Y032475D02*
D03*
X016011Y038625D02*
D03*
X015941Y039125D02*
D03*
X015951Y038095D02*
D03*
X014921Y037945D02*
D03*
X012281Y025165D02*
D03*
X011981Y028795D02*
D03*
X015381Y030775D02*
D03*
X009891Y036165D02*
D03*
X007841Y033475D02*
D03*
X018971Y028825D02*
D03*
X018991Y029545D02*
D03*
X015341Y030285D02*
D03*
X010311Y027565D02*
D03*
X018151Y028255D02*
D03*
X010651Y036195D02*
D03*
X010681Y034335D02*
D03*
M02*
