M48
;Layer_Color=9474304
;FILE_FORMAT=2:4
INCH,LZ
;TYPE=PLATED
T1F00S00C0.0150
T2F00S00C0.0280
T3F00S00C0.0340
T4F00S00C0.0354
T5F00S00C0.0420
T6F00S00C0.1181
%
T01
X018151Y028255
X018971Y028825
X018991Y029545
X015341Y030285
X015381Y030775
X011981Y028795
X010311Y027565
X013331Y026215
X012281Y025165
X010681Y034335
X010651Y036195
X009891Y036165
X007841Y033475
X007191Y032475
X014921Y037945
X015951Y038095
X016011Y038625
X015941Y039125
T02
X010911Y026815
X009181Y031755
X007844Y033472
X008921Y03823
X014091Y034765
T03
X018861Y021245
X019861
X020861
X021861
X011291
X010291
X009291
X008291
T04
X016461Y023175
X022191Y025465
Y026465
Y027465
Y028465
Y029465
Y030465
X023191
Y029465
Y028465
Y027465
Y026465
Y025465
X024441Y025555
Y024555
Y023555
Y022555
X025441
Y023555
Y024555
Y025555
Y026555
X024441
Y027555
X025441
Y028555
X024441
Y029555
X025441
Y030555
X024441
X015461Y023175
X014461
X013461
X006191Y025465
Y026465
Y027465
Y028465
Y029465
Y030465
X005191
Y029465
Y028465
Y027465
Y026465
Y025465
Y031465
Y032465
Y033465
Y034465
X006191
Y033465
Y032465
Y031465
X022191
Y032465
Y033465
Y034465
X023191
Y033465
Y032465
Y031465
X024441Y031555
X025441
Y032555
X024441
Y033555
X025441
Y034555
X024441
Y035555
X025441
Y036555
X024441
Y037555
X025441
Y038555
X024441
Y039555
X025441
Y040555
X024441
Y041555
X025441
X019191Y038465
X018191
T05
X01211Y042505
Y043505
X01311
X01411
X01511
Y042505
X01411
X01311
X01611
Y043505
X01711
X01811
Y042505
X01711
T06
X024941Y02072
X00565
Y043555
X024941
M30
