G04*
G04 #@! TF.GenerationSoftware,Altium Limited,Altium Designer,18.1.5 (160)*
G04*
G04 Layer_Color=16711935*
%FSTAX24Y24*%
%MOIN*%
G70*
G01*
G75*
%ADD54C,0.0020*%
D54*
X01431Y046905D02*
G03*
X01381Y047405I-0005J0D01*
G01*
X01431Y044655D02*
G03*
X01456Y044405I00025J0D01*
G01*
X01566D02*
G03*
X01591Y044655I0J00025D01*
G01*
X01641Y047405D02*
G03*
X01591Y046905I0J-0005D01*
G01*
X01626Y047382D02*
G03*
X01611Y047405I-00015J-000477D01*
G01*
X01411D02*
G03*
X01396Y047382I0J-0005D01*
G01*
X01211Y046405D02*
X01251Y047405D01*
X01171D02*
X01211Y046405D01*
X01017Y047405D02*
X01381D01*
X02005Y043505D02*
Y047405D01*
X0192Y043505D02*
X02005D01*
X0192D02*
Y043905D01*
X01616D02*
X0192D01*
X01616Y043505D02*
Y043905D01*
X01546Y043505D02*
X01616D01*
X01546D02*
Y043905D01*
X01476D02*
X01546D01*
X01476Y043505D02*
Y043905D01*
X01406Y043505D02*
X01476D01*
X01406D02*
Y043905D01*
X01102D02*
X01406D01*
X01017Y043505D02*
X01102D01*
X01017D02*
Y047405D01*
X01431Y044655D02*
Y046905D01*
X01456Y044405D02*
X01566D01*
X01591Y044655D02*
Y046905D01*
X01641Y047405D02*
X02005D01*
X01102Y043505D02*
Y043905D01*
X01431Y044905D02*
X01591D01*
X014987D02*
Y047255D01*
X015232D01*
Y044905D02*
Y047255D01*
X015987Y047172D02*
Y047255D01*
X016053D01*
X016988Y04283D02*
X017233D01*
X016988Y04238D02*
Y043905D01*
X017233Y04238D02*
Y043905D01*
X014987Y04238D02*
X015232D01*
X014987D02*
Y043905D01*
Y04283D02*
X015232D01*
Y04238D02*
Y043905D01*
X011988Y04283D02*
X012233D01*
X011988Y04238D02*
Y043905D01*
X012233Y04238D02*
Y043905D01*
X015067Y047335D02*
X015152D01*
X015232Y047255D01*
X014987D02*
X015067Y047335D01*
X014167Y047255D02*
X014232D01*
Y047172D02*
Y047255D01*
X015987Y04238D02*
X016233D01*
X015987D02*
Y043505D01*
Y04283D02*
X016233D01*
Y04238D02*
Y043905D01*
X017988Y04238D02*
X018233D01*
X017988Y04283D02*
X018233D01*
Y04238D02*
Y043905D01*
X017988Y04238D02*
Y043905D01*
X012988Y04238D02*
X013233D01*
X012988D02*
Y043905D01*
Y04283D02*
X013233D01*
Y04238D02*
Y043905D01*
X013987Y04283D02*
X014232D01*
X013987Y04238D02*
Y043905D01*
X014232Y04238D02*
Y043505D01*
X011988Y04238D02*
X012233D01*
X016988D02*
X017233D01*
X016068Y047335D02*
X016152D01*
X015987Y047255D02*
X016068Y047335D01*
X014067D02*
X014152D01*
X014232Y047255D01*
X013987Y04238D02*
X014232D01*
X01411Y047405D02*
X01611D01*
M02*
