G04*
G04 #@! TF.GenerationSoftware,Altium Limited,Altium Designer,18.1.5 (160)*
G04*
G04 Layer_Color=8421504*
%FSTAX24Y24*%
%MOIN*%
G70*
G01*
G75*
%ADD19R,0.0550X0.0500*%
%ADD20R,0.0500X0.0550*%
%ADD21R,0.0394X0.0945*%
%ADD22R,0.1299X0.0945*%
%ADD23R,0.0810X0.0240*%
%ADD24R,0.0780X0.0220*%
D19*
X009571Y039265D02*
D03*
Y040165D02*
D03*
X012001Y027885D02*
D03*
Y028785D02*
D03*
X017131Y040045D02*
D03*
Y039145D02*
D03*
D20*
X008521Y034605D02*
D03*
X007621D02*
D03*
D21*
X008547Y037866D02*
D03*
X007641D02*
D03*
X006736D02*
D03*
D22*
X007641Y035583D02*
D03*
D23*
X015311Y027775D02*
D03*
Y028275D02*
D03*
Y028775D02*
D03*
Y029275D02*
D03*
Y029775D02*
D03*
Y030275D02*
D03*
Y030775D02*
D03*
X013421D02*
D03*
Y030275D02*
D03*
Y029775D02*
D03*
Y029275D02*
D03*
Y028775D02*
D03*
Y028275D02*
D03*
Y027775D02*
D03*
D24*
X012281Y040125D02*
D03*
Y039625D02*
D03*
Y039125D02*
D03*
Y038625D02*
D03*
Y038125D02*
D03*
Y037625D02*
D03*
Y037125D02*
D03*
Y036625D02*
D03*
Y036125D02*
D03*
Y035625D02*
D03*
X015961D02*
D03*
Y036125D02*
D03*
Y036625D02*
D03*
Y037125D02*
D03*
Y037625D02*
D03*
Y038125D02*
D03*
Y038625D02*
D03*
Y039125D02*
D03*
Y039625D02*
D03*
Y040125D02*
D03*
M02*
