G04*
G04 #@! TF.GenerationSoftware,Altium Limited,Altium Designer,18.1.5 (160)*
G04*
G04 Layer_Physical_Order=2*
G04 Layer_Color=16711680*
%FSTAX24Y24*%
%MOIN*%
G70*
G01*
G75*
%ADD18C,0.0100*%
%ADD41C,0.0200*%
%ADD43O,0.0680X0.0800*%
G04:AMPARAMS|DCode=44|XSize=80mil|YSize=68mil|CornerRadius=8.5mil|HoleSize=0mil|Usage=FLASHONLY|Rotation=90.000|XOffset=0mil|YOffset=0mil|HoleType=Round|Shape=RoundedRectangle|*
%AMROUNDEDRECTD44*
21,1,0.0800,0.0510,0,0,90.0*
21,1,0.0630,0.0680,0,0,90.0*
1,1,0.0170,0.0255,0.0315*
1,1,0.0170,0.0255,-0.0315*
1,1,0.0170,-0.0255,-0.0315*
1,1,0.0170,-0.0255,0.0315*
%
%ADD44ROUNDEDRECTD44*%
%ADD45O,0.0750X0.0900*%
%ADD46R,0.0750X0.0900*%
%ADD47C,0.0591*%
%ADD48R,0.0591X0.0591*%
%ADD49R,0.0591X0.0591*%
%ADD50C,0.1380*%
%ADD51C,0.0500*%
%ADD52C,0.0150*%
%ADD53C,0.0150*%
G36*
X005091Y044322D02*
X005304D01*
X005316Y044272D01*
X005209Y044215D01*
X005089Y044116D01*
X00499Y043996D01*
X004917Y043858D01*
X004871Y04371D01*
X004856Y043555D01*
X004871Y0434D01*
X004917Y043251D01*
X00499Y043114D01*
X005089Y042993D01*
X005209Y042895D01*
X005346Y042821D01*
X005495Y042776D01*
X00565Y042761D01*
X005805Y042776D01*
X005954Y042821D01*
X006091Y042895D01*
X006211Y042993D01*
X00631Y043114D01*
X006383Y043251D01*
X006429Y0434D01*
X006444Y043555D01*
X006429Y04371D01*
X006383Y043858D01*
X00631Y043996D01*
X006211Y044116D01*
X006091Y044215D01*
X005984Y044272D01*
X005997Y044322D01*
X024595D01*
X024607Y044272D01*
X0245Y044215D01*
X02438Y044116D01*
X024281Y043996D01*
X024208Y043858D01*
X024163Y04371D01*
X024148Y043555D01*
X024163Y0434D01*
X024208Y043251D01*
X024281Y043114D01*
X02438Y042993D01*
X0245Y042895D01*
X024638Y042821D01*
X024786Y042776D01*
X024941Y042761D01*
X025096Y042776D01*
X025245Y042821D01*
X025382Y042895D01*
X025503Y042993D01*
X025601Y043114D01*
X025675Y043251D01*
X02572Y0434D01*
X025735Y043555D01*
X02572Y04371D01*
X025675Y043858D01*
X025606Y043988D01*
X025646Y044018D01*
X025697Y043967D01*
X025697Y043967D01*
X025729Y043931D01*
X025806Y043841D01*
X025893Y043698D01*
X025957Y043544D01*
X025997Y043381D01*
X026009Y043218D01*
X026009Y043215D01*
Y020875D01*
X026009Y020871D01*
X025997Y020708D01*
X025957Y020545D01*
X025893Y020391D01*
X025806Y020248D01*
X0257Y020124D01*
X025697Y020122D01*
X025694Y020118D01*
X025581Y020025D01*
X025449Y019954D01*
X025304Y019911D01*
X025159Y019896D01*
X025155Y019897D01*
X025123D01*
X025116Y019947D01*
X025245Y019987D01*
X025382Y02006D01*
X025503Y020159D01*
X025601Y020279D01*
X025675Y020416D01*
X02572Y020565D01*
X025735Y02072D01*
X02572Y020875D01*
X025675Y021024D01*
X025601Y021161D01*
X025503Y021281D01*
X025382Y02138D01*
X025245Y021453D01*
X025096Y021499D01*
X024941Y021514D01*
X024786Y021499D01*
X024638Y021453D01*
X0245Y02138D01*
X02438Y021281D01*
X024281Y021161D01*
X024208Y021024D01*
X024163Y020875D01*
X024148Y02072D01*
X024163Y020565D01*
X024208Y020416D01*
X024281Y020279D01*
X02438Y020159D01*
X0245Y02006D01*
X024638Y019987D01*
X024767Y019947D01*
X024759Y019897D01*
X019051D01*
X019028Y019893D01*
X012195D01*
X012171Y019897D01*
X005832D01*
X005825Y019947D01*
X005954Y019987D01*
X006091Y02006D01*
X006211Y020159D01*
X00631Y020279D01*
X006383Y020416D01*
X006429Y020565D01*
X006444Y02072D01*
X006429Y020875D01*
X006383Y021024D01*
X00631Y021161D01*
X006211Y021281D01*
X006091Y02138D01*
X005954Y021453D01*
X005805Y021499D01*
X00565Y021514D01*
X005495Y021499D01*
X005346Y021453D01*
X005209Y02138D01*
X005089Y021281D01*
X00499Y021161D01*
X004917Y021024D01*
X004871Y020875D01*
X004856Y02072D01*
X004871Y020565D01*
X004917Y020416D01*
X00499Y020279D01*
X005089Y020159D01*
X005209Y02006D01*
X005346Y019987D01*
X005475Y019947D01*
X005468Y019897D01*
X005091D01*
X005089Y019897D01*
X004999Y019909D01*
X004912Y019945D01*
X004838Y020001D01*
X004781Y020076D01*
X004745Y020162D01*
X004734Y020252D01*
X004734Y020255D01*
Y020733D01*
Y042645D01*
Y043965D01*
X004734Y043967D01*
X004745Y044057D01*
X004781Y044144D01*
X004838Y044218D01*
X004912Y044275D01*
X004999Y044311D01*
X005089Y044322D01*
X005091Y044322D01*
D02*
G37*
%LPC*%
G36*
X01811Y044008D02*
X017995Y043993D01*
X017888Y043949D01*
X017796Y043878D01*
X017726Y043787D01*
X017681Y04368D01*
X017666Y043565D01*
Y043445D01*
X017681Y04333D01*
X017726Y043223D01*
X017796Y043131D01*
X017888Y04306D01*
X017995Y043016D01*
X01811Y043001D01*
X018225Y043016D01*
X018332Y04306D01*
X018424Y043131D01*
X018494Y043223D01*
X018539Y04333D01*
X018554Y043445D01*
Y043565D01*
X018539Y04368D01*
X018494Y043787D01*
X018424Y043878D01*
X018332Y043949D01*
X018225Y043993D01*
X01811Y044008D01*
D02*
G37*
G36*
X01711D02*
X016995Y043993D01*
X016888Y043949D01*
X016796Y043878D01*
X016726Y043787D01*
X016681Y04368D01*
X016666Y043565D01*
Y043445D01*
X016681Y04333D01*
X016692Y043303D01*
X016483Y043094D01*
X01645Y043045D01*
X016438Y042986D01*
Y04293D01*
X016388Y042906D01*
X016332Y042949D01*
X016263Y042978D01*
Y043032D01*
X016332Y04306D01*
X016424Y043131D01*
X016494Y043223D01*
X016539Y04333D01*
X016554Y043445D01*
Y043565D01*
X016539Y04368D01*
X016494Y043787D01*
X016424Y043878D01*
X016332Y043949D01*
X016225Y043993D01*
X01611Y044008D01*
X015995Y043993D01*
X015888Y043949D01*
X015796Y043878D01*
X015726Y043787D01*
X015681Y04368D01*
X015666Y043565D01*
Y043445D01*
X015681Y04333D01*
X015692Y043303D01*
X015532Y043143D01*
X015499Y043093D01*
X015487Y043035D01*
Y042874D01*
X01544Y042858D01*
X015424Y042878D01*
X015332Y042949D01*
X015263Y042978D01*
Y043032D01*
X015332Y04306D01*
X015424Y043131D01*
X015494Y043223D01*
X015539Y04333D01*
X015554Y043445D01*
Y043565D01*
X015539Y04368D01*
X015494Y043787D01*
X015424Y043878D01*
X015332Y043949D01*
X015225Y043993D01*
X01511Y044008D01*
X014995Y043993D01*
X014888Y043949D01*
X014796Y043878D01*
X014726Y043787D01*
X014681Y04368D01*
X014666Y043565D01*
Y043445D01*
X014681Y04333D01*
X014726Y043223D01*
X014796Y043131D01*
X014888Y04306D01*
X014957Y043032D01*
Y042978D01*
X014888Y042949D01*
X014796Y042878D01*
X014774Y04285D01*
X014724Y042867D01*
Y043043D01*
X014713Y043102D01*
X014679Y043151D01*
X014528Y043303D01*
X014539Y04333D01*
X014554Y043445D01*
Y043565D01*
X014539Y04368D01*
X014494Y043787D01*
X014424Y043878D01*
X014332Y043949D01*
X014225Y043993D01*
X01411Y044008D01*
X013995Y043993D01*
X013888Y043949D01*
X013796Y043878D01*
X013726Y043787D01*
X013681Y04368D01*
X013666Y043565D01*
Y043445D01*
X013681Y04333D01*
X013726Y043223D01*
X013796Y043131D01*
X013888Y04306D01*
X013957Y043032D01*
Y042978D01*
X013888Y042949D01*
X013796Y042878D01*
X013792Y042873D01*
X013744Y042889D01*
Y043023D01*
X013733Y043082D01*
X013699Y043131D01*
X013528Y043303D01*
X013539Y04333D01*
X013554Y043445D01*
Y043565D01*
X013539Y04368D01*
X013494Y043787D01*
X013424Y043878D01*
X013332Y043949D01*
X013225Y043993D01*
X01311Y044008D01*
X012995Y043993D01*
X012888Y043949D01*
X012796Y043878D01*
X012726Y043787D01*
X012681Y04368D01*
X012666Y043565D01*
Y043445D01*
X012681Y04333D01*
X012726Y043223D01*
X012796Y043131D01*
X012888Y04306D01*
X012957Y043032D01*
Y042978D01*
X012888Y042949D01*
X012796Y042878D01*
X012726Y042787D01*
X012681Y04268D01*
X012666Y042565D01*
Y042445D01*
X012681Y04233D01*
X012726Y042223D01*
X012796Y042131D01*
X012888Y04206D01*
X012995Y042016D01*
X01311Y042001D01*
X013225Y042016D01*
X013332Y04206D01*
X013388Y042104D01*
X013438Y042079D01*
Y038642D01*
X01345Y038583D01*
X013483Y038534D01*
X01456Y037457D01*
X01461Y037423D01*
X014668Y037412D01*
X015421D01*
X01548Y037423D01*
X015529Y037457D01*
X015999Y037926D01*
X01602Y03793D01*
X016078Y037968D01*
X016116Y038026D01*
X01613Y038095D01*
X016116Y038163D01*
X016078Y038221D01*
X01602Y038259D01*
X015951Y038273D01*
X015883Y038259D01*
X015825Y038221D01*
X015786Y038163D01*
X015782Y038142D01*
X015358Y037718D01*
X01496D01*
X014955Y037722D01*
X01497Y037776D01*
X01499Y03778D01*
X015048Y037818D01*
X015086Y037876D01*
X0151Y037945D01*
X015086Y038013D01*
X015048Y038071D01*
X01499Y038109D01*
X014969Y038114D01*
X014733Y038349D01*
Y042135D01*
X01478Y042152D01*
X014796Y042131D01*
X014888Y04206D01*
X014995Y042016D01*
X01511Y042001D01*
X015225Y042016D01*
X015332Y04206D01*
X015424Y042131D01*
X01544Y042152D01*
X015487Y042135D01*
Y039426D01*
X015499Y039367D01*
X015532Y039318D01*
X015772Y039077D01*
X015776Y039056D01*
X015815Y038998D01*
X015873Y03896D01*
X015941Y038946D01*
X01601Y03896D01*
X016068Y038998D01*
X016106Y039056D01*
X01612Y039125D01*
X016106Y039193D01*
X016068Y039251D01*
X01601Y039289D01*
X015989Y039294D01*
X015793Y039489D01*
Y04207D01*
X015843Y042095D01*
X015888Y04206D01*
X015995Y042016D01*
X01611Y042001D01*
X016225Y042016D01*
X016332Y04206D01*
X016388Y042104D01*
X016438Y042079D01*
Y039268D01*
X015964Y038794D01*
X015943Y038789D01*
X015885Y038751D01*
X015846Y038693D01*
X015833Y038625D01*
X015846Y038556D01*
X015885Y038498D01*
X015943Y03846D01*
X016011Y038446D01*
X01608Y03846D01*
X016138Y038498D01*
X016176Y038556D01*
X01618Y038577D01*
X016699Y039097D01*
X016733Y039146D01*
X016744Y039205D01*
Y042923D01*
X016885Y043063D01*
X016888Y04306D01*
X016995Y043016D01*
X01711Y043001D01*
X017225Y043016D01*
X017332Y04306D01*
X017424Y043131D01*
X017494Y043223D01*
X017539Y04333D01*
X017554Y043445D01*
Y043565D01*
X017539Y04368D01*
X017494Y043787D01*
X017424Y043878D01*
X017332Y043949D01*
X017225Y043993D01*
X01711Y044008D01*
D02*
G37*
G36*
X01211D02*
X011995Y043993D01*
X011888Y043949D01*
X011796Y043878D01*
X011726Y043787D01*
X011681Y04368D01*
X011666Y043565D01*
Y043445D01*
X011681Y04333D01*
X011726Y043223D01*
X011796Y043131D01*
X011888Y04306D01*
X011893Y043058D01*
X011883Y043008D01*
X011855D01*
X011783Y042994D01*
X011722Y042953D01*
X011681Y042892D01*
X011666Y04282D01*
Y04219D01*
X011681Y042117D01*
X011722Y042056D01*
X011783Y042015D01*
X011855Y042001D01*
X012365D01*
X012437Y042015D01*
X012498Y042056D01*
X012539Y042117D01*
X012554Y04219D01*
Y04282D01*
X012539Y042892D01*
X012498Y042953D01*
X012437Y042994D01*
X012365Y043008D01*
X012337D01*
X012327Y043058D01*
X012332Y04306D01*
X012424Y043131D01*
X012494Y043223D01*
X012539Y04333D01*
X012554Y043445D01*
Y043565D01*
X012539Y04368D01*
X012494Y043787D01*
X012424Y043878D01*
X012332Y043949D01*
X012225Y043993D01*
X01211Y044008D01*
D02*
G37*
G36*
X024837Y04195D02*
X024046D01*
Y041159D01*
X024837D01*
Y04195D01*
D02*
G37*
G36*
X025441Y041953D02*
X025338Y04194D01*
X025242Y0419D01*
X025159Y041837D01*
X025096Y041754D01*
X025056Y041658D01*
X025043Y041555D01*
X025056Y041451D01*
X025096Y041355D01*
X025159Y041273D01*
X025242Y041209D01*
X025338Y04117D01*
X025441Y041156D01*
X025545Y04117D01*
X025641Y041209D01*
X025723Y041273D01*
X025787Y041355D01*
X025826Y041451D01*
X02584Y041555D01*
X025826Y041658D01*
X025787Y041754D01*
X025723Y041837D01*
X025641Y0419D01*
X025545Y04194D01*
X025441Y041953D01*
D02*
G37*
G36*
Y040953D02*
X025338Y04094D01*
X025242Y0409D01*
X025159Y040837D01*
X025096Y040754D01*
X025056Y040658D01*
X025043Y040555D01*
X025056Y040451D01*
X025096Y040355D01*
X025159Y040273D01*
X025242Y040209D01*
X025338Y04017D01*
X025441Y040156D01*
X025545Y04017D01*
X025641Y040209D01*
X025723Y040273D01*
X025787Y040355D01*
X025826Y040451D01*
X02584Y040555D01*
X025826Y040658D01*
X025787Y040754D01*
X025723Y040837D01*
X025641Y0409D01*
X025545Y04094D01*
X025441Y040953D01*
D02*
G37*
G36*
X024441D02*
X024338Y04094D01*
X024242Y0409D01*
X024159Y040837D01*
X024096Y040754D01*
X024056Y040658D01*
X024043Y040555D01*
X024056Y040451D01*
X024096Y040355D01*
X024159Y040273D01*
X024242Y040209D01*
X024338Y04017D01*
X024441Y040156D01*
X024545Y04017D01*
X024641Y040209D01*
X024723Y040273D01*
X024787Y040355D01*
X024826Y040451D01*
X02484Y040555D01*
X024826Y040658D01*
X024787Y040754D01*
X024723Y040837D01*
X024641Y0409D01*
X024545Y04094D01*
X024441Y040953D01*
D02*
G37*
G36*
Y039953D02*
X024338Y03994D01*
X024242Y0399D01*
X024159Y039837D01*
X024096Y039754D01*
X024056Y039658D01*
X024043Y039555D01*
X024056Y039451D01*
X024096Y039355D01*
X024159Y039273D01*
X024242Y039209D01*
X024338Y03917D01*
X024441Y039156D01*
X024545Y03917D01*
X024641Y039209D01*
X024723Y039273D01*
X024787Y039355D01*
X024826Y039451D01*
X02484Y039555D01*
X024826Y039658D01*
X024787Y039754D01*
X024723Y039837D01*
X024641Y0399D01*
X024545Y03994D01*
X024441Y039953D01*
D02*
G37*
G36*
X025441Y038953D02*
X025338Y03894D01*
X025242Y0389D01*
X025159Y038837D01*
X025096Y038754D01*
X025056Y038658D01*
X025043Y038555D01*
X025056Y038451D01*
X025096Y038355D01*
X025159Y038273D01*
X025242Y038209D01*
X025338Y03817D01*
X025441Y038156D01*
X025545Y03817D01*
X025641Y038209D01*
X025723Y038273D01*
X025787Y038355D01*
X025826Y038451D01*
X02584Y038555D01*
X025826Y038658D01*
X025787Y038754D01*
X025723Y038837D01*
X025641Y0389D01*
X025545Y03894D01*
X025441Y038953D01*
D02*
G37*
G36*
X024441D02*
X024338Y03894D01*
X024242Y0389D01*
X024159Y038837D01*
X024096Y038754D01*
X024056Y038658D01*
X024043Y038555D01*
X024056Y038451D01*
X024096Y038355D01*
X024159Y038273D01*
X024242Y038209D01*
X024338Y03817D01*
X024441Y038156D01*
X024545Y03817D01*
X024641Y038209D01*
X024723Y038273D01*
X024787Y038355D01*
X024826Y038451D01*
X02484Y038555D01*
X024826Y038658D01*
X024787Y038754D01*
X024723Y038837D01*
X024641Y0389D01*
X024545Y03894D01*
X024441Y038953D01*
D02*
G37*
G36*
X018587Y03886D02*
X017796D01*
Y038069D01*
X018587D01*
Y03886D01*
D02*
G37*
G36*
X019191Y038863D02*
X019088Y03885D01*
X018992Y03881D01*
X018909Y038747D01*
X018846Y038664D01*
X018806Y038568D01*
X018793Y038465D01*
X018806Y038361D01*
X018846Y038265D01*
X018909Y038183D01*
X018992Y038119D01*
X019088Y03808D01*
X019191Y038066D01*
X019295Y03808D01*
X019391Y038119D01*
X019473Y038183D01*
X019537Y038265D01*
X019576Y038361D01*
X01959Y038465D01*
X019576Y038568D01*
X019537Y038664D01*
X019473Y038747D01*
X019391Y03881D01*
X019295Y03885D01*
X019191Y038863D01*
D02*
G37*
G36*
X025441Y037953D02*
X025338Y03794D01*
X025242Y0379D01*
X025159Y037837D01*
X025096Y037754D01*
X025056Y037658D01*
X025043Y037555D01*
X025056Y037451D01*
X025096Y037355D01*
X025159Y037273D01*
X025242Y037209D01*
X025338Y03717D01*
X025441Y037156D01*
X025545Y03717D01*
X025641Y037209D01*
X025723Y037273D01*
X025787Y037355D01*
X025826Y037451D01*
X02584Y037555D01*
X025826Y037658D01*
X025787Y037754D01*
X025723Y037837D01*
X025641Y0379D01*
X025545Y03794D01*
X025441Y037953D01*
D02*
G37*
G36*
Y036953D02*
X025338Y03694D01*
X025242Y0369D01*
X025159Y036837D01*
X025096Y036754D01*
X025056Y036658D01*
X025043Y036555D01*
X025056Y036451D01*
X025096Y036355D01*
X025159Y036273D01*
X025242Y036209D01*
X025338Y03617D01*
X025441Y036156D01*
X025545Y03617D01*
X025641Y036209D01*
X025723Y036273D01*
X025787Y036355D01*
X025826Y036451D01*
X02584Y036555D01*
X025826Y036658D01*
X025787Y036754D01*
X025723Y036837D01*
X025641Y0369D01*
X025545Y03694D01*
X025441Y036953D01*
D02*
G37*
G36*
X024441D02*
X024338Y03694D01*
X024242Y0369D01*
X024159Y036837D01*
X024096Y036754D01*
X024056Y036658D01*
X024043Y036555D01*
X024056Y036451D01*
X024096Y036355D01*
X024159Y036273D01*
X024242Y036209D01*
X024338Y03617D01*
X024441Y036156D01*
X024545Y03617D01*
X024641Y036209D01*
X024723Y036273D01*
X024787Y036355D01*
X024826Y036451D01*
X02484Y036555D01*
X024826Y036658D01*
X024787Y036754D01*
X024723Y036837D01*
X024641Y0369D01*
X024545Y03694D01*
X024441Y036953D01*
D02*
G37*
G36*
Y035953D02*
X024338Y03594D01*
X024242Y0359D01*
X024159Y035837D01*
X024096Y035754D01*
X024056Y035658D01*
X024043Y035555D01*
X024056Y035451D01*
X024096Y035355D01*
X024159Y035273D01*
X024242Y035209D01*
X024338Y03517D01*
X024441Y035156D01*
X024545Y03517D01*
X024641Y035209D01*
X024723Y035273D01*
X024787Y035355D01*
X024826Y035451D01*
X02484Y035555D01*
X024826Y035658D01*
X024787Y035754D01*
X024723Y035837D01*
X024641Y0359D01*
X024545Y03594D01*
X024441Y035953D01*
D02*
G37*
G36*
X010651Y036373D02*
X010583Y036359D01*
X010525Y036321D01*
X010486Y036263D01*
X010473Y036195D01*
X010486Y036126D01*
X010525Y036068D01*
X010528Y036066D01*
Y034421D01*
X010516Y034403D01*
X010503Y034335D01*
X010516Y034266D01*
X010555Y034208D01*
X010613Y03417D01*
X010681Y034156D01*
X01075Y03417D01*
X010808Y034208D01*
X010846Y034266D01*
X01086Y034335D01*
X010846Y034403D01*
X010834Y034421D01*
Y036165D01*
X010829Y036191D01*
X01083Y036195D01*
X010816Y036263D01*
X010778Y036321D01*
X01072Y036359D01*
X010651Y036373D01*
D02*
G37*
G36*
X025441Y034953D02*
X025338Y03494D01*
X025242Y0349D01*
X025159Y034837D01*
X025096Y034754D01*
X025056Y034658D01*
X025043Y034555D01*
X025056Y034451D01*
X025096Y034355D01*
X025159Y034273D01*
X025242Y034209D01*
X025338Y03417D01*
X025441Y034156D01*
X025545Y03417D01*
X025641Y034209D01*
X025723Y034273D01*
X025787Y034355D01*
X025826Y034451D01*
X02584Y034555D01*
X025826Y034658D01*
X025787Y034754D01*
X025723Y034837D01*
X025641Y0349D01*
X025545Y03494D01*
X025441Y034953D01*
D02*
G37*
G36*
X024441D02*
X024338Y03494D01*
X024242Y0349D01*
X024159Y034837D01*
X024096Y034754D01*
X024056Y034658D01*
X024043Y034555D01*
X024056Y034451D01*
X024096Y034355D01*
X024159Y034273D01*
X024242Y034209D01*
X024338Y03417D01*
X024441Y034156D01*
X024545Y03417D01*
X024641Y034209D01*
X024723Y034273D01*
X024787Y034355D01*
X024826Y034451D01*
X02484Y034555D01*
X024826Y034658D01*
X024787Y034754D01*
X024723Y034837D01*
X024641Y0349D01*
X024545Y03494D01*
X024441Y034953D01*
D02*
G37*
G36*
X022587Y03486D02*
X021796D01*
Y034069D01*
X022587D01*
Y03486D01*
D02*
G37*
G36*
X005587D02*
X004796D01*
Y034069D01*
X005587D01*
Y03486D01*
D02*
G37*
G36*
X006191Y034863D02*
X006088Y03485D01*
X005992Y03481D01*
X005909Y034747D01*
X005846Y034664D01*
X005806Y034568D01*
X005793Y034465D01*
X005806Y034361D01*
X005846Y034265D01*
X005909Y034183D01*
X005992Y034119D01*
X006088Y03408D01*
X006191Y034066D01*
X006295Y03408D01*
X006391Y034119D01*
X006473Y034183D01*
X006537Y034265D01*
X006576Y034361D01*
X00659Y034465D01*
X006576Y034568D01*
X006537Y034664D01*
X006473Y034747D01*
X006391Y03481D01*
X006295Y03485D01*
X006191Y034863D01*
D02*
G37*
G36*
X025441Y033953D02*
X025338Y03394D01*
X025242Y0339D01*
X025159Y033837D01*
X025096Y033754D01*
X025056Y033658D01*
X025043Y033555D01*
X025056Y033451D01*
X025096Y033355D01*
X025159Y033273D01*
X025242Y033209D01*
X025338Y03317D01*
X025441Y033156D01*
X025545Y03317D01*
X025641Y033209D01*
X025723Y033273D01*
X025787Y033355D01*
X025826Y033451D01*
X02584Y033555D01*
X025826Y033658D01*
X025787Y033754D01*
X025723Y033837D01*
X025641Y0339D01*
X025545Y03394D01*
X025441Y033953D01*
D02*
G37*
G36*
X024441D02*
X024338Y03394D01*
X024242Y0339D01*
X024159Y033837D01*
X024096Y033754D01*
X024056Y033658D01*
X024043Y033555D01*
X024056Y033451D01*
X024096Y033355D01*
X024159Y033273D01*
X024242Y033209D01*
X024338Y03317D01*
X024441Y033156D01*
X024545Y03317D01*
X024641Y033209D01*
X024723Y033273D01*
X024787Y033355D01*
X024826Y033451D01*
X02484Y033555D01*
X024826Y033658D01*
X024787Y033754D01*
X024723Y033837D01*
X024641Y0339D01*
X024545Y03394D01*
X024441Y033953D01*
D02*
G37*
G36*
X023191Y033863D02*
X023088Y03385D01*
X022992Y03381D01*
X022909Y033747D01*
X022846Y033664D01*
X022806Y033568D01*
X022793Y033465D01*
X022806Y033361D01*
X022846Y033265D01*
X022909Y033183D01*
X022992Y033119D01*
X023088Y03308D01*
X023191Y033066D01*
X023295Y03308D01*
X023391Y033119D01*
X023473Y033183D01*
X023537Y033265D01*
X023576Y033361D01*
X02359Y033465D01*
X023576Y033568D01*
X023537Y033664D01*
X023473Y033747D01*
X023391Y03381D01*
X023295Y03385D01*
X023191Y033863D01*
D02*
G37*
G36*
X022191D02*
X022088Y03385D01*
X021992Y03381D01*
X021909Y033747D01*
X021846Y033664D01*
X021806Y033568D01*
X021793Y033465D01*
X021806Y033361D01*
X021846Y033265D01*
X021909Y033183D01*
X021992Y033119D01*
X022088Y03308D01*
X022191Y033066D01*
X022295Y03308D01*
X022391Y033119D01*
X022473Y033183D01*
X022537Y033265D01*
X022576Y033361D01*
X02259Y033465D01*
X022576Y033568D01*
X022537Y033664D01*
X022473Y033747D01*
X022391Y03381D01*
X022295Y03385D01*
X022191Y033863D01*
D02*
G37*
G36*
X005191D02*
X005088Y03385D01*
X004992Y03381D01*
X004909Y033747D01*
X004846Y033664D01*
X004806Y033568D01*
X004793Y033465D01*
X004806Y033361D01*
X004846Y033265D01*
X004909Y033183D01*
X004992Y033119D01*
X005088Y03308D01*
X005191Y033066D01*
X005295Y03308D01*
X005391Y033119D01*
X005473Y033183D01*
X005537Y033265D01*
X005576Y033361D01*
X00559Y033465D01*
X005576Y033568D01*
X005537Y033664D01*
X005473Y033747D01*
X005391Y03381D01*
X005295Y03385D01*
X005191Y033863D01*
D02*
G37*
G36*
X024441Y032953D02*
X024338Y03294D01*
X024242Y0329D01*
X024159Y032837D01*
X024096Y032754D01*
X024056Y032658D01*
X024043Y032555D01*
X024056Y032451D01*
X024096Y032355D01*
X024159Y032273D01*
X024242Y032209D01*
X024338Y03217D01*
X024441Y032156D01*
X024545Y03217D01*
X024641Y032209D01*
X024723Y032273D01*
X024787Y032355D01*
X024826Y032451D01*
X02484Y032555D01*
X024826Y032658D01*
X024787Y032754D01*
X024723Y032837D01*
X024641Y0329D01*
X024545Y03294D01*
X024441Y032953D01*
D02*
G37*
G36*
X023191Y032863D02*
X023088Y03285D01*
X022992Y03281D01*
X022909Y032747D01*
X022846Y032664D01*
X022806Y032568D01*
X022793Y032465D01*
X022806Y032361D01*
X022846Y032265D01*
X022909Y032183D01*
X022992Y032119D01*
X023088Y03208D01*
X023191Y032066D01*
X023295Y03208D01*
X023391Y032119D01*
X023473Y032183D01*
X023537Y032265D01*
X023576Y032361D01*
X02359Y032465D01*
X023576Y032568D01*
X023537Y032664D01*
X023473Y032747D01*
X023391Y03281D01*
X023295Y03285D01*
X023191Y032863D01*
D02*
G37*
G36*
X022191D02*
X022088Y03285D01*
X021992Y03281D01*
X021909Y032747D01*
X021846Y032664D01*
X021806Y032568D01*
X021793Y032465D01*
X021806Y032361D01*
X021846Y032265D01*
X021909Y032183D01*
X021992Y032119D01*
X022088Y03208D01*
X022191Y032066D01*
X022295Y03208D01*
X022391Y032119D01*
X022473Y032183D01*
X022537Y032265D01*
X022576Y032361D01*
X02259Y032465D01*
X022576Y032568D01*
X022537Y032664D01*
X022473Y032747D01*
X022391Y03281D01*
X022295Y03285D01*
X022191Y032863D01*
D02*
G37*
G36*
X009891Y036343D02*
X009823Y036329D01*
X009765Y036291D01*
X009726Y036233D01*
X009722Y036212D01*
X006341Y032831D01*
X006295Y03285D01*
X006191Y032863D01*
X006088Y03285D01*
X005992Y03281D01*
X005909Y032747D01*
X005846Y032664D01*
X005806Y032568D01*
X005793Y032465D01*
X005806Y032361D01*
X005846Y032265D01*
X005909Y032183D01*
X005981Y032128D01*
X00597Y032081D01*
X005968Y032078D01*
X005795D01*
X005557Y032315D01*
X005576Y032361D01*
X00559Y032465D01*
X005576Y032568D01*
X005537Y032664D01*
X005473Y032747D01*
X005391Y03281D01*
X005295Y03285D01*
X005191Y032863D01*
X005088Y03285D01*
X004992Y03281D01*
X004909Y032747D01*
X004846Y032664D01*
X004806Y032568D01*
X004793Y032465D01*
X004806Y032361D01*
X004846Y032265D01*
X004909Y032183D01*
X004992Y032119D01*
X005088Y03208D01*
X005191Y032066D01*
X005295Y03208D01*
X005341Y032099D01*
X005623Y031816D01*
X005673Y031783D01*
X005731Y031772D01*
X005866D01*
X00589Y031722D01*
X005846Y031664D01*
X005806Y031568D01*
X005793Y031465D01*
X005806Y031361D01*
X005846Y031265D01*
X005898Y031198D01*
X005878Y031148D01*
X005725D01*
X005557Y031315D01*
X005576Y031361D01*
X00559Y031465D01*
X005576Y031568D01*
X005537Y031664D01*
X005473Y031747D01*
X005391Y03181D01*
X005295Y03185D01*
X005191Y031863D01*
X005088Y03185D01*
X004992Y03181D01*
X004909Y031747D01*
X004846Y031664D01*
X004806Y031568D01*
X004793Y031465D01*
X004806Y031361D01*
X004846Y031265D01*
X004909Y031183D01*
X004992Y031119D01*
X005088Y03108D01*
X005191Y031066D01*
X005295Y03108D01*
X005341Y031099D01*
X005553Y030886D01*
X005603Y030853D01*
X005661Y030842D01*
X005951D01*
X005968Y030792D01*
X005909Y030747D01*
X005846Y030664D01*
X005806Y030568D01*
X005793Y030465D01*
X005806Y030361D01*
X005846Y030265D01*
X005909Y030183D01*
X005992Y030119D01*
X006088Y03008D01*
X006191Y030066D01*
X006295Y03008D01*
X006391Y030119D01*
X006473Y030183D01*
X006537Y030265D01*
X006576Y030361D01*
X00659Y030465D01*
X006576Y030568D01*
X006537Y030664D01*
X006473Y030747D01*
X006414Y030792D01*
X006431Y030842D01*
X007578D01*
X015095Y023324D01*
X015076Y023278D01*
X015063Y023175D01*
X015076Y023071D01*
X015116Y022975D01*
X015179Y022893D01*
X015262Y022829D01*
X015358Y02279D01*
X015461Y022776D01*
X015565Y02279D01*
X015661Y022829D01*
X015743Y022893D01*
X015807Y022975D01*
X015827Y023024D01*
X015889Y023043D01*
X015903Y023033D01*
X015961Y023022D01*
X016097D01*
X016116Y022975D01*
X016179Y022893D01*
X016262Y022829D01*
X016358Y02279D01*
X016461Y022776D01*
X016565Y02279D01*
X016661Y022829D01*
X016743Y022893D01*
X016807Y022975D01*
X016846Y023071D01*
X01686Y023175D01*
X016846Y023278D01*
X016807Y023374D01*
X016743Y023457D01*
X016661Y02352D01*
X016565Y02356D01*
X016461Y023573D01*
X016358Y02356D01*
X016262Y02352D01*
X016179Y023457D01*
X016116Y023374D01*
X016097Y023328D01*
X01604D01*
Y023351D01*
X016028Y023409D01*
X015995Y023459D01*
X015746Y023708D01*
X015696Y023741D01*
X015637Y023753D01*
X015599D01*
X007319Y032033D01*
X00727Y032066D01*
X007211Y032078D01*
X006414D01*
X006412Y032081D01*
X006401Y032128D01*
X006473Y032183D01*
X006537Y032265D01*
X006576Y032361D01*
X00659Y032465D01*
X006576Y032568D01*
X006557Y032614D01*
X007447Y033504D01*
X007492Y033482D01*
X007491Y033472D01*
X007503Y033381D01*
X007538Y033296D01*
X007594Y033222D01*
X007667Y033166D01*
X007753Y033131D01*
X007844Y033119D01*
X007901Y033127D01*
X008948Y032079D01*
X008944Y032014D01*
X008932Y032004D01*
X008876Y031931D01*
X00884Y031846D01*
X008828Y031755D01*
X00884Y031663D01*
X008876Y031578D01*
X008932Y031505D01*
X009005Y031449D01*
X00909Y031414D01*
X009181Y031402D01*
X009273Y031414D01*
X009358Y031449D01*
X009431Y031505D01*
X009487Y031578D01*
X009522Y031663D01*
X009534Y031755D01*
X009522Y031846D01*
X009487Y031931D01*
X009431Y032004D01*
X009385Y032039D01*
Y032135D01*
X00937Y032213D01*
X009326Y032279D01*
X008189Y033415D01*
X008197Y033472D01*
X008185Y033563D01*
X00815Y033649D01*
X008094Y033722D01*
X00802Y033778D01*
X007935Y033813D01*
X007844Y033825D01*
X007834Y033824D01*
X007811Y033869D01*
X009939Y035996D01*
X00996Y036D01*
X010018Y036038D01*
X010056Y036096D01*
X01007Y036165D01*
X010056Y036233D01*
X010018Y036291D01*
X00996Y036329D01*
X009891Y036343D01*
D02*
G37*
G36*
X025441Y031953D02*
X025338Y03194D01*
X025242Y0319D01*
X025159Y031837D01*
X025096Y031754D01*
X025056Y031658D01*
X025043Y031555D01*
X025056Y031451D01*
X025096Y031355D01*
X025159Y031273D01*
X025242Y031209D01*
X025338Y03117D01*
X025441Y031156D01*
X025545Y03117D01*
X025641Y031209D01*
X025723Y031273D01*
X025787Y031355D01*
X025826Y031451D01*
X02584Y031555D01*
X025826Y031658D01*
X025787Y031754D01*
X025723Y031837D01*
X025641Y0319D01*
X025545Y03194D01*
X025441Y031953D01*
D02*
G37*
G36*
X024441D02*
X024338Y03194D01*
X024242Y0319D01*
X024159Y031837D01*
X024096Y031754D01*
X024056Y031658D01*
X024043Y031555D01*
X024056Y031451D01*
X024096Y031355D01*
X024159Y031273D01*
X024242Y031209D01*
X024338Y03117D01*
X024441Y031156D01*
X024545Y03117D01*
X024641Y031209D01*
X024723Y031273D01*
X024787Y031355D01*
X024826Y031451D01*
X02484Y031555D01*
X024826Y031658D01*
X024787Y031754D01*
X024723Y031837D01*
X024641Y0319D01*
X024545Y03194D01*
X024441Y031953D01*
D02*
G37*
G36*
X023191Y031863D02*
X023088Y03185D01*
X022992Y03181D01*
X022909Y031747D01*
X022846Y031664D01*
X022806Y031568D01*
X022793Y031465D01*
X022806Y031361D01*
X022846Y031265D01*
X022909Y031183D01*
X022992Y031119D01*
X023088Y03108D01*
X023191Y031066D01*
X023295Y03108D01*
X023391Y031119D01*
X023473Y031183D01*
X023537Y031265D01*
X023576Y031361D01*
X02359Y031465D01*
X023576Y031568D01*
X023537Y031664D01*
X023473Y031747D01*
X023391Y03181D01*
X023295Y03185D01*
X023191Y031863D01*
D02*
G37*
G36*
X022191D02*
X022088Y03185D01*
X021992Y03181D01*
X021909Y031747D01*
X021846Y031664D01*
X021806Y031568D01*
X021793Y031465D01*
X021806Y031361D01*
X021846Y031265D01*
X021909Y031183D01*
X021992Y031119D01*
X022088Y03108D01*
X022191Y031066D01*
X022295Y03108D01*
X022391Y031119D01*
X022473Y031183D01*
X022537Y031265D01*
X022576Y031361D01*
X02259Y031465D01*
X022576Y031568D01*
X022537Y031664D01*
X022473Y031747D01*
X022391Y03181D01*
X022295Y03185D01*
X022191Y031863D01*
D02*
G37*
G36*
X025441Y030953D02*
X025338Y03094D01*
X025242Y0309D01*
X025159Y030837D01*
X025096Y030754D01*
X025056Y030658D01*
X025043Y030555D01*
X025056Y030451D01*
X025096Y030355D01*
X025159Y030273D01*
X025242Y030209D01*
X025338Y03017D01*
X025441Y030156D01*
X025545Y03017D01*
X025641Y030209D01*
X025723Y030273D01*
X025787Y030355D01*
X025826Y030451D01*
X02584Y030555D01*
X025826Y030658D01*
X025787Y030754D01*
X025723Y030837D01*
X025641Y0309D01*
X025545Y03094D01*
X025441Y030953D01*
D02*
G37*
G36*
X024441D02*
X024338Y03094D01*
X024242Y0309D01*
X024159Y030837D01*
X024096Y030754D01*
X024056Y030658D01*
X024043Y030555D01*
X024056Y030451D01*
X024096Y030355D01*
X024159Y030273D01*
X024242Y030209D01*
X024338Y03017D01*
X024441Y030156D01*
X024545Y03017D01*
X024641Y030209D01*
X024723Y030273D01*
X024787Y030355D01*
X024826Y030451D01*
X02484Y030555D01*
X024826Y030658D01*
X024787Y030754D01*
X024723Y030837D01*
X024641Y0309D01*
X024545Y03094D01*
X024441Y030953D01*
D02*
G37*
G36*
X023191Y030863D02*
X023088Y03085D01*
X022992Y03081D01*
X022909Y030747D01*
X022846Y030664D01*
X022806Y030568D01*
X022793Y030465D01*
X022806Y030361D01*
X022846Y030265D01*
X022909Y030183D01*
X022992Y030119D01*
X023088Y03008D01*
X023191Y030066D01*
X023295Y03008D01*
X023391Y030119D01*
X023473Y030183D01*
X023537Y030265D01*
X023576Y030361D01*
X02359Y030465D01*
X023576Y030568D01*
X023537Y030664D01*
X023473Y030747D01*
X023391Y03081D01*
X023295Y03085D01*
X023191Y030863D01*
D02*
G37*
G36*
X022191D02*
X022088Y03085D01*
X021992Y03081D01*
X021909Y030747D01*
X021846Y030664D01*
X021806Y030568D01*
X021793Y030465D01*
X021806Y030361D01*
X021825Y030315D01*
X019918Y028408D01*
X018237D01*
X01822Y028419D01*
X018151Y028433D01*
X018083Y028419D01*
X018025Y028381D01*
X017986Y028323D01*
X017973Y028255D01*
X017986Y028186D01*
X018025Y028128D01*
X018083Y02809D01*
X018151Y028076D01*
X01822Y02809D01*
X018237Y028102D01*
X019981D01*
X02004Y028113D01*
X020089Y028147D01*
X022042Y030099D01*
X022088Y03008D01*
X022191Y030066D01*
X022295Y03008D01*
X022391Y030119D01*
X022473Y030183D01*
X022537Y030265D01*
X022576Y030361D01*
X02259Y030465D01*
X022576Y030568D01*
X022537Y030664D01*
X022473Y030747D01*
X022391Y03081D01*
X022295Y03085D01*
X022191Y030863D01*
D02*
G37*
G36*
X005191D02*
X005088Y03085D01*
X004992Y03081D01*
X004909Y030747D01*
X004846Y030664D01*
X004806Y030568D01*
X004793Y030465D01*
X004806Y030361D01*
X004846Y030265D01*
X004909Y030183D01*
X004992Y030119D01*
X005088Y03008D01*
X005191Y030066D01*
X005295Y03008D01*
X005391Y030119D01*
X005473Y030183D01*
X005537Y030265D01*
X005576Y030361D01*
X00559Y030465D01*
X005576Y030568D01*
X005537Y030664D01*
X005473Y030747D01*
X005391Y03081D01*
X005295Y03085D01*
X005191Y030863D01*
D02*
G37*
G36*
X025441Y029953D02*
X025338Y02994D01*
X025242Y0299D01*
X025159Y029837D01*
X025096Y029754D01*
X025056Y029658D01*
X025043Y029555D01*
X025056Y029451D01*
X025096Y029355D01*
X025159Y029273D01*
X025242Y029209D01*
X025338Y02917D01*
X025441Y029156D01*
X025545Y02917D01*
X025641Y029209D01*
X025723Y029273D01*
X025787Y029355D01*
X025826Y029451D01*
X02584Y029555D01*
X025826Y029658D01*
X025787Y029754D01*
X025723Y029837D01*
X025641Y0299D01*
X025545Y02994D01*
X025441Y029953D01*
D02*
G37*
G36*
X023191Y029863D02*
X023088Y02985D01*
X022992Y02981D01*
X022909Y029747D01*
X022846Y029664D01*
X022806Y029568D01*
X022793Y029465D01*
X022806Y029361D01*
X022846Y029265D01*
X022909Y029183D01*
X022992Y029119D01*
X023088Y02908D01*
X023191Y029066D01*
X023295Y02908D01*
X023391Y029119D01*
X023473Y029183D01*
X023537Y029265D01*
X023576Y029361D01*
X02359Y029465D01*
X023576Y029568D01*
X023537Y029664D01*
X023473Y029747D01*
X023391Y02981D01*
X023295Y02985D01*
X023191Y029863D01*
D02*
G37*
G36*
X022191D02*
X022088Y02985D01*
X021992Y02981D01*
X021909Y029747D01*
X021846Y029664D01*
X021806Y029568D01*
X021793Y029465D01*
X021806Y029361D01*
X021846Y029265D01*
X021909Y029183D01*
X021992Y029119D01*
X022088Y02908D01*
X022191Y029066D01*
X022295Y02908D01*
X022391Y029119D01*
X022473Y029183D01*
X022537Y029265D01*
X022576Y029361D01*
X02259Y029465D01*
X022576Y029568D01*
X022537Y029664D01*
X022473Y029747D01*
X022391Y02981D01*
X022295Y02985D01*
X022191Y029863D01*
D02*
G37*
G36*
X006191D02*
X006088Y02985D01*
X005992Y02981D01*
X005909Y029747D01*
X005846Y029664D01*
X005806Y029568D01*
X005793Y029465D01*
X005806Y029361D01*
X005846Y029265D01*
X005909Y029183D01*
X005992Y029119D01*
X006088Y02908D01*
X006191Y029066D01*
X006295Y02908D01*
X006391Y029119D01*
X006473Y029183D01*
X006537Y029265D01*
X006576Y029361D01*
X00659Y029465D01*
X006576Y029568D01*
X006537Y029664D01*
X006473Y029747D01*
X006391Y02981D01*
X006295Y02985D01*
X006191Y029863D01*
D02*
G37*
G36*
X005191D02*
X005088Y02985D01*
X004992Y02981D01*
X004909Y029747D01*
X004846Y029664D01*
X004806Y029568D01*
X004793Y029465D01*
X004806Y029361D01*
X004846Y029265D01*
X004909Y029183D01*
X004992Y029119D01*
X005088Y02908D01*
X005191Y029066D01*
X005295Y02908D01*
X005391Y029119D01*
X005473Y029183D01*
X005537Y029265D01*
X005576Y029361D01*
X00559Y029465D01*
X005576Y029568D01*
X005537Y029664D01*
X005473Y029747D01*
X005391Y02981D01*
X005295Y02985D01*
X005191Y029863D01*
D02*
G37*
G36*
X018991Y029723D02*
X018923Y029709D01*
X018865Y029671D01*
X018826Y029613D01*
X018813Y029545D01*
X018826Y029476D01*
X018838Y029459D01*
Y028941D01*
X018806Y028893D01*
X018793Y028825D01*
X018806Y028756D01*
X018845Y028698D01*
X018903Y02866D01*
X018971Y028646D01*
X01904Y02866D01*
X019098Y028698D01*
X019136Y028756D01*
X01915Y028825D01*
X019144Y028852D01*
Y029459D01*
X019156Y029476D01*
X01917Y029545D01*
X019156Y029613D01*
X019118Y029671D01*
X01906Y029709D01*
X018991Y029723D01*
D02*
G37*
G36*
X025441Y028953D02*
X025338Y02894D01*
X025242Y0289D01*
X025159Y028837D01*
X025096Y028754D01*
X025056Y028658D01*
X025043Y028555D01*
X025056Y028451D01*
X025096Y028355D01*
X025159Y028273D01*
X025242Y028209D01*
X025338Y02817D01*
X025441Y028156D01*
X025545Y02817D01*
X025641Y028209D01*
X025723Y028273D01*
X025787Y028355D01*
X025826Y028451D01*
X02584Y028555D01*
X025826Y028658D01*
X025787Y028754D01*
X025723Y028837D01*
X025641Y0289D01*
X025545Y02894D01*
X025441Y028953D01*
D02*
G37*
G36*
X024441D02*
X024338Y02894D01*
X024242Y0289D01*
X024159Y028837D01*
X024096Y028754D01*
X024056Y028658D01*
X024043Y028555D01*
X024056Y028451D01*
X024096Y028355D01*
X024159Y028273D01*
X024242Y028209D01*
X024338Y02817D01*
X024441Y028156D01*
X024545Y02817D01*
X024641Y028209D01*
X024723Y028273D01*
X024787Y028355D01*
X024826Y028451D01*
X02484Y028555D01*
X024826Y028658D01*
X024787Y028754D01*
X024723Y028837D01*
X024641Y0289D01*
X024545Y02894D01*
X024441Y028953D01*
D02*
G37*
G36*
X023191Y028863D02*
X023088Y02885D01*
X022992Y02881D01*
X022909Y028747D01*
X022846Y028664D01*
X022806Y028568D01*
X022793Y028465D01*
X022806Y028361D01*
X022846Y028265D01*
X022909Y028183D01*
X022992Y028119D01*
X023088Y02808D01*
X023191Y028066D01*
X023295Y02808D01*
X023391Y028119D01*
X023473Y028183D01*
X023537Y028265D01*
X023576Y028361D01*
X02359Y028465D01*
X023576Y028568D01*
X023537Y028664D01*
X023473Y028747D01*
X023391Y02881D01*
X023295Y02885D01*
X023191Y028863D01*
D02*
G37*
G36*
X022191D02*
X022088Y02885D01*
X021992Y02881D01*
X021909Y028747D01*
X021846Y028664D01*
X021806Y028568D01*
X021793Y028465D01*
X021806Y028361D01*
X021846Y028265D01*
X021909Y028183D01*
X021992Y028119D01*
X022088Y02808D01*
X022191Y028066D01*
X022295Y02808D01*
X022391Y028119D01*
X022473Y028183D01*
X022537Y028265D01*
X022576Y028361D01*
X02259Y028465D01*
X022576Y028568D01*
X022537Y028664D01*
X022473Y028747D01*
X022391Y02881D01*
X022295Y02885D01*
X022191Y028863D01*
D02*
G37*
G36*
X006191D02*
X006088Y02885D01*
X005992Y02881D01*
X005909Y028747D01*
X005846Y028664D01*
X005806Y028568D01*
X005793Y028465D01*
X005806Y028361D01*
X005846Y028265D01*
X005909Y028183D01*
X005992Y028119D01*
X006088Y02808D01*
X006191Y028066D01*
X006295Y02808D01*
X006391Y028119D01*
X006473Y028183D01*
X006537Y028265D01*
X006576Y028361D01*
X00659Y028465D01*
X006576Y028568D01*
X006537Y028664D01*
X006473Y028747D01*
X006391Y02881D01*
X006295Y02885D01*
X006191Y028863D01*
D02*
G37*
G36*
X005191D02*
X005088Y02885D01*
X004992Y02881D01*
X004909Y028747D01*
X004846Y028664D01*
X004806Y028568D01*
X004793Y028465D01*
X004806Y028361D01*
X004846Y028265D01*
X004909Y028183D01*
X004992Y028119D01*
X005088Y02808D01*
X005191Y028066D01*
X005295Y02808D01*
X005391Y028119D01*
X005473Y028183D01*
X005537Y028265D01*
X005576Y028361D01*
X00559Y028465D01*
X005576Y028568D01*
X005537Y028664D01*
X005473Y028747D01*
X005391Y02881D01*
X005295Y02885D01*
X005191Y028863D01*
D02*
G37*
G36*
X024441Y027953D02*
X024338Y02794D01*
X024242Y0279D01*
X024159Y027837D01*
X024096Y027754D01*
X024056Y027658D01*
X024043Y027555D01*
X024056Y027451D01*
X024096Y027355D01*
X024159Y027273D01*
X024242Y027209D01*
X024338Y02717D01*
X024441Y027156D01*
X024545Y02717D01*
X024641Y027209D01*
X024723Y027273D01*
X024787Y027355D01*
X024826Y027451D01*
X02484Y027555D01*
X024826Y027658D01*
X024787Y027754D01*
X024723Y027837D01*
X024641Y0279D01*
X024545Y02794D01*
X024441Y027953D01*
D02*
G37*
G36*
X023191Y027863D02*
X023088Y02785D01*
X022992Y02781D01*
X022909Y027747D01*
X022846Y027664D01*
X022806Y027568D01*
X022793Y027465D01*
X022806Y027361D01*
X022846Y027265D01*
X022909Y027183D01*
X022992Y027119D01*
X023088Y02708D01*
X023191Y027066D01*
X023295Y02708D01*
X023391Y027119D01*
X023473Y027183D01*
X023537Y027265D01*
X023576Y027361D01*
X02359Y027465D01*
X023576Y027568D01*
X023537Y027664D01*
X023473Y027747D01*
X023391Y02781D01*
X023295Y02785D01*
X023191Y027863D01*
D02*
G37*
G36*
X015341Y030463D02*
X015273Y030449D01*
X015215Y030411D01*
X015176Y030353D01*
X015163Y030285D01*
X015176Y030216D01*
X015188Y030199D01*
Y028635D01*
X0152Y028576D01*
X015233Y028526D01*
X015343Y028417D01*
X015343Y028417D01*
X016403Y027357D01*
X016453Y027323D01*
X016511Y027312D01*
X021827D01*
X021846Y027265D01*
X021909Y027183D01*
X021992Y027119D01*
X022088Y02708D01*
X022191Y027066D01*
X022295Y02708D01*
X022391Y027119D01*
X022473Y027183D01*
X022537Y027265D01*
X022576Y027361D01*
X02259Y027465D01*
X022576Y027568D01*
X022537Y027664D01*
X022473Y027747D01*
X022391Y02781D01*
X022295Y02785D01*
X022191Y027863D01*
X022088Y02785D01*
X021992Y02781D01*
X021909Y027747D01*
X021846Y027664D01*
X021827Y027618D01*
X016575D01*
X015559Y028633D01*
X015559Y028633D01*
X015494Y028698D01*
Y030169D01*
X015513Y030196D01*
X015524Y030255D01*
X015519Y030281D01*
X01552Y030285D01*
X015506Y030353D01*
X015468Y030411D01*
X01541Y030449D01*
X015341Y030463D01*
D02*
G37*
G36*
X006191Y027863D02*
X006088Y02785D01*
X005992Y02781D01*
X005909Y027747D01*
X005846Y027664D01*
X005806Y027568D01*
X005793Y027465D01*
X005806Y027361D01*
X005846Y027265D01*
X005909Y027183D01*
X005992Y027119D01*
X006088Y02708D01*
X006191Y027066D01*
X006295Y02708D01*
X006391Y027119D01*
X006473Y027183D01*
X006537Y027265D01*
X006576Y027361D01*
X00659Y027465D01*
X006576Y027568D01*
X006537Y027664D01*
X006473Y027747D01*
X006391Y02781D01*
X006295Y02785D01*
X006191Y027863D01*
D02*
G37*
G36*
X005191D02*
X005088Y02785D01*
X004992Y02781D01*
X004909Y027747D01*
X004846Y027664D01*
X004806Y027568D01*
X004793Y027465D01*
X004806Y027361D01*
X004846Y027265D01*
X004909Y027183D01*
X004992Y027119D01*
X005088Y02708D01*
X005191Y027066D01*
X005295Y02708D01*
X005391Y027119D01*
X005473Y027183D01*
X005537Y027265D01*
X005576Y027361D01*
X00559Y027465D01*
X005576Y027568D01*
X005537Y027664D01*
X005473Y027747D01*
X005391Y02781D01*
X005295Y02785D01*
X005191Y027863D01*
D02*
G37*
G36*
X025441Y026953D02*
X025338Y02694D01*
X025242Y0269D01*
X025159Y026837D01*
X025096Y026754D01*
X025056Y026658D01*
X025043Y026555D01*
X025056Y026451D01*
X025096Y026355D01*
X025159Y026273D01*
X025242Y026209D01*
X025338Y02617D01*
X025441Y026156D01*
X025545Y02617D01*
X025641Y026209D01*
X025723Y026273D01*
X025787Y026355D01*
X025826Y026451D01*
X02584Y026555D01*
X025826Y026658D01*
X025787Y026754D01*
X025723Y026837D01*
X025641Y0269D01*
X025545Y02694D01*
X025441Y026953D01*
D02*
G37*
G36*
X024441D02*
X024338Y02694D01*
X024242Y0269D01*
X024159Y026837D01*
X024096Y026754D01*
X024056Y026658D01*
X024043Y026555D01*
X024056Y026451D01*
X024096Y026355D01*
X024159Y026273D01*
X024242Y026209D01*
X024338Y02617D01*
X024441Y026156D01*
X024545Y02617D01*
X024641Y026209D01*
X024723Y026273D01*
X024787Y026355D01*
X024826Y026451D01*
X02484Y026555D01*
X024826Y026658D01*
X024787Y026754D01*
X024723Y026837D01*
X024641Y0269D01*
X024545Y02694D01*
X024441Y026953D01*
D02*
G37*
G36*
X023191Y026863D02*
X023088Y02685D01*
X022992Y02681D01*
X022909Y026747D01*
X022846Y026664D01*
X022806Y026568D01*
X022793Y026465D01*
X022806Y026361D01*
X022846Y026265D01*
X022909Y026183D01*
X022992Y026119D01*
X023088Y02608D01*
X023191Y026066D01*
X023295Y02608D01*
X023391Y026119D01*
X023473Y026183D01*
X023537Y026265D01*
X023576Y026361D01*
X02359Y026465D01*
X023576Y026568D01*
X023537Y026664D01*
X023473Y026747D01*
X023391Y02681D01*
X023295Y02685D01*
X023191Y026863D01*
D02*
G37*
G36*
X022191D02*
X022088Y02685D01*
X021992Y02681D01*
X021909Y026747D01*
X021846Y026664D01*
X021806Y026568D01*
X021793Y026465D01*
X021806Y026361D01*
X021846Y026265D01*
X021909Y026183D01*
X021992Y026119D01*
X022088Y02608D01*
X022191Y026066D01*
X022295Y02608D01*
X022391Y026119D01*
X022473Y026183D01*
X022537Y026265D01*
X022576Y026361D01*
X02259Y026465D01*
X022576Y026568D01*
X022537Y026664D01*
X022473Y026747D01*
X022391Y02681D01*
X022295Y02685D01*
X022191Y026863D01*
D02*
G37*
G36*
X006191D02*
X006088Y02685D01*
X005992Y02681D01*
X005909Y026747D01*
X005846Y026664D01*
X005806Y026568D01*
X005793Y026465D01*
X005806Y026361D01*
X005846Y026265D01*
X005909Y026183D01*
X005992Y026119D01*
X006088Y02608D01*
X006191Y026066D01*
X006295Y02608D01*
X006391Y026119D01*
X006473Y026183D01*
X006537Y026265D01*
X006576Y026361D01*
X00659Y026465D01*
X006576Y026568D01*
X006537Y026664D01*
X006473Y026747D01*
X006391Y02681D01*
X006295Y02685D01*
X006191Y026863D01*
D02*
G37*
G36*
X005191D02*
X005088Y02685D01*
X004992Y02681D01*
X004909Y026747D01*
X004846Y026664D01*
X004806Y026568D01*
X004793Y026465D01*
X004806Y026361D01*
X004846Y026265D01*
X004909Y026183D01*
X004992Y026119D01*
X005088Y02608D01*
X005191Y026066D01*
X005295Y02608D01*
X005391Y026119D01*
X005473Y026183D01*
X005537Y026265D01*
X005576Y026361D01*
X00559Y026465D01*
X005576Y026568D01*
X005537Y026664D01*
X005473Y026747D01*
X005391Y02681D01*
X005295Y02685D01*
X005191Y026863D01*
D02*
G37*
G36*
X024441Y025953D02*
X024338Y02594D01*
X024242Y0259D01*
X024159Y025837D01*
X024096Y025754D01*
X024056Y025658D01*
X024043Y025555D01*
X024056Y025451D01*
X024096Y025355D01*
X024159Y025273D01*
X024242Y025209D01*
X024338Y02517D01*
X024441Y025156D01*
X024545Y02517D01*
X024641Y025209D01*
X024723Y025273D01*
X024787Y025355D01*
X024826Y025451D01*
X02484Y025555D01*
X024826Y025658D01*
X024787Y025754D01*
X024723Y025837D01*
X024641Y0259D01*
X024545Y02594D01*
X024441Y025953D01*
D02*
G37*
G36*
X023191Y025863D02*
X023088Y02585D01*
X022992Y02581D01*
X022909Y025747D01*
X022846Y025664D01*
X022806Y025568D01*
X022793Y025465D01*
X022806Y025361D01*
X022846Y025265D01*
X022909Y025183D01*
X022992Y025119D01*
X023088Y02508D01*
X023191Y025066D01*
X023295Y02508D01*
X023391Y025119D01*
X023473Y025183D01*
X023537Y025265D01*
X023576Y025361D01*
X02359Y025465D01*
X023576Y025568D01*
X023537Y025664D01*
X023473Y025747D01*
X023391Y02581D01*
X023295Y02585D01*
X023191Y025863D01*
D02*
G37*
G36*
X022191D02*
X022088Y02585D01*
X021992Y02581D01*
X021909Y025747D01*
X021846Y025664D01*
X021806Y025568D01*
X021793Y025465D01*
X021806Y025361D01*
X021846Y025265D01*
X021909Y025183D01*
X021992Y025119D01*
X022088Y02508D01*
X022191Y025066D01*
X022295Y02508D01*
X022391Y025119D01*
X022473Y025183D01*
X022537Y025265D01*
X022576Y025361D01*
X02259Y025465D01*
X022576Y025568D01*
X022537Y025664D01*
X022473Y025747D01*
X022391Y02581D01*
X022295Y02585D01*
X022191Y025863D01*
D02*
G37*
G36*
X006191D02*
X006088Y02585D01*
X005992Y02581D01*
X005909Y025747D01*
X005846Y025664D01*
X005806Y025568D01*
X005793Y025465D01*
X005806Y025361D01*
X005846Y025265D01*
X005909Y025183D01*
X005992Y025119D01*
X006088Y02508D01*
X006191Y025066D01*
X006295Y02508D01*
X006391Y025119D01*
X006473Y025183D01*
X006537Y025265D01*
X006576Y025361D01*
X00659Y025465D01*
X006576Y025568D01*
X006537Y025664D01*
X006473Y025747D01*
X006391Y02581D01*
X006295Y02585D01*
X006191Y025863D01*
D02*
G37*
G36*
X005191D02*
X005088Y02585D01*
X004992Y02581D01*
X004909Y025747D01*
X004846Y025664D01*
X004806Y025568D01*
X004793Y025465D01*
X004806Y025361D01*
X004846Y025265D01*
X004909Y025183D01*
X004992Y025119D01*
X005088Y02508D01*
X005191Y025066D01*
X005295Y02508D01*
X005391Y025119D01*
X005473Y025183D01*
X005537Y025265D01*
X005576Y025361D01*
X00559Y025465D01*
X005576Y025568D01*
X005537Y025664D01*
X005473Y025747D01*
X005391Y02581D01*
X005295Y02585D01*
X005191Y025863D01*
D02*
G37*
G36*
X025441Y024953D02*
X025338Y02494D01*
X025242Y0249D01*
X025159Y024837D01*
X025096Y024754D01*
X025056Y024658D01*
X025043Y024555D01*
X025056Y024451D01*
X025096Y024355D01*
X025159Y024273D01*
X025242Y024209D01*
X025338Y02417D01*
X025441Y024156D01*
X025545Y02417D01*
X025641Y024209D01*
X025723Y024273D01*
X025787Y024355D01*
X025826Y024451D01*
X02584Y024555D01*
X025826Y024658D01*
X025787Y024754D01*
X025723Y024837D01*
X025641Y0249D01*
X025545Y02494D01*
X025441Y024953D01*
D02*
G37*
G36*
X024441D02*
X024338Y02494D01*
X024242Y0249D01*
X024159Y024837D01*
X024096Y024754D01*
X024056Y024658D01*
X024043Y024555D01*
X024056Y024451D01*
X024096Y024355D01*
X024159Y024273D01*
X024242Y024209D01*
X024338Y02417D01*
X024441Y024156D01*
X024545Y02417D01*
X024641Y024209D01*
X024723Y024273D01*
X024787Y024355D01*
X024826Y024451D01*
X02484Y024555D01*
X024826Y024658D01*
X024787Y024754D01*
X024723Y024837D01*
X024641Y0249D01*
X024545Y02494D01*
X024441Y024953D01*
D02*
G37*
G36*
X025441Y023953D02*
X025338Y02394D01*
X025242Y0239D01*
X025159Y023837D01*
X025096Y023754D01*
X025056Y023658D01*
X025043Y023555D01*
X025056Y023451D01*
X025096Y023355D01*
X025159Y023273D01*
X025242Y023209D01*
X025338Y02317D01*
X025441Y023156D01*
X025545Y02317D01*
X025641Y023209D01*
X025723Y023273D01*
X025787Y023355D01*
X025826Y023451D01*
X02584Y023555D01*
X025826Y023658D01*
X025787Y023754D01*
X025723Y023837D01*
X025641Y0239D01*
X025545Y02394D01*
X025441Y023953D01*
D02*
G37*
G36*
X024441D02*
X024338Y02394D01*
X024242Y0239D01*
X024159Y023837D01*
X024096Y023754D01*
X024056Y023658D01*
X024043Y023555D01*
X024056Y023451D01*
X024096Y023355D01*
X024159Y023273D01*
X024242Y023209D01*
X024338Y02317D01*
X024441Y023156D01*
X024545Y02317D01*
X024641Y023209D01*
X024723Y023273D01*
X024787Y023355D01*
X024826Y023451D01*
X02484Y023555D01*
X024826Y023658D01*
X024787Y023754D01*
X024723Y023837D01*
X024641Y0239D01*
X024545Y02394D01*
X024441Y023953D01*
D02*
G37*
G36*
X014461Y023573D02*
X014358Y02356D01*
X014262Y02352D01*
X014179Y023457D01*
X014116Y023374D01*
X014076Y023278D01*
X014063Y023175D01*
X014076Y023071D01*
X014116Y022975D01*
X014179Y022893D01*
X014262Y022829D01*
X014358Y02279D01*
X014461Y022776D01*
X014565Y02279D01*
X014661Y022829D01*
X014743Y022893D01*
X014807Y022975D01*
X014846Y023071D01*
X01486Y023175D01*
X014846Y023278D01*
X014807Y023374D01*
X014743Y023457D01*
X014661Y02352D01*
X014565Y02356D01*
X014461Y023573D01*
D02*
G37*
G36*
X025441Y022953D02*
X025338Y02294D01*
X025242Y0229D01*
X025159Y022837D01*
X025096Y022754D01*
X025056Y022658D01*
X025043Y022555D01*
X025056Y022451D01*
X025096Y022355D01*
X025159Y022273D01*
X025242Y022209D01*
X025338Y02217D01*
X025441Y022156D01*
X025545Y02217D01*
X025641Y022209D01*
X025723Y022273D01*
X025787Y022355D01*
X025826Y022451D01*
X02584Y022555D01*
X025826Y022658D01*
X025787Y022754D01*
X025723Y022837D01*
X025641Y0229D01*
X025545Y02294D01*
X025441Y022953D01*
D02*
G37*
G36*
X021861Y021799D02*
X021737Y021782D01*
X021622Y021735D01*
X021523Y021658D01*
X021446Y021559D01*
X021399Y021444D01*
X021387Y021352D01*
X021336D01*
X021324Y021444D01*
X021276Y021559D01*
X0212Y021658D01*
X021101Y021735D01*
X020985Y021782D01*
X020861Y021799D01*
X020737Y021782D01*
X020622Y021735D01*
X020523Y021658D01*
X020446Y021559D01*
X020399Y021444D01*
X020387Y021352D01*
X020336D01*
X020324Y021444D01*
X020276Y021559D01*
X0202Y021658D01*
X020101Y021735D01*
X019985Y021782D01*
X019861Y021799D01*
X019737Y021782D01*
X019622Y021735D01*
X019523Y021658D01*
X019446Y021559D01*
X019399Y021444D01*
X019382Y02132D01*
Y02117D01*
X019399Y021046D01*
X019446Y02093D01*
X019523Y020831D01*
X019622Y020755D01*
X019737Y020707D01*
X019861Y020691D01*
X019985Y020707D01*
X020101Y020755D01*
X0202Y020831D01*
X020276Y02093D01*
X020324Y021046D01*
X020336Y021137D01*
X020387D01*
X020399Y021046D01*
X020446Y02093D01*
X020523Y020831D01*
X020622Y020755D01*
X020737Y020707D01*
X020861Y020691D01*
X020985Y020707D01*
X021101Y020755D01*
X0212Y020831D01*
X021276Y02093D01*
X021324Y021046D01*
X021336Y021137D01*
X021387D01*
X021399Y021046D01*
X021446Y02093D01*
X021523Y020831D01*
X021622Y020755D01*
X021737Y020707D01*
X021861Y020691D01*
X021985Y020707D01*
X022101Y020755D01*
X0222Y020831D01*
X022276Y02093D01*
X022324Y021046D01*
X02234Y02117D01*
Y02132D01*
X022324Y021444D01*
X022276Y021559D01*
X0222Y021658D01*
X022101Y021735D01*
X021985Y021782D01*
X021861Y021799D01*
D02*
G37*
G36*
X010311Y027743D02*
X010243Y027729D01*
X010185Y027691D01*
X010146Y027633D01*
X010133Y027565D01*
X010138Y027537D01*
Y02177D01*
X010052Y021735D01*
X009953Y021658D01*
X009876Y021559D01*
X009829Y021444D01*
X009817Y021352D01*
X009766D01*
X009754Y021444D01*
X009706Y021559D01*
X00963Y021658D01*
X009531Y021735D01*
X009415Y021782D01*
X009291Y021799D01*
X009167Y021782D01*
X009052Y021735D01*
X008953Y021658D01*
X008876Y021559D01*
X008829Y021444D01*
X008812Y02132D01*
Y02117D01*
X008829Y021046D01*
X008876Y02093D01*
X008953Y020831D01*
X009052Y020755D01*
X009167Y020707D01*
X009291Y020691D01*
X009415Y020707D01*
X009531Y020755D01*
X00963Y020831D01*
X009706Y02093D01*
X009754Y021046D01*
X009766Y021137D01*
X009817D01*
X009829Y021046D01*
X009876Y02093D01*
X009953Y020831D01*
X010052Y020755D01*
X010167Y020707D01*
X010291Y020691D01*
X010415Y020707D01*
X010531Y020755D01*
X01063Y020831D01*
X010706Y02093D01*
X010754Y021046D01*
X010766Y021137D01*
X010817D01*
X010829Y021046D01*
X010876Y02093D01*
X010953Y020831D01*
X011052Y020755D01*
X011167Y020707D01*
X011291Y020691D01*
X011415Y020707D01*
X011531Y020755D01*
X01163Y020831D01*
X011706Y02093D01*
X011754Y021046D01*
X01177Y02117D01*
Y02132D01*
X011754Y021444D01*
X011706Y021559D01*
X01163Y021658D01*
X011531Y021735D01*
X011495Y021749D01*
Y026565D01*
X01148Y026643D01*
X011436Y026709D01*
X011254Y02689D01*
X011252Y026906D01*
X011217Y026991D01*
X011161Y027064D01*
X011088Y02712D01*
X011003Y027156D01*
X010911Y027168D01*
X01082Y027156D01*
X010735Y02712D01*
X010662Y027064D01*
X010606Y026991D01*
X01057Y026906D01*
X010558Y026815D01*
X01057Y026723D01*
X010606Y026638D01*
X010662Y026565D01*
X010735Y026509D01*
X01082Y026474D01*
X010911Y026462D01*
X011003Y026474D01*
X011041Y02649D01*
X011087Y026455D01*
Y021749D01*
X011052Y021735D01*
X010953Y021658D01*
X010876Y021559D01*
X010829Y021444D01*
X010817Y021352D01*
X010766D01*
X010754Y021444D01*
X010706Y021559D01*
X01063Y021658D01*
X010531Y021735D01*
X010444Y02177D01*
Y027449D01*
X010476Y027496D01*
X01049Y027565D01*
X010476Y027633D01*
X010438Y027691D01*
X01038Y027729D01*
X010311Y027743D01*
D02*
G37*
%LPD*%
D18*
X018561Y020945D02*
X018861Y021245D01*
X019861Y02087D02*
Y021245D01*
X024961Y039075D02*
X025441Y039555D01*
X024901Y039015D02*
X024961Y039075D01*
X024901Y038015D02*
Y039015D01*
X024441Y037555D02*
X024901Y038015D01*
X015887Y023249D02*
X015961Y023175D01*
X015887Y023249D02*
Y023351D01*
X015637Y0236D02*
X015887Y023351D01*
X015536Y0236D02*
X015637D01*
X007211Y031925D02*
X015536Y0236D01*
X015961Y023175D02*
X016461D01*
X005731Y031925D02*
X007211D01*
X005661Y030995D02*
X007641D01*
X005191Y032465D02*
X005731Y031925D01*
X005191Y031465D02*
X005661Y030995D01*
X016011Y038625D02*
X016591Y039205D01*
Y042986D01*
X01711Y043505D01*
X01564Y043035D02*
X01611Y043505D01*
X01564Y039426D02*
Y043035D01*
Y039426D02*
X015941Y039125D01*
X015421Y037565D02*
X015951Y038095D01*
X014668Y037565D02*
X015421D01*
X013591Y038642D02*
X014668Y037565D01*
X013591Y038642D02*
Y043023D01*
X01311Y043505D02*
X013591Y043023D01*
X01411Y043505D02*
X014571Y043043D01*
Y042777D02*
Y043043D01*
Y042777D02*
X01458Y042768D01*
Y038286D02*
Y042768D01*
Y038286D02*
X014921Y037945D01*
X007641Y030995D02*
X015461Y023175D01*
X006191Y032465D02*
X009891Y036165D01*
X019981Y028255D02*
X022191Y030465D01*
X018151Y028255D02*
X019981D01*
X018971Y028825D02*
X018991Y028845D01*
Y029545D01*
X015341Y028635D02*
Y030285D01*
X015371Y030255D01*
X010291Y021245D02*
Y027545D01*
X010311Y027565D01*
X015341Y028635D02*
X015451Y028525D01*
X016511Y027465D01*
X022191D01*
X010651Y036195D02*
X010681Y036165D01*
Y034335D02*
Y036165D01*
D41*
X011291Y021245D02*
Y026565D01*
Y021005D02*
Y021245D01*
X023191Y034465D02*
Y036305D01*
X024441Y037555D01*
X019491Y042505D02*
X024441Y037555D01*
X01811Y042505D02*
X019491D01*
X01711D02*
X01811D01*
X011981Y027955D02*
X013331Y026605D01*
Y026215D02*
Y026605D01*
X011981Y027955D02*
Y028795D01*
X014091Y034765D02*
X015381Y033475D01*
Y030775D02*
Y033475D01*
X014091Y033725D02*
Y034765D01*
X010561Y030195D02*
X014091Y033725D01*
X009471Y030195D02*
X010561D01*
X007191Y032475D02*
X009471Y030195D01*
X012991Y023175D02*
X013461D01*
X012281Y023885D02*
X012991Y023175D01*
X012281Y023885D02*
Y025165D01*
X011981Y028795D02*
X013961Y030775D01*
X015381D01*
X020171Y022555D02*
X024441D01*
X018861Y021245D02*
X020171Y022555D01*
X011001Y026855D02*
X011291Y026565D01*
X007844Y033472D02*
Y033472D01*
Y033472D02*
X009181Y032135D01*
Y031755D02*
Y032135D01*
X014301Y020155D02*
X015391Y021245D01*
X009141Y020155D02*
X014301D01*
X008291Y021005D02*
X009141Y020155D01*
X013461Y023175D02*
X015391Y021245D01*
X018861D01*
D43*
X01811Y043505D02*
D03*
X01711D02*
D03*
X01611D02*
D03*
X01511D02*
D03*
X01411D02*
D03*
X01311D02*
D03*
X01211D02*
D03*
X01811Y042505D02*
D03*
X01711D02*
D03*
X01611D02*
D03*
X01511D02*
D03*
X01411D02*
D03*
X01311D02*
D03*
D44*
X01211D02*
D03*
D45*
X011291Y021245D02*
D03*
X010291D02*
D03*
X009291D02*
D03*
X021861D02*
D03*
X020861D02*
D03*
X019861D02*
D03*
D46*
X008291D02*
D03*
X018861D02*
D03*
D47*
X016461Y023175D02*
D03*
X015461D02*
D03*
X014461D02*
D03*
X019191Y038465D02*
D03*
X023191Y034465D02*
D03*
X022191Y033465D02*
D03*
X023191D02*
D03*
X022191Y032465D02*
D03*
X023191D02*
D03*
X022191Y031465D02*
D03*
X023191D02*
D03*
X022191Y030465D02*
D03*
X023191D02*
D03*
X022191Y029465D02*
D03*
X023191D02*
D03*
X022191Y028465D02*
D03*
X023191D02*
D03*
X022191Y027465D02*
D03*
X023191D02*
D03*
X022191Y026465D02*
D03*
X023191D02*
D03*
X022191Y025465D02*
D03*
X023191D02*
D03*
X006191Y034465D02*
D03*
X005191Y033465D02*
D03*
X006191D02*
D03*
X005191Y032465D02*
D03*
X006191D02*
D03*
X005191Y031465D02*
D03*
X006191D02*
D03*
X005191Y030465D02*
D03*
X006191D02*
D03*
X005191Y029465D02*
D03*
X006191D02*
D03*
X005191Y028465D02*
D03*
X006191D02*
D03*
X005191Y027465D02*
D03*
X006191D02*
D03*
X005191Y026465D02*
D03*
X006191D02*
D03*
X005191Y025465D02*
D03*
X006191D02*
D03*
X025441Y022555D02*
D03*
X024441D02*
D03*
X025441Y023555D02*
D03*
X024441D02*
D03*
X025441Y024555D02*
D03*
X024441D02*
D03*
X025441Y025555D02*
D03*
X024441D02*
D03*
X025441Y026555D02*
D03*
X024441D02*
D03*
X025441Y027555D02*
D03*
X024441D02*
D03*
X025441Y028555D02*
D03*
X024441D02*
D03*
X025441Y029555D02*
D03*
X024441D02*
D03*
X025441Y030555D02*
D03*
X024441D02*
D03*
X025441Y031555D02*
D03*
X024441D02*
D03*
X025441Y032555D02*
D03*
X024441D02*
D03*
X025441Y033555D02*
D03*
X024441D02*
D03*
X025441Y034555D02*
D03*
X024441D02*
D03*
X025441Y035555D02*
D03*
X024441D02*
D03*
X025441Y036555D02*
D03*
X024441D02*
D03*
X025441Y037555D02*
D03*
X024441D02*
D03*
X025441Y038555D02*
D03*
X024441D02*
D03*
X025441Y039555D02*
D03*
X024441D02*
D03*
X025441Y040555D02*
D03*
X024441D02*
D03*
X025441Y041555D02*
D03*
D48*
X013461Y023175D02*
D03*
X018191Y038465D02*
D03*
D49*
X022191Y034465D02*
D03*
X005191D02*
D03*
X024441Y041555D02*
D03*
D50*
X024941Y02072D02*
D03*
Y043555D02*
D03*
X00565D02*
D03*
Y02072D02*
D03*
D51*
X008921Y03823D02*
D03*
X014091Y034765D02*
D03*
X007844Y033472D02*
D03*
X009181Y031755D02*
D03*
X010911Y026815D02*
D03*
D52*
X013331Y026215D02*
D03*
X007191Y032475D02*
D03*
X016011Y038625D02*
D03*
X015941Y039125D02*
D03*
X015951Y038095D02*
D03*
X014921Y037945D02*
D03*
X012281Y025165D02*
D03*
X011981Y028795D02*
D03*
X015381Y030775D02*
D03*
X009891Y036165D02*
D03*
X007841Y033475D02*
D03*
X018971Y028825D02*
D03*
X018991Y029545D02*
D03*
X015341Y030285D02*
D03*
X010311Y027565D02*
D03*
X018151Y028255D02*
D03*
X010651Y036195D02*
D03*
X010681Y034335D02*
D03*
D53*
X024961Y035545D02*
Y039075D01*
Y032455D02*
Y035545D01*
X024971Y035555D01*
X025441D01*
X024961Y029455D02*
Y032455D01*
X025061Y032555D01*
X025441D01*
X024961Y027575D02*
Y029455D01*
X024861Y029555D02*
X024961Y029455D01*
X024441Y029555D02*
X024861D01*
X024961Y025505D02*
Y027575D01*
X024981Y027555D01*
X025441D01*
X024961Y023075D02*
Y025505D01*
X025011Y025555D01*
X025441D01*
X024441Y022555D02*
X024961Y023075D01*
M02*
