G04*
G04 #@! TF.GenerationSoftware,Altium Limited,Altium Designer,18.1.5 (160)*
G04*
G04 Layer_Color=255*
%FSTAX24Y24*%
%MOIN*%
G70*
G01*
G75*
%ADD19R,0.0550X0.0500*%
%ADD20R,0.0500X0.0550*%
%ADD21R,0.0394X0.0945*%
%ADD22R,0.1299X0.0945*%
%ADD23R,0.0810X0.0240*%
%ADD24R,0.0780X0.0220*%
%ADD43O,0.0680X0.0800*%
G04:AMPARAMS|DCode=44|XSize=80mil|YSize=68mil|CornerRadius=8.5mil|HoleSize=0mil|Usage=FLASHONLY|Rotation=90.000|XOffset=0mil|YOffset=0mil|HoleType=Round|Shape=RoundedRectangle|*
%AMROUNDEDRECTD44*
21,1,0.0800,0.0510,0,0,90.0*
21,1,0.0630,0.0680,0,0,90.0*
1,1,0.0170,0.0255,0.0315*
1,1,0.0170,0.0255,-0.0315*
1,1,0.0170,-0.0255,-0.0315*
1,1,0.0170,-0.0255,0.0315*
%
%ADD44ROUNDEDRECTD44*%
%ADD45O,0.0750X0.0900*%
%ADD46R,0.0750X0.0900*%
%ADD47C,0.0591*%
%ADD48R,0.0591X0.0591*%
%ADD49R,0.0591X0.0591*%
%ADD50C,0.1380*%
D19*
X009571Y039265D02*
D03*
Y040165D02*
D03*
X012001Y027885D02*
D03*
Y028785D02*
D03*
X017131Y040045D02*
D03*
Y039145D02*
D03*
D20*
X008521Y034605D02*
D03*
X007621D02*
D03*
D21*
X008547Y037866D02*
D03*
X007641D02*
D03*
X006736D02*
D03*
D22*
X007641Y035583D02*
D03*
D23*
X015311Y027775D02*
D03*
Y028275D02*
D03*
Y028775D02*
D03*
Y029275D02*
D03*
Y029775D02*
D03*
Y030275D02*
D03*
Y030775D02*
D03*
X013421D02*
D03*
Y030275D02*
D03*
Y029775D02*
D03*
Y029275D02*
D03*
Y028775D02*
D03*
Y028275D02*
D03*
Y027775D02*
D03*
D24*
X012281Y040125D02*
D03*
Y039625D02*
D03*
Y039125D02*
D03*
Y038625D02*
D03*
Y038125D02*
D03*
Y037625D02*
D03*
Y037125D02*
D03*
Y036625D02*
D03*
Y036125D02*
D03*
Y035625D02*
D03*
X015961D02*
D03*
Y036125D02*
D03*
Y036625D02*
D03*
Y037125D02*
D03*
Y037625D02*
D03*
Y038125D02*
D03*
Y038625D02*
D03*
Y039125D02*
D03*
Y039625D02*
D03*
Y040125D02*
D03*
D43*
X01811Y043505D02*
D03*
X01711D02*
D03*
X01611D02*
D03*
X01511D02*
D03*
X01411D02*
D03*
X01311D02*
D03*
X01211D02*
D03*
X01811Y042505D02*
D03*
X01711D02*
D03*
X01611D02*
D03*
X01511D02*
D03*
X01411D02*
D03*
X01311D02*
D03*
D44*
X01211D02*
D03*
D45*
X011291Y021245D02*
D03*
X010291D02*
D03*
X009291D02*
D03*
X021861D02*
D03*
X020861D02*
D03*
X019861D02*
D03*
D46*
X008291D02*
D03*
X018861D02*
D03*
D47*
X016461Y023175D02*
D03*
X015461D02*
D03*
X014461D02*
D03*
X019191Y038465D02*
D03*
X023191Y034465D02*
D03*
X022191Y033465D02*
D03*
X023191D02*
D03*
X022191Y032465D02*
D03*
X023191D02*
D03*
X022191Y031465D02*
D03*
X023191D02*
D03*
X022191Y030465D02*
D03*
X023191D02*
D03*
X022191Y029465D02*
D03*
X023191D02*
D03*
X022191Y028465D02*
D03*
X023191D02*
D03*
X022191Y027465D02*
D03*
X023191D02*
D03*
X022191Y026465D02*
D03*
X023191D02*
D03*
X022191Y025465D02*
D03*
X023191D02*
D03*
X006191Y034465D02*
D03*
X005191Y033465D02*
D03*
X006191D02*
D03*
X005191Y032465D02*
D03*
X006191D02*
D03*
X005191Y031465D02*
D03*
X006191D02*
D03*
X005191Y030465D02*
D03*
X006191D02*
D03*
X005191Y029465D02*
D03*
X006191D02*
D03*
X005191Y028465D02*
D03*
X006191D02*
D03*
X005191Y027465D02*
D03*
X006191D02*
D03*
X005191Y026465D02*
D03*
X006191D02*
D03*
X005191Y025465D02*
D03*
X006191D02*
D03*
X025441Y022555D02*
D03*
X024441D02*
D03*
X025441Y023555D02*
D03*
X024441D02*
D03*
X025441Y024555D02*
D03*
X024441D02*
D03*
X025441Y025555D02*
D03*
X024441D02*
D03*
X025441Y026555D02*
D03*
X024441D02*
D03*
X025441Y027555D02*
D03*
X024441D02*
D03*
X025441Y028555D02*
D03*
X024441D02*
D03*
X025441Y029555D02*
D03*
X024441D02*
D03*
X025441Y030555D02*
D03*
X024441D02*
D03*
X025441Y031555D02*
D03*
X024441D02*
D03*
X025441Y032555D02*
D03*
X024441D02*
D03*
X025441Y033555D02*
D03*
X024441D02*
D03*
X025441Y034555D02*
D03*
X024441D02*
D03*
X025441Y035555D02*
D03*
X024441D02*
D03*
X025441Y036555D02*
D03*
X024441D02*
D03*
X025441Y037555D02*
D03*
X024441D02*
D03*
X025441Y038555D02*
D03*
X024441D02*
D03*
X025441Y039555D02*
D03*
X024441D02*
D03*
X025441Y040555D02*
D03*
X024441D02*
D03*
X025441Y041555D02*
D03*
D48*
X013461Y023175D02*
D03*
X018191Y038465D02*
D03*
D49*
X022191Y034465D02*
D03*
X005191D02*
D03*
X024441Y041555D02*
D03*
D50*
X024941Y02072D02*
D03*
Y043555D02*
D03*
X00565D02*
D03*
Y02072D02*
D03*
M02*
