G04*
G04 #@! TF.GenerationSoftware,Altium Limited,Altium Designer,18.1.5 (160)*
G04*
G04 Layer_Physical_Order=2*
G04 Layer_Color=16711680*
%FSTAX24Y24*%
%MOIN*%
G70*
G01*
G75*
%ADD17C,0.0100*%
%ADD19R,0.0500X0.0550*%
%ADD23R,0.0550X0.0500*%
%ADD43C,0.0680*%
%ADD51C,0.0080*%
%ADD52C,0.0150*%
%ADD53C,0.0200*%
%ADD54R,0.0750X0.0900*%
%ADD55O,0.0750X0.0900*%
%ADD56C,0.0591*%
%ADD57R,0.0591X0.0591*%
%ADD58R,0.0591X0.0591*%
%ADD59C,0.0600*%
%ADD60C,0.0750*%
%ADD61C,0.1380*%
G04:AMPARAMS|DCode=62|XSize=68mil|YSize=68mil|CornerRadius=8.5mil|HoleSize=0mil|Usage=FLASHONLY|Rotation=90.000|XOffset=0mil|YOffset=0mil|HoleType=Round|Shape=RoundedRectangle|*
%AMROUNDEDRECTD62*
21,1,0.0680,0.0510,0,0,90.0*
21,1,0.0510,0.0680,0,0,90.0*
1,1,0.0170,0.0255,0.0255*
1,1,0.0170,0.0255,-0.0255*
1,1,0.0170,-0.0255,-0.0255*
1,1,0.0170,-0.0255,0.0255*
%
%ADD62ROUNDEDRECTD62*%
%ADD63C,0.0160*%
%ADD64C,0.0500*%
%ADD65C,0.0250*%
G36*
X037698Y040597D02*
X0376Y040545D01*
X03748Y040446D01*
X037381Y040326D01*
X037308Y040188D01*
X037263Y04004D01*
X037248Y039885D01*
X037263Y03973D01*
X037308Y039581D01*
X037381Y039444D01*
X03748Y039323D01*
X0376Y039225D01*
X037738Y039151D01*
X037886Y039106D01*
X038041Y039091D01*
X038196Y039106D01*
X038345Y039151D01*
X038482Y039225D01*
X038603Y039323D01*
X038701Y039444D01*
X038775Y039581D01*
X03882Y03973D01*
X038835Y039885D01*
X03882Y04004D01*
X038775Y040188D01*
X038819Y040211D01*
X038897Y04012D01*
X038983Y039979D01*
X039047Y039826D01*
X039085Y039665D01*
X039098Y039504D01*
X039097Y0395D01*
Y01715D01*
X039098Y017146D01*
X039085Y016985D01*
X039047Y016824D01*
X038983Y016671D01*
X038897Y01653D01*
X038792Y016407D01*
X038788Y016405D01*
X038786Y016401D01*
X038685Y016318D01*
X038565Y016254D01*
X038436Y016215D01*
X038306Y016202D01*
X038301Y016203D01*
X034389D01*
X034384Y016253D01*
X034428Y016262D01*
X034494Y016306D01*
X034887Y016699D01*
X034976Y016662D01*
X0351Y016646D01*
X035224Y016662D01*
X03534Y01671D01*
X035439Y016786D01*
X035515Y016885D01*
X035563Y017001D01*
X035579Y017125D01*
Y017275D01*
X035566Y017377D01*
X036444Y018256D01*
X036488Y018322D01*
X036504Y0184D01*
Y03305D01*
X036488Y033128D01*
X036444Y033194D01*
X036444Y033194D01*
X035945Y033693D01*
X035953Y03375D01*
X035941Y033841D01*
X035906Y033927D01*
X03585Y034D01*
X035777Y034056D01*
X035691Y034091D01*
X0356Y034103D01*
X035509Y034091D01*
X035423Y034056D01*
X03535Y034D01*
X035315Y033954D01*
X03255D01*
X032472Y033938D01*
X032406Y033894D01*
X030712Y0322D01*
X030275D01*
Y032054D01*
X029684D01*
X028954Y032784D01*
Y033035D01*
X0291D01*
Y033785D01*
X0284D01*
Y033035D01*
X028546D01*
Y032904D01*
X028225D01*
Y0332D01*
X027475D01*
Y0325D01*
X02798D01*
X028Y032496D01*
X028666D01*
X029396Y031766D01*
Y030975D01*
X02905D01*
Y030225D01*
X02975D01*
Y030665D01*
X029788Y030722D01*
X029804Y0308D01*
Y031646D01*
X030275D01*
Y0315D01*
X031025D01*
Y031937D01*
X032634Y033546D01*
X035114D01*
X035134Y0335D01*
X034392Y032758D01*
X034359Y032709D01*
X034347Y03265D01*
Y032075D01*
X03415D01*
Y031325D01*
X03485D01*
Y032075D01*
X034653D01*
Y032587D01*
X035485Y033419D01*
X035509Y033409D01*
X0356Y033397D01*
X035657Y033405D01*
X036096Y032966D01*
Y018484D01*
X035313Y017701D01*
X035224Y017738D01*
X0351Y017754D01*
X034976Y017738D01*
X03486Y01769D01*
X034761Y017614D01*
X034685Y017515D01*
X034637Y017399D01*
X034625Y017308D01*
X034575D01*
X034563Y017399D01*
X034515Y017515D01*
X034439Y017614D01*
X03434Y01769D01*
X034224Y017738D01*
X0341Y017754D01*
X033976Y017738D01*
X03386Y01769D01*
X033761Y017614D01*
X033685Y017515D01*
X033637Y017399D01*
X033625Y017308D01*
X033575D01*
X033563Y017399D01*
X033515Y017515D01*
X033439Y017614D01*
X03334Y01769D01*
X033224Y017738D01*
X0331Y017754D01*
X032976Y017738D01*
X03286Y01769D01*
X032761Y017614D01*
X032685Y017515D01*
X032637Y017399D01*
X032621Y017275D01*
Y017125D01*
X032637Y017001D01*
X032685Y016885D01*
X032761Y016786D01*
X03286Y01671D01*
X032875Y016704D01*
X032865Y016654D01*
X027904D01*
Y020908D01*
X027982Y020968D01*
X028045Y021051D01*
X028085Y021147D01*
X028099Y02125D01*
X028085Y021353D01*
X028045Y021449D01*
X027982Y021532D01*
X027899Y021595D01*
X027803Y021635D01*
X0277Y021649D01*
X027597Y021635D01*
X027501Y021595D01*
X027418Y021532D01*
X027355Y021449D01*
X027315Y021353D01*
X027268Y021365D01*
Y026602D01*
X029591Y028925D01*
X02962Y02893D01*
X02968Y02897D01*
X02972Y02903D01*
X029734Y0291D01*
X02972Y02917D01*
X02968Y02923D01*
X02962Y02927D01*
X02955Y029284D01*
X02948Y02927D01*
X02942Y02923D01*
X02938Y02917D01*
X029375Y029141D01*
X027007Y026773D01*
X026974Y026724D01*
X026962Y026665D01*
Y020968D01*
X026672Y020678D01*
X026639Y020628D01*
X026627Y02057D01*
Y017125D01*
X02661Y0171D01*
X026596Y01703D01*
X02661Y01696D01*
X02665Y0169D01*
X02671Y01686D01*
X02678Y016846D01*
X02685Y01686D01*
X02691Y0169D01*
X02695Y01696D01*
X026964Y01703D01*
X02695Y0171D01*
X026933Y017125D01*
Y020506D01*
X027223Y020797D01*
X027257Y020846D01*
X027268Y020905D01*
Y021135D01*
X027315Y021147D01*
X027355Y021051D01*
X027418Y020968D01*
X027496Y020908D01*
Y016654D01*
X025634D01*
X025266Y017023D01*
X025279Y017125D01*
Y017275D01*
X025263Y017399D01*
X025215Y017515D01*
X025139Y017614D01*
X02504Y01769D01*
X024924Y017738D01*
X0248Y017754D01*
X024676Y017738D01*
X02456Y01769D01*
X024461Y017614D01*
X024385Y017515D01*
X024337Y017399D01*
X024325Y017308D01*
X024275D01*
X024263Y017399D01*
X024215Y017515D01*
X024139Y017614D01*
X02404Y01769D01*
X023924Y017738D01*
X0238Y017754D01*
X023676Y017738D01*
X02356Y01769D01*
X023461Y017614D01*
X023385Y017515D01*
X023337Y017399D01*
X023325Y017308D01*
X023275D01*
X023263Y017399D01*
X023215Y017515D01*
X023139Y017614D01*
X02304Y01769D01*
X022924Y017738D01*
X0228Y017754D01*
X022676Y017738D01*
X02256Y01769D01*
X022461Y017614D01*
X022385Y017515D01*
X022337Y017399D01*
X022321Y017275D01*
Y017125D01*
X022337Y017001D01*
X022385Y016885D01*
X022461Y016786D01*
X02256Y01671D01*
X022676Y016662D01*
X0228Y016646D01*
X022924Y016662D01*
X02304Y01671D01*
X023139Y016786D01*
X023215Y016885D01*
X023263Y017001D01*
X023275Y017092D01*
X023325D01*
X023337Y017001D01*
X023385Y016885D01*
X023461Y016786D01*
X02356Y01671D01*
X023676Y016662D01*
X0238Y016646D01*
X023924Y016662D01*
X02404Y01671D01*
X024139Y016786D01*
X024215Y016885D01*
X024263Y017001D01*
X024275Y017092D01*
X024325D01*
X024337Y017001D01*
X024385Y016885D01*
X024461Y016786D01*
X02456Y01671D01*
X024676Y016662D01*
X0248Y016646D01*
X024924Y016662D01*
X025013Y016699D01*
X025406Y016306D01*
X025472Y016262D01*
X025516Y016253D01*
X025511Y016203D01*
X018745D01*
X018739Y016202D01*
X018588Y016217D01*
X018438Y016262D01*
X018335Y016317D01*
X018334Y01632D01*
X018377Y016354D01*
X018446Y016317D01*
X018595Y016271D01*
X01875Y016256D01*
X018905Y016271D01*
X019054Y016317D01*
X019191Y01639D01*
X019311Y016489D01*
X01941Y016609D01*
X019483Y016746D01*
X019529Y016895D01*
X019544Y01705D01*
X019529Y017205D01*
X019483Y017354D01*
X01941Y017491D01*
X019311Y017611D01*
X019191Y01771D01*
X019054Y017783D01*
X018905Y017829D01*
X01875Y017844D01*
X018595Y017829D01*
X018446Y017783D01*
X018309Y01771D01*
X018189Y017611D01*
X01809Y017491D01*
X018017Y017354D01*
X017971Y017205D01*
X017956Y01705D01*
X017971Y016895D01*
X018017Y016746D01*
X01809Y016609D01*
X018051Y016578D01*
X018008Y01663D01*
X017922Y016792D01*
X017868Y016967D01*
X017851Y017142D01*
X017853Y01715D01*
Y021316D01*
X017903Y021326D01*
X017905Y02132D01*
X017981Y021221D01*
X01808Y021145D01*
X018196Y021097D01*
X01832Y021081D01*
X018444Y021097D01*
X018531Y021133D01*
X018672Y020992D01*
X018721Y020959D01*
X01878Y020947D01*
X018925D01*
Y02075D01*
X020325D01*
Y020947D01*
X02057D01*
X020629Y020959D01*
X020678Y020992D01*
X020819Y021133D01*
X020906Y021097D01*
X02103Y021081D01*
X021154Y021097D01*
X02127Y021145D01*
X021369Y021221D01*
X021445Y02132D01*
X021493Y021436D01*
X021509Y02156D01*
X021493Y021684D01*
X021445Y0218D01*
X021369Y021899D01*
X02127Y021975D01*
X021154Y022023D01*
X02103Y022039D01*
X020906Y022023D01*
X02079Y021975D01*
X020691Y021899D01*
X020615Y0218D01*
X020567Y021684D01*
X020551Y02156D01*
X020567Y021436D01*
X020603Y021349D01*
X020507Y021253D01*
X020325D01*
Y02145D01*
X018925D01*
Y021253D01*
X018843D01*
X018747Y021349D01*
X018783Y021436D01*
X018799Y02156D01*
X018783Y021684D01*
X018735Y0218D01*
X018659Y021899D01*
X01856Y021975D01*
X018444Y022023D01*
X01832Y022039D01*
X018196Y022023D01*
X01808Y021975D01*
X017981Y021899D01*
X017905Y0218D01*
X017903Y021794D01*
X017853Y021804D01*
X017853Y03895D01*
Y039946D01*
X017852Y039951D01*
X017865Y040083D01*
X017905Y040215D01*
X01797Y040336D01*
X018054Y040439D01*
X018058Y040442D01*
X018061Y040446D01*
X018164Y04053D01*
X018267Y040585D01*
X018277Y040583D01*
X01829Y040529D01*
X018189Y040446D01*
X01809Y040326D01*
X018017Y040188D01*
X017971Y04004D01*
X017956Y039885D01*
X017971Y03973D01*
X018017Y039581D01*
X01809Y039444D01*
X018189Y039323D01*
X018309Y039225D01*
X018446Y039151D01*
X018595Y039106D01*
X01875Y039091D01*
X018905Y039106D01*
X019054Y039151D01*
X019191Y039225D01*
X019311Y039323D01*
X01941Y039444D01*
X019483Y039581D01*
X019529Y03973D01*
X019544Y039885D01*
X019529Y04004D01*
X019483Y040188D01*
X01941Y040326D01*
X019311Y040446D01*
X019191Y040545D01*
X019093Y040597D01*
X019106Y040647D01*
X02274D01*
X022755Y040597D01*
X022724Y040576D01*
X021974Y039826D01*
X021935Y039768D01*
X021922Y0397D01*
Y030088D01*
X021922Y030088D01*
X021888Y030038D01*
X021871Y02995D01*
X021888Y029862D01*
X021938Y029788D01*
X022012Y029738D01*
X0221Y029721D01*
X022188Y029738D01*
X022262Y029788D01*
X022312Y029862D01*
X022329Y02995D01*
X022312Y030038D01*
X022279Y030087D01*
X022278Y030095D01*
Y034985D01*
X022328Y03499D01*
X02233Y03498D01*
X02237Y03492D01*
X02243Y03488D01*
X0225Y034866D01*
X02257Y03488D01*
X02263Y03492D01*
X022645Y034943D01*
X022705D01*
X02272Y03492D01*
X02278Y03488D01*
X02285Y034866D01*
X02292Y03488D01*
X02298Y03492D01*
X02302Y03498D01*
X023034Y03505D01*
X02302Y03512D01*
X023003Y035145D01*
Y038587D01*
X02421Y039794D01*
X024745D01*
X024761Y039746D01*
X024736Y039727D01*
X024666Y039635D01*
X024621Y039528D01*
X024606Y039413D01*
X024621Y039299D01*
X024666Y039191D01*
X024736Y0391D01*
X024828Y039029D01*
X024935Y038985D01*
X02505Y03897D01*
X025165Y038985D01*
X025272Y039029D01*
X025364Y0391D01*
X025434Y039191D01*
X025479Y039299D01*
X025494Y039413D01*
X025479Y039528D01*
X025434Y039635D01*
X025364Y039727D01*
X025339Y039746D01*
X025355Y039794D01*
X025454D01*
X02565Y039597D01*
X025621Y039528D01*
X025606Y039413D01*
X025621Y039299D01*
X025666Y039191D01*
X025736Y0391D01*
X025828Y039029D01*
X025935Y038985D01*
X02605Y03897D01*
X026165Y038985D01*
X026272Y039029D01*
X026364Y0391D01*
X026434Y039191D01*
X026479Y039299D01*
X026494Y039413D01*
X026479Y039528D01*
X026434Y039635D01*
X026364Y039727D01*
X026272Y039798D01*
X026165Y039842D01*
X02605Y039857D01*
X025935Y039842D01*
X025866Y039813D01*
X025679Y040001D01*
X025698Y040047D01*
X0262D01*
X02665Y039597D01*
X026621Y039528D01*
X026606Y039413D01*
X026621Y039299D01*
X026666Y039191D01*
X026736Y0391D01*
X026828Y039029D01*
X026935Y038985D01*
X02705Y03897D01*
X027165Y038985D01*
X027272Y039029D01*
X027364Y0391D01*
X027434Y039191D01*
X027479Y039299D01*
X027494Y039413D01*
X027479Y039528D01*
X027434Y039635D01*
X027364Y039727D01*
X027272Y039798D01*
X027165Y039842D01*
X02705Y039857D01*
X026935Y039842D01*
X026866Y039813D01*
X026454Y040225D01*
X026473Y040272D01*
X033476D01*
X033655Y040093D01*
Y039843D01*
X033306Y039494D01*
X033262Y039428D01*
X033246Y03935D01*
Y03885D01*
X033262Y038772D01*
X033306Y038706D01*
X033806Y038206D01*
X033872Y038162D01*
X03395Y038146D01*
X037146D01*
Y037489D01*
X037937D01*
Y038146D01*
X037992D01*
X038155Y037982D01*
X038143Y037885D01*
X038156Y037781D01*
X038196Y037685D01*
X038259Y037603D01*
X038342Y037539D01*
X038438Y0375D01*
X038541Y037486D01*
X038645Y0375D01*
X038741Y037539D01*
X038823Y037603D01*
X038887Y037685D01*
X038926Y037781D01*
X03894Y037885D01*
X038926Y037988D01*
X038887Y038084D01*
X038823Y038167D01*
X038741Y03823D01*
X038645Y03827D01*
X038541Y038283D01*
X038444Y03827D01*
X03822Y038494D01*
X038154Y038538D01*
X038076Y038554D01*
X034035D01*
X033654Y038934D01*
Y039266D01*
X033943Y039555D01*
X034445D01*
Y040345D01*
X033907D01*
X033676Y040576D01*
X033645Y040597D01*
X03366Y040647D01*
X037686D01*
X037698Y040597D01*
D02*
G37*
G36*
X0229Y035151D02*
X022902Y035118D01*
X022903Y035114D01*
X022904Y035111D01*
X022905Y035109D01*
X022906Y035107D01*
X022794D01*
X022795Y035109D01*
X022796Y035111D01*
X022797Y035114D01*
X022798Y035118D01*
X022799Y035123D01*
X022799Y035136D01*
X0228Y03516D01*
X0229D01*
X0229Y035151D01*
D02*
G37*
G36*
X02255D02*
X022552Y035118D01*
X022553Y035114D01*
X022554Y035111D01*
X022555Y035109D01*
X022556Y035107D01*
X022444D01*
X022445Y035109D01*
X022446Y035111D01*
X022447Y035114D01*
X022448Y035118D01*
X022448Y035123D01*
X022449Y035136D01*
X02245Y03516D01*
X02255D01*
X02255Y035151D01*
D02*
G37*
G36*
X0356Y03365D02*
X035593Y033649D01*
X035584Y033644D01*
X035573Y033638D01*
X035559Y033628D01*
X035526Y0336D01*
X035459Y033538D01*
X035433Y033512D01*
X035362Y033583D01*
X035388Y033609D01*
X035488Y033723D01*
X035494Y033734D01*
X035499Y033743D01*
X0355Y03375D01*
X0356Y03365D01*
D02*
G37*
G36*
X03455Y032055D02*
X034552Y032037D01*
X034555Y032022D01*
X034558Y032009D01*
X034562Y031998D01*
X034568Y031989D01*
X034574Y031982D01*
X034582Y031977D01*
X03459Y031974D01*
X0346Y031973D01*
X0344D01*
X034409Y031974D01*
X034418Y031977D01*
X034425Y031982D01*
X034432Y031989D01*
X034437Y031998D01*
X034442Y032009D01*
X034446Y032022D01*
X034448Y032037D01*
X03445Y032055D01*
X03445Y032074D01*
X03455D01*
X03455Y032055D01*
D02*
G37*
G36*
X022175Y030111D02*
X022178Y030067D01*
X02218Y030059D01*
X022181Y030052D01*
X022183Y030047D01*
X022185Y030042D01*
X022188Y030039D01*
X022013D01*
X022015Y030042D01*
X022017Y030047D01*
X022019Y030052D01*
X02202Y030059D01*
X022022Y030067D01*
X022024Y030086D01*
X022025Y030111D01*
X022025Y030125D01*
X022175D01*
X022175Y030111D01*
D02*
G37*
G36*
X029549Y02902D02*
X029547Y02902D01*
X029545Y029019D01*
X029542Y029017D01*
X029538Y029015D01*
X029535Y029012D01*
X029525Y029004D01*
X029507Y028987D01*
X029437Y029057D01*
X029443Y029064D01*
X029465Y029088D01*
X029467Y029092D01*
X029469Y029095D01*
X02947Y029097D01*
X02947Y029099D01*
X029549Y02902D01*
D02*
G37*
G36*
X019676Y021D02*
X019675Y02101D01*
X019672Y021018D01*
X019667Y021026D01*
X01966Y021032D01*
X019651Y021037D01*
X01964Y021042D01*
X019627Y021045D01*
X019625Y021046D01*
X019623Y021045D01*
X01961Y021042D01*
X019599Y021037D01*
X01959Y021032D01*
X019583Y021026D01*
X019578Y021018D01*
X019575Y02101D01*
X019574Y021D01*
Y0212D01*
X019575Y021191D01*
X019578Y021182D01*
X019583Y021174D01*
X01959Y021168D01*
X019599Y021163D01*
X01961Y021158D01*
X019623Y021154D01*
X019625Y021154D01*
X019627Y021154D01*
X01964Y021158D01*
X019651Y021163D01*
X01966Y021168D01*
X019667Y021174D01*
X019672Y021182D01*
X019675Y021191D01*
X019676Y0212D01*
Y021D01*
D02*
G37*
G36*
X020224Y021191D02*
X020227Y021182D01*
X020232Y021174D01*
X020239Y021168D01*
X020248Y021163D01*
X020259Y021158D01*
X020272Y021154D01*
X020287Y021152D01*
X020305Y021151D01*
X020324Y02115D01*
Y02105D01*
X020305Y021049D01*
X020287Y021048D01*
X020272Y021045D01*
X020259Y021042D01*
X020248Y021037D01*
X020239Y021032D01*
X020232Y021026D01*
X020227Y021018D01*
X020224Y02101D01*
X020223Y021D01*
Y0212D01*
X020224Y021191D01*
D02*
G37*
G36*
X019027Y021D02*
X019026Y02101D01*
X019023Y021018D01*
X019018Y021026D01*
X019011Y021032D01*
X019002Y021037D01*
X018991Y021042D01*
X018978Y021045D01*
X018963Y021048D01*
X018945Y021049D01*
X018926Y02105D01*
Y02115D01*
X018945Y021151D01*
X018963Y021152D01*
X018978Y021154D01*
X018991Y021158D01*
X019002Y021163D01*
X019011Y021168D01*
X019018Y021174D01*
X019023Y021182D01*
X019026Y021191D01*
X019027Y0212D01*
Y021D01*
D02*
G37*
G36*
X02683Y017131D02*
X026832Y017098D01*
X026833Y017094D01*
X026834Y017091D01*
X026835Y017089D01*
X026836Y017087D01*
X026724D01*
X026725Y017089D01*
X026726Y017091D01*
X026727Y017094D01*
X026728Y017098D01*
X026728Y017103D01*
X026729Y017116D01*
X02673Y01714D01*
X02683D01*
X02683Y017131D01*
D02*
G37*
%LPC*%
G36*
X03105Y039857D02*
X030935Y039842D01*
X030828Y039798D01*
X030736Y039727D01*
X030666Y039635D01*
X030621Y039528D01*
X030606Y039413D01*
X030621Y039299D01*
X030666Y039191D01*
X030736Y0391D01*
X030828Y039029D01*
X030935Y038985D01*
X03105Y03897D01*
X031165Y038985D01*
X031272Y039029D01*
X031364Y0391D01*
X031434Y039191D01*
X031479Y039299D01*
X031494Y039413D01*
X031479Y039528D01*
X031434Y039635D01*
X031364Y039727D01*
X031272Y039798D01*
X031165Y039842D01*
X03105Y039857D01*
D02*
G37*
G36*
X03005D02*
X029935Y039842D01*
X029828Y039798D01*
X029736Y039727D01*
X029666Y039635D01*
X029621Y039528D01*
X029606Y039413D01*
X029621Y039299D01*
X02965Y03923D01*
X029442Y039022D01*
X029409Y038972D01*
X029397Y038913D01*
Y038762D01*
X029347Y03874D01*
X029272Y038798D01*
X029165Y038842D01*
X02905Y038857D01*
X028935Y038842D01*
X028828Y038798D01*
X028736Y038727D01*
X028713Y038697D01*
X028663Y038714D01*
Y03881D01*
X028866Y039013D01*
X028935Y038985D01*
X02905Y03897D01*
X029165Y038985D01*
X029272Y039029D01*
X029364Y0391D01*
X029434Y039191D01*
X029479Y039299D01*
X029494Y039413D01*
X029479Y039528D01*
X029434Y039635D01*
X029364Y039727D01*
X029272Y039798D01*
X029165Y039842D01*
X02905Y039857D01*
X028935Y039842D01*
X028828Y039798D01*
X028736Y039727D01*
X028666Y039635D01*
X028621Y039528D01*
X028606Y039413D01*
X028621Y039299D01*
X02865Y03923D01*
X028402Y038982D01*
X028369Y038932D01*
X028357Y038873D01*
Y038789D01*
X028312Y038767D01*
X028272Y038798D01*
X028165Y038842D01*
X02805Y038857D01*
X027935Y038842D01*
X027828Y038798D01*
X027736Y038727D01*
X027666Y038635D01*
X027621Y038528D01*
X027606Y038413D01*
X027621Y038299D01*
X027666Y038191D01*
X027736Y0381D01*
X027828Y038029D01*
X027935Y037985D01*
X027986Y037978D01*
X028002Y037931D01*
X025274Y035203D01*
X023395D01*
X02337Y03522D01*
X0233Y035234D01*
X02323Y03522D01*
X02317Y03518D01*
X02313Y03512D01*
X023116Y03505D01*
X02313Y03498D01*
X02317Y03492D01*
X02323Y03488D01*
X023283Y03487D01*
X023302Y034824D01*
X023303Y034819D01*
X022892Y034408D01*
X022859Y034359D01*
X022847Y0343D01*
X022859Y034241D01*
X022892Y034192D01*
X022917Y034175D01*
X02292Y03417D01*
X02298Y03413D01*
X02305Y034116D01*
X02312Y03413D01*
X02318Y03417D01*
X02322Y03423D01*
X023234Y0343D01*
X023231Y034314D01*
X023513Y034597D01*
X0263D01*
X026359Y034609D01*
X026408Y034642D01*
X02957Y037804D01*
X02962Y037783D01*
X02963Y03773D01*
X02967Y03767D01*
X029693Y037655D01*
Y037595D01*
X02967Y03758D01*
X02963Y03752D01*
X029616Y03745D01*
X02963Y03738D01*
X02967Y03732D01*
X02973Y03728D01*
X0298Y037266D01*
X02987Y03728D01*
X029895Y037297D01*
X031237D01*
X031897Y036637D01*
Y034345D01*
X03188Y03432D01*
X031866Y03425D01*
X03188Y03418D01*
X03192Y03412D01*
X03198Y03408D01*
X03205Y034066D01*
X03212Y03408D01*
X03218Y03412D01*
X03222Y03418D01*
X03222Y03418D01*
X032271Y03418D01*
X03228Y03413D01*
X03232Y03407D01*
X03238Y03403D01*
X03245Y034016D01*
X03252Y03403D01*
X03258Y03407D01*
X03262Y03413D01*
X032634Y0342D01*
X03262Y03427D01*
X032593Y03431D01*
Y0377D01*
X032582Y037755D01*
X032551Y037801D01*
X032551Y037801D01*
X032451Y037901D01*
X032405Y037932D01*
X03235Y037943D01*
X03235Y037943D01*
X02991D01*
X02987Y03797D01*
X0298Y037984D01*
X029749Y037973D01*
X029724Y037988D01*
X029709Y038001D01*
X029703Y038011D01*
Y03885D01*
X029866Y039013D01*
X029935Y038985D01*
X03005Y03897D01*
X030165Y038985D01*
X030272Y039029D01*
X030364Y0391D01*
X030434Y039191D01*
X030479Y039299D01*
X030494Y039413D01*
X030479Y039528D01*
X030434Y039635D01*
X030364Y039727D01*
X030272Y039798D01*
X030165Y039842D01*
X03005Y039857D01*
D02*
G37*
G36*
X02805D02*
X027935Y039842D01*
X027828Y039798D01*
X027736Y039727D01*
X027666Y039635D01*
X027621Y039528D01*
X027606Y039413D01*
X027621Y039299D01*
X027666Y039191D01*
X027736Y0391D01*
X027828Y039029D01*
X027935Y038985D01*
X02805Y03897D01*
X028165Y038985D01*
X028272Y039029D01*
X028364Y0391D01*
X028434Y039191D01*
X028479Y039299D01*
X028494Y039413D01*
X028479Y039528D01*
X028434Y039635D01*
X028364Y039727D01*
X028272Y039798D01*
X028165Y039842D01*
X02805Y039857D01*
D02*
G37*
G36*
X025305Y038857D02*
X024795D01*
X024723Y038843D01*
X024662Y038802D01*
X024621Y038741D01*
X024606Y038668D01*
Y038158D01*
X024621Y038086D01*
X024662Y038025D01*
X024723Y037984D01*
X024795Y03797D01*
X025305D01*
X025377Y037984D01*
X025438Y038025D01*
X025479Y038086D01*
X025494Y038158D01*
Y038668D01*
X025479Y038741D01*
X025438Y038802D01*
X025377Y038843D01*
X025305Y038857D01*
D02*
G37*
G36*
X02705Y038857D02*
X026935Y038842D01*
X026828Y038798D01*
X026736Y038727D01*
X026666Y038635D01*
X026621Y038528D01*
X026606Y038413D01*
X026621Y038299D01*
X026666Y038191D01*
X026736Y0381D01*
X026828Y038029D01*
X026935Y037985D01*
X02705Y03797D01*
X027165Y037985D01*
X027272Y038029D01*
X027364Y0381D01*
X027434Y038191D01*
X027479Y038299D01*
X027494Y038413D01*
X027479Y038528D01*
X027434Y038635D01*
X027364Y038727D01*
X027272Y038798D01*
X027165Y038842D01*
X02705Y038857D01*
D02*
G37*
G36*
X02605D02*
X025935Y038842D01*
X025828Y038798D01*
X025736Y038727D01*
X025666Y038635D01*
X025621Y038528D01*
X025606Y038413D01*
X025621Y038299D01*
X025666Y038191D01*
X025736Y0381D01*
X025828Y038029D01*
X025935Y037985D01*
X02605Y03797D01*
X026165Y037985D01*
X026272Y038029D01*
X026364Y0381D01*
X026434Y038191D01*
X026479Y038299D01*
X026494Y038413D01*
X026479Y038528D01*
X026434Y038635D01*
X026364Y038727D01*
X026272Y038798D01*
X026165Y038842D01*
X02605Y038857D01*
D02*
G37*
G36*
X01845Y038749D02*
X018347Y038735D01*
X018251Y038695D01*
X018168Y038632D01*
X018105Y038549D01*
X018065Y038453D01*
X018051Y03835D01*
X018065Y038247D01*
X018105Y038151D01*
X018168Y038068D01*
X018251Y038005D01*
X018347Y037965D01*
X01845Y037951D01*
X018553Y037965D01*
X018649Y038005D01*
X018732Y038068D01*
X018795Y038151D01*
X018835Y038247D01*
X018849Y03835D01*
X018835Y038453D01*
X018795Y038549D01*
X018732Y038632D01*
X018649Y038695D01*
X018553Y038735D01*
X01845Y038749D01*
D02*
G37*
G36*
Y037749D02*
X018347Y037735D01*
X018251Y037695D01*
X018168Y037632D01*
X018105Y037549D01*
X018065Y037453D01*
X018051Y03735D01*
X018065Y037247D01*
X018105Y037151D01*
X018168Y037068D01*
X018251Y037005D01*
X018347Y036965D01*
X01845Y036951D01*
X018553Y036965D01*
X018649Y037005D01*
X018732Y037068D01*
X018795Y037151D01*
X018835Y037247D01*
X018849Y03735D01*
X018835Y037453D01*
X018795Y037549D01*
X018732Y037632D01*
X018649Y037695D01*
X018553Y037735D01*
X01845Y037749D01*
D02*
G37*
G36*
X038541Y037283D02*
X038438Y03727D01*
X038342Y03723D01*
X038259Y037167D01*
X038196Y037084D01*
X038156Y036988D01*
X038143Y036885D01*
X038156Y036781D01*
X038196Y036685D01*
X038259Y036603D01*
X038342Y036539D01*
X038438Y0365D01*
X038541Y036486D01*
X038645Y0365D01*
X038741Y036539D01*
X038823Y036603D01*
X038887Y036685D01*
X038926Y036781D01*
X03894Y036885D01*
X038926Y036988D01*
X038887Y037084D01*
X038823Y037167D01*
X038741Y03723D01*
X038645Y03727D01*
X038541Y037283D01*
D02*
G37*
G36*
X037541D02*
X037438Y03727D01*
X037342Y03723D01*
X037259Y037167D01*
X037196Y037084D01*
X037156Y036988D01*
X037143Y036885D01*
X037156Y036781D01*
X037196Y036685D01*
X037259Y036603D01*
X037342Y036539D01*
X037438Y0365D01*
X037541Y036486D01*
X037645Y0365D01*
X037741Y036539D01*
X037823Y036603D01*
X037887Y036685D01*
X037926Y036781D01*
X03794Y036885D01*
X037926Y036988D01*
X037887Y037084D01*
X037823Y037167D01*
X037741Y03723D01*
X037645Y03727D01*
X037541Y037283D01*
D02*
G37*
G36*
Y036283D02*
X037438Y03627D01*
X037342Y03623D01*
X037259Y036167D01*
X037196Y036084D01*
X037156Y035988D01*
X037143Y035885D01*
X037156Y035781D01*
X037196Y035685D01*
X037259Y035603D01*
X037342Y035539D01*
X037438Y0355D01*
X037541Y035486D01*
X037645Y0355D01*
X037741Y035539D01*
X037823Y035603D01*
X037887Y035685D01*
X037926Y035781D01*
X03794Y035885D01*
X037926Y035988D01*
X037887Y036084D01*
X037823Y036167D01*
X037741Y03623D01*
X037645Y03627D01*
X037541Y036283D01*
D02*
G37*
G36*
X01845Y035749D02*
X018347Y035735D01*
X018251Y035695D01*
X018168Y035632D01*
X018105Y035549D01*
X018065Y035453D01*
X018051Y03535D01*
X018065Y035247D01*
X018105Y035151D01*
X018168Y035068D01*
X018251Y035005D01*
X018347Y034965D01*
X01845Y034951D01*
X018553Y034965D01*
X018649Y035005D01*
X018732Y035068D01*
X018795Y035151D01*
X018835Y035247D01*
X018849Y03535D01*
X018835Y035453D01*
X018795Y035549D01*
X018732Y035632D01*
X018649Y035695D01*
X018553Y035735D01*
X01845Y035749D01*
D02*
G37*
G36*
X038541Y035283D02*
X038438Y03527D01*
X038342Y03523D01*
X038259Y035167D01*
X038196Y035084D01*
X038156Y034988D01*
X038143Y034885D01*
X038156Y034781D01*
X038196Y034685D01*
X038259Y034603D01*
X038342Y034539D01*
X038438Y0345D01*
X038541Y034486D01*
X038645Y0345D01*
X038741Y034539D01*
X038823Y034603D01*
X038887Y034685D01*
X038926Y034781D01*
X03894Y034885D01*
X038926Y034988D01*
X038887Y035084D01*
X038823Y035167D01*
X038741Y03523D01*
X038645Y03527D01*
X038541Y035283D01*
D02*
G37*
G36*
X037541D02*
X037438Y03527D01*
X037342Y03523D01*
X037259Y035167D01*
X037196Y035084D01*
X037156Y034988D01*
X037143Y034885D01*
X037156Y034781D01*
X037196Y034685D01*
X037259Y034603D01*
X037342Y034539D01*
X037438Y0345D01*
X037541Y034486D01*
X037645Y0345D01*
X037741Y034539D01*
X037823Y034603D01*
X037887Y034685D01*
X037926Y034781D01*
X03794Y034885D01*
X037926Y034988D01*
X037887Y035084D01*
X037823Y035167D01*
X037741Y03523D01*
X037645Y03527D01*
X037541Y035283D01*
D02*
G37*
G36*
X01845Y034749D02*
X018347Y034735D01*
X018251Y034695D01*
X018168Y034632D01*
X018105Y034549D01*
X018065Y034453D01*
X018051Y03435D01*
X018065Y034247D01*
X018105Y034151D01*
X018168Y034068D01*
X018251Y034005D01*
X018347Y033965D01*
X01845Y033951D01*
X018553Y033965D01*
X018649Y034005D01*
X018732Y034068D01*
X018795Y034151D01*
X018835Y034247D01*
X018849Y03435D01*
X018835Y034453D01*
X018795Y034549D01*
X018732Y034632D01*
X018649Y034695D01*
X018553Y034735D01*
X01845Y034749D01*
D02*
G37*
G36*
X038541Y034283D02*
X038438Y03427D01*
X038342Y03423D01*
X038259Y034167D01*
X038196Y034084D01*
X038156Y033988D01*
X038143Y033885D01*
X038156Y033781D01*
X038196Y033685D01*
X038259Y033603D01*
X038342Y033539D01*
X038438Y0335D01*
X038541Y033486D01*
X038645Y0335D01*
X038741Y033539D01*
X038823Y033603D01*
X038887Y033685D01*
X038926Y033781D01*
X03894Y033885D01*
X038926Y033988D01*
X038887Y034084D01*
X038823Y034167D01*
X038741Y03423D01*
X038645Y03427D01*
X038541Y034283D01*
D02*
G37*
G36*
X01845Y033749D02*
X018347Y033735D01*
X018251Y033695D01*
X018168Y033632D01*
X018105Y033549D01*
X018065Y033453D01*
X018051Y03335D01*
X018065Y033247D01*
X018105Y033151D01*
X018168Y033068D01*
X018251Y033005D01*
X018347Y032965D01*
X01845Y032951D01*
X018553Y032965D01*
X018649Y033005D01*
X018732Y033068D01*
X018795Y033151D01*
X018835Y033247D01*
X018849Y03335D01*
X018835Y033453D01*
X018795Y033549D01*
X018732Y033632D01*
X018649Y033695D01*
X018553Y033735D01*
X01845Y033749D01*
D02*
G37*
G36*
X038541Y033283D02*
X038438Y03327D01*
X038342Y03323D01*
X038259Y033167D01*
X038196Y033084D01*
X038156Y032988D01*
X038143Y032885D01*
X038156Y032781D01*
X038196Y032685D01*
X038259Y032603D01*
X038342Y032539D01*
X038438Y0325D01*
X038541Y032486D01*
X038645Y0325D01*
X038741Y032539D01*
X038823Y032603D01*
X038887Y032685D01*
X038926Y032781D01*
X03894Y032885D01*
X038926Y032988D01*
X038887Y033084D01*
X038823Y033167D01*
X038741Y03323D01*
X038645Y03327D01*
X038541Y033283D01*
D02*
G37*
G36*
X037541D02*
X037438Y03327D01*
X037342Y03323D01*
X037259Y033167D01*
X037196Y033084D01*
X037156Y032988D01*
X037143Y032885D01*
X037156Y032781D01*
X037196Y032685D01*
X037259Y032603D01*
X037342Y032539D01*
X037438Y0325D01*
X037541Y032486D01*
X037645Y0325D01*
X037741Y032539D01*
X037823Y032603D01*
X037887Y032685D01*
X037926Y032781D01*
X03794Y032885D01*
X037926Y032988D01*
X037887Y033084D01*
X037823Y033167D01*
X037741Y03323D01*
X037645Y03327D01*
X037541Y033283D01*
D02*
G37*
G36*
X018845Y032745D02*
X018055D01*
Y031955D01*
X018845D01*
Y032745D01*
D02*
G37*
G36*
X037541Y032283D02*
X037438Y03227D01*
X037342Y03223D01*
X037259Y032167D01*
X037196Y032084D01*
X037156Y031988D01*
X037143Y031885D01*
X037156Y031781D01*
X037196Y031685D01*
X037259Y031603D01*
X037342Y031539D01*
X037438Y0315D01*
X037541Y031486D01*
X037645Y0315D01*
X037741Y031539D01*
X037823Y031603D01*
X037887Y031685D01*
X037926Y031781D01*
X03794Y031885D01*
X037926Y031988D01*
X037887Y032084D01*
X037823Y032167D01*
X037741Y03223D01*
X037645Y03227D01*
X037541Y032283D01*
D02*
G37*
G36*
X038541Y031283D02*
X038438Y03127D01*
X038342Y03123D01*
X038259Y031167D01*
X038196Y031084D01*
X038156Y030988D01*
X038143Y030885D01*
X038156Y030781D01*
X038196Y030685D01*
X038259Y030603D01*
X038342Y030539D01*
X038438Y0305D01*
X038541Y030486D01*
X038645Y0305D01*
X038741Y030539D01*
X038823Y030603D01*
X038887Y030685D01*
X038926Y030781D01*
X03894Y030885D01*
X038926Y030988D01*
X038887Y031084D01*
X038823Y031167D01*
X038741Y03123D01*
X038645Y03127D01*
X038541Y031283D01*
D02*
G37*
G36*
X037541D02*
X037438Y03127D01*
X037342Y03123D01*
X037259Y031167D01*
X037196Y031084D01*
X037156Y030988D01*
X037143Y030885D01*
X037156Y030781D01*
X037196Y030685D01*
X037259Y030603D01*
X037342Y030539D01*
X037438Y0305D01*
X037541Y030486D01*
X037645Y0305D01*
X037741Y030539D01*
X037823Y030603D01*
X037887Y030685D01*
X037926Y030781D01*
X03794Y030885D01*
X037926Y030988D01*
X037887Y031084D01*
X037823Y031167D01*
X037741Y03123D01*
X037645Y03127D01*
X037541Y031283D01*
D02*
G37*
G36*
X038541Y030283D02*
X038438Y03027D01*
X038342Y03023D01*
X038259Y030167D01*
X038196Y030084D01*
X038156Y029988D01*
X038143Y029885D01*
X038156Y029781D01*
X038196Y029685D01*
X038259Y029603D01*
X038342Y029539D01*
X038438Y0295D01*
X038541Y029486D01*
X038645Y0295D01*
X038741Y029539D01*
X038823Y029603D01*
X038887Y029685D01*
X038926Y029781D01*
X03894Y029885D01*
X038926Y029988D01*
X038887Y030084D01*
X038823Y030167D01*
X038741Y03023D01*
X038645Y03027D01*
X038541Y030283D01*
D02*
G37*
G36*
X037541D02*
X037438Y03027D01*
X037342Y03023D01*
X037259Y030167D01*
X037196Y030084D01*
X037156Y029988D01*
X037143Y029885D01*
X037156Y029781D01*
X037196Y029685D01*
X037259Y029603D01*
X037342Y029539D01*
X037438Y0295D01*
X037541Y029486D01*
X037645Y0295D01*
X037741Y029539D01*
X037823Y029603D01*
X037887Y029685D01*
X037926Y029781D01*
X03794Y029885D01*
X037926Y029988D01*
X037887Y030084D01*
X037823Y030167D01*
X037741Y03023D01*
X037645Y03027D01*
X037541Y030283D01*
D02*
G37*
G36*
X03355Y033089D02*
X033426Y033073D01*
X03331Y033025D01*
X033211Y032949D01*
X033135Y03285D01*
X033087Y032734D01*
X033071Y03261D01*
X033087Y032486D01*
X033135Y03237D01*
X033211Y032271D01*
X03331Y032195D01*
X033426Y032147D01*
X033447Y032144D01*
Y032075D01*
X03325D01*
Y031325D01*
Y030575D01*
X033397D01*
Y030351D01*
X03331Y030315D01*
X033211Y030239D01*
X033135Y03014D01*
X033087Y030024D01*
X033071Y0299D01*
X033087Y029776D01*
X033135Y02966D01*
X033211Y029561D01*
X03331Y029485D01*
X033426Y029437D01*
X03355Y029421D01*
X033674Y029437D01*
X03379Y029485D01*
X033889Y029561D01*
X033965Y02966D01*
X034013Y029776D01*
X034029Y0299D01*
X034013Y030024D01*
X033965Y03014D01*
X033889Y030239D01*
X03379Y030315D01*
X033703Y030351D01*
Y030575D01*
X03395D01*
Y031325D01*
Y032075D01*
X033753D01*
Y03218D01*
X03379Y032195D01*
X033889Y032271D01*
X033965Y03237D01*
X034013Y032486D01*
X034029Y03261D01*
X034013Y032734D01*
X033965Y03285D01*
X033889Y032949D01*
X03379Y033025D01*
X033674Y033073D01*
X03355Y033089D01*
D02*
G37*
G36*
X037541Y029283D02*
X037438Y02927D01*
X037342Y02923D01*
X037259Y029167D01*
X037196Y029084D01*
X037156Y028988D01*
X037143Y028885D01*
X037156Y028781D01*
X037196Y028685D01*
X037259Y028603D01*
X037342Y028539D01*
X037438Y0285D01*
X037541Y028486D01*
X037645Y0285D01*
X037741Y028539D01*
X037823Y028603D01*
X037887Y028685D01*
X037926Y028781D01*
X03794Y028885D01*
X037926Y028988D01*
X037887Y029084D01*
X037823Y029167D01*
X037741Y02923D01*
X037645Y02927D01*
X037541Y029283D01*
D02*
G37*
G36*
X038541Y028283D02*
X038438Y02827D01*
X038342Y02823D01*
X038259Y028167D01*
X038196Y028084D01*
X038156Y027988D01*
X038143Y027885D01*
X038156Y027781D01*
X038196Y027685D01*
X038259Y027603D01*
X038342Y027539D01*
X038438Y0275D01*
X038541Y027486D01*
X038645Y0275D01*
X038741Y027539D01*
X038823Y027603D01*
X038887Y027685D01*
X038926Y027781D01*
X03894Y027885D01*
X038926Y027988D01*
X038887Y028084D01*
X038823Y028167D01*
X038741Y02823D01*
X038645Y02827D01*
X038541Y028283D01*
D02*
G37*
G36*
X037541D02*
X037438Y02827D01*
X037342Y02823D01*
X037259Y028167D01*
X037196Y028084D01*
X037156Y027988D01*
X037143Y027885D01*
X037156Y027781D01*
X037196Y027685D01*
X037259Y027603D01*
X037342Y027539D01*
X037438Y0275D01*
X037541Y027486D01*
X037645Y0275D01*
X037741Y027539D01*
X037823Y027603D01*
X037887Y027685D01*
X037926Y027781D01*
X03794Y027885D01*
X037926Y027988D01*
X037887Y028084D01*
X037823Y028167D01*
X037741Y02823D01*
X037645Y02827D01*
X037541Y028283D01*
D02*
G37*
G36*
X038541Y027283D02*
X038438Y02727D01*
X038342Y02723D01*
X038259Y027167D01*
X038196Y027084D01*
X038156Y026988D01*
X038143Y026885D01*
X038156Y026781D01*
X038196Y026685D01*
X038259Y026603D01*
X038342Y026539D01*
X038438Y0265D01*
X038541Y026486D01*
X038645Y0265D01*
X038741Y026539D01*
X038823Y026603D01*
X038887Y026685D01*
X038926Y026781D01*
X03894Y026885D01*
X038926Y026988D01*
X038887Y027084D01*
X038823Y027167D01*
X038741Y02723D01*
X038645Y02727D01*
X038541Y027283D01*
D02*
G37*
G36*
X037541D02*
X037438Y02727D01*
X037342Y02723D01*
X037259Y027167D01*
X037196Y027084D01*
X037156Y026988D01*
X037143Y026885D01*
X037156Y026781D01*
X037196Y026685D01*
X037259Y026603D01*
X037342Y026539D01*
X037438Y0265D01*
X037541Y026486D01*
X037645Y0265D01*
X037741Y026539D01*
X037823Y026603D01*
X037887Y026685D01*
X037926Y026781D01*
X03794Y026885D01*
X037926Y026988D01*
X037887Y027084D01*
X037823Y027167D01*
X037741Y02723D01*
X037645Y02727D01*
X037541Y027283D01*
D02*
G37*
G36*
X038541Y026283D02*
X038438Y02627D01*
X038342Y02623D01*
X038259Y026167D01*
X038196Y026084D01*
X038156Y025988D01*
X038143Y025885D01*
X038156Y025781D01*
X038196Y025685D01*
X038259Y025603D01*
X038342Y025539D01*
X038438Y0255D01*
X038541Y025486D01*
X038645Y0255D01*
X038741Y025539D01*
X038823Y025603D01*
X038887Y025685D01*
X038926Y025781D01*
X03894Y025885D01*
X038926Y025988D01*
X038887Y026084D01*
X038823Y026167D01*
X038741Y02623D01*
X038645Y02627D01*
X038541Y026283D01*
D02*
G37*
G36*
Y025283D02*
X038438Y02527D01*
X038342Y02523D01*
X038259Y025167D01*
X038196Y025084D01*
X038156Y024988D01*
X038143Y024885D01*
X038156Y024781D01*
X038196Y024685D01*
X038259Y024603D01*
X038342Y024539D01*
X038438Y0245D01*
X038541Y024486D01*
X038645Y0245D01*
X038741Y024539D01*
X038823Y024603D01*
X038887Y024685D01*
X038926Y024781D01*
X03894Y024885D01*
X038926Y024988D01*
X038887Y025084D01*
X038823Y025167D01*
X038741Y02523D01*
X038645Y02527D01*
X038541Y025283D01*
D02*
G37*
G36*
X037541D02*
X037438Y02527D01*
X037342Y02523D01*
X037259Y025167D01*
X037196Y025084D01*
X037156Y024988D01*
X037143Y024885D01*
X037156Y024781D01*
X037196Y024685D01*
X037259Y024603D01*
X037342Y024539D01*
X037438Y0245D01*
X037541Y024486D01*
X037645Y0245D01*
X037741Y024539D01*
X037823Y024603D01*
X037887Y024685D01*
X037926Y024781D01*
X03794Y024885D01*
X037926Y024988D01*
X037887Y025084D01*
X037823Y025167D01*
X037741Y02523D01*
X037645Y02527D01*
X037541Y025283D01*
D02*
G37*
G36*
X02431Y027159D02*
X024186Y027143D01*
X02407Y027095D01*
X023971Y027019D01*
X023895Y02692D01*
X023847Y026804D01*
X023831Y02668D01*
X023847Y026556D01*
X023895Y02644D01*
X023971Y026341D01*
X02407Y026265D01*
X024157Y026229D01*
Y026125D01*
X02355D01*
Y025375D01*
Y024625D01*
X024157D01*
Y024421D01*
X02407Y024385D01*
X023971Y024309D01*
X023895Y02421D01*
X023847Y024094D01*
X023831Y02397D01*
X023847Y023846D01*
X023895Y02373D01*
X023971Y023631D01*
X02407Y023555D01*
X024186Y023507D01*
X02431Y023491D01*
X024434Y023507D01*
X02455Y023555D01*
X024649Y023631D01*
X024725Y02373D01*
X024773Y023846D01*
X024789Y02397D01*
X024773Y024094D01*
X024725Y02421D01*
X024649Y024309D01*
X02455Y024385D01*
X024463Y024421D01*
Y02495D01*
Y026229D01*
X02455Y026265D01*
X024649Y026341D01*
X024725Y02644D01*
X024773Y026556D01*
X024789Y02668D01*
X024773Y026804D01*
X024725Y02692D01*
X024649Y027019D01*
X02455Y027095D01*
X024434Y027143D01*
X02431Y027159D01*
D02*
G37*
G36*
X037541Y024283D02*
X037438Y02427D01*
X037342Y02423D01*
X037259Y024167D01*
X037196Y024084D01*
X037156Y023988D01*
X037143Y023885D01*
X037156Y023781D01*
X037196Y023685D01*
X037259Y023603D01*
X037342Y023539D01*
X037438Y0235D01*
X037541Y023486D01*
X037645Y0235D01*
X037741Y023539D01*
X037823Y023603D01*
X037887Y023685D01*
X037926Y023781D01*
X03794Y023885D01*
X037926Y023988D01*
X037887Y024084D01*
X037823Y024167D01*
X037741Y02423D01*
X037645Y02427D01*
X037541Y024283D01*
D02*
G37*
G36*
X0263Y030334D02*
X02623Y03032D01*
X02617Y03028D01*
X02613Y03022D01*
X026116Y03015D01*
X02613Y03008D01*
X026147Y030055D01*
Y023045D01*
X02613Y02302D01*
X026116Y02295D01*
X02613Y02288D01*
X02617Y02282D01*
X02623Y02278D01*
X0263Y022766D01*
X02637Y02278D01*
X02643Y02282D01*
X02647Y02288D01*
X026475Y022905D01*
X026525D01*
X02653Y02288D01*
X02657Y02282D01*
X02663Y02278D01*
X0267Y022766D01*
X02677Y02278D01*
X02683Y02282D01*
X02687Y02288D01*
X026884Y02295D01*
X02687Y02302D01*
X026853Y023045D01*
Y029805D01*
X02687Y02983D01*
X026884Y0299D01*
X02687Y02997D01*
X02683Y03003D01*
X02677Y03007D01*
X0267Y030084D01*
X02663Y03007D01*
X02657Y03003D01*
X02653Y02997D01*
X026516Y0299D01*
X02653Y02983D01*
X026547Y029805D01*
Y023045D01*
X02653Y02302D01*
X026525Y022995D01*
X026475D01*
X02647Y02302D01*
X026453Y023045D01*
Y030055D01*
X02647Y03008D01*
X026484Y03015D01*
X02647Y03022D01*
X02643Y03028D01*
X02637Y03032D01*
X0263Y030334D01*
D02*
G37*
G36*
X038541Y023283D02*
X038438Y02327D01*
X038342Y02323D01*
X038259Y023167D01*
X038196Y023084D01*
X038156Y022988D01*
X038143Y022885D01*
X038156Y022781D01*
X038196Y022685D01*
X038259Y022603D01*
X038342Y022539D01*
X038438Y0225D01*
X038541Y022486D01*
X038645Y0225D01*
X038741Y022539D01*
X038823Y022603D01*
X038887Y022685D01*
X038926Y022781D01*
X03894Y022885D01*
X038926Y022988D01*
X038887Y023084D01*
X038823Y023167D01*
X038741Y02323D01*
X038645Y02327D01*
X038541Y023283D01*
D02*
G37*
G36*
X037541D02*
X037438Y02327D01*
X037342Y02323D01*
X037259Y023167D01*
X037196Y023084D01*
X037156Y022988D01*
X037143Y022885D01*
X037156Y022781D01*
X037196Y022685D01*
X037259Y022603D01*
X037342Y022539D01*
X037438Y0225D01*
X037541Y022486D01*
X037645Y0225D01*
X037741Y022539D01*
X037823Y022603D01*
X037887Y022685D01*
X037926Y022781D01*
X03794Y022885D01*
X037926Y022988D01*
X037887Y023084D01*
X037823Y023167D01*
X037741Y02323D01*
X037645Y02327D01*
X037541Y023283D01*
D02*
G37*
G36*
Y022283D02*
X037438Y02227D01*
X037342Y02223D01*
X037259Y022167D01*
X037196Y022084D01*
X037156Y021988D01*
X037143Y021885D01*
X037156Y021781D01*
X037196Y021685D01*
X037259Y021603D01*
X037342Y021539D01*
X037438Y0215D01*
X037541Y021486D01*
X037645Y0215D01*
X037741Y021539D01*
X037823Y021603D01*
X037887Y021685D01*
X037926Y021781D01*
X03794Y021885D01*
X037926Y021988D01*
X037887Y022084D01*
X037823Y022167D01*
X037741Y02223D01*
X037645Y02227D01*
X037541Y022283D01*
D02*
G37*
G36*
X0258Y032584D02*
X02573Y03257D01*
X02567Y03253D01*
X02563Y03247D01*
X025625Y032441D01*
X025192Y032008D01*
X025159Y031959D01*
X025147Y0319D01*
Y021545D01*
X02513Y02152D01*
X025116Y02145D01*
X02513Y02138D01*
X02517Y02132D01*
X02523Y02128D01*
X0253Y021266D01*
X02537Y02128D01*
X02543Y02132D01*
X02547Y02138D01*
X025484Y02145D01*
X02547Y02152D01*
X025453Y021545D01*
Y031837D01*
X025841Y032225D01*
X02587Y03223D01*
X02593Y03227D01*
X02597Y03233D01*
X025984Y0324D01*
X02597Y03247D01*
X02593Y03253D01*
X02587Y03257D01*
X0258Y032584D01*
D02*
G37*
G36*
X0297Y021649D02*
X029597Y021635D01*
X029501Y021595D01*
X029418Y021532D01*
X029355Y021449D01*
X029315Y021353D01*
X029301Y02125D01*
X029315Y021147D01*
X029355Y021051D01*
X029418Y020968D01*
X029501Y020905D01*
X029597Y020865D01*
X0297Y020851D01*
X029803Y020865D01*
X029899Y020905D01*
X029982Y020968D01*
X030045Y021051D01*
X030085Y021147D01*
X030099Y02125D01*
X030085Y021353D01*
X030045Y021449D01*
X029982Y021532D01*
X029899Y021595D01*
X029803Y021635D01*
X0297Y021649D01*
D02*
G37*
G36*
X0287D02*
X028597Y021635D01*
X028501Y021595D01*
X028418Y021532D01*
X028355Y021449D01*
X028315Y021353D01*
X028301Y02125D01*
X028315Y021147D01*
X028355Y021051D01*
X028418Y020968D01*
X028501Y020905D01*
X028597Y020865D01*
X0287Y020851D01*
X028803Y020865D01*
X028899Y020905D01*
X028982Y020968D01*
X029045Y021051D01*
X029085Y021147D01*
X029099Y02125D01*
X029085Y021353D01*
X029045Y021449D01*
X028982Y021532D01*
X028899Y021595D01*
X028803Y021635D01*
X0287Y021649D01*
D02*
G37*
G36*
X038541Y021283D02*
X038438Y02127D01*
X038342Y02123D01*
X038259Y021167D01*
X038196Y021084D01*
X038156Y020988D01*
X038143Y020885D01*
X038156Y020781D01*
X038196Y020685D01*
X038259Y020603D01*
X038342Y020539D01*
X038438Y0205D01*
X038541Y020486D01*
X038645Y0205D01*
X038741Y020539D01*
X038823Y020603D01*
X038887Y020685D01*
X038926Y020781D01*
X03894Y020885D01*
X038926Y020988D01*
X038887Y021084D01*
X038823Y021167D01*
X038741Y02123D01*
X038645Y02127D01*
X038541Y021283D01*
D02*
G37*
G36*
X037541D02*
X037438Y02127D01*
X037342Y02123D01*
X037259Y021167D01*
X037196Y021084D01*
X037156Y020988D01*
X037143Y020885D01*
X037156Y020781D01*
X037196Y020685D01*
X037259Y020603D01*
X037342Y020539D01*
X037438Y0205D01*
X037541Y020486D01*
X037645Y0205D01*
X037741Y020539D01*
X037823Y020603D01*
X037887Y020685D01*
X037926Y020781D01*
X03794Y020885D01*
X037926Y020988D01*
X037887Y021084D01*
X037823Y021167D01*
X037741Y02123D01*
X037645Y02127D01*
X037541Y021283D01*
D02*
G37*
G36*
X02335Y025375D02*
X02265D01*
Y024625D01*
X022847D01*
Y02201D01*
X0225D01*
Y021501D01*
X021352Y020353D01*
X020325D01*
Y02055D01*
X019575D01*
Y01985D01*
X020325D01*
Y020047D01*
X021415D01*
X021474Y020059D01*
X021523Y020092D01*
X022691Y02126D01*
X0232D01*
Y021897D01*
X0232Y021898D01*
X0232Y021899D01*
Y021905D01*
X023201Y021908D01*
X0232Y021912D01*
Y02201D01*
X023153D01*
Y024625D01*
X02335D01*
Y025375D01*
D02*
G37*
G36*
X038541Y020283D02*
X038438Y02027D01*
X038342Y02023D01*
X038259Y020167D01*
X038196Y020084D01*
X038156Y019988D01*
X038143Y019885D01*
X038156Y019781D01*
X038196Y019685D01*
X038259Y019603D01*
X038342Y019539D01*
X038438Y0195D01*
X038541Y019486D01*
X038645Y0195D01*
X038741Y019539D01*
X038823Y019603D01*
X038887Y019685D01*
X038926Y019781D01*
X03894Y019885D01*
X038926Y019988D01*
X038887Y020084D01*
X038823Y020167D01*
X038741Y02023D01*
X038645Y02027D01*
X038541Y020283D01*
D02*
G37*
G36*
X037541D02*
X037438Y02027D01*
X037342Y02023D01*
X037259Y020167D01*
X037196Y020084D01*
X037156Y019988D01*
X037143Y019885D01*
X037156Y019781D01*
X037196Y019685D01*
X037259Y019603D01*
X037342Y019539D01*
X037438Y0195D01*
X037541Y019486D01*
X037645Y0195D01*
X037741Y019539D01*
X037823Y019603D01*
X037887Y019685D01*
X037926Y019781D01*
X03794Y019885D01*
X037926Y019988D01*
X037887Y020084D01*
X037823Y020167D01*
X037741Y02023D01*
X037645Y02027D01*
X037541Y020283D01*
D02*
G37*
G36*
X02426Y023044D02*
X024136Y023027D01*
X02402Y02298D01*
X023921Y022903D01*
X023845Y022804D01*
X023797Y022689D01*
X023781Y022565D01*
X023797Y022441D01*
X023845Y022325D01*
X023921Y022226D01*
X023996Y022168D01*
X024005Y022106D01*
X023909Y02201D01*
X0234D01*
Y02126D01*
X023597D01*
Y02121D01*
X0234D01*
Y02046D01*
X023909D01*
X024044Y020324D01*
X024034Y020275D01*
X02402Y02027D01*
X023921Y020193D01*
X023845Y020094D01*
X023797Y019979D01*
X023781Y019855D01*
X023797Y019731D01*
X023845Y019615D01*
X023921Y019516D01*
X02402Y01944D01*
X024136Y019392D01*
X02426Y019376D01*
X024384Y019392D01*
X0245Y01944D01*
X024599Y019516D01*
X024675Y019615D01*
X024723Y019731D01*
X024739Y019855D01*
X024723Y019979D01*
X024675Y020094D01*
X024599Y020193D01*
X0245Y02027D01*
X024413Y020305D01*
X024413Y020306D01*
X024413Y020309D01*
Y020325D01*
X024401Y020383D01*
X024368Y020433D01*
X0241Y020701D01*
Y02121D01*
X023903D01*
Y02126D01*
X0241D01*
Y021768D01*
X024368Y022036D01*
X024401Y022086D01*
X024406Y022111D01*
X0245Y02215D01*
X024599Y022226D01*
X024675Y022325D01*
X024723Y022441D01*
X024739Y022565D01*
X024723Y022689D01*
X024675Y022804D01*
X024599Y022903D01*
X0245Y02298D01*
X024384Y023027D01*
X02426Y023044D01*
D02*
G37*
G36*
X03053Y020513D02*
X030459Y020499D01*
X0304Y020459D01*
X03036Y0204D01*
X030354Y02037D01*
X029259Y019275D01*
X02923Y01927D01*
X02917Y01923D01*
X02913Y01917D01*
X029116Y0191D01*
X02913Y01903D01*
X02917Y01897D01*
X02923Y01893D01*
X0293Y018916D01*
X02937Y01893D01*
X02943Y01897D01*
X02947Y01903D01*
X029475Y019059D01*
X03057Y020154D01*
X0306Y02016D01*
X030659Y0202D01*
X030699Y020259D01*
X030713Y02033D01*
X030699Y0204D01*
X030659Y020459D01*
X0306Y020499D01*
X03053Y020513D01*
D02*
G37*
G36*
X038541Y019283D02*
X038438Y01927D01*
X038342Y01923D01*
X038259Y019167D01*
X038196Y019084D01*
X038156Y018988D01*
X038143Y018885D01*
X038156Y018781D01*
X038196Y018685D01*
X038259Y018603D01*
X038342Y018539D01*
X038438Y0185D01*
X038541Y018486D01*
X038645Y0185D01*
X038741Y018539D01*
X038823Y018603D01*
X038887Y018685D01*
X038926Y018781D01*
X03894Y018885D01*
X038926Y018988D01*
X038887Y019084D01*
X038823Y019167D01*
X038741Y01923D01*
X038645Y01927D01*
X038541Y019283D01*
D02*
G37*
G36*
X038041Y017844D02*
X037886Y017829D01*
X037738Y017783D01*
X0376Y01771D01*
X03748Y017611D01*
X037381Y017491D01*
X037308Y017354D01*
X037263Y017205D01*
X037248Y01705D01*
X037263Y016895D01*
X037308Y016746D01*
X037381Y016609D01*
X03748Y016489D01*
X0376Y01639D01*
X037738Y016317D01*
X037886Y016271D01*
X038041Y016256D01*
X038196Y016271D01*
X038345Y016317D01*
X038482Y01639D01*
X038603Y016489D01*
X038701Y016609D01*
X038775Y016746D01*
X03882Y016895D01*
X038835Y01705D01*
X03882Y017205D01*
X038775Y017354D01*
X038701Y017491D01*
X038603Y017611D01*
X038482Y01771D01*
X038345Y017783D01*
X038196Y017829D01*
X038041Y017844D01*
D02*
G37*
%LPD*%
G36*
X029861Y037853D02*
X029865Y03785D01*
X029869Y037848D01*
X029874Y037846D01*
X02988Y037844D01*
X029886Y037843D01*
X029893Y037841D01*
X029901Y037841D01*
X029917Y03784D01*
Y03776D01*
X029909Y03776D01*
X029893Y037759D01*
X029886Y037757D01*
X02988Y037756D01*
X029874Y037754D01*
X029869Y037752D01*
X029865Y03775D01*
X029861Y037747D01*
X029857Y037744D01*
Y037856D01*
X029861Y037853D01*
D02*
G37*
G36*
X029859Y037505D02*
X029861Y037504D01*
X029864Y037503D01*
X029868Y037502D01*
X029873Y037501D01*
X029886Y037501D01*
X02991Y0375D01*
Y0374D01*
X029901Y0374D01*
X029868Y037398D01*
X029864Y037397D01*
X029861Y037396D01*
X029859Y037395D01*
X029857Y037394D01*
Y037506D01*
X029859Y037505D01*
D02*
G37*
G36*
X023359Y035105D02*
X023361Y035104D01*
X023364Y035103D01*
X023368Y035102D01*
X023373Y035101D01*
X023386Y035101D01*
X02341Y0351D01*
Y035D01*
X023401Y035D01*
X023368Y034998D01*
X023364Y034997D01*
X023361Y034996D01*
X023359Y034995D01*
X023357Y034994D01*
Y035106D01*
X023359Y035105D01*
D02*
G37*
G36*
X02315Y034379D02*
X023144Y034373D01*
X023129Y034356D01*
X023126Y034352D01*
X023124Y034348D01*
X023122Y034344D01*
X023121Y034341D01*
X023121Y034338D01*
X023121Y034336D01*
X023017Y034373D01*
X023074Y034445D01*
X02315Y034379D01*
D02*
G37*
G36*
X0321Y034351D02*
X032102Y034318D01*
X032103Y034314D01*
X032104Y034311D01*
X032105Y034309D01*
X032106Y034307D01*
X031994D01*
X031995Y034309D01*
X031996Y034311D01*
X031997Y034314D01*
X031998Y034318D01*
X031999Y034323D01*
X031999Y034336D01*
X032Y03436D01*
X0321D01*
X0321Y034351D01*
D02*
G37*
G36*
X03249Y034309D02*
X032491Y034293D01*
X032493Y034286D01*
X032494Y03428D01*
X032496Y034274D01*
X032498Y034269D01*
X0325Y034265D01*
X032503Y034261D01*
X032506Y034257D01*
X032394D01*
X032397Y034261D01*
X0324Y034265D01*
X032402Y034269D01*
X032404Y034274D01*
X032406Y03428D01*
X032407Y034286D01*
X032409Y034293D01*
X032409Y034301D01*
X03241Y034317D01*
X03249D01*
X03249Y034309D01*
D02*
G37*
G36*
X033651Y032055D02*
X033652Y032037D01*
X033654Y032022D01*
X033658Y032009D01*
X033663Y031998D01*
X033668Y031989D01*
X033674Y031982D01*
X033682Y031977D01*
X033691Y031974D01*
X0337Y031973D01*
X0335D01*
X03351Y031974D01*
X033518Y031977D01*
X033526Y031982D01*
X033532Y031989D01*
X033537Y031998D01*
X033542Y032009D01*
X033545Y032022D01*
X033548Y032037D01*
X033549Y032055D01*
X03355Y032074D01*
X03365D01*
X033651Y032055D01*
D02*
G37*
G36*
X03364Y031425D02*
X033632Y031422D01*
X033624Y031417D01*
X033618Y03141D01*
X033612Y031401D01*
X033608Y03139D01*
X033605Y031377D01*
X033602Y031362D01*
X0336Y031345D01*
X0336Y031326D01*
X0335D01*
X0335Y031345D01*
X033498Y031362D01*
X033496Y031377D01*
X033492Y03139D01*
X033488Y031401D01*
X033482Y03141D01*
X033475Y031417D01*
X033468Y031422D01*
X033459Y031425D01*
X03345Y031426D01*
X03365D01*
X03364Y031425D01*
D02*
G37*
G36*
X0336Y031305D02*
X033602Y031288D01*
X033605Y031273D01*
X033608Y03126D01*
X033612Y031249D01*
X033618Y03124D01*
X033624Y031233D01*
X033632Y031228D01*
X03364Y031225D01*
X03365Y031224D01*
X03345D01*
X033459Y031225D01*
X033468Y031228D01*
X033475Y031233D01*
X033482Y03124D01*
X033488Y031249D01*
X033492Y03126D01*
X033496Y031273D01*
X033498Y031288D01*
X0335Y031305D01*
X0335Y031324D01*
X0336D01*
X0336Y031305D01*
D02*
G37*
G36*
X03364Y030676D02*
X033632Y030673D01*
X033624Y030668D01*
X033618Y030661D01*
X033612Y030652D01*
X033608Y030641D01*
X033605Y030628D01*
X033602Y030613D01*
X0336Y030595D01*
X0336Y030576D01*
X0335D01*
X0335Y030595D01*
X033498Y030613D01*
X033496Y030628D01*
X033492Y030641D01*
X033488Y030652D01*
X033482Y030661D01*
X033475Y030668D01*
X033468Y030673D01*
X033459Y030676D01*
X03345Y030677D01*
X03365D01*
X03364Y030676D01*
D02*
G37*
G36*
X02399Y025475D02*
X023982Y025472D01*
X023974Y025467D01*
X023968Y02546D01*
X023963Y025451D01*
X023958Y02544D01*
X023955Y025427D01*
X023952Y025412D01*
X023951Y025395D01*
X02395Y025376D01*
X02385D01*
X023849Y025395D01*
X023848Y025412D01*
X023846Y025427D01*
X023842Y02544D01*
X023837Y025451D01*
X023832Y02546D01*
X023826Y025467D01*
X023818Y025472D01*
X023809Y025475D01*
X0238Y025476D01*
X024D01*
X02399Y025475D01*
D02*
G37*
G36*
X023951Y025355D02*
X023952Y025338D01*
X023955Y025323D01*
X023958Y02531D01*
X023963Y025299D01*
X023968Y02529D01*
X023974Y025283D01*
X023982Y025278D01*
X02399Y025275D01*
X024Y025274D01*
X0238D01*
X023809Y025275D01*
X023818Y025278D01*
X023826Y025283D01*
X023832Y02529D01*
X023837Y025299D01*
X023842Y02531D01*
X023846Y025323D01*
X023848Y025338D01*
X023849Y025355D01*
X02385Y025374D01*
X02395D01*
X023951Y025355D01*
D02*
G37*
G36*
X024149Y02509D02*
X024152Y025082D01*
X024157Y025075D01*
X024164Y025068D01*
X024173Y025062D01*
X024184Y025058D01*
X024197Y025055D01*
X024212Y025052D01*
X02423Y02505D01*
X024249Y02505D01*
Y02495D01*
X02423Y02495D01*
X024212Y024948D01*
X024197Y024945D01*
X024184Y024942D01*
X024173Y024938D01*
X024164Y024932D01*
X024157Y024925D01*
X024152Y024918D01*
X024149Y02491D01*
X024148Y0249D01*
Y0251D01*
X024149Y02509D01*
D02*
G37*
G36*
X026355Y030091D02*
X026354Y030089D01*
X026353Y030086D01*
X026352Y030082D01*
X026351Y030077D01*
X026351Y030064D01*
X02635Y03004D01*
X02625D01*
X02625Y030049D01*
X026248Y030082D01*
X026247Y030086D01*
X026246Y030089D01*
X026245Y030091D01*
X026244Y030093D01*
X026356D01*
X026355Y030091D01*
D02*
G37*
G36*
X026755Y029841D02*
X026754Y029839D01*
X026753Y029836D01*
X026752Y029832D01*
X026751Y029827D01*
X026751Y029814D01*
X02675Y02979D01*
X02665D01*
X02665Y029799D01*
X026648Y029832D01*
X026647Y029836D01*
X026646Y029839D01*
X026645Y029841D01*
X026644Y029843D01*
X026756D01*
X026755Y029841D01*
D02*
G37*
G36*
X02675Y023051D02*
X026752Y023018D01*
X026753Y023014D01*
X026754Y023011D01*
X026755Y023009D01*
X026756Y023007D01*
X026644D01*
X026645Y023009D01*
X026646Y023011D01*
X026647Y023014D01*
X026648Y023018D01*
X026648Y023023D01*
X026649Y023036D01*
X02665Y02306D01*
X02675D01*
X02675Y023051D01*
D02*
G37*
G36*
X02635D02*
X026352Y023018D01*
X026353Y023014D01*
X026354Y023011D01*
X026355Y023009D01*
X026356Y023007D01*
X026244D01*
X026245Y023009D01*
X026246Y023011D01*
X026247Y023014D01*
X026248Y023018D01*
X026249Y023023D01*
X026249Y023036D01*
X02625Y02306D01*
X02635D01*
X02635Y023051D01*
D02*
G37*
G36*
X025799Y03232D02*
X025797Y03232D01*
X025795Y032319D01*
X025792Y032317D01*
X025788Y032315D01*
X025785Y032312D01*
X025775Y032304D01*
X025757Y032287D01*
X025687Y032357D01*
X025693Y032364D01*
X025715Y032388D01*
X025717Y032392D01*
X025719Y032395D01*
X02572Y032397D01*
X02572Y032399D01*
X025799Y03232D01*
D02*
G37*
G36*
X02535Y021551D02*
X025352Y021518D01*
X025353Y021514D01*
X025354Y021511D01*
X025355Y021509D01*
X025356Y021507D01*
X025244D01*
X025245Y021509D01*
X025246Y021511D01*
X025247Y021514D01*
X025248Y021518D01*
X025248Y021523D01*
X025249Y021536D01*
X02525Y02156D01*
X02535D01*
X02535Y021551D01*
D02*
G37*
G36*
X023091Y024726D02*
X023082Y024723D01*
X023075Y024718D01*
X023068Y024711D01*
X023063Y024702D01*
X023058Y024691D01*
X023054Y024678D01*
X023052Y024663D01*
X02305Y024645D01*
X02305Y024626D01*
X02295D01*
X02295Y024645D01*
X022948Y024663D01*
X022945Y024678D01*
X022942Y024691D01*
X022938Y024702D01*
X022932Y024711D01*
X022926Y024718D01*
X022918Y024723D01*
X02291Y024726D01*
X0229Y024727D01*
X0231D01*
X023091Y024726D01*
D02*
G37*
G36*
X02305Y021989D02*
X023052Y021972D01*
X023054Y021957D01*
X023058Y021944D01*
X023062Y021933D01*
X023068Y021924D01*
X023074Y021917D01*
X023081Y021912D01*
X02309Y021909D01*
X023099Y021908D01*
X0229D01*
X02291Y021909D01*
X022918Y021912D01*
X022926Y021917D01*
X022932Y021924D01*
X022938Y021933D01*
X022942Y021944D01*
X022945Y021957D01*
X022948Y021972D01*
X02295Y021989D01*
X02295Y022008D01*
X02305D01*
X02305Y021989D01*
D02*
G37*
G36*
X023006Y02172D02*
X022999Y021713D01*
X022985Y021696D01*
X022982Y021692D01*
X022979Y021688D01*
X022977Y021684D01*
X022976Y021681D01*
X022976Y021678D01*
X022976Y021675D01*
X022876Y021726D01*
X022902Y021757D01*
X023006Y02172D01*
D02*
G37*
G36*
X022875Y021574D02*
X022872Y021574D01*
X022869Y021574D01*
X022866Y021573D01*
X022862Y021571D01*
X022858Y021568D01*
X022854Y021565D01*
X022843Y021556D01*
X02283Y021544D01*
X02276Y021615D01*
X022824Y021674D01*
X022875Y021574D01*
D02*
G37*
G36*
X020224Y020291D02*
X020227Y020282D01*
X020232Y020275D01*
X020239Y020268D01*
X020248Y020262D01*
X020259Y020258D01*
X020272Y020254D01*
X020287Y020252D01*
X020305Y02025D01*
X020324Y02025D01*
Y02015D01*
X020305Y02015D01*
X020287Y020148D01*
X020272Y020145D01*
X020259Y020142D01*
X020248Y020138D01*
X020239Y020132D01*
X020232Y020126D01*
X020227Y020118D01*
X020224Y02011D01*
X020223Y0201D01*
Y0203D01*
X020224Y020291D01*
D02*
G37*
G36*
X024312Y022193D02*
X024312Y022191D01*
X024311Y022189D01*
X024311Y022185D01*
X02431Y022169D01*
X02431Y022145D01*
X02421D01*
X024207Y022193D01*
X024313D01*
X024312Y022193D01*
D02*
G37*
G36*
X02384Y021361D02*
X023832Y021358D01*
X023825Y021353D01*
X023818Y021346D01*
X023812Y021337D01*
X023808Y021326D01*
X023805Y021312D01*
X023802Y021297D01*
X0238Y02128D01*
X0238Y021261D01*
X0237D01*
X0237Y02128D01*
X023698Y021297D01*
X023695Y021312D01*
X023692Y021326D01*
X023688Y021337D01*
X023682Y021346D01*
X023675Y021353D01*
X023668Y021358D01*
X02366Y021361D01*
X02365Y021362D01*
X02385D01*
X02384Y021361D01*
D02*
G37*
G36*
X0238Y021189D02*
X023802Y021172D01*
X023805Y021157D01*
X023808Y021144D01*
X023812Y021133D01*
X023818Y021123D01*
X023825Y021116D01*
X023832Y021111D01*
X02384Y021108D01*
X02385Y021107D01*
X02365D01*
X02366Y021108D01*
X023668Y021111D01*
X023675Y021116D01*
X023682Y021123D01*
X023688Y021133D01*
X023692Y021144D01*
X023695Y021157D01*
X023698Y021172D01*
X0237Y021189D01*
X0237Y021208D01*
X0238D01*
X0238Y021189D01*
D02*
G37*
G36*
X024311Y020307D02*
X024312Y02029D01*
X024315Y020276D01*
X02432Y020262D01*
X024325Y02025D01*
X024332Y02024D01*
X02434Y020231D01*
X024349Y020223D01*
X024359Y020217D01*
X024371Y020213D01*
X024149D01*
X024161Y020217D01*
X024171Y020223D01*
X02418Y020231D01*
X024188Y02024D01*
X024195Y02025D01*
X0242Y020262D01*
X024205Y020276D01*
X024208Y02029D01*
X024209Y020307D01*
X02421Y020325D01*
X02431D01*
X024311Y020307D01*
D02*
G37*
G36*
X030529Y02025D02*
X030527Y020249D01*
X030524Y020248D01*
X030521Y020247D01*
X030518Y020244D01*
X030514Y020241D01*
X030505Y020233D01*
X030487Y020216D01*
X030416Y020287D01*
X030422Y020293D01*
X030444Y020318D01*
X030447Y020321D01*
X030448Y020324D01*
X030449Y020327D01*
X03045Y020329D01*
X030529Y02025D01*
D02*
G37*
G36*
X029413Y019143D02*
X029407Y019136D01*
X029385Y019112D01*
X029383Y019108D01*
X029381Y019105D01*
X02938Y019103D01*
X02938Y019101D01*
X029301Y01918D01*
X029303Y01918D01*
X029305Y019181D01*
X029308Y019183D01*
X029312Y019185D01*
X029315Y019188D01*
X029325Y019196D01*
X029343Y019213D01*
X029413Y019143D01*
D02*
G37*
D17*
X023Y0343D02*
X02345Y03475D01*
X02955Y038913D02*
X03005Y039413D01*
X02955Y038D02*
Y038913D01*
X0263Y03475D02*
X02955Y038D01*
X02345Y03475D02*
X0263D01*
X0298Y03745D02*
X0313D01*
X03205Y03425D02*
Y0367D01*
X0313Y03745D02*
X03205Y0367D01*
X03355Y0299D02*
Y03165D01*
X02851Y038223D02*
Y038873D01*
X025337Y03505D02*
X02851Y038223D01*
X03355Y03261D02*
X0336Y03256D01*
Y0317D02*
Y03256D01*
X0253Y0319D02*
X0258Y0324D01*
X0253Y02145D02*
Y0319D01*
X0184Y0292D02*
X0192Y03D01*
Y0356D01*
X01845Y03635D02*
X0192Y0356D01*
X0233Y03505D02*
X025337D01*
X038026Y035369D02*
X038541Y035885D01*
X038026Y0334D02*
Y035369D01*
Y0324D02*
X038541Y031885D01*
X038026Y0324D02*
Y0334D01*
X037541Y033885D02*
X038026Y0334D01*
X0184Y0271D02*
Y0292D01*
Y0271D02*
X01882Y02668D01*
X02243D01*
Y02632D02*
Y02668D01*
Y02632D02*
X023Y02575D01*
X02425Y03445D02*
X02675Y03195D01*
X02785D01*
X03065Y034D02*
Y03475D01*
Y033615D02*
Y034D01*
X0284Y0365D02*
X0289D01*
X0299Y0355D01*
X03065Y03475D01*
X02865Y02985D02*
X0287Y0298D01*
X02865Y02985D02*
Y0303D01*
X027115Y020905D02*
Y026665D01*
X02678Y02057D02*
X027115Y020905D01*
X022883Y021667D02*
X023Y021785D01*
X0267Y02295D02*
Y0299D01*
X0345Y0317D02*
Y03265D01*
X0356Y03375D01*
X026263Y0402D02*
X02705Y039413D01*
X0237Y0402D02*
X026263D01*
X0225Y039D02*
X0237Y0402D01*
X0263Y02295D02*
Y03015D01*
X023Y0343D02*
X02305D01*
X02851Y038873D02*
X02905Y039413D01*
X02285Y03505D02*
Y03865D01*
X024146Y039946D01*
X025517D01*
X02605Y039413D01*
X0225Y03505D02*
Y039D01*
X03355Y03165D02*
X0336Y0317D01*
X027115Y026665D02*
X02955Y0291D01*
X02678Y01703D02*
Y02057D01*
X0293Y0191D02*
X03053Y02033D01*
X02375Y020835D02*
X02426Y020325D01*
Y019855D02*
Y020325D01*
X02375Y020835D02*
Y021635D01*
X02426Y022145D01*
Y022565D01*
X02431Y02495D02*
Y02668D01*
Y02397D02*
Y02495D01*
X02426Y025D02*
X02431Y02495D01*
X0239Y025D02*
X02426D01*
X0239D02*
Y02575D01*
X021415Y0202D02*
X02285Y021635D01*
X01995Y0202D02*
X021415D01*
X023Y021785D02*
Y025D01*
X02243Y02518D02*
X023Y02575D01*
X02243Y02397D02*
Y02518D01*
X02238Y022565D02*
X02243Y022615D01*
Y02397D01*
X02238Y020365D02*
X02285Y020835D01*
X02238Y019855D02*
Y020365D01*
X022205Y01968D02*
X02238Y019855D01*
X02103Y01968D02*
X022205D01*
X021Y01965D02*
X02103Y01968D01*
X0193Y01965D02*
X021D01*
X0193D02*
Y0202D01*
X01878Y01968D02*
X0193Y0202D01*
X01832Y01968D02*
X01878D01*
X02057Y0211D02*
X02103Y02156D01*
X01995Y0211D02*
X02057D01*
X0193D02*
X01995D01*
X01878D02*
X0193D01*
X01832Y02156D02*
X01878Y0211D01*
D19*
X0294Y0306D02*
D03*
X0303D02*
D03*
X02375Y021635D02*
D03*
X02285D02*
D03*
Y020835D02*
D03*
X02375D02*
D03*
X023Y02575D02*
D03*
X0239D02*
D03*
Y025D02*
D03*
X023D02*
D03*
X02875Y03341D02*
D03*
X02965D02*
D03*
X0336Y03095D02*
D03*
X0345D02*
D03*
Y0317D02*
D03*
X0336D02*
D03*
D23*
X03065Y03185D02*
D03*
Y03275D02*
D03*
X02785Y03285D02*
D03*
Y03195D02*
D03*
X0193Y0202D02*
D03*
Y0211D02*
D03*
X01995D02*
D03*
Y0202D02*
D03*
D43*
X03105Y039413D02*
D03*
X03005D02*
D03*
X02905D02*
D03*
X02805D02*
D03*
X02705D02*
D03*
X02605D02*
D03*
X02505D02*
D03*
X03105Y038413D02*
D03*
X03005D02*
D03*
X02905D02*
D03*
X02805D02*
D03*
X02705D02*
D03*
X02605D02*
D03*
D51*
X0298Y0378D02*
X03235D01*
X03245Y0377D01*
Y0342D02*
Y0377D01*
D52*
X0221Y02995D02*
Y0397D01*
X02285Y04045D01*
X03355D01*
X03405Y03995D01*
D53*
X02238Y019855D02*
X02335Y018885D01*
Y01875D02*
Y018885D01*
X0218Y0172D02*
X02335Y01875D01*
X0242D01*
X0267Y02125D01*
X0257Y0233D02*
Y02505D01*
X0295Y0298D02*
X030275Y030575D01*
X0295Y0233D02*
X0353Y0291D01*
X03543Y02923D02*
Y0299D01*
X0353Y0291D02*
X03543Y02923D01*
X0318Y0291D02*
X0353D01*
X03543Y02038D02*
Y02923D01*
X0257Y02225D02*
Y0233D01*
Y02225D02*
X0267Y02125D01*
X03065Y03275D02*
Y033615D01*
Y03185D02*
X03255Y03375D01*
X02785Y03065D02*
X02865Y02985D01*
X0282Y0342D02*
X02965D01*
X027115Y033115D02*
X0282Y0342D01*
X027115Y032685D02*
Y033115D01*
X02965Y0342D02*
X03045D01*
X02965Y03341D02*
Y0342D01*
X03045D02*
X03065Y034D01*
X027115Y032685D02*
X02785Y03195D01*
Y03065D02*
Y03195D01*
X0287Y0298D02*
X0295D01*
X0303Y0306D02*
X0318Y0291D01*
X0345Y03083D02*
Y03095D01*
Y03083D02*
X03543Y0299D01*
X02555Y01645D02*
X0277D01*
X0248Y0172D02*
X02555Y01645D01*
X03435D02*
X0351Y0172D01*
X0298Y01645D02*
X03435D01*
X0277D02*
X0298D01*
X0321Y0172D02*
X03225D01*
X03543Y02038D01*
Y0299D02*
Y03261D01*
X0277Y01645D02*
Y02125D01*
X0351Y0172D02*
X0363Y0184D01*
Y03305D01*
X0356Y03375D02*
X0363Y03305D01*
X029425Y030625D02*
X0296Y0308D01*
Y03185D01*
X02785Y03285D02*
X028Y0327D01*
X02875D01*
Y03341D01*
Y0327D02*
X0296Y03185D01*
X03065D01*
X0349Y03375D02*
X0356D01*
X03255D02*
X0349D01*
X038076Y03835D02*
X038541Y037885D01*
X03395Y03835D02*
X038076D01*
X03345Y03885D02*
X03395Y03835D01*
X03345Y03885D02*
Y03935D01*
X03405Y03995D01*
X0345Y0394D02*
X036163D01*
X03405Y03895D02*
X0345Y0394D01*
D54*
X0321Y0172D02*
D03*
X0218D02*
D03*
D55*
X0331D02*
D03*
X0341D02*
D03*
X0351D02*
D03*
X0228D02*
D03*
X0238D02*
D03*
X0248D02*
D03*
D56*
X0297Y02125D02*
D03*
X0287D02*
D03*
X0277D02*
D03*
X01845Y03435D02*
D03*
Y03335D02*
D03*
Y03535D02*
D03*
Y03635D02*
D03*
Y03735D02*
D03*
Y03835D02*
D03*
X03405Y03895D02*
D03*
X038541Y018885D02*
D03*
X037541D02*
D03*
X038541Y019885D02*
D03*
X037541D02*
D03*
X038541Y020885D02*
D03*
X037541D02*
D03*
X038541Y021885D02*
D03*
X037541D02*
D03*
X038541Y022885D02*
D03*
X037541D02*
D03*
X038541Y023885D02*
D03*
X037541D02*
D03*
X038541Y024885D02*
D03*
X037541D02*
D03*
X038541Y025885D02*
D03*
X037541D02*
D03*
X038541Y026885D02*
D03*
X037541D02*
D03*
X038541Y027885D02*
D03*
X037541D02*
D03*
X038541Y028885D02*
D03*
X037541D02*
D03*
X038541Y029885D02*
D03*
X037541D02*
D03*
X038541Y030885D02*
D03*
X037541D02*
D03*
X038541Y031885D02*
D03*
X037541D02*
D03*
X038541Y032885D02*
D03*
X037541D02*
D03*
X038541Y033885D02*
D03*
X037541D02*
D03*
X038541Y034885D02*
D03*
X037541D02*
D03*
X038541Y035885D02*
D03*
X037541D02*
D03*
X038541Y036885D02*
D03*
X037541D02*
D03*
X038541Y037885D02*
D03*
D57*
X0267Y02125D02*
D03*
D58*
X01845Y03235D02*
D03*
X03405Y03995D02*
D03*
X037541Y037885D02*
D03*
D59*
X0295Y0233D02*
D03*
D60*
X02426Y019855D02*
D03*
X02238Y022565D02*
D03*
X02426D02*
D03*
X02238Y019855D02*
D03*
X02431Y02397D02*
D03*
X02243Y02668D02*
D03*
X02431D02*
D03*
X02243Y02397D02*
D03*
X02103Y02156D02*
D03*
X01832Y01968D02*
D03*
Y02156D02*
D03*
X02103Y01968D02*
D03*
X03543Y03261D02*
D03*
X03355Y0299D02*
D03*
X03543D02*
D03*
X03355Y03261D02*
D03*
D61*
X038041Y01705D02*
D03*
X01875Y039885D02*
D03*
X038041D02*
D03*
X01875Y01705D02*
D03*
D62*
X02505Y038413D02*
D03*
D63*
X0298Y03745D02*
D03*
Y0378D02*
D03*
X03245Y0342D02*
D03*
X03205Y03425D02*
D03*
X0258Y0324D02*
D03*
X0253Y02145D02*
D03*
X0233Y03505D02*
D03*
X0184Y0292D02*
D03*
Y0271D02*
D03*
X0257Y02505D02*
D03*
X02425Y03445D02*
D03*
X0284Y0365D02*
D03*
X0299Y0355D02*
D03*
X02965Y0334D02*
D03*
X03065Y03275D02*
D03*
X03025Y0306D02*
D03*
X02865Y0303D02*
D03*
X02785Y03195D02*
D03*
X0229Y02165D02*
D03*
X0267Y02295D02*
D03*
X0298Y01645D02*
D03*
X03065Y03185D02*
D03*
X02945Y0306D02*
D03*
X02785Y03285D02*
D03*
X02875Y03341D02*
D03*
X0349Y03375D02*
D03*
X0267Y0299D02*
D03*
X0263Y02295D02*
D03*
Y03015D02*
D03*
X02305Y0343D02*
D03*
X02285Y03505D02*
D03*
X0225D02*
D03*
X036163Y0394D02*
D03*
X02955Y0291D02*
D03*
X02678Y01703D02*
D03*
X0293Y0191D02*
D03*
X03053Y02033D02*
D03*
D64*
X0257Y0233D02*
D03*
X0356Y03375D02*
D03*
D65*
X0221Y02995D02*
D03*
M02*
