M48
;Layer_Color=9474304
;FILE_FORMAT=2:4
INCH,LZ
;TYPE=PLATED
T1F00S00C0.0150
T2F00S00C0.0200
T3F00S00C0.0280
T4F00S00C0.0300
T5F00S00C0.0310
T6F00S00C0.0340
T7F00S00C0.0354
T8F00S00C0.0420
T9F00S00C0.1181
%
T01
X02678Y01703
X0298Y01645
X0293Y0191
X03053Y02033
X0253Y02145
X0263Y02295
X0267
X0257Y02505
X0263Y03015
X0267Y0299
X02865Y0303
X02945Y0306
X03025
X02955Y0291
X0184Y0292
Y0271
X0229Y02165
X02305Y0343
X02285Y03505
X0225
X0233
X02425Y03445
X0258Y0324
X02785Y03195
Y03285
X02875Y03341
X02965Y0334
X03065Y03275
Y03185
X0299Y0355
X0298Y03745
Y0378
X0284Y0365
X03205Y03425
X03245Y0342
X0349Y03375
X036163Y0394
T02
X0221Y02995
T03
X0257Y0233
X0356Y03375
T04
X0295Y0233
T05
X03355Y0299
X03543
X02431Y02668
X02243
Y02397
X02238Y022565
X02426
X02431Y02397
X02426Y019855
X02238
X02103Y01968
Y02156
X01832
Y01968
X03355Y03261
X03543
T06
X0321Y0172
X0331
X0341
X0351
X0248
X0238
X0228
X0218
T07
X037541Y018885
X038541
Y019885
X037541
Y020885
X038541
Y021885
X037541
Y022885
X038541
Y023885
X037541
Y024885
X038541
Y025885
X037541
Y026885
X038541
Y027885
X037541
Y028885
X038541
Y029885
X037541
Y030885
X038541
X0297Y02125
X0287
X0277
X0267
X01845Y03235
Y03335
Y03435
Y03535
Y03635
Y03735
Y03835
X03405Y03895
Y03995
X037541Y037885
Y036885
Y035885
Y034885
Y033885
Y032885
Y031885
X038541
Y032885
Y033885
Y034885
Y035885
Y036885
Y037885
T08
X02505Y038413
Y039413
X02605
X02705
X02805
X02905
X03005
X03105
Y038413
X03005
X02905
X02805
X02705
X02605
T09
X038041Y01705
X01875
Y039885
X038041
M30
