G04*
G04 #@! TF.GenerationSoftware,Altium Limited,Altium Designer,18.1.5 (160)*
G04*
G04 Layer_Color=2752767*
%FSTAX24Y24*%
%MOIN*%
G70*
G01*
G75*
%ADD70C,0.0020*%
%ADD71C,0.0027*%
D70*
X03202Y01712D02*
Y01728D01*
X03218D01*
Y01712D01*
X03202D01*
X03302D02*
Y01728D01*
X03318D01*
Y01712D01*
X03302D01*
X03402D02*
Y01728D01*
X03418D01*
Y01712D01*
X03402D01*
X03502D02*
Y01728D01*
X03518D01*
Y01712D01*
X03502D01*
X02172D02*
Y01728D01*
X02188D01*
Y01712D01*
X02172D01*
X02272D02*
Y01728D01*
X02288D01*
Y01712D01*
X02272D01*
X02372D02*
Y01728D01*
X02388D01*
Y01712D01*
X02372D01*
X02472D02*
Y01728D01*
X02488D01*
Y01712D01*
X02472D01*
X0295Y02322D02*
X02942Y02338D01*
X02958D01*
X0295Y02322D01*
X02426Y019775D02*
X0243Y019815D01*
X02434D01*
X0243Y019855D01*
X02434Y019895D01*
X0243D01*
X02426Y019935D01*
X02422Y019895D01*
X02418D01*
X02422Y019855D01*
X02418Y019815D01*
X02422D01*
X02426Y019775D01*
X02238Y022485D02*
X02242Y022525D01*
X02246D01*
X02242Y022565D01*
X02246Y022605D01*
X02242D01*
X02238Y022645D01*
X02234Y022605D01*
X0223D01*
X02234Y022565D01*
X0223Y022525D01*
X02234D01*
X02238Y022485D01*
X02426D02*
X0243Y022525D01*
X02434D01*
X0243Y022565D01*
X02434Y022605D01*
X0243D01*
X02426Y022645D01*
X02422Y022605D01*
X02418D01*
X02422Y022565D01*
X02418Y022525D01*
X02422D01*
X02426Y022485D01*
X02238Y019775D02*
X02242Y019815D01*
X02246D01*
X02242Y019855D01*
X02246Y019895D01*
X02242D01*
X02238Y019935D01*
X02234Y019895D01*
X0223D01*
X02234Y019855D01*
X0223Y019815D01*
X02234D01*
X02238Y019775D01*
X02431Y02389D02*
X02435Y02393D01*
X02439D01*
X02435Y02397D01*
X02439Y02401D01*
X02435D01*
X02431Y02405D01*
X02427Y02401D01*
X02423D01*
X02427Y02397D01*
X02423Y02393D01*
X02427D01*
X02431Y02389D01*
X02243Y0266D02*
X02247Y02664D01*
X02251D01*
X02247Y02668D01*
X02251Y02672D01*
X02247D01*
X02243Y02676D01*
X02239Y02672D01*
X02235D01*
X02239Y02668D01*
X02235Y02664D01*
X02239D01*
X02243Y0266D01*
X02431D02*
X02435Y02664D01*
X02439D01*
X02435Y02668D01*
X02439Y02672D01*
X02435D01*
X02431Y02676D01*
X02427Y02672D01*
X02423D01*
X02427Y02668D01*
X02423Y02664D01*
X02427D01*
X02431Y0266D01*
X02243Y02389D02*
X02247Y02393D01*
X02251D01*
X02247Y02397D01*
X02251Y02401D01*
X02247D01*
X02243Y02405D01*
X02239Y02401D01*
X02235D01*
X02239Y02397D01*
X02235Y02393D01*
X02239D01*
X02243Y02389D01*
X02103Y02148D02*
X02107Y02152D01*
X02111D01*
X02107Y02156D01*
X02111Y0216D01*
X02107D01*
X02103Y02164D01*
X02099Y0216D01*
X02095D01*
X02099Y02156D01*
X02095Y02152D01*
X02099D01*
X02103Y02148D01*
X01832Y0196D02*
X01836Y01964D01*
X0184D01*
X01836Y01968D01*
X0184Y01972D01*
X01836D01*
X01832Y01976D01*
X01828Y01972D01*
X01824D01*
X01828Y01968D01*
X01824Y01964D01*
X01828D01*
X01832Y0196D01*
Y02148D02*
X01836Y02152D01*
X0184D01*
X01836Y02156D01*
X0184Y0216D01*
X01836D01*
X01832Y02164D01*
X01828Y0216D01*
X01824D01*
X01828Y02156D01*
X01824Y02152D01*
X01828D01*
X01832Y02148D01*
X02103Y0196D02*
X02107Y01964D01*
X02111D01*
X02107Y01968D01*
X02111Y01972D01*
X02107D01*
X02103Y01976D01*
X02099Y01972D01*
X02095D01*
X02099Y01968D01*
X02095Y01964D01*
X02099D01*
X02103Y0196D01*
X03543Y03253D02*
X03547Y03257D01*
X03551D01*
X03547Y03261D01*
X03551Y03265D01*
X03547D01*
X03543Y03269D01*
X03539Y03265D01*
X03535D01*
X03539Y03261D01*
X03535Y03257D01*
X03539D01*
X03543Y03253D01*
X03355Y02982D02*
X03359Y02986D01*
X03363D01*
X03359Y0299D01*
X03363Y02994D01*
X03359D01*
X03355Y02998D01*
X03351Y02994D01*
X03347D01*
X03351Y0299D01*
X03347Y02986D01*
X03351D01*
X03355Y02982D01*
X03543D02*
X03547Y02986D01*
X03551D01*
X03547Y0299D01*
X03551Y02994D01*
X03547D01*
X03543Y02998D01*
X03539Y02994D01*
X03535D01*
X03539Y0299D01*
X03535Y02986D01*
X03539D01*
X03543Y02982D01*
X03355Y03253D02*
X03359Y03257D01*
X03363D01*
X03359Y03261D01*
X03363Y03265D01*
X03359D01*
X03355Y03269D01*
X03351Y03265D01*
X03347D01*
X03351Y03261D01*
X03347Y03257D01*
X03351D01*
X03355Y03253D01*
X037961Y01697D02*
X038001Y01705D01*
X037961Y01713D01*
X038041Y01709D01*
X038121Y01713D01*
X038081Y01705D01*
X038121Y01697D01*
X038041Y01701D01*
X037961Y01697D01*
X03101Y039373D02*
Y039333D01*
X03109D01*
Y039373D01*
X03113D01*
Y039453D01*
X03109D01*
Y039493D01*
X03101D01*
Y039453D01*
X03097D01*
Y039373D01*
X03101D01*
X03001D02*
Y039333D01*
X03009D01*
Y039373D01*
X03013D01*
Y039453D01*
X03009D01*
Y039493D01*
X03001D01*
Y039453D01*
X02997D01*
Y039373D01*
X03001D01*
X02901D02*
Y039333D01*
X02909D01*
Y039373D01*
X02913D01*
Y039453D01*
X02909D01*
Y039493D01*
X02901D01*
Y039453D01*
X02897D01*
Y039373D01*
X02901D01*
X02801D02*
Y039333D01*
X02809D01*
Y039373D01*
X02813D01*
Y039453D01*
X02809D01*
Y039493D01*
X02801D01*
Y039453D01*
X02797D01*
Y039373D01*
X02801D01*
X02701D02*
Y039333D01*
X02709D01*
Y039373D01*
X02713D01*
Y039453D01*
X02709D01*
Y039493D01*
X02701D01*
Y039453D01*
X02697D01*
Y039373D01*
X02701D01*
X02601D02*
Y039333D01*
X02609D01*
Y039373D01*
X02613D01*
Y039453D01*
X02609D01*
Y039493D01*
X02601D01*
Y039453D01*
X02597D01*
Y039373D01*
X02601D01*
X02501D02*
Y039333D01*
X02509D01*
Y039373D01*
X02513D01*
Y039453D01*
X02509D01*
Y039493D01*
X02501D01*
Y039453D01*
X02497D01*
Y039373D01*
X02501D01*
X03101Y038373D02*
Y038333D01*
X03109D01*
Y038373D01*
X03113D01*
Y038453D01*
X03109D01*
Y038493D01*
X03101D01*
Y038453D01*
X03097D01*
Y038373D01*
X03101D01*
X03001D02*
Y038333D01*
X03009D01*
Y038373D01*
X03013D01*
Y038453D01*
X03009D01*
Y038493D01*
X03001D01*
Y038453D01*
X02997D01*
Y038373D01*
X03001D01*
X02901D02*
Y038333D01*
X02909D01*
Y038373D01*
X02913D01*
Y038453D01*
X02909D01*
Y038493D01*
X02901D01*
Y038453D01*
X02897D01*
Y038373D01*
X02901D01*
X02801D02*
Y038333D01*
X02809D01*
Y038373D01*
X02813D01*
Y038453D01*
X02809D01*
Y038493D01*
X02801D01*
Y038453D01*
X02797D01*
Y038373D01*
X02801D01*
X02701D02*
Y038333D01*
X02709D01*
Y038373D01*
X02713D01*
Y038453D01*
X02709D01*
Y038493D01*
X02701D01*
Y038453D01*
X02697D01*
Y038373D01*
X02701D01*
X02601D02*
Y038333D01*
X02609D01*
Y038373D01*
X02613D01*
Y038453D01*
X02609D01*
Y038493D01*
X02601D01*
Y038453D01*
X02597D01*
Y038373D01*
X02601D01*
X02501D02*
Y038333D01*
X02509D01*
Y038373D01*
X02513D01*
Y038453D01*
X02509D01*
Y038493D01*
X02501D01*
Y038453D01*
X02497D01*
Y038373D01*
X02501D01*
X01867Y039805D02*
X01871Y039885D01*
X01867Y039965D01*
X01875Y039925D01*
X01883Y039965D01*
X01879Y039885D01*
X01883Y039805D01*
X01875Y039845D01*
X01867Y039805D01*
X037961D02*
X038001Y039885D01*
X037961Y039965D01*
X038041Y039925D01*
X038121Y039965D01*
X038081Y039885D01*
X038121Y039805D01*
X038041Y039845D01*
X037961Y039805D01*
X01867Y01697D02*
X01871Y01705D01*
X01867Y01713D01*
X01875Y01709D01*
X01883Y01713D01*
X01879Y01705D01*
X01883Y01697D01*
X01875Y01701D01*
X01867Y01697D01*
X02972Y03737D02*
X02976D01*
X0298Y03741D01*
X02984Y03737D01*
X02988D01*
Y03741D01*
X02984Y03745D01*
X02988Y03749D01*
Y03753D01*
X02984D01*
X0298Y03749D01*
X02976Y03753D01*
X02972D01*
Y03749D01*
X02976Y03745D01*
X02972Y03741D01*
Y03737D01*
Y03772D02*
X02976D01*
X0298Y03776D01*
X02984Y03772D01*
X02988D01*
Y03776D01*
X02984Y0378D01*
X02988Y03784D01*
Y03788D01*
X02984D01*
X0298Y03784D01*
X02976Y03788D01*
X02972D01*
Y03784D01*
X02976Y0378D01*
X02972Y03776D01*
Y03772D01*
X03237Y03412D02*
X03241D01*
X03245Y03416D01*
X03249Y03412D01*
X03253D01*
Y03416D01*
X03249Y0342D01*
X03253Y03424D01*
Y03428D01*
X03249D01*
X03245Y03424D01*
X03241Y03428D01*
X03237D01*
Y03424D01*
X03241Y0342D01*
X03237Y03416D01*
Y03412D01*
X03197Y03417D02*
X03201D01*
X03205Y03421D01*
X03209Y03417D01*
X03213D01*
Y03421D01*
X03209Y03425D01*
X03213Y03429D01*
Y03433D01*
X03209D01*
X03205Y03429D01*
X03201Y03433D01*
X03197D01*
Y03429D01*
X03201Y03425D01*
X03197Y03421D01*
Y03417D01*
X02572Y03232D02*
X02576D01*
X0258Y03236D01*
X02584Y03232D01*
X02588D01*
Y03236D01*
X02584Y0324D01*
X02588Y03244D01*
Y03248D01*
X02584D01*
X0258Y03244D01*
X02576Y03248D01*
X02572D01*
Y03244D01*
X02576Y0324D01*
X02572Y03236D01*
Y03232D01*
X02522Y02137D02*
X02526D01*
X0253Y02141D01*
X02534Y02137D01*
X02538D01*
Y02141D01*
X02534Y02145D01*
X02538Y02149D01*
Y02153D01*
X02534D01*
X0253Y02149D01*
X02526Y02153D01*
X02522D01*
Y02149D01*
X02526Y02145D01*
X02522Y02141D01*
Y02137D01*
X02322Y03497D02*
X02326D01*
X0233Y03501D01*
X02334Y03497D01*
X02338D01*
Y03501D01*
X02334Y03505D01*
X02338Y03509D01*
Y03513D01*
X02334D01*
X0233Y03509D01*
X02326Y03513D01*
X02322D01*
Y03509D01*
X02326Y03505D01*
X02322Y03501D01*
Y03497D01*
X01832Y02912D02*
X01836D01*
X0184Y02916D01*
X01844Y02912D01*
X01848D01*
Y02916D01*
X01844Y0292D01*
X01848Y02924D01*
Y02928D01*
X01844D01*
X0184Y02924D01*
X01836Y02928D01*
X01832D01*
Y02924D01*
X01836Y0292D01*
X01832Y02916D01*
Y02912D01*
Y02702D02*
X01836D01*
X0184Y02706D01*
X01844Y02702D01*
X01848D01*
Y02706D01*
X01844Y0271D01*
X01848Y02714D01*
Y02718D01*
X01844D01*
X0184Y02714D01*
X01836Y02718D01*
X01832D01*
Y02714D01*
X01836Y0271D01*
X01832Y02706D01*
Y02702D01*
X02562Y02497D02*
X02566D01*
X0257Y02501D01*
X02574Y02497D01*
X02578D01*
Y02501D01*
X02574Y02505D01*
X02578Y02509D01*
Y02513D01*
X02574D01*
X0257Y02509D01*
X02566Y02513D01*
X02562D01*
Y02509D01*
X02566Y02505D01*
X02562Y02501D01*
Y02497D01*
Y0233D02*
X0257Y02338D01*
X02578Y0233D01*
X0257Y02322D01*
X02562Y0233D01*
X02417Y03437D02*
X02421D01*
X02425Y03441D01*
X02429Y03437D01*
X02433D01*
Y03441D01*
X02429Y03445D01*
X02433Y03449D01*
Y03453D01*
X02429D01*
X02425Y03449D01*
X02421Y03453D01*
X02417D01*
Y03449D01*
X02421Y03445D01*
X02417Y03441D01*
Y03437D01*
X02832Y03642D02*
X02836D01*
X0284Y03646D01*
X02844Y03642D01*
X02848D01*
Y03646D01*
X02844Y0365D01*
X02848Y03654D01*
Y03658D01*
X02844D01*
X0284Y03654D01*
X02836Y03658D01*
X02832D01*
Y03654D01*
X02836Y0365D01*
X02832Y03646D01*
Y03642D01*
X02982Y03542D02*
X02986D01*
X0299Y03546D01*
X02994Y03542D01*
X02998D01*
Y03546D01*
X02994Y0355D01*
X02998Y03554D01*
Y03558D01*
X02994D01*
X0299Y03554D01*
X02986Y03558D01*
X02982D01*
Y03554D01*
X02986Y0355D01*
X02982Y03546D01*
Y03542D01*
X02957Y03332D02*
X02961D01*
X02965Y03336D01*
X02969Y03332D01*
X02973D01*
Y03336D01*
X02969Y0334D01*
X02973Y03344D01*
Y03348D01*
X02969D01*
X02965Y03344D01*
X02961Y03348D01*
X02957D01*
Y03344D01*
X02961Y0334D01*
X02957Y03336D01*
Y03332D01*
X03057Y03267D02*
X03061D01*
X03065Y03271D01*
X03069Y03267D01*
X03073D01*
Y03271D01*
X03069Y03275D01*
X03073Y03279D01*
Y03283D01*
X03069D01*
X03065Y03279D01*
X03061Y03283D01*
X03057D01*
Y03279D01*
X03061Y03275D01*
X03057Y03271D01*
Y03267D01*
X03017Y03052D02*
X03021D01*
X03025Y03056D01*
X03029Y03052D01*
X03033D01*
Y03056D01*
X03029Y0306D01*
X03033Y03064D01*
Y03068D01*
X03029D01*
X03025Y03064D01*
X03021Y03068D01*
X03017D01*
Y03064D01*
X03021Y0306D01*
X03017Y03056D01*
Y03052D01*
X02857Y03022D02*
X02861D01*
X02865Y03026D01*
X02869Y03022D01*
X02873D01*
Y03026D01*
X02869Y0303D01*
X02873Y03034D01*
Y03038D01*
X02869D01*
X02865Y03034D01*
X02861Y03038D01*
X02857D01*
Y03034D01*
X02861Y0303D01*
X02857Y03026D01*
Y03022D01*
X02777Y03187D02*
X02781D01*
X02785Y03191D01*
X02789Y03187D01*
X02793D01*
Y03191D01*
X02789Y03195D01*
X02793Y03199D01*
Y03203D01*
X02789D01*
X02785Y03199D01*
X02781Y03203D01*
X02777D01*
Y03199D01*
X02781Y03195D01*
X02777Y03191D01*
Y03187D01*
X02282Y02157D02*
X02286D01*
X0229Y02161D01*
X02294Y02157D01*
X02298D01*
Y02161D01*
X02294Y02165D01*
X02298Y02169D01*
Y02173D01*
X02294D01*
X0229Y02169D01*
X02286Y02173D01*
X02282D01*
Y02169D01*
X02286Y02165D01*
X02282Y02161D01*
Y02157D01*
X02662Y02287D02*
X02666D01*
X0267Y02291D01*
X02674Y02287D01*
X02678D01*
Y02291D01*
X02674Y02295D01*
X02678Y02299D01*
Y02303D01*
X02674D01*
X0267Y02299D01*
X02666Y02303D01*
X02662D01*
Y02299D01*
X02666Y02295D01*
X02662Y02291D01*
Y02287D01*
X02972Y01637D02*
X02976D01*
X0298Y01641D01*
X02984Y01637D01*
X02988D01*
Y01641D01*
X02984Y01645D01*
X02988Y01649D01*
Y01653D01*
X02984D01*
X0298Y01649D01*
X02976Y01653D01*
X02972D01*
Y01649D01*
X02976Y01645D01*
X02972Y01641D01*
Y01637D01*
X03552Y03375D02*
X0356Y03383D01*
X03568Y03375D01*
X0356Y03367D01*
X03552Y03375D01*
X03057Y03177D02*
X03061D01*
X03065Y03181D01*
X03069Y03177D01*
X03073D01*
Y03181D01*
X03069Y03185D01*
X03073Y03189D01*
Y03193D01*
X03069D01*
X03065Y03189D01*
X03061Y03193D01*
X03057D01*
Y03189D01*
X03061Y03185D01*
X03057Y03181D01*
Y03177D01*
X02937Y03052D02*
X02941D01*
X02945Y03056D01*
X02949Y03052D01*
X02953D01*
Y03056D01*
X02949Y0306D01*
X02953Y03064D01*
Y03068D01*
X02949D01*
X02945Y03064D01*
X02941Y03068D01*
X02937D01*
Y03064D01*
X02941Y0306D01*
X02937Y03056D01*
Y03052D01*
X02777Y03277D02*
X02781D01*
X02785Y03281D01*
X02789Y03277D01*
X02793D01*
Y03281D01*
X02789Y03285D01*
X02793Y03289D01*
Y03293D01*
X02789D01*
X02785Y03289D01*
X02781Y03293D01*
X02777D01*
Y03289D01*
X02781Y03285D01*
X02777Y03281D01*
Y03277D01*
X02867Y03333D02*
X02871D01*
X02875Y03337D01*
X02879Y03333D01*
X02883D01*
Y03337D01*
X02879Y03341D01*
X02883Y03345D01*
Y03349D01*
X02879D01*
X02875Y03345D01*
X02871Y03349D01*
X02867D01*
Y03345D01*
X02871Y03341D01*
X02867Y03337D01*
Y03333D01*
X03482Y03367D02*
X03486D01*
X0349Y03371D01*
X03494Y03367D01*
X03498D01*
Y03371D01*
X03494Y03375D01*
X03498Y03379D01*
Y03383D01*
X03494D01*
X0349Y03379D01*
X03486Y03383D01*
X03482D01*
Y03379D01*
X03486Y03375D01*
X03482Y03371D01*
Y03367D01*
X02202Y02987D02*
Y03003D01*
X02218D01*
Y02987D01*
X02202D01*
X02206Y02991D02*
Y02999D01*
X02214D01*
Y02991D01*
X02206D01*
X02662Y02982D02*
X02666D01*
X0267Y02986D01*
X02674Y02982D01*
X02678D01*
Y02986D01*
X02674Y0299D01*
X02678Y02994D01*
Y02998D01*
X02674D01*
X0267Y02994D01*
X02666Y02998D01*
X02662D01*
Y02994D01*
X02666Y0299D01*
X02662Y02986D01*
Y02982D01*
X02622Y02287D02*
X02626D01*
X0263Y02291D01*
X02634Y02287D01*
X02638D01*
Y02291D01*
X02634Y02295D01*
X02638Y02299D01*
Y02303D01*
X02634D01*
X0263Y02299D01*
X02626Y02303D01*
X02622D01*
Y02299D01*
X02626Y02295D01*
X02622Y02291D01*
Y02287D01*
Y03007D02*
X02626D01*
X0263Y03011D01*
X02634Y03007D01*
X02638D01*
Y03011D01*
X02634Y03015D01*
X02638Y03019D01*
Y03023D01*
X02634D01*
X0263Y03019D01*
X02626Y03023D01*
X02622D01*
Y03019D01*
X02626Y03015D01*
X02622Y03011D01*
Y03007D01*
X02297Y03422D02*
X02301D01*
X02305Y03426D01*
X02309Y03422D01*
X02313D01*
Y03426D01*
X02309Y0343D01*
X02313Y03434D01*
Y03438D01*
X02309D01*
X02305Y03434D01*
X02301Y03438D01*
X02297D01*
Y03434D01*
X02301Y0343D01*
X02297Y03426D01*
Y03422D01*
X02277Y03497D02*
X02281D01*
X02285Y03501D01*
X02289Y03497D01*
X02293D01*
Y03501D01*
X02289Y03505D01*
X02293Y03509D01*
Y03513D01*
X02289D01*
X02285Y03509D01*
X02281Y03513D01*
X02277D01*
Y03509D01*
X02281Y03505D01*
X02277Y03501D01*
Y03497D01*
X02242D02*
X02246D01*
X0225Y03501D01*
X02254Y03497D01*
X02258D01*
Y03501D01*
X02254Y03505D01*
X02258Y03509D01*
Y03513D01*
X02254D01*
X0225Y03509D01*
X02246Y03513D01*
X02242D01*
Y03509D01*
X02246Y03505D01*
X02242Y03501D01*
Y03497D01*
X036083Y03932D02*
X036123D01*
X036163Y03936D01*
X036203Y03932D01*
X036243D01*
Y03936D01*
X036203Y0394D01*
X036243Y03944D01*
Y03948D01*
X036203D01*
X036163Y03944D01*
X036123Y03948D01*
X036083D01*
Y03944D01*
X036123Y0394D01*
X036083Y03936D01*
Y03932D01*
X02947Y02902D02*
X02951D01*
X02955Y02906D01*
X02959Y02902D01*
X02963D01*
Y02906D01*
X02959Y0291D01*
X02963Y02914D01*
Y02918D01*
X02959D01*
X02955Y02914D01*
X02951Y02918D01*
X02947D01*
Y02914D01*
X02951Y0291D01*
X02947Y02906D01*
Y02902D01*
X0267Y01695D02*
X02674D01*
X02678Y01699D01*
X02682Y01695D01*
X02686D01*
Y01699D01*
X02682Y01703D01*
X02686Y01707D01*
Y01711D01*
X02682D01*
X02678Y01707D01*
X02674Y01711D01*
X0267D01*
Y01707D01*
X02674Y01703D01*
X0267Y01699D01*
Y01695D01*
X02922Y01902D02*
X02926D01*
X0293Y01906D01*
X02934Y01902D01*
X02938D01*
Y01906D01*
X02934Y0191D01*
X02938Y01914D01*
Y01918D01*
X02934D01*
X0293Y01914D01*
X02926Y01918D01*
X02922D01*
Y01914D01*
X02926Y0191D01*
X02922Y01906D01*
Y01902D01*
X03045Y02025D02*
X03049D01*
X03053Y02029D01*
X03057Y02025D01*
X03061D01*
Y02029D01*
X03057Y02033D01*
X03061Y02037D01*
Y02041D01*
X03057D01*
X03053Y02037D01*
X03049Y02041D01*
X03045D01*
Y02037D01*
X03049Y02033D01*
X03045Y02029D01*
Y02025D01*
D71*
X02978Y02125D02*
G03*
X02978Y02125I-00008J0D01*
G01*
X02878D02*
G03*
X02878Y02125I-00008J0D01*
G01*
X02778D02*
G03*
X02778Y02125I-00008J0D01*
G01*
X02678D02*
G03*
X02678Y02125I-00008J0D01*
G01*
X01853Y03435D02*
G03*
X01853Y03435I-00008J0D01*
G01*
Y03235D02*
G03*
X01853Y03235I-00008J0D01*
G01*
Y03335D02*
G03*
X01853Y03335I-00008J0D01*
G01*
Y03535D02*
G03*
X01853Y03535I-00008J0D01*
G01*
Y03635D02*
G03*
X01853Y03635I-00008J0D01*
G01*
Y03735D02*
G03*
X01853Y03735I-00008J0D01*
G01*
Y03835D02*
G03*
X01853Y03835I-00008J0D01*
G01*
X03413Y03995D02*
G03*
X03413Y03995I-00008J0D01*
G01*
Y03895D02*
G03*
X03413Y03895I-00008J0D01*
G01*
X038621Y018885D02*
G03*
X038621Y018885I-00008J0D01*
G01*
X037621D02*
G03*
X037621Y018885I-00008J0D01*
G01*
X038621Y019885D02*
G03*
X038621Y019885I-00008J0D01*
G01*
X037621D02*
G03*
X037621Y019885I-00008J0D01*
G01*
X038621Y020885D02*
G03*
X038621Y020885I-00008J0D01*
G01*
X037621D02*
G03*
X037621Y020885I-00008J0D01*
G01*
X038621Y021885D02*
G03*
X038621Y021885I-00008J0D01*
G01*
X037621D02*
G03*
X037621Y021885I-00008J0D01*
G01*
X038621Y022885D02*
G03*
X038621Y022885I-00008J0D01*
G01*
X037621D02*
G03*
X037621Y022885I-00008J0D01*
G01*
X038621Y023885D02*
G03*
X038621Y023885I-00008J0D01*
G01*
X037621D02*
G03*
X037621Y023885I-00008J0D01*
G01*
X038621Y024885D02*
G03*
X038621Y024885I-00008J0D01*
G01*
X037621D02*
G03*
X037621Y024885I-00008J0D01*
G01*
X038621Y025885D02*
G03*
X038621Y025885I-00008J0D01*
G01*
X037621D02*
G03*
X037621Y025885I-00008J0D01*
G01*
X038621Y026885D02*
G03*
X038621Y026885I-00008J0D01*
G01*
X037621D02*
G03*
X037621Y026885I-00008J0D01*
G01*
X038621Y027885D02*
G03*
X038621Y027885I-00008J0D01*
G01*
X037621D02*
G03*
X037621Y027885I-00008J0D01*
G01*
X038621Y028885D02*
G03*
X038621Y028885I-00008J0D01*
G01*
X037621D02*
G03*
X037621Y028885I-00008J0D01*
G01*
X038621Y029885D02*
G03*
X038621Y029885I-00008J0D01*
G01*
X037621D02*
G03*
X037621Y029885I-00008J0D01*
G01*
X038621Y030885D02*
G03*
X038621Y030885I-00008J0D01*
G01*
X037621D02*
G03*
X037621Y030885I-00008J0D01*
G01*
X038621Y031885D02*
G03*
X038621Y031885I-00008J0D01*
G01*
X037621D02*
G03*
X037621Y031885I-00008J0D01*
G01*
X038621Y032885D02*
G03*
X038621Y032885I-00008J0D01*
G01*
X037621D02*
G03*
X037621Y032885I-00008J0D01*
G01*
X038621Y033885D02*
G03*
X038621Y033885I-00008J0D01*
G01*
X037621D02*
G03*
X037621Y033885I-00008J0D01*
G01*
X038621Y034885D02*
G03*
X038621Y034885I-00008J0D01*
G01*
X037621D02*
G03*
X037621Y034885I-00008J0D01*
G01*
X038621Y035885D02*
G03*
X038621Y035885I-00008J0D01*
G01*
X037621D02*
G03*
X037621Y035885I-00008J0D01*
G01*
X038621Y036885D02*
G03*
X038621Y036885I-00008J0D01*
G01*
X037621D02*
G03*
X037621Y036885I-00008J0D01*
G01*
X038621Y037885D02*
G03*
X038621Y037885I-00008J0D01*
G01*
X037621D02*
G03*
X037621Y037885I-00008J0D01*
G01*
M02*
