G04*
G04 #@! TF.GenerationSoftware,Altium Limited,Altium Designer,18.1.5 (160)*
G04*
G04 Layer_Color=16711935*
%FSTAX24Y24*%
%MOIN*%
G70*
G01*
G75*
%ADD66C,0.0020*%
%ADD67C,0.0039*%
D66*
X02725Y042813D02*
G03*
X02675Y043313I-0005J0D01*
G01*
X02725Y040563D02*
G03*
X0275Y040313I00025J0D01*
G01*
X0286D02*
G03*
X02885Y040563I0J00025D01*
G01*
X02935Y043313D02*
G03*
X02885Y042813I0J-0005D01*
G01*
X0292Y04329D02*
G03*
X02905Y043313I-00015J-000477D01*
G01*
X02705D02*
G03*
X0269Y04329I0J-0005D01*
G01*
X02505Y042313D02*
X02545Y043313D01*
X02465D02*
X02505Y042313D01*
X02311Y043313D02*
X02675D01*
X03299Y039413D02*
Y043313D01*
X03214Y039413D02*
X03299D01*
X03214D02*
Y039813D01*
X0291D02*
X03214D01*
X0291Y039413D02*
Y039813D01*
X0284Y039413D02*
X0291D01*
X0284D02*
Y039813D01*
X0277D02*
X0284D01*
X0277Y039413D02*
Y039813D01*
X027Y039413D02*
X0277D01*
X027D02*
Y039813D01*
X02396D02*
X027D01*
X02311Y039413D02*
X02396D01*
X02311D02*
Y043313D01*
X02725Y040563D02*
Y042813D01*
X0275Y040313D02*
X0286D01*
X02885Y040563D02*
Y042813D01*
X02935Y043313D02*
X03299D01*
X02396Y039413D02*
Y039813D01*
X02725Y040813D02*
X02885D01*
X027927D02*
Y043163D01*
X028173D01*
Y040813D02*
Y043163D01*
X028928Y043081D02*
Y043163D01*
X028993D01*
X029927Y038738D02*
X030173D01*
X029927Y038288D02*
Y039813D01*
X030173Y038288D02*
Y039813D01*
X027927Y038288D02*
X028173D01*
X027927D02*
Y039813D01*
Y038738D02*
X028173D01*
Y038288D02*
Y039813D01*
X024927Y038738D02*
X025173D01*
X024927Y038288D02*
Y039813D01*
X025173Y038288D02*
Y039813D01*
X028008Y043243D02*
X028093D01*
X028173Y043163D01*
X027927D02*
X028008Y043243D01*
X027107Y043163D02*
X027173D01*
Y043081D02*
Y043163D01*
X028928Y038288D02*
X029172D01*
X028928D02*
Y039413D01*
Y038738D02*
X029172D01*
Y038288D02*
Y039813D01*
X030928Y038288D02*
X031172D01*
X030928Y038738D02*
X031172D01*
Y038288D02*
Y039813D01*
X030928Y038288D02*
Y039813D01*
X025928Y038288D02*
X026172D01*
X025928D02*
Y039813D01*
Y038738D02*
X026172D01*
Y038288D02*
Y039813D01*
X026927Y038738D02*
X027173D01*
X026927Y038288D02*
Y039813D01*
X027173Y038288D02*
Y039413D01*
X024927Y038288D02*
X025173D01*
X029927D02*
X030173D01*
X029007Y043243D02*
X029093D01*
X028928Y043163D02*
X029007Y043243D01*
X027008D02*
X027092D01*
X027173Y043163D01*
X026927Y038288D02*
X027173D01*
X02705Y043313D02*
X02905D01*
D67*
X019233Y022734D02*
Y023266D01*
X018407Y022734D02*
Y023266D01*
Y022734D02*
X019233D01*
X018407Y023266D02*
X019233D01*
Y024734D02*
Y025266D01*
X018407Y024734D02*
Y025266D01*
Y024734D02*
X019233D01*
X018407Y025266D02*
X019233D01*
Y028934D02*
Y029466D01*
X018407Y028934D02*
Y029466D01*
Y028934D02*
X019233D01*
X018407Y029466D02*
X019233D01*
Y026869D02*
Y0274D01*
X018407Y026869D02*
Y0274D01*
Y026869D02*
X019233D01*
X018407Y0274D02*
X019233D01*
X036184Y036413D02*
X036716D01*
X036184Y035587D02*
X036716D01*
Y036413D01*
X036184Y035587D02*
Y036413D01*
X035337Y039134D02*
Y039666D01*
X036163Y039134D02*
Y039666D01*
X035337D02*
X036163D01*
X035337Y039134D02*
X036163D01*
M02*
