G04*
G04 #@! TF.GenerationSoftware,Altium Limited,Altium Designer,18.1.5 (160)*
G04*
G04 Layer_Color=16711935*
%FSTAX24Y24*%
%MOIN*%
G70*
G01*
G75*
%ADD29R,0.0580X0.0630*%
%ADD33R,0.0630X0.0580*%
%ADD38R,0.0830X0.0980*%
%ADD39O,0.0830X0.0980*%
%ADD40C,0.0671*%
%ADD41R,0.0671X0.0671*%
%ADD42R,0.0671X0.0671*%
%ADD43C,0.0680*%
%ADD44C,0.0830*%
%ADD45C,0.1460*%
%ADD46C,0.0760*%
G04:AMPARAMS|DCode=47|XSize=76mil|YSize=76mil|CornerRadius=12.5mil|HoleSize=0mil|Usage=FLASHONLY|Rotation=90.000|XOffset=0mil|YOffset=0mil|HoleType=Round|Shape=RoundedRectangle|*
%AMROUNDEDRECTD47*
21,1,0.0760,0.0510,0,0,90.0*
21,1,0.0510,0.0760,0,0,90.0*
1,1,0.0250,0.0255,0.0255*
1,1,0.0250,0.0255,-0.0255*
1,1,0.0250,-0.0255,-0.0255*
1,1,0.0250,-0.0255,0.0255*
%
%ADD47ROUNDEDRECTD47*%
%ADD48C,0.0240*%
%ADD49C,0.0580*%
%ADD50C,0.0330*%
D29*
X0294Y0306D02*
D03*
X0303D02*
D03*
X02375Y021635D02*
D03*
X02285D02*
D03*
Y020835D02*
D03*
X02375D02*
D03*
X023Y02575D02*
D03*
X0239D02*
D03*
Y025D02*
D03*
X023D02*
D03*
X02875Y03341D02*
D03*
X02965D02*
D03*
X0336Y03095D02*
D03*
X0345D02*
D03*
Y0317D02*
D03*
X0336D02*
D03*
D33*
X03065Y03185D02*
D03*
Y03275D02*
D03*
X02785Y03285D02*
D03*
Y03195D02*
D03*
X0193Y0202D02*
D03*
Y0211D02*
D03*
X01995D02*
D03*
Y0202D02*
D03*
D38*
X0321Y0172D02*
D03*
X0218D02*
D03*
D39*
X0331D02*
D03*
X0341D02*
D03*
X0351D02*
D03*
X0228D02*
D03*
X0238D02*
D03*
X0248D02*
D03*
D40*
X0297Y02125D02*
D03*
X0287D02*
D03*
X0277D02*
D03*
X01845Y03435D02*
D03*
Y03335D02*
D03*
Y03535D02*
D03*
Y03635D02*
D03*
Y03735D02*
D03*
Y03835D02*
D03*
X03405Y03895D02*
D03*
X038541Y018885D02*
D03*
X037541D02*
D03*
X038541Y019885D02*
D03*
X037541D02*
D03*
X038541Y020885D02*
D03*
X037541D02*
D03*
X038541Y021885D02*
D03*
X037541D02*
D03*
X038541Y022885D02*
D03*
X037541D02*
D03*
X038541Y023885D02*
D03*
X037541D02*
D03*
X038541Y024885D02*
D03*
X037541D02*
D03*
X038541Y025885D02*
D03*
X037541D02*
D03*
X038541Y026885D02*
D03*
X037541D02*
D03*
X038541Y027885D02*
D03*
X037541D02*
D03*
X038541Y028885D02*
D03*
X037541D02*
D03*
X038541Y029885D02*
D03*
X037541D02*
D03*
X038541Y030885D02*
D03*
X037541D02*
D03*
X038541Y031885D02*
D03*
X037541D02*
D03*
X038541Y032885D02*
D03*
X037541D02*
D03*
X038541Y033885D02*
D03*
X037541D02*
D03*
X038541Y034885D02*
D03*
X037541D02*
D03*
X038541Y035885D02*
D03*
X037541D02*
D03*
X038541Y036885D02*
D03*
X037541D02*
D03*
X038541Y037885D02*
D03*
D41*
X0267Y02125D02*
D03*
D42*
X01845Y03235D02*
D03*
X03405Y03995D02*
D03*
X037541Y037885D02*
D03*
D43*
X0295Y0233D02*
D03*
D44*
X02426Y019855D02*
D03*
X02238Y022565D02*
D03*
X02426D02*
D03*
X02238Y019855D02*
D03*
X02431Y02397D02*
D03*
X02243Y02668D02*
D03*
X02431D02*
D03*
X02243Y02397D02*
D03*
X02103Y02156D02*
D03*
X01832Y01968D02*
D03*
Y02156D02*
D03*
X02103Y01968D02*
D03*
X03543Y03261D02*
D03*
X03355Y0299D02*
D03*
X03543D02*
D03*
X03355Y03261D02*
D03*
D45*
X038041Y01705D02*
D03*
X01875Y039885D02*
D03*
X038041D02*
D03*
X01875Y01705D02*
D03*
D46*
X03105Y039413D02*
D03*
X03005D02*
D03*
X02905D02*
D03*
X02805D02*
D03*
X02705D02*
D03*
X02605D02*
D03*
X02505D02*
D03*
X03105Y038413D02*
D03*
X03005D02*
D03*
X02905D02*
D03*
X02805D02*
D03*
X02705D02*
D03*
X02605D02*
D03*
D47*
X02505D02*
D03*
D48*
X0298Y03745D02*
D03*
Y0378D02*
D03*
X03245Y0342D02*
D03*
X03205Y03425D02*
D03*
X0258Y0324D02*
D03*
X0253Y02145D02*
D03*
X0233Y03505D02*
D03*
X0184Y0292D02*
D03*
Y0271D02*
D03*
X0257Y02505D02*
D03*
X02425Y03445D02*
D03*
X0284Y0365D02*
D03*
X0299Y0355D02*
D03*
X02965Y0334D02*
D03*
X03065Y03275D02*
D03*
X03025Y0306D02*
D03*
X02865Y0303D02*
D03*
X02785Y03195D02*
D03*
X0229Y02165D02*
D03*
X0267Y02295D02*
D03*
X0298Y01645D02*
D03*
X03065Y03185D02*
D03*
X02945Y0306D02*
D03*
X02785Y03285D02*
D03*
X02875Y03341D02*
D03*
X0349Y03375D02*
D03*
X0267Y0299D02*
D03*
X0263Y02295D02*
D03*
Y03015D02*
D03*
X02305Y0343D02*
D03*
X02285Y03505D02*
D03*
X0225D02*
D03*
X036163Y0394D02*
D03*
X02955Y0291D02*
D03*
X02678Y01703D02*
D03*
X0293Y0191D02*
D03*
X03053Y02033D02*
D03*
D49*
X0257Y0233D02*
D03*
X0356Y03375D02*
D03*
D50*
X0221Y02995D02*
D03*
M02*
