G04*
G04 #@! TF.GenerationSoftware,Altium Limited,Altium Designer,18.1.5 (160)*
G04*
G04 Layer_Color=128*
%FSTAX24Y24*%
%MOIN*%
G70*
G01*
G75*
%ADD70C,0.0020*%
D70*
X03193Y0172D02*
X03227D01*
X0321Y01703D02*
Y01737D01*
X03293Y0172D02*
X03327D01*
X0331Y01703D02*
Y01737D01*
X03393Y0172D02*
X03427D01*
X0341Y01703D02*
Y01737D01*
X03493Y0172D02*
X03527D01*
X0351Y01703D02*
Y01737D01*
X02163Y0172D02*
X02197D01*
X0218Y01703D02*
Y01737D01*
X02263Y0172D02*
X02297D01*
X0228Y01703D02*
Y01737D01*
X02363Y0172D02*
X02397D01*
X0238Y01703D02*
Y01737D01*
X02463Y0172D02*
X02497D01*
X0248Y01703D02*
Y01737D01*
X029523Y02125D02*
X029877D01*
X0297Y021073D02*
Y021427D01*
X028523Y02125D02*
X028877D01*
X0287Y021073D02*
Y021427D01*
X027523Y02125D02*
X027877D01*
X0277Y021073D02*
Y021427D01*
X026523Y02125D02*
X026877D01*
X0267Y021073D02*
Y021427D01*
X018273Y03435D02*
X018627D01*
X01845Y034173D02*
Y034527D01*
X018273Y03235D02*
X018627D01*
X01845Y032173D02*
Y032527D01*
X018273Y03335D02*
X018627D01*
X01845Y033173D02*
Y033527D01*
X018273Y03535D02*
X018627D01*
X01845Y035173D02*
Y035527D01*
X018273Y03635D02*
X018627D01*
X01845Y036173D02*
Y036527D01*
X018273Y03735D02*
X018627D01*
X01845Y037173D02*
Y037527D01*
X018273Y03835D02*
X018627D01*
X01845Y038173D02*
Y038527D01*
X02935Y0233D02*
X02965D01*
X0295Y02315D02*
Y02345D01*
X033873Y03995D02*
X034227D01*
X03405Y039773D02*
Y040127D01*
X033873Y03895D02*
X034227D01*
X03405Y038773D02*
Y039127D01*
X024105Y019855D02*
X024415D01*
X02426Y0197D02*
Y02001D01*
X022225Y022565D02*
X022535D01*
X02238Y02241D02*
Y02272D01*
X024105Y022565D02*
X024415D01*
X02426Y02241D02*
Y02272D01*
X022225Y019855D02*
X022535D01*
X02238Y0197D02*
Y02001D01*
X024155Y02397D02*
X024465D01*
X02431Y023815D02*
Y024125D01*
X022275Y02668D02*
X022585D01*
X02243Y026525D02*
Y026835D01*
X024155Y02668D02*
X024465D01*
X02431Y026525D02*
Y026835D01*
X022275Y02397D02*
X022585D01*
X02243Y023815D02*
Y024125D01*
X020875Y02156D02*
X021185D01*
X02103Y021405D02*
Y021715D01*
X018165Y01968D02*
X018475D01*
X01832Y019525D02*
Y019835D01*
X018165Y02156D02*
X018475D01*
X01832Y021405D02*
Y021715D01*
X020875Y01968D02*
X021185D01*
X02103Y019525D02*
Y019835D01*
X035275Y03261D02*
X035585D01*
X03543Y032455D02*
Y032765D01*
X033395Y0299D02*
X033705D01*
X03355Y029745D02*
Y030055D01*
X035275Y0299D02*
X035585D01*
X03543Y029745D02*
Y030055D01*
X033395Y03261D02*
X033705D01*
X03355Y032455D02*
Y032765D01*
X038364Y018885D02*
X038719D01*
X038541Y018707D02*
Y019062D01*
X037364Y018885D02*
X037719D01*
X037541Y018707D02*
Y019062D01*
X038364Y019885D02*
X038719D01*
X038541Y019707D02*
Y020062D01*
X037364Y019885D02*
X037719D01*
X037541Y019707D02*
Y020062D01*
X038364Y020885D02*
X038719D01*
X038541Y020707D02*
Y021062D01*
X037364Y020885D02*
X037719D01*
X037541Y020707D02*
Y021062D01*
X038364Y021885D02*
X038719D01*
X038541Y021707D02*
Y022062D01*
X037364Y021885D02*
X037719D01*
X037541Y021707D02*
Y022062D01*
X038364Y022885D02*
X038719D01*
X038541Y022707D02*
Y023062D01*
X037364Y022885D02*
X037719D01*
X037541Y022707D02*
Y023062D01*
X038364Y023885D02*
X038719D01*
X038541Y023707D02*
Y024062D01*
X037364Y023885D02*
X037719D01*
X037541Y023707D02*
Y024062D01*
X038364Y024885D02*
X038719D01*
X038541Y024707D02*
Y025062D01*
X037364Y024885D02*
X037719D01*
X037541Y024707D02*
Y025062D01*
X038364Y025885D02*
X038719D01*
X038541Y025707D02*
Y026062D01*
X037364Y025885D02*
X037719D01*
X037541Y025707D02*
Y026062D01*
X038364Y026885D02*
X038719D01*
X038541Y026707D02*
Y027062D01*
X037364Y026885D02*
X037719D01*
X037541Y026707D02*
Y027062D01*
X038364Y027885D02*
X038719D01*
X038541Y027707D02*
Y028062D01*
X037364Y027885D02*
X037719D01*
X037541Y027707D02*
Y028062D01*
X038364Y028885D02*
X038719D01*
X038541Y028707D02*
Y029062D01*
X037364Y028885D02*
X037719D01*
X037541Y028707D02*
Y029062D01*
X038364Y029885D02*
X038719D01*
X038541Y029707D02*
Y030062D01*
X037364Y029885D02*
X037719D01*
X037541Y029707D02*
Y030062D01*
X038364Y030885D02*
X038719D01*
X038541Y030707D02*
Y031062D01*
X037364Y030885D02*
X037719D01*
X037541Y030707D02*
Y031062D01*
X038364Y031885D02*
X038719D01*
X038541Y031707D02*
Y032062D01*
X037364Y031885D02*
X037719D01*
X037541Y031707D02*
Y032062D01*
X038364Y032885D02*
X038719D01*
X038541Y032707D02*
Y033062D01*
X037364Y032885D02*
X037719D01*
X037541Y032707D02*
Y033062D01*
X038364Y033885D02*
X038719D01*
X038541Y033707D02*
Y034062D01*
X037364Y033885D02*
X037719D01*
X037541Y033707D02*
Y034062D01*
X038364Y034885D02*
X038719D01*
X038541Y034707D02*
Y035062D01*
X037364Y034885D02*
X037719D01*
X037541Y034707D02*
Y035062D01*
X038364Y035885D02*
X038719D01*
X038541Y035707D02*
Y036062D01*
X037364Y035885D02*
X037719D01*
X037541Y035707D02*
Y036062D01*
X038364Y036885D02*
X038719D01*
X038541Y036707D02*
Y037062D01*
X037364Y036885D02*
X037719D01*
X037541Y036707D02*
Y037062D01*
X038364Y037885D02*
X038719D01*
X038541Y037707D02*
Y038062D01*
X037364Y037885D02*
X037719D01*
X037541Y037707D02*
Y038062D01*
X037451Y01705D02*
X038632D01*
X038041Y016459D02*
Y017641D01*
X03084Y039413D02*
X03126D01*
X03105Y039203D02*
Y039623D01*
X02984Y039413D02*
X03026D01*
X03005Y039203D02*
Y039623D01*
X02884Y039413D02*
X02926D01*
X02905Y039203D02*
Y039623D01*
X02784Y039413D02*
X02826D01*
X02805Y039203D02*
Y039623D01*
X02684Y039413D02*
X02726D01*
X02705Y039203D02*
Y039623D01*
X02584Y039413D02*
X02626D01*
X02605Y039203D02*
Y039623D01*
X02484Y039413D02*
X02526D01*
X02505Y039203D02*
Y039623D01*
X03084Y038413D02*
X03126D01*
X03105Y038203D02*
Y038623D01*
X02984Y038413D02*
X03026D01*
X03005Y038203D02*
Y038623D01*
X02884Y038413D02*
X02926D01*
X02905Y038203D02*
Y038623D01*
X02784Y038413D02*
X02826D01*
X02805Y038203D02*
Y038623D01*
X02684Y038413D02*
X02726D01*
X02705Y038203D02*
Y038623D01*
X02584Y038413D02*
X02626D01*
X02605Y038203D02*
Y038623D01*
X02484Y038413D02*
X02526D01*
X02505Y038203D02*
Y038623D01*
X01816Y039885D02*
X01934D01*
X01875Y039294D02*
Y040475D01*
X037451Y039885D02*
X038632D01*
X038041Y039294D02*
Y040475D01*
X01816Y01705D02*
X01934D01*
X01875Y016459D02*
Y017641D01*
X029725Y03745D02*
X029875D01*
X0298Y037375D02*
Y037525D01*
X029725Y0378D02*
X029875D01*
X0298Y037725D02*
Y037875D01*
X032375Y0342D02*
X032525D01*
X03245Y034125D02*
Y034275D01*
X031975Y03425D02*
X032125D01*
X03205Y034175D02*
Y034325D01*
X025725Y0324D02*
X025875D01*
X0258Y032325D02*
Y032475D01*
X025225Y02145D02*
X025375D01*
X0253Y021375D02*
Y021525D01*
X023225Y03505D02*
X023375D01*
X0233Y034975D02*
Y035125D01*
X018325Y0292D02*
X018475D01*
X0184Y029125D02*
Y029275D01*
X018325Y0271D02*
X018475D01*
X0184Y027025D02*
Y027175D01*
X025625Y02505D02*
X025775D01*
X0257Y024975D02*
Y025125D01*
X02556Y0233D02*
X02584D01*
X0257Y02316D02*
Y02344D01*
X024175Y03445D02*
X024325D01*
X02425Y034375D02*
Y034525D01*
X028325Y0365D02*
X028475D01*
X0284Y036425D02*
Y036575D01*
X029825Y0355D02*
X029975D01*
X0299Y035425D02*
Y035575D01*
X029575Y0334D02*
X029725D01*
X02965Y033325D02*
Y033475D01*
X030575Y03275D02*
X030725D01*
X03065Y032675D02*
Y032825D01*
X030175Y0306D02*
X030325D01*
X03025Y030525D02*
Y030675D01*
X028575Y0303D02*
X028725D01*
X02865Y030225D02*
Y030375D01*
X027775Y03195D02*
X027925D01*
X02785Y031875D02*
Y032025D01*
X022825Y02165D02*
X022975D01*
X0229Y021575D02*
Y021725D01*
X026625Y02295D02*
X026775D01*
X0267Y022875D02*
Y023025D01*
X029725Y01645D02*
X029875D01*
X0298Y016375D02*
Y016525D01*
X03546Y03375D02*
X03574D01*
X0356Y03361D02*
Y03389D01*
X030575Y03185D02*
X030725D01*
X03065Y031775D02*
Y031925D01*
X029375Y0306D02*
X029525D01*
X02945Y030525D02*
Y030675D01*
X027775Y03285D02*
X027925D01*
X02785Y032775D02*
Y032925D01*
X028675Y03341D02*
X028825D01*
X02875Y033335D02*
Y033485D01*
X034825Y03375D02*
X034975D01*
X0349Y033675D02*
Y033825D01*
X022Y02995D02*
X0222D01*
X0221Y02985D02*
Y03005D01*
X026625Y0299D02*
X026775D01*
X0267Y029825D02*
Y029975D01*
X026225Y02295D02*
X026375D01*
X0263Y022875D02*
Y023025D01*
X026225Y03015D02*
X026375D01*
X0263Y030075D02*
Y030225D01*
X022975Y0343D02*
X023125D01*
X02305Y034225D02*
Y034375D01*
X022775Y03505D02*
X022925D01*
X02285Y034975D02*
Y035125D01*
X022425Y03505D02*
X022575D01*
X0225Y034975D02*
Y035125D01*
X036088Y0394D02*
X036238D01*
X036163Y039325D02*
Y039475D01*
X029475Y0291D02*
X029625D01*
X02955Y029025D02*
Y029175D01*
X026705Y01703D02*
X026855D01*
X02678Y016955D02*
Y017105D01*
X029225Y0191D02*
X029375D01*
X0293Y019025D02*
Y019175D01*
X030455Y02033D02*
X030605D01*
X03053Y020255D02*
Y020405D01*
M02*
