G04*
G04 #@! TF.GenerationSoftware,Altium Limited,Altium Designer,18.1.5 (160)*
G04*
G04 Layer_Color=32768*
%FSTAX24Y24*%
%MOIN*%
G70*
G01*
G75*
%ADD67C,0.0039*%
%ADD68C,0.0400*%
%ADD69C,0.0030*%
D67*
X01957Y02265D02*
Y02335D01*
X01802Y02265D02*
Y02335D01*
Y02265D02*
X01957D01*
X01802Y02335D02*
X01957D01*
X018623Y023D02*
X019017D01*
X01882Y022803D02*
Y023197D01*
X01957Y02465D02*
Y02535D01*
X01802Y02465D02*
Y02535D01*
Y02465D02*
X01957D01*
X01802Y02535D02*
X01957D01*
X018623Y025D02*
X019017D01*
X01882Y024803D02*
Y025197D01*
X01957Y02885D02*
Y02955D01*
X01802Y02885D02*
Y02955D01*
Y02885D02*
X01957D01*
X01802Y02955D02*
X01957D01*
X018623Y0292D02*
X019017D01*
X01882Y029003D02*
Y029397D01*
X01957Y026785D02*
Y027485D01*
X01802Y026785D02*
Y027485D01*
Y026785D02*
X01957D01*
X01802Y027485D02*
X01957D01*
X018623Y027135D02*
X019017D01*
X01882Y026938D02*
Y027332D01*
X0361Y03675D02*
X0368D01*
X0361Y0352D02*
X0368D01*
Y03675D01*
X0361Y0352D02*
Y03675D01*
X03645Y035803D02*
Y036197D01*
X036253Y036D02*
X036647D01*
X035Y03905D02*
Y03975D01*
X03655Y03905D02*
Y03975D01*
X035D02*
X03655D01*
X035Y03905D02*
X03655D01*
X035553Y0394D02*
X035947D01*
X03575Y039203D02*
Y039597D01*
D68*
X02805Y043513D02*
D03*
Y038913D02*
D03*
D69*
X02305Y043513D02*
X03305D01*
X02305Y037513D02*
X03305D01*
Y043513D01*
X02305Y037513D02*
Y043513D01*
M02*
