G04*
G04 #@! TF.GenerationSoftware,Altium Limited,Altium Designer,18.1.5 (160)*
G04*
G04 Layer_Physical_Order=1*
G04 Layer_Color=255*
%FSTAX24Y24*%
%MOIN*%
G70*
G01*
G75*
%ADD17C,0.0100*%
%ADD18R,0.0433X0.0472*%
%ADD19R,0.0500X0.0550*%
%ADD20R,0.0472X0.0394*%
%ADD21R,0.0591X0.0118*%
%ADD22R,0.0118X0.0591*%
%ADD23R,0.0550X0.0500*%
%ADD24R,0.0472X0.0433*%
%ADD25R,0.0264X0.0461*%
%ADD26R,0.0240X0.0810*%
%ADD27R,0.0780X0.0220*%
%ADD43C,0.0680*%
%ADD51C,0.0080*%
%ADD52C,0.0150*%
%ADD53C,0.0200*%
%ADD54R,0.0750X0.0900*%
%ADD55O,0.0750X0.0900*%
%ADD56C,0.0591*%
%ADD57R,0.0591X0.0591*%
%ADD58R,0.0591X0.0591*%
%ADD59C,0.0600*%
%ADD60C,0.0750*%
%ADD61C,0.1380*%
G04:AMPARAMS|DCode=62|XSize=68mil|YSize=68mil|CornerRadius=8.5mil|HoleSize=0mil|Usage=FLASHONLY|Rotation=90.000|XOffset=0mil|YOffset=0mil|HoleType=Round|Shape=RoundedRectangle|*
%AMROUNDEDRECTD62*
21,1,0.0680,0.0510,0,0,90.0*
21,1,0.0510,0.0680,0,0,90.0*
1,1,0.0170,0.0255,0.0255*
1,1,0.0170,0.0255,-0.0255*
1,1,0.0170,-0.0255,-0.0255*
1,1,0.0170,-0.0255,0.0255*
%
%ADD62ROUNDEDRECTD62*%
%ADD63C,0.0160*%
%ADD64C,0.0500*%
%ADD65C,0.0250*%
G36*
X034415Y040244D02*
X034398Y040226D01*
X034359Y040182D01*
X034351Y04017D01*
X034345Y04016D01*
X034341Y040151D01*
X034339Y040143D01*
X03434Y040137D01*
X034343Y040132D01*
X034232Y040243D01*
X034237Y04024D01*
X034243Y040239D01*
X034251Y040241D01*
X03426Y040245D01*
X03427Y040251D01*
X034282Y040259D01*
X034295Y04027D01*
X034326Y040298D01*
X034344Y040315D01*
X034415Y040244D01*
D02*
G37*
G36*
X035089Y0402D02*
X035088Y040209D01*
X035085Y040218D01*
X03508Y040226D01*
X035073Y040232D01*
X035064Y040237D01*
X035053Y040242D01*
X035039Y040245D01*
X035024Y040248D01*
X035007Y04025D01*
X034988Y04025D01*
Y04035D01*
X035007Y04035D01*
X035024Y040352D01*
X035039Y040354D01*
X035053Y040358D01*
X035064Y040363D01*
X035073Y040368D01*
X03508Y040374D01*
X035085Y040382D01*
X035088Y040391D01*
X035089Y0404D01*
Y0402D01*
D02*
G37*
G36*
X036104Y040027D02*
X036098Y040034D01*
X036089Y040038D01*
X03608Y040038D01*
X036068Y040036D01*
X036055Y04003D01*
X03604Y040021D01*
X036023Y040009D01*
X036005Y039994D01*
X035963Y039955D01*
X035917Y040051D01*
X035936Y040071D01*
X035966Y040106D01*
X035977Y040122D01*
X035985Y040137D01*
X035991Y04015D01*
X035995Y040163D01*
X035995Y040174D01*
X035993Y040184D01*
X035989Y040193D01*
X036104Y040027D01*
D02*
G37*
G36*
X037698Y040597D02*
X0376Y040545D01*
X03748Y040446D01*
X037381Y040326D01*
X037308Y040188D01*
X037263Y04004D01*
X037248Y039885D01*
X037263Y03973D01*
X037308Y039581D01*
X037381Y039444D01*
X03748Y039323D01*
X0376Y039225D01*
X037738Y039151D01*
X037886Y039106D01*
X038041Y039091D01*
X038196Y039106D01*
X038345Y039151D01*
X038482Y039225D01*
X038603Y039323D01*
X038701Y039444D01*
X038775Y039581D01*
X03882Y03973D01*
X038835Y039885D01*
X03882Y04004D01*
X038775Y040188D01*
X038819Y040211D01*
X038897Y04012D01*
X038983Y039979D01*
X039047Y039826D01*
X039085Y039665D01*
X039098Y039504D01*
X039097Y0395D01*
Y01715D01*
X039098Y017146D01*
X039085Y016985D01*
X039047Y016824D01*
X038983Y016671D01*
X038897Y01653D01*
X038792Y016407D01*
X038788Y016405D01*
X038786Y016401D01*
X038685Y016318D01*
X038565Y016254D01*
X038436Y016215D01*
X038306Y016202D01*
X038301Y016203D01*
X029839D01*
X029834Y016253D01*
X029878Y016262D01*
X029944Y016306D01*
X029988Y016372D01*
X030004Y01645D01*
Y016545D01*
X03002D01*
Y016642D01*
X030021Y016646D01*
X03002Y01665D01*
Y016656D01*
X03002Y016657D01*
X03002Y016658D01*
Y017555D01*
X02958D01*
Y016658D01*
X02958Y016657D01*
X02958Y016656D01*
Y01665D01*
X029579Y016646D01*
X02958Y016642D01*
Y016545D01*
X029594D01*
X029596Y016512D01*
Y01645D01*
X029612Y016372D01*
X029656Y016306D01*
X029722Y016262D01*
X029766Y016253D01*
X029761Y016203D01*
X018745D01*
X018739Y016202D01*
X018588Y016217D01*
X018438Y016262D01*
X018335Y016317D01*
X018334Y01632D01*
X018377Y016354D01*
X018446Y016317D01*
X018595Y016271D01*
X01875Y016256D01*
X018905Y016271D01*
X019054Y016317D01*
X019191Y01639D01*
X019311Y016489D01*
X01941Y016609D01*
X019483Y016746D01*
X019529Y016895D01*
X019544Y01705D01*
X019529Y017205D01*
X019483Y017354D01*
X01941Y017491D01*
X019311Y017611D01*
X019191Y01771D01*
X019054Y017783D01*
X018905Y017829D01*
X01875Y017844D01*
X018595Y017829D01*
X018446Y017783D01*
X018309Y01771D01*
X018189Y017611D01*
X01809Y017491D01*
X018017Y017354D01*
X017971Y017205D01*
X017956Y01705D01*
X017971Y016895D01*
X018017Y016746D01*
X01809Y016609D01*
X018051Y016578D01*
X018008Y01663D01*
X017922Y016792D01*
X017868Y016967D01*
X017851Y017142D01*
X017853Y01715D01*
Y021316D01*
X017903Y021326D01*
X017905Y02132D01*
X017981Y021221D01*
X01808Y021145D01*
X018196Y021097D01*
X01832Y021081D01*
X018444Y021097D01*
X01856Y021145D01*
X018659Y021221D01*
X018735Y02132D01*
X018771Y021407D01*
X020579D01*
X020615Y02132D01*
X020691Y021221D01*
X02079Y021145D01*
X020906Y021097D01*
X02103Y021081D01*
X021154Y021097D01*
X02127Y021145D01*
X021369Y021221D01*
X021445Y02132D01*
X021493Y021436D01*
X021509Y02156D01*
X021493Y021684D01*
X021445Y0218D01*
X021369Y021899D01*
X02127Y021975D01*
X021154Y022023D01*
X02103Y022039D01*
X021003Y022063D01*
Y025937D01*
X022513Y027447D01*
X0272D01*
X027259Y027459D01*
X027298Y027485D01*
X02733Y027446D01*
X026717Y026833D01*
X024761D01*
X024725Y02692D01*
X024649Y027019D01*
X02455Y027095D01*
X024434Y027143D01*
X02431Y027159D01*
X024186Y027143D01*
X02407Y027095D01*
X023971Y027019D01*
X023895Y02692D01*
X023847Y026804D01*
X023831Y02668D01*
X023847Y026556D01*
X023895Y02644D01*
X023971Y026341D01*
X02407Y026265D01*
X024186Y026217D01*
X02431Y026201D01*
X024434Y026217D01*
X02455Y026265D01*
X024649Y026341D01*
X024725Y02644D01*
X024761Y026527D01*
X02678D01*
X026839Y026539D01*
X026888Y026572D01*
X028756Y028439D01*
X028802Y02842D01*
Y027323D01*
X024471Y022992D01*
X024384Y023027D01*
X02426Y023044D01*
X024136Y023027D01*
X02402Y02298D01*
X023921Y022903D01*
X023845Y022804D01*
X023797Y022689D01*
X023781Y022565D01*
X023797Y022441D01*
X023845Y022325D01*
X023885Y022273D01*
X02386Y022223D01*
X023295D01*
X023295Y022223D01*
X023226Y022209D01*
X023168Y022171D01*
X023168Y022171D01*
X022792Y021794D01*
X02277Y02178D01*
X02273Y02172D01*
X022716Y02165D01*
X02273Y02158D01*
X02277Y02152D01*
X02283Y02148D01*
X0229Y021466D01*
X02297Y02148D01*
X02303Y02152D01*
X023044Y021542D01*
X023369Y021866D01*
X024475D01*
X024502Y021872D01*
X026826D01*
X027324Y021374D01*
X027315Y021353D01*
X027301Y02125D01*
X027315Y021147D01*
X027355Y021051D01*
X027418Y020968D01*
X027501Y020905D01*
X027597Y020865D01*
X0277Y020851D01*
X027803Y020865D01*
X027899Y020905D01*
X027982Y020968D01*
X028045Y021051D01*
X028085Y021147D01*
X028099Y02125D01*
X028085Y021353D01*
X028045Y021449D01*
X027982Y021532D01*
X027899Y021595D01*
X027803Y021635D01*
X0277Y021649D01*
X027597Y021635D01*
X027576Y021626D01*
X027151Y022051D01*
X027171Y022097D01*
X027637D01*
X028334Y0214D01*
X028315Y021353D01*
X028301Y02125D01*
X028315Y021147D01*
X028355Y021051D01*
X028418Y020968D01*
X028501Y020905D01*
X028597Y020865D01*
X0287Y020851D01*
X028803Y020865D01*
X028899Y020905D01*
X028982Y020968D01*
X029045Y021051D01*
X029085Y021147D01*
X029099Y02125D01*
X029085Y021353D01*
X029045Y021449D01*
X028982Y021532D01*
X028899Y021595D01*
X028803Y021635D01*
X0287Y021649D01*
X028597Y021635D01*
X02855Y021616D01*
X027808Y022358D01*
X027803Y022362D01*
X027818Y022412D01*
X028322D01*
X029334Y0214D01*
X029315Y021353D01*
X029301Y02125D01*
X029315Y021147D01*
X029355Y021051D01*
X029418Y020968D01*
X029501Y020905D01*
X029597Y020865D01*
X0297Y020851D01*
X029803Y020865D01*
X029899Y020905D01*
X029982Y020968D01*
X030045Y021051D01*
X030085Y021147D01*
X030099Y02125D01*
X030085Y021353D01*
X030045Y021449D01*
X029982Y021532D01*
X029899Y021595D01*
X029803Y021635D01*
X0297Y021649D01*
X029597Y021635D01*
X02955Y021616D01*
X028493Y022673D01*
X028444Y022706D01*
X028385Y022718D01*
X027149D01*
X026875Y022991D01*
X02687Y02302D01*
X02683Y02308D01*
X02677Y02312D01*
X0267Y023134D01*
X02663Y02312D01*
X02657Y02308D01*
X02653Y02302D01*
X026528Y023009D01*
X026475Y022991D01*
X02647Y02302D01*
X02643Y02308D01*
X02637Y02312D01*
X0263Y023134D01*
X02623Y02312D01*
X02617Y02308D01*
X02613Y02302D01*
X026116Y02295D01*
X02613Y02288D01*
X02617Y02282D01*
X02623Y02278D01*
X026259Y022775D01*
X026759Y022275D01*
X02674Y022228D01*
X024657D01*
X024635Y022273D01*
X024675Y022325D01*
X024723Y022441D01*
X024739Y022565D01*
X024723Y022689D01*
X024687Y022775D01*
X029063Y027151D01*
X029096Y027201D01*
X029108Y027259D01*
Y029311D01*
X029397D01*
Y029195D01*
X02938Y02917D01*
X029366Y0291D01*
X02938Y02903D01*
X02942Y02897D01*
X02948Y02893D01*
X02955Y028916D01*
X02962Y02893D01*
X02968Y02897D01*
X02972Y02903D01*
X029734Y0291D01*
X02972Y02917D01*
X029703Y029195D01*
Y029311D01*
X029901D01*
Y030101D01*
X029895D01*
Y030308D01*
X029883Y030366D01*
X02985Y030416D01*
X029625Y030641D01*
X02962Y03067D01*
X02958Y03073D01*
X02952Y03077D01*
X02945Y030784D01*
X02938Y03077D01*
X029355Y030753D01*
X02844D01*
X028419Y030803D01*
X028472Y030856D01*
X028505Y030906D01*
X028517Y030964D01*
Y033799D01*
X028802D01*
Y033678D01*
X028709Y033585D01*
X02868Y03358D01*
X02862Y03354D01*
X02858Y03348D01*
X028566Y03341D01*
X02858Y03334D01*
X02862Y03328D01*
X02868Y03324D01*
X02875Y033226D01*
X02882Y03324D01*
X02888Y03328D01*
X02892Y03334D01*
X028925Y033369D01*
X029063Y033507D01*
X029096Y033556D01*
X029108Y033615D01*
Y033799D01*
X029507D01*
Y034589D01*
X029501D01*
Y034735D01*
X029563Y034796D01*
X029611Y034791D01*
X029627Y034747D01*
X029601Y034709D01*
X029589Y03465D01*
Y034589D01*
X029583D01*
Y033799D01*
X030295D01*
Y034589D01*
X030342Y034597D01*
X030521D01*
X030567Y034589D01*
X030567Y034547D01*
Y033799D01*
X030885D01*
Y034547D01*
X030885Y034589D01*
X030932Y034597D01*
X032287D01*
X032454Y03443D01*
X032433Y03438D01*
X03238Y03437D01*
X03232Y03433D01*
X03228Y03427D01*
X03228Y03427D01*
X032229Y03427D01*
X03222Y03432D01*
X03218Y03438D01*
X03212Y03442D01*
X03205Y034434D01*
X03198Y03442D01*
X03192Y03438D01*
X03188Y03432D01*
X031866Y03425D01*
X03188Y03418D01*
X031897Y034155D01*
Y033435D01*
X031889Y033389D01*
X031847Y033389D01*
X031099D01*
Y03307D01*
Y032874D01*
Y03248D01*
X031861Y03248D01*
X031883Y032442D01*
X031861Y032404D01*
X031099D01*
Y032398D01*
X031045D01*
X030987Y032387D01*
X030937Y032353D01*
X030609Y032025D01*
X03058Y03202D01*
X03052Y03198D01*
X03048Y03192D01*
X030466Y03185D01*
X03048Y03178D01*
X03052Y03172D01*
X03058Y03168D01*
X03065Y031666D01*
X03072Y03168D01*
X03078Y03172D01*
X03082Y03178D01*
X030825Y031809D01*
X031053Y032036D01*
X031099Y032017D01*
Y031693D01*
Y031299D01*
Y030823D01*
X03105D01*
X030991Y030812D01*
X030942Y030779D01*
X030842Y030679D01*
X030809Y030629D01*
X030797Y03057D01*
Y0303D01*
X030809Y030241D01*
X030842Y030192D01*
X030883Y030151D01*
X030862Y030101D01*
X030845Y030101D01*
X029977D01*
Y029311D01*
X03018D01*
Y020896D01*
X029737Y020453D01*
X02905D01*
X028991Y020441D01*
X028942Y020408D01*
X028192Y019658D01*
X028159Y019609D01*
X028147Y01955D01*
Y019445D01*
X02808D01*
Y018435D01*
X02852D01*
Y019445D01*
X028473D01*
X028461Y019495D01*
X029113Y020147D01*
X0298D01*
X029859Y020159D01*
X029908Y020192D01*
X03033Y020614D01*
X030377Y020595D01*
Y020425D01*
X03036Y0204D01*
X030346Y02033D01*
X03036Y020259D01*
X0304Y0202D01*
X030459Y02016D01*
X03053Y020146D01*
X0306Y02016D01*
X030659Y0202D01*
X030699Y020259D01*
X030713Y02033D01*
X030699Y0204D01*
X030682Y020425D01*
Y029311D01*
X030885D01*
Y030059D01*
X030885Y030078D01*
X030935Y030098D01*
X031792Y029242D01*
X031841Y029209D01*
X0319Y029197D01*
X03722D01*
X037244Y029147D01*
X037196Y029084D01*
X037156Y028988D01*
X037143Y028885D01*
X037156Y028781D01*
X037196Y028685D01*
X037259Y028603D01*
X037342Y028539D01*
X037438Y0285D01*
X037541Y028486D01*
X037645Y0285D01*
X037741Y028539D01*
X037823Y028603D01*
X037887Y028685D01*
X037926Y028781D01*
X03794Y028885D01*
X037926Y028988D01*
X037887Y029084D01*
X037838Y029147D01*
X037863Y029197D01*
X0379D01*
X037959Y029209D01*
X038008Y029242D01*
X038115Y029349D01*
X038148Y029398D01*
X03816Y029457D01*
Y029651D01*
X03821Y029668D01*
X038259Y029603D01*
X038342Y029539D01*
X038438Y0295D01*
X038541Y029486D01*
X038645Y0295D01*
X038741Y029539D01*
X038823Y029603D01*
X038887Y029685D01*
X038926Y029781D01*
X03894Y029885D01*
X038926Y029988D01*
X038887Y030084D01*
X038823Y030167D01*
X038741Y03023D01*
X038645Y03027D01*
X038541Y030283D01*
X038438Y03027D01*
X038342Y03023D01*
X038259Y030167D01*
X03821Y030102D01*
X03816Y030119D01*
Y030651D01*
X03821Y030668D01*
X038259Y030603D01*
X038342Y030539D01*
X038438Y0305D01*
X038541Y030486D01*
X038645Y0305D01*
X038741Y030539D01*
X038823Y030603D01*
X038887Y030685D01*
X038926Y030781D01*
X03894Y030885D01*
X038926Y030988D01*
X038887Y031084D01*
X038823Y031167D01*
X038741Y03123D01*
X038645Y03127D01*
X038541Y031283D01*
X038438Y03127D01*
X038342Y03123D01*
X038259Y031167D01*
X03821Y031102D01*
X03816Y031119D01*
Y032651D01*
X03821Y032668D01*
X038259Y032603D01*
X038342Y032539D01*
X038438Y0325D01*
X038541Y032486D01*
X038645Y0325D01*
X038741Y032539D01*
X038823Y032603D01*
X038887Y032685D01*
X038926Y032781D01*
X03894Y032885D01*
X038926Y032988D01*
X038887Y033084D01*
X038823Y033167D01*
X038741Y03323D01*
X038645Y03327D01*
X038541Y033283D01*
X038438Y03327D01*
X038342Y03323D01*
X038259Y033167D01*
X03821Y033102D01*
X03816Y033119D01*
Y033287D01*
X038392Y033519D01*
X038438Y0335D01*
X038541Y033486D01*
X038645Y0335D01*
X038741Y033539D01*
X038823Y033603D01*
X038887Y033685D01*
X038926Y033781D01*
X03894Y033885D01*
X038926Y033988D01*
X038887Y034084D01*
X038823Y034167D01*
X038741Y03423D01*
X038645Y03427D01*
X038541Y034283D01*
X038438Y03427D01*
X038342Y03423D01*
X038259Y034167D01*
X038196Y034084D01*
X038156Y033988D01*
X038143Y033885D01*
X038156Y033781D01*
X038175Y033735D01*
X037899Y033458D01*
X037865Y033409D01*
X037854Y03335D01*
Y033206D01*
X037804Y033182D01*
X037741Y03323D01*
X037645Y03327D01*
X037541Y033283D01*
X037438Y03327D01*
X037342Y03323D01*
X037259Y033167D01*
X037196Y033084D01*
X037156Y032988D01*
X037143Y032885D01*
X037156Y032781D01*
X037196Y032685D01*
X037259Y032603D01*
X037342Y032539D01*
X037438Y0325D01*
X037541Y032486D01*
X037645Y0325D01*
X037741Y032539D01*
X037804Y032588D01*
X037854Y032563D01*
Y032206D01*
X037804Y032182D01*
X037741Y03223D01*
X037645Y03227D01*
X037541Y032283D01*
X037438Y03227D01*
X037342Y03223D01*
X037259Y032167D01*
X037196Y032084D01*
X037156Y031988D01*
X037143Y031885D01*
X037156Y031781D01*
X037196Y031685D01*
X037259Y031603D01*
X037342Y031539D01*
X037438Y0315D01*
X037541Y031486D01*
X037645Y0315D01*
X037741Y031539D01*
X037804Y031588D01*
X037854Y031563D01*
Y031206D01*
X037804Y031182D01*
X037741Y03123D01*
X037645Y03127D01*
X037541Y031283D01*
X037438Y03127D01*
X037342Y03123D01*
X037259Y031167D01*
X037196Y031084D01*
X037156Y030988D01*
X037143Y030885D01*
X037156Y030781D01*
X037196Y030685D01*
X037259Y030603D01*
X037342Y030539D01*
X037438Y0305D01*
X037541Y030486D01*
X037645Y0305D01*
X037741Y030539D01*
X037804Y030588D01*
X037854Y030563D01*
Y030206D01*
X037804Y030182D01*
X037741Y03023D01*
X037645Y03027D01*
X037541Y030283D01*
X037438Y03027D01*
X037342Y03023D01*
X037259Y030167D01*
X037196Y030084D01*
X037156Y029988D01*
X037143Y029885D01*
X037156Y029781D01*
X037196Y029685D01*
X037259Y029603D01*
X037324Y029553D01*
X037307Y029503D01*
X033891D01*
X033875Y02955D01*
X033889Y029561D01*
X033965Y02966D01*
X034013Y029776D01*
X034029Y0299D01*
X034013Y030024D01*
X033965Y03014D01*
X033889Y030239D01*
X033847Y030271D01*
X033864Y030321D01*
X034974D01*
X035032Y030332D01*
X035082Y030365D01*
X036408Y031692D01*
X036441Y031741D01*
X036453Y0318D01*
Y033937D01*
X036763Y034247D01*
X038026D01*
X038085Y034259D01*
X038134Y034292D01*
X03837Y034528D01*
X038438Y0345D01*
X038541Y034486D01*
X038645Y0345D01*
X038741Y034539D01*
X038823Y034603D01*
X038887Y034685D01*
X038926Y034781D01*
X03894Y034885D01*
X038926Y034988D01*
X038887Y035084D01*
X038823Y035167D01*
X038741Y03523D01*
X038645Y03527D01*
X038541Y035283D01*
X038438Y03527D01*
X038342Y03523D01*
X038259Y035167D01*
X038196Y035084D01*
X038156Y034988D01*
X038143Y034885D01*
X038156Y034781D01*
X038166Y034757D01*
X037963Y034553D01*
X037836D01*
X03782Y0346D01*
X037823Y034603D01*
X037887Y034685D01*
X037926Y034781D01*
X03794Y034885D01*
X037926Y034988D01*
X037887Y035084D01*
X037823Y035167D01*
X037741Y03523D01*
X037645Y03527D01*
X037541Y035283D01*
X037438Y03527D01*
X037342Y03523D01*
X037259Y035167D01*
X037196Y035084D01*
X037156Y034988D01*
X037143Y034885D01*
X037156Y034781D01*
X037196Y034685D01*
X037259Y034603D01*
X037263Y0346D01*
X037247Y034553D01*
X0367D01*
X036641Y034541D01*
X036592Y034508D01*
X036192Y034108D01*
X036159Y034059D01*
X036147Y034D01*
Y031863D01*
X03491Y030627D01*
X032603D01*
Y034105D01*
X03262Y03413D01*
X03263Y034183D01*
X03268Y034204D01*
X033397Y033487D01*
Y033061D01*
X03331Y033025D01*
X033211Y032949D01*
X033135Y03285D01*
X033087Y032734D01*
X033071Y03261D01*
X033087Y032486D01*
X033135Y03237D01*
X033211Y032271D01*
X03331Y032195D01*
X033426Y032147D01*
X03355Y032131D01*
X033674Y032147D01*
X03379Y032195D01*
X033889Y032271D01*
X033965Y03237D01*
X034013Y032486D01*
X034029Y03261D01*
X034013Y032734D01*
X033965Y03285D01*
X033889Y032949D01*
X03379Y033025D01*
X033703Y033061D01*
Y03355D01*
X033691Y033609D01*
X033658Y033658D01*
X032458Y034858D01*
X032409Y034891D01*
X03235Y034903D01*
X030335D01*
X030315Y034949D01*
X030508Y035142D01*
X030541Y035191D01*
X030553Y03525D01*
Y0359D01*
X030541Y035959D01*
X030508Y036008D01*
X030298Y036218D01*
X030282Y036235D01*
X030275Y036244D01*
Y03675D01*
X029525D01*
Y036245D01*
X029506Y036222D01*
X029467Y036183D01*
X029421Y036202D01*
Y036253D01*
X028748D01*
Y035741D01*
X028079D01*
Y035597D01*
X027825D01*
Y03575D01*
X027075D01*
Y03505D01*
X027579D01*
X027582Y035048D01*
X027606Y035028D01*
X027792Y034842D01*
X027841Y034809D01*
X0279Y034797D01*
X028837D01*
X028994Y034639D01*
X028988Y034589D01*
X027615D01*
Y033799D01*
X028014D01*
Y033011D01*
X027964Y03299D01*
X02792Y03302D01*
X02785Y033034D01*
X02778Y03302D01*
X02772Y03298D01*
X02768Y03292D01*
X027675Y032891D01*
X027445Y032661D01*
X027401Y032688D01*
Y032874D01*
Y033267D01*
Y033585D01*
X027159D01*
Y034344D01*
X027147Y034403D01*
X027114Y034452D01*
X024458Y037108D01*
X024409Y037141D01*
X02435Y037153D01*
X0201D01*
X020041Y037141D01*
X019992Y037108D01*
X0186Y035716D01*
X018553Y035735D01*
X01845Y035749D01*
X018347Y035735D01*
X018251Y035695D01*
X018168Y035632D01*
X018105Y035549D01*
X018065Y035453D01*
X018051Y03535D01*
X018065Y035247D01*
X018105Y035151D01*
X018168Y035068D01*
X018251Y035005D01*
X018347Y034965D01*
X01845Y034951D01*
X018553Y034965D01*
X018649Y035005D01*
X018732Y035068D01*
X018795Y035151D01*
X018835Y035247D01*
X018849Y03535D01*
X018835Y035453D01*
X018816Y0355D01*
X020163Y036847D01*
X024287D01*
X026853Y034281D01*
Y033585D01*
X026611D01*
Y033382D01*
X026463D01*
X026453Y033393D01*
Y03425D01*
X026441Y034309D01*
X026408Y034358D01*
X024058Y036708D01*
X024009Y036741D01*
X02395Y036753D01*
X0207D01*
X020641Y036741D01*
X020592Y036708D01*
X0186Y034716D01*
X018553Y034735D01*
X01845Y034749D01*
X018347Y034735D01*
X018251Y034695D01*
X018168Y034632D01*
X018105Y034549D01*
X018065Y034453D01*
X018051Y03435D01*
X018065Y034247D01*
X018105Y034151D01*
X018168Y034068D01*
X018251Y034005D01*
X018347Y033965D01*
X01845Y033951D01*
X018553Y033965D01*
X018649Y034005D01*
X018732Y034068D01*
X018795Y034151D01*
X018835Y034247D01*
X018849Y03435D01*
X018835Y034453D01*
X018816Y0345D01*
X020763Y036447D01*
X020812D01*
X020817Y036441D01*
X020831Y036397D01*
X019342Y034908D01*
X019309Y034859D01*
X019297Y0348D01*
Y034413D01*
X0186Y033716D01*
X018553Y033735D01*
X01845Y033749D01*
X018347Y033735D01*
X018251Y033695D01*
X018168Y033632D01*
X018105Y033549D01*
X018065Y033453D01*
X018051Y03335D01*
X018065Y033247D01*
X018105Y033151D01*
X018168Y033068D01*
X018251Y033005D01*
X018347Y032965D01*
X01845Y032951D01*
X018553Y032965D01*
X018649Y033005D01*
X018732Y033068D01*
X018795Y033151D01*
X018835Y033247D01*
X018849Y03335D01*
X018835Y033453D01*
X018816Y0335D01*
X019501Y034185D01*
X019547Y034165D01*
Y033663D01*
X018653Y03277D01*
X018638Y032755D01*
X018626Y032745D01*
X018055D01*
Y031955D01*
X018845D01*
Y032525D01*
X018866Y03255D01*
X019808Y033492D01*
X019841Y033541D01*
X019853Y0336D01*
Y034387D01*
X019974Y034508D01*
X02002Y034488D01*
Y03424D01*
X021D01*
Y03466D01*
X020192D01*
X020172Y034706D01*
X020815Y035348D01*
X023985D01*
X025288Y034046D01*
Y033059D01*
X0253Y033D01*
X025333Y032951D01*
X025556Y032728D01*
X025606Y032695D01*
X025664Y032683D01*
X025801D01*
X02582Y032637D01*
X025759Y032575D01*
X02573Y03257D01*
X02567Y03253D01*
X02563Y03247D01*
X025616Y0324D01*
X02563Y03233D01*
X02567Y03227D01*
X02573Y03223D01*
X0258Y032216D01*
X02587Y03223D01*
X02593Y03227D01*
X02597Y03233D01*
X025975Y032359D01*
X026102Y032486D01*
X026611D01*
Y032283D01*
X027401D01*
Y032289D01*
X027442D01*
X027501Y032301D01*
X02755Y032334D01*
X027891Y032675D01*
X02792Y03268D01*
X027964Y03271D01*
X028014Y032689D01*
Y031131D01*
X027447Y030564D01*
X027401Y030583D01*
Y031102D01*
Y031496D01*
Y031889D01*
Y032207D01*
X026611D01*
Y032005D01*
X025712D01*
X02468Y033036D01*
Y03316D01*
X0237D01*
Y03274D01*
X024544D01*
X024578Y032706D01*
X024558Y03266D01*
X0237D01*
Y03224D01*
X024634D01*
X024663Y032204D01*
X024644Y03216D01*
X0237D01*
Y03174D01*
X02468D01*
Y031797D01*
X02479D01*
X025127Y03146D01*
X025108Y031414D01*
X02468D01*
Y03166D01*
X0237D01*
Y03124D01*
X024162D01*
X024164Y03124D01*
X024168Y031232D01*
X024177Y031215D01*
X02418Y031208D01*
X024182Y0312D01*
X024182Y031184D01*
X024167Y03116D01*
X0237D01*
Y03074D01*
X02468D01*
Y030911D01*
X02518D01*
X025199Y030865D01*
X024937Y030603D01*
X02468D01*
Y03066D01*
X0237D01*
Y03024D01*
X02468D01*
Y030297D01*
X025D01*
X025059Y030309D01*
X025108Y030342D01*
X025481Y030714D01*
X026611D01*
Y030315D01*
X026565Y030303D01*
X026395D01*
X02637Y03032D01*
X0263Y030334D01*
X02623Y03032D01*
X02617Y03028D01*
X02613Y03022D01*
X026116Y03015D01*
X02613Y03008D01*
X02617Y03002D01*
X02623Y02998D01*
X0263Y029966D01*
X02637Y02998D01*
X026395Y029997D01*
X026493D01*
X026526Y029947D01*
X026516Y0299D01*
X02653Y02983D01*
X02657Y02977D01*
X02663Y02973D01*
X0267Y029716D01*
X02677Y02973D01*
X026795Y029747D01*
X0273D01*
X027359Y029759D01*
X027408Y029792D01*
X027568Y029952D01*
X027615Y029933D01*
Y029311D01*
X027621D01*
Y029087D01*
X027237Y028703D01*
X0218D01*
X021741Y028691D01*
X021692Y028658D01*
X019687Y026653D01*
X01893D01*
X018871Y026641D01*
X018822Y026608D01*
X018512Y026298D01*
X018495Y026282D01*
X018486Y026275D01*
X01798D01*
Y025525D01*
X01868D01*
Y026029D01*
X018682Y026032D01*
X018702Y026056D01*
X018834Y026188D01*
X01888Y026168D01*
Y025525D01*
X019077D01*
Y025336D01*
X018917D01*
Y024664D01*
X019478D01*
X019505Y024614D01*
X019498Y024603D01*
X01893D01*
X018871Y024591D01*
X018822Y024558D01*
X018512Y024248D01*
X018495Y024232D01*
X018486Y024225D01*
X01798D01*
Y023475D01*
X01868D01*
Y023979D01*
X018682Y023982D01*
X018702Y024006D01*
X018834Y024138D01*
X01888Y024118D01*
Y023475D01*
X019077D01*
Y023336D01*
X018917D01*
Y022664D01*
X01955D01*
Y023336D01*
X019383D01*
Y023475D01*
X01958D01*
Y024225D01*
X019014D01*
X01899Y024275D01*
X019007Y024297D01*
X0196D01*
X019659Y024309D01*
X019708Y024342D01*
X020008Y024642D01*
X020041Y024691D01*
X020053Y02475D01*
Y025337D01*
X020651Y025935D01*
X020697Y025915D01*
Y021903D01*
X020691Y021899D01*
X020615Y0218D01*
X020579Y021713D01*
X018771D01*
X018735Y0218D01*
X018659Y021899D01*
X01856Y021975D01*
X018444Y022023D01*
X01832Y022039D01*
X018196Y022023D01*
X01808Y021975D01*
X017981Y021899D01*
X017905Y0218D01*
X017903Y021794D01*
X017853Y021804D01*
X017853Y02813D01*
X017899Y028149D01*
X017954Y028094D01*
X017968Y028079D01*
X017977Y028068D01*
X01798Y028064D01*
Y02756D01*
X01868D01*
Y02831D01*
X018175D01*
X018152Y028329D01*
X018056Y028425D01*
Y029675D01*
X01868D01*
Y030084D01*
X018834Y030238D01*
X01888Y030219D01*
Y029675D01*
X019077D01*
Y029536D01*
X018917D01*
Y028864D01*
X01955D01*
Y029536D01*
X019383D01*
Y029675D01*
X01958D01*
Y030425D01*
X019086D01*
X019067Y030471D01*
X019858Y031262D01*
X019891Y031312D01*
X019903Y03137D01*
Y032497D01*
X019974Y032568D01*
X02002Y032548D01*
Y03224D01*
X021D01*
Y032297D01*
X02121D01*
X021231Y032247D01*
X021087Y032103D01*
X021D01*
Y03216D01*
X02002D01*
Y03174D01*
X021D01*
Y031797D01*
X02115D01*
X021209Y031809D01*
X021248Y031835D01*
X02128Y031796D01*
X021087Y031603D01*
X021D01*
Y03166D01*
X02002D01*
Y03124D01*
X021D01*
Y031297D01*
X02115D01*
X021209Y031309D01*
X021258Y031342D01*
X023101Y033185D01*
X023147Y033165D01*
Y033013D01*
X021237Y031103D01*
X021D01*
Y03116D01*
X02002D01*
Y03074D01*
X021D01*
Y030797D01*
X0213D01*
X021359Y030809D01*
X021408Y030842D01*
X023408Y032842D01*
X023441Y032891D01*
X023453Y03295D01*
Y034955D01*
X02347Y03498D01*
X023484Y03505D01*
X02347Y03512D01*
X02343Y03518D01*
X02337Y03522D01*
X0233Y035234D01*
X02323Y03522D01*
X02317Y03518D01*
X02313Y03512D01*
X023116Y03505D01*
X02313Y03498D01*
X023147Y034955D01*
Y034507D01*
X023097Y034474D01*
X02305Y034484D01*
X023042Y034482D01*
X023003Y034514D01*
Y034955D01*
X02302Y03498D01*
X023034Y03505D01*
X02302Y03512D01*
X02298Y03518D01*
X02292Y03522D01*
X02285Y035234D01*
X02278Y03522D01*
X02272Y03518D01*
X022705Y035157D01*
X022645D01*
X02263Y03518D01*
X02257Y03522D01*
X0225Y035234D01*
X02243Y03522D01*
X02237Y03518D01*
X02233Y03512D01*
X022316Y03505D01*
X02233Y03498D01*
X022347Y034955D01*
Y033763D01*
X021187Y032603D01*
X021D01*
Y03266D01*
X020132D01*
X020112Y032706D01*
X020145Y032739D01*
X020147Y03274D01*
X021D01*
Y03316D01*
X020131D01*
X02013Y03316D01*
X020127Y03316D01*
X020125D01*
X020121Y033161D01*
X020117Y03316D01*
X020092D01*
X020072Y033206D01*
X020106Y03324D01*
X021D01*
Y03366D01*
X02002D01*
Y033577D01*
X019992Y033558D01*
X019042Y032608D01*
X019009Y032559D01*
X018997Y0325D01*
Y031913D01*
X017899Y030815D01*
X017853Y030835D01*
Y03895D01*
Y039946D01*
X017852Y039951D01*
X017865Y040083D01*
X017905Y040215D01*
X01797Y040336D01*
X018054Y040439D01*
X018058Y040442D01*
X018061Y040446D01*
X018164Y04053D01*
X018267Y040585D01*
X018277Y040583D01*
X01829Y040529D01*
X018189Y040446D01*
X01809Y040326D01*
X018017Y040188D01*
X017971Y04004D01*
X017956Y039885D01*
X017971Y03973D01*
X018017Y039581D01*
X01809Y039444D01*
X018189Y039323D01*
X018309Y039225D01*
X018446Y039151D01*
X018595Y039106D01*
X01875Y039091D01*
X018905Y039106D01*
X019054Y039151D01*
X019191Y039225D01*
X019311Y039323D01*
X01941Y039444D01*
X019483Y039581D01*
X019529Y03973D01*
X019544Y039885D01*
X019529Y04004D01*
X019483Y040188D01*
X01941Y040326D01*
X019311Y040446D01*
X019191Y040545D01*
X019093Y040597D01*
X019106Y040647D01*
X034987D01*
Y040453D01*
X0344D01*
X034341Y040441D01*
X034292Y040408D01*
X034247Y040363D01*
X03423Y040348D01*
X034227Y040345D01*
X033655D01*
Y039555D01*
X034445D01*
Y040126D01*
X034464Y040147D01*
X034987D01*
Y039925D01*
X03558D01*
X035599Y039879D01*
X035481Y03976D01*
X035464Y039744D01*
X035453Y039736D01*
X035432D01*
X035428Y039737D01*
X035424Y039736D01*
X03502D01*
Y039064D01*
X035653D01*
Y039484D01*
X035653Y039485D01*
X035653Y039486D01*
Y039496D01*
X035655Y039498D01*
X035675Y039522D01*
X036054Y039902D01*
X036072Y039918D01*
X036081Y039925D01*
X036587D01*
Y040647D01*
X037686D01*
X037698Y040597D01*
D02*
G37*
G36*
X035623Y039615D02*
X035604Y039596D01*
X035574Y03956D01*
X035563Y039544D01*
X035554Y039529D01*
X035549Y039516D01*
X035546Y039504D01*
X035545Y039492D01*
X035547Y039483D01*
X035552Y039474D01*
X03543Y039635D01*
X035437Y039628D01*
X035446Y039625D01*
X035456Y039624D01*
X035467Y039627D01*
X035481Y039633D01*
X035496Y039641D01*
X035512Y039653D01*
X03553Y039667D01*
X035572Y039706D01*
X035623Y039615D01*
D02*
G37*
G36*
X029793Y036152D02*
X029784Y036157D01*
X029774Y036159D01*
X029763Y036158D01*
X02975Y036155D01*
X029737Y036149D01*
X029722Y03614D01*
X029706Y036129D01*
X029689Y036116D01*
X029651Y03608D01*
X029555Y036126D01*
X029577Y036148D01*
X029609Y036186D01*
X029621Y036203D01*
X02963Y036218D01*
X029636Y036231D01*
X029638Y036243D01*
X029638Y036253D01*
X029634Y036261D01*
X029627Y036268D01*
X029793Y036152D01*
D02*
G37*
G36*
X030166Y036261D02*
X030162Y036253D01*
X030162Y036243D01*
X030164Y036231D01*
X03017Y036218D01*
X030179Y036203D01*
X030191Y036186D01*
X030206Y036168D01*
X030245Y036126D01*
X030149Y03608D01*
X030129Y036099D01*
X030094Y036129D01*
X030078Y03614D01*
X030063Y036149D01*
X03005Y036155D01*
X030037Y036158D01*
X030026Y036159D01*
X030016Y036157D01*
X030007Y036152D01*
X030173Y036268D01*
X030166Y036261D01*
D02*
G37*
G36*
X029321Y036046D02*
X029324Y036038D01*
X029329Y03603D01*
X029336Y036024D01*
X029345Y036018D01*
X029356Y036014D01*
X029369Y03601D01*
X029384Y036008D01*
X029401Y036006D01*
X02942Y036006D01*
Y035906D01*
X029401Y035905D01*
X029384Y035904D01*
X029369Y035901D01*
X029356Y035898D01*
X029345Y035893D01*
X029336Y035888D01*
X029329Y035881D01*
X029324Y035874D01*
X029321Y035865D01*
X02932Y035856D01*
Y036056D01*
X029321Y036046D01*
D02*
G37*
G36*
X028182Y035344D02*
X028181Y035354D01*
X028177Y035362D01*
X028172Y03537D01*
X028165Y035376D01*
X028156Y035382D01*
X028145Y035386D01*
X028132Y03539D01*
X028117Y035392D01*
X0281Y035394D01*
X02808Y035394D01*
Y035494D01*
X0281Y035495D01*
X028117Y035496D01*
X028132Y035499D01*
X028145Y035502D01*
X028156Y035507D01*
X028165Y035512D01*
X028172Y035519D01*
X028177Y035526D01*
X028181Y035535D01*
X028182Y035544D01*
Y035344D01*
D02*
G37*
G36*
X027724Y035535D02*
X027727Y035526D01*
X027732Y035519D01*
X027739Y035512D01*
X027748Y035507D01*
X027759Y035502D01*
X027772Y035499D01*
X027787Y035496D01*
X027805Y035495D01*
X027824Y035494D01*
Y035394D01*
X027805Y035394D01*
X027787Y035392D01*
X027772Y03539D01*
X027759Y035386D01*
X027748Y035382D01*
X027739Y035376D01*
X027732Y03537D01*
X027727Y035362D01*
X027724Y035354D01*
X027723Y035344D01*
Y035544D01*
X027724Y035535D01*
D02*
G37*
G36*
X027716Y035261D02*
X027712Y035253D01*
X027712Y035243D01*
X027714Y035231D01*
X02772Y035218D01*
X027729Y035203D01*
X027741Y035186D01*
X027756Y035168D01*
X027795Y035126D01*
X027699Y03508D01*
X027679Y035099D01*
X027644Y035129D01*
X027628Y03514D01*
X027613Y035149D01*
X0276Y035155D01*
X027587Y035158D01*
X027576Y035159D01*
X027566Y035157D01*
X027557Y035152D01*
X027723Y035268D01*
X027716Y035261D01*
D02*
G37*
G36*
X023355Y034991D02*
X023354Y034989D01*
X023353Y034986D01*
X023352Y034982D01*
X023352Y034977D01*
X023351Y034964D01*
X02335Y03494D01*
X02325D01*
X02325Y034949D01*
X023248Y034982D01*
X023247Y034986D01*
X023246Y034989D01*
X023245Y034991D01*
X023244Y034993D01*
X023356D01*
X023355Y034991D01*
D02*
G37*
G36*
X022905D02*
X022904Y034989D01*
X022903Y034986D01*
X022902Y034982D01*
X022901Y034977D01*
X022901Y034964D01*
X0229Y03494D01*
X0228D01*
X0228Y034949D01*
X022798Y034982D01*
X022797Y034986D01*
X022796Y034989D01*
X022795Y034991D01*
X022794Y034993D01*
X022906D01*
X022905Y034991D01*
D02*
G37*
G36*
X022555D02*
X022554Y034989D01*
X022553Y034986D01*
X022552Y034982D01*
X022552Y034977D01*
X022551Y034964D01*
X02255Y03494D01*
X02245D01*
X02245Y034949D01*
X022448Y034982D01*
X022447Y034986D01*
X022446Y034989D01*
X022445Y034991D01*
X022444Y034993D01*
X022556D01*
X022555Y034991D01*
D02*
G37*
G36*
X030032Y036048D02*
X030056Y036028D01*
X030247Y035837D01*
Y035313D01*
X030037Y035103D01*
X0295D01*
X029441Y035091D01*
X029392Y035058D01*
X02924Y034907D01*
X02923Y034891D01*
X02918Y034886D01*
X029008Y035058D01*
X028959Y035091D01*
X0289Y035103D01*
X028765D01*
X028752Y035147D01*
X028752D01*
Y035659D01*
X029421D01*
Y035803D01*
X029456D01*
X029514Y035815D01*
X029564Y035848D01*
X029741Y036024D01*
X029756Y036038D01*
X029767Y036047D01*
X029771Y03605D01*
X030029D01*
X030032Y036048D01*
D02*
G37*
G36*
X032105Y034191D02*
X032104Y034189D01*
X032103Y034186D01*
X032102Y034182D01*
X032102Y034177D01*
X032101Y034164D01*
X0321Y03414D01*
X032D01*
X032Y034149D01*
X031998Y034182D01*
X031997Y034186D01*
X031996Y034189D01*
X031995Y034191D01*
X031994Y034193D01*
X032106D01*
X032105Y034191D01*
D02*
G37*
G36*
X032505Y034141D02*
X032504Y034139D01*
X032503Y034136D01*
X032502Y034132D01*
X032501Y034127D01*
X032501Y034114D01*
X0325Y03409D01*
X0324D01*
X0324Y034099D01*
X032398Y034132D01*
X032397Y034136D01*
X032396Y034139D01*
X032395Y034141D01*
X032394Y034143D01*
X032506D01*
X032505Y034141D01*
D02*
G37*
G36*
X027056Y033565D02*
X027058Y033548D01*
X02706Y033533D01*
X027064Y033519D01*
X027068Y033508D01*
X027074Y033499D01*
X02708Y033492D01*
X027088Y033487D01*
X027096Y033484D01*
X027106Y033483D01*
X026906D01*
X026915Y033484D01*
X026924Y033487D01*
X026931Y033492D01*
X026938Y033499D01*
X026943Y033508D01*
X026948Y033519D01*
X026951Y033533D01*
X026954Y033548D01*
X026955Y033565D01*
X026956Y033584D01*
X027056D01*
X027056Y033565D01*
D02*
G37*
G36*
X028863Y033453D02*
X028857Y033446D01*
X028835Y033422D01*
X028833Y033418D01*
X028831Y033415D01*
X02883Y033413D01*
X02883Y033411D01*
X028751Y03349D01*
X028753Y03349D01*
X028755Y033491D01*
X028758Y033493D01*
X028762Y033495D01*
X028765Y033498D01*
X028775Y033506D01*
X028793Y033523D01*
X028863Y033453D01*
D02*
G37*
G36*
X020121Y032841D02*
X020117Y032841D01*
X020112Y032839D01*
X020107Y032837D01*
X020101Y032833D01*
X020094Y032828D01*
X020078Y032816D01*
X02006Y0328D01*
X02005Y03279D01*
X020015Y032896D01*
X020035Y032917D01*
X020083Y032973D01*
X020095Y03299D01*
X020104Y033005D01*
X020112Y03302D01*
X020117Y033034D01*
X02012Y033047D01*
X020121Y033059D01*
Y032841D01*
D02*
G37*
G36*
X027849Y03277D02*
X027847Y03277D01*
X027845Y032769D01*
X027842Y032767D01*
X027838Y032765D01*
X027835Y032762D01*
X027825Y032754D01*
X027807Y032737D01*
X027737Y032807D01*
X027743Y032814D01*
X027765Y032838D01*
X027767Y032842D01*
X027769Y032845D01*
X02777Y032847D01*
X02777Y032849D01*
X027849Y03277D01*
D02*
G37*
G36*
X018815Y032644D02*
X018795Y032623D01*
X018764Y032587D01*
X018752Y03257D01*
X018743Y032555D01*
X018738Y032542D01*
X018735Y03253D01*
X018735Y032519D01*
X018737Y03251D01*
X018743Y032503D01*
X018603Y032643D01*
X01861Y032637D01*
X018619Y032635D01*
X01863Y032635D01*
X018642Y032638D01*
X018655Y032643D01*
X01867Y032652D01*
X018687Y032664D01*
X018704Y032678D01*
X018744Y032715D01*
X018815Y032644D01*
D02*
G37*
G36*
X025913Y032443D02*
X025907Y032436D01*
X025885Y032412D01*
X025883Y032408D01*
X025881Y032405D01*
X02588Y032403D01*
X02588Y032401D01*
X025801Y03248D01*
X025803Y03248D01*
X025805Y032481D01*
X025808Y032483D01*
X025812Y032485D01*
X025815Y032488D01*
X025825Y032496D01*
X025843Y032513D01*
X025913Y032443D01*
D02*
G37*
G36*
X024578Y032514D02*
X02458Y032511D01*
X024584Y032508D01*
X024589Y032506D01*
X024595Y032504D01*
X024602Y032503D01*
X024611Y032502D01*
X024633Y0325D01*
X024646Y0325D01*
Y0324D01*
X024633Y0324D01*
X024602Y032397D01*
X024595Y032396D01*
X024589Y032394D01*
X024584Y032392D01*
X02458Y032389D01*
X024578Y032386D01*
X024578Y032383D01*
Y032517D01*
X024578Y032514D01*
D02*
G37*
G36*
X020899Y032541D02*
X020902Y032532D01*
X020907Y032524D01*
X020914Y032518D01*
X020923Y032513D01*
X020934Y032508D01*
X020947Y032504D01*
X020962Y032502D01*
X02098Y032501D01*
X020999Y0325D01*
Y0324D01*
X02098Y032399D01*
X020962Y032398D01*
X020947Y032396D01*
X020934Y032392D01*
X020923Y032387D01*
X020914Y032382D01*
X020907Y032376D01*
X020902Y032368D01*
X020899Y032359D01*
X020898Y03235D01*
Y03255D01*
X020899Y032541D01*
D02*
G37*
G36*
X030763Y031893D02*
X030757Y031886D01*
X030735Y031862D01*
X030733Y031858D01*
X030731Y031855D01*
X03073Y031853D01*
X03073Y031851D01*
X030651Y03193D01*
X030653Y03193D01*
X030655Y031931D01*
X030658Y031933D01*
X030662Y031935D01*
X030665Y031938D01*
X030675Y031946D01*
X030693Y031963D01*
X030763Y031893D01*
D02*
G37*
G36*
X024579Y032041D02*
X024582Y032032D01*
X024587Y032025D01*
X024594Y032018D01*
X024603Y032013D01*
X024614Y032008D01*
X024627Y032004D01*
X024642Y032002D01*
X02466Y032001D01*
X024679Y032D01*
Y0319D01*
X02466Y031899D01*
X024642Y031898D01*
X024627Y031895D01*
X024614Y031892D01*
X024603Y031888D01*
X024594Y031882D01*
X024587Y031876D01*
X024582Y031868D01*
X024579Y03186D01*
X024578Y03185D01*
Y03205D01*
X024579Y032041D01*
D02*
G37*
G36*
X020899D02*
X020902Y032032D01*
X020907Y032025D01*
X020914Y032018D01*
X020923Y032013D01*
X020934Y032008D01*
X020947Y032004D01*
X020962Y032002D01*
X02098Y032001D01*
X020999Y032D01*
Y0319D01*
X02098Y031899D01*
X020962Y031898D01*
X020947Y031895D01*
X020934Y031892D01*
X020923Y031888D01*
X020914Y031882D01*
X020907Y031876D01*
X020902Y031868D01*
X020899Y03186D01*
X020898Y03185D01*
Y03205D01*
X020899Y032041D01*
D02*
G37*
G36*
Y031541D02*
X020902Y031532D01*
X020907Y031525D01*
X020914Y031518D01*
X020923Y031512D01*
X020934Y031508D01*
X020947Y031504D01*
X020962Y031502D01*
X02098Y0315D01*
X020999Y0315D01*
Y0314D01*
X02098Y0314D01*
X020962Y031398D01*
X020947Y031395D01*
X020934Y031392D01*
X020923Y031388D01*
X020914Y031382D01*
X020907Y031376D01*
X020902Y031368D01*
X020899Y03136D01*
X020898Y03135D01*
Y03155D01*
X020899Y031541D01*
D02*
G37*
G36*
X024427Y031342D02*
X024416Y031341D01*
X024408Y031338D01*
X024402Y031335D01*
X024398Y031331D01*
X024396Y031326D01*
X024397Y03132D01*
X024401Y031313D01*
X024406Y031305D01*
X024414Y031296D01*
X024299Y03127D01*
X024284Y031284D01*
X02427Y031296D01*
X024256Y031307D01*
X024242Y031317D01*
X024227Y031324D01*
X024213Y031331D01*
X024199Y031336D01*
X024185Y03134D01*
X024171Y031342D01*
X024157Y031342D01*
X02444D01*
X024427Y031342D01*
D02*
G37*
G36*
X020899Y03104D02*
X020902Y031032D01*
X020907Y031024D01*
X020914Y031018D01*
X020923Y031012D01*
X020934Y031008D01*
X020947Y031005D01*
X020962Y031002D01*
X02098Y031D01*
X020999Y031D01*
Y0309D01*
X02098Y0309D01*
X020962Y030898D01*
X020947Y030896D01*
X020934Y030892D01*
X020923Y030887D01*
X020914Y030882D01*
X020907Y030875D01*
X020902Y030868D01*
X020899Y030859D01*
X020898Y03085D01*
Y03105D01*
X020899Y03104D01*
D02*
G37*
G36*
X029393Y030544D02*
X029391Y030545D01*
X029389Y030546D01*
X029386Y030547D01*
X029382Y030548D01*
X029377Y030549D01*
X029364Y030549D01*
X02934Y03055D01*
Y03065D01*
X029349Y03065D01*
X029382Y030652D01*
X029386Y030653D01*
X029389Y030654D01*
X029391Y030655D01*
X029393Y030656D01*
Y030544D01*
D02*
G37*
G36*
X02953Y030597D02*
X029531Y030595D01*
X029533Y030592D01*
X029535Y030588D01*
X029538Y030585D01*
X029546Y030575D01*
X029563Y030557D01*
X029493Y030487D01*
X029486Y030493D01*
X029462Y030515D01*
X029458Y030517D01*
X029455Y030519D01*
X029453Y03052D01*
X029451Y03052D01*
X02953Y030599D01*
X02953Y030597D01*
D02*
G37*
G36*
X032501Y030605D02*
X032504Y030588D01*
X032509Y030573D01*
X032516Y03056D01*
X032525Y030549D01*
X032536Y03054D01*
X032549Y030533D01*
X032564Y030528D01*
X032581Y030525D01*
X0326Y030524D01*
X03245Y030424D01*
X0323Y030524D01*
X032319Y030525D01*
X032336Y030528D01*
X032351Y030533D01*
X032364Y03054D01*
X032375Y030549D01*
X032384Y03056D01*
X032391Y030573D01*
X032396Y030588D01*
X032399Y030605D01*
X0324Y030624D01*
X0325D01*
X032501Y030605D01*
D02*
G37*
G36*
X024579Y03054D02*
X024582Y030532D01*
X024587Y030524D01*
X024594Y030518D01*
X024603Y030512D01*
X024614Y030508D01*
X024627Y030505D01*
X024642Y030502D01*
X02466Y030501D01*
X024679Y0305D01*
Y0304D01*
X02466Y030399D01*
X024642Y030398D01*
X024627Y030396D01*
X024614Y030392D01*
X024603Y030387D01*
X024594Y030382D01*
X024587Y030375D01*
X024582Y030368D01*
X024579Y030359D01*
X024578Y03035D01*
Y03055D01*
X024579Y03054D01*
D02*
G37*
G36*
X026359Y030205D02*
X026361Y030204D01*
X026364Y030203D01*
X026368Y030202D01*
X026373Y030201D01*
X026386Y030201D01*
X02641Y0302D01*
Y0301D01*
X026401Y0301D01*
X026368Y030098D01*
X026364Y030097D01*
X026361Y030096D01*
X026359Y030095D01*
X026357Y030094D01*
Y030206D01*
X026359Y030205D01*
D02*
G37*
G36*
X026759Y029955D02*
X026761Y029954D01*
X026764Y029953D01*
X026768Y029952D01*
X026773Y029952D01*
X026786Y029951D01*
X02681Y02995D01*
Y02985D01*
X026801Y02985D01*
X026768Y029848D01*
X026764Y029847D01*
X026761Y029846D01*
X026759Y029845D01*
X026757Y029844D01*
Y029956D01*
X026759Y029955D01*
D02*
G37*
G36*
X01932Y029776D02*
X019312Y029773D01*
X019304Y029768D01*
X019298Y029761D01*
X019293Y029752D01*
X019288Y029741D01*
X019284Y029728D01*
X019282Y029713D01*
X019281Y029695D01*
X01928Y029676D01*
X01918D01*
X01918Y029695D01*
X019178Y029713D01*
X019175Y029728D01*
X019172Y029741D01*
X019167Y029752D01*
X019162Y029761D01*
X019155Y029768D01*
X019148Y029773D01*
X019139Y029776D01*
X01913Y029777D01*
X01933D01*
X01932Y029776D01*
D02*
G37*
G36*
X019281Y029516D02*
X019282Y029499D01*
X019284Y029483D01*
X019288Y02947D01*
X019293Y029459D01*
X019298Y02945D01*
X019304Y029443D01*
X019312Y029438D01*
X01932Y029435D01*
X01933Y029434D01*
X01913D01*
X019139Y029435D01*
X019148Y029438D01*
X019155Y029443D01*
X019162Y02945D01*
X019167Y029459D01*
X019172Y02947D01*
X019175Y029483D01*
X019178Y029499D01*
X01918Y029516D01*
X01918Y029535D01*
X01928D01*
X019281Y029516D01*
D02*
G37*
G36*
X0296Y029201D02*
X029602Y029168D01*
X029603Y029164D01*
X029604Y029161D01*
X029605Y029159D01*
X029606Y029157D01*
X029494D01*
X029495Y029159D01*
X029496Y029161D01*
X029497Y029164D01*
X029498Y029168D01*
X029499Y029173D01*
X029499Y029186D01*
X0295Y02921D01*
X0296D01*
X0296Y029201D01*
D02*
G37*
G36*
X02938Y03043D02*
X029409Y030425D01*
X029589Y030245D01*
Y030101D01*
X028205D01*
Y029311D01*
X028211D01*
Y029228D01*
X02797Y028986D01*
X027924Y029011D01*
X027927Y029024D01*
Y029311D01*
X02813D01*
Y030101D01*
X028156Y03014D01*
X028463Y030447D01*
X029355D01*
X02938Y03043D01*
D02*
G37*
G36*
X018078Y028258D02*
X018116Y028225D01*
X018133Y028213D01*
X018148Y028205D01*
X018161Y028199D01*
X018173Y028197D01*
X018183Y028197D01*
X018191Y028201D01*
X018198Y028207D01*
X018082Y028042D01*
X018087Y028051D01*
X018089Y028061D01*
X018088Y028072D01*
X018085Y028084D01*
X018079Y028098D01*
X01807Y028113D01*
X018059Y028129D01*
X018046Y028146D01*
X01801Y028183D01*
X018056Y028279D01*
X018078Y028258D01*
D02*
G37*
G36*
X01865Y026149D02*
X018631Y026129D01*
X018601Y026094D01*
X01859Y026078D01*
X018581Y026063D01*
X018575Y02605D01*
X018572Y026037D01*
X018571Y026026D01*
X018573Y026016D01*
X018578Y026007D01*
X018462Y026173D01*
X018469Y026166D01*
X018477Y026162D01*
X018487Y026162D01*
X018499Y026164D01*
X018512Y02617D01*
X018527Y026179D01*
X018544Y026191D01*
X018562Y026206D01*
X018604Y026245D01*
X01865Y026149D01*
D02*
G37*
G36*
X01932Y025626D02*
X019312Y025623D01*
X019304Y025618D01*
X019298Y025611D01*
X019293Y025602D01*
X019288Y025591D01*
X019284Y025578D01*
X019282Y025563D01*
X019281Y025545D01*
X01928Y025526D01*
X01918D01*
X01918Y025545D01*
X019178Y025563D01*
X019175Y025578D01*
X019172Y025591D01*
X019167Y025602D01*
X019162Y025611D01*
X019155Y025618D01*
X019148Y025623D01*
X019139Y025626D01*
X01913Y025627D01*
X01933D01*
X01932Y025626D01*
D02*
G37*
G36*
X019281Y025316D02*
X019282Y025299D01*
X019284Y025283D01*
X019288Y02527D01*
X019293Y025259D01*
X019298Y02525D01*
X019304Y025243D01*
X019312Y025238D01*
X01932Y025235D01*
X01933Y025234D01*
X01913D01*
X019139Y025235D01*
X019148Y025238D01*
X019155Y025243D01*
X019162Y02525D01*
X019167Y025259D01*
X019172Y02527D01*
X019175Y025283D01*
X019178Y025299D01*
X01918Y025316D01*
X01918Y025335D01*
X01928D01*
X019281Y025316D01*
D02*
G37*
G36*
X01865Y024099D02*
X018631Y024079D01*
X018601Y024044D01*
X01859Y024028D01*
X018581Y024013D01*
X018575Y024D01*
X018572Y023987D01*
X018571Y023976D01*
X018573Y023966D01*
X018578Y023957D01*
X018462Y024123D01*
X018469Y024116D01*
X018477Y024112D01*
X018487Y024112D01*
X018499Y024114D01*
X018512Y02412D01*
X018527Y024129D01*
X018544Y024141D01*
X018562Y024156D01*
X018604Y024195D01*
X01865Y024099D01*
D02*
G37*
G36*
X01932Y023576D02*
X019312Y023573D01*
X019304Y023568D01*
X019298Y023561D01*
X019293Y023552D01*
X019288Y023541D01*
X019284Y023528D01*
X019282Y023513D01*
X019281Y023495D01*
X01928Y023476D01*
X01918D01*
X01918Y023495D01*
X019178Y023513D01*
X019175Y023528D01*
X019172Y023541D01*
X019167Y023552D01*
X019162Y023561D01*
X019155Y023568D01*
X019148Y023573D01*
X019139Y023576D01*
X01913Y023577D01*
X01933D01*
X01932Y023576D01*
D02*
G37*
G36*
X019281Y023316D02*
X019282Y023299D01*
X019284Y023283D01*
X019288Y02327D01*
X019293Y023259D01*
X019298Y02325D01*
X019304Y023243D01*
X019312Y023238D01*
X01932Y023235D01*
X01933Y023234D01*
X01913D01*
X019139Y023235D01*
X019148Y023238D01*
X019155Y023243D01*
X019162Y02325D01*
X019167Y023259D01*
X019172Y02327D01*
X019175Y023283D01*
X019178Y023299D01*
X01918Y023316D01*
X01918Y023335D01*
X01928D01*
X019281Y023316D01*
D02*
G37*
G36*
X02678Y022947D02*
X026781Y022945D01*
X026783Y022942D01*
X026785Y022938D01*
X026788Y022935D01*
X026796Y022925D01*
X026813Y022907D01*
X026743Y022837D01*
X026736Y022843D01*
X026712Y022865D01*
X026708Y022867D01*
X026705Y022869D01*
X026703Y02287D01*
X026701Y02287D01*
X02678Y022949D01*
X02678Y022947D01*
D02*
G37*
G36*
X02638D02*
X026381Y022945D01*
X026383Y022942D01*
X026385Y022938D01*
X026388Y022935D01*
X026396Y022925D01*
X026413Y022907D01*
X026343Y022837D01*
X026336Y022843D01*
X026312Y022865D01*
X026308Y022867D01*
X026305Y022869D01*
X026303Y02287D01*
X026301Y02287D01*
X02638Y022949D01*
X02638Y022947D01*
D02*
G37*
G36*
X03058Y020431D02*
X030582Y020398D01*
X030582Y020394D01*
X030583Y020391D01*
X030584Y020388D01*
X030586Y020387D01*
X030474D01*
X030475Y020388D01*
X030476Y020391D01*
X030477Y020394D01*
X030477Y020398D01*
X030478Y020403D01*
X030479Y020415D01*
X03048Y02044D01*
X03058D01*
X03058Y020431D01*
D02*
G37*
G36*
X028351Y019425D02*
X028352Y019407D01*
X028354Y019392D01*
X028358Y019379D01*
X028363Y019368D01*
X028368Y019359D01*
X028375Y019352D01*
X028382Y019347D01*
X028391Y019344D01*
X0284Y019343D01*
X0282D01*
X02821Y019344D01*
X028218Y019347D01*
X028226Y019352D01*
X028232Y019359D01*
X028238Y019368D01*
X028242Y019379D01*
X028245Y019392D01*
X028248Y019407D01*
X028249Y019425D01*
X02825Y019444D01*
X02835D01*
X028351Y019425D01*
D02*
G37*
G36*
X029915Y016644D02*
X029912Y016638D01*
X029909Y016629D01*
X029907Y016615D01*
X029905Y016597D01*
X029902Y01655D01*
X0299Y01645D01*
X0297D01*
X0297Y016487D01*
X029691Y016629D01*
X029688Y016638D01*
X029685Y016644D01*
X029681Y016646D01*
X029919D01*
X029915Y016644D01*
D02*
G37*
%LPC*%
G36*
X03105Y039857D02*
X030935Y039842D01*
X030828Y039798D01*
X030736Y039727D01*
X030666Y039635D01*
X030621Y039528D01*
X030606Y039413D01*
X030621Y039299D01*
X030666Y039191D01*
X030736Y0391D01*
X030828Y039029D01*
X030935Y038985D01*
X03105Y03897D01*
X031165Y038985D01*
X031272Y039029D01*
X031364Y0391D01*
X031434Y039191D01*
X031479Y039299D01*
X031494Y039413D01*
X031479Y039528D01*
X031434Y039635D01*
X031364Y039727D01*
X031272Y039798D01*
X031165Y039842D01*
X03105Y039857D01*
D02*
G37*
G36*
X03005D02*
X029935Y039842D01*
X029828Y039798D01*
X029736Y039727D01*
X029666Y039635D01*
X029621Y039528D01*
X029606Y039413D01*
X029621Y039299D01*
X029666Y039191D01*
X029736Y0391D01*
X029828Y039029D01*
X029935Y038985D01*
X03005Y03897D01*
X030165Y038985D01*
X030272Y039029D01*
X030364Y0391D01*
X030434Y039191D01*
X030479Y039299D01*
X030494Y039413D01*
X030479Y039528D01*
X030434Y039635D01*
X030364Y039727D01*
X030272Y039798D01*
X030165Y039842D01*
X03005Y039857D01*
D02*
G37*
G36*
X02905D02*
X028935Y039842D01*
X028828Y039798D01*
X028736Y039727D01*
X028666Y039635D01*
X028621Y039528D01*
X028606Y039413D01*
X028621Y039299D01*
X028666Y039191D01*
X028736Y0391D01*
X028828Y039029D01*
X028935Y038985D01*
X02905Y03897D01*
X029165Y038985D01*
X029272Y039029D01*
X029364Y0391D01*
X029434Y039191D01*
X029479Y039299D01*
X029494Y039413D01*
X029479Y039528D01*
X029434Y039635D01*
X029364Y039727D01*
X029272Y039798D01*
X029165Y039842D01*
X02905Y039857D01*
D02*
G37*
G36*
X02805D02*
X027935Y039842D01*
X027828Y039798D01*
X027736Y039727D01*
X027666Y039635D01*
X027621Y039528D01*
X027606Y039413D01*
X027621Y039299D01*
X027666Y039191D01*
X027736Y0391D01*
X027828Y039029D01*
X027935Y038985D01*
X02805Y03897D01*
X028165Y038985D01*
X028272Y039029D01*
X028364Y0391D01*
X028434Y039191D01*
X028479Y039299D01*
X028494Y039413D01*
X028479Y039528D01*
X028434Y039635D01*
X028364Y039727D01*
X028272Y039798D01*
X028165Y039842D01*
X02805Y039857D01*
D02*
G37*
G36*
X02705D02*
X026935Y039842D01*
X026828Y039798D01*
X026736Y039727D01*
X026666Y039635D01*
X026621Y039528D01*
X026606Y039413D01*
X026621Y039299D01*
X026666Y039191D01*
X026736Y0391D01*
X026828Y039029D01*
X026935Y038985D01*
X02705Y03897D01*
X027165Y038985D01*
X027272Y039029D01*
X027364Y0391D01*
X027434Y039191D01*
X027479Y039299D01*
X027494Y039413D01*
X027479Y039528D01*
X027434Y039635D01*
X027364Y039727D01*
X027272Y039798D01*
X027165Y039842D01*
X02705Y039857D01*
D02*
G37*
G36*
X02605D02*
X025935Y039842D01*
X025828Y039798D01*
X025736Y039727D01*
X025666Y039635D01*
X025621Y039528D01*
X025606Y039413D01*
X025621Y039299D01*
X025666Y039191D01*
X025736Y0391D01*
X025828Y039029D01*
X025935Y038985D01*
X02605Y03897D01*
X026165Y038985D01*
X026272Y039029D01*
X026364Y0391D01*
X026434Y039191D01*
X026479Y039299D01*
X026494Y039413D01*
X026479Y039528D01*
X026434Y039635D01*
X026364Y039727D01*
X026272Y039798D01*
X026165Y039842D01*
X02605Y039857D01*
D02*
G37*
G36*
X02505D02*
X024935Y039842D01*
X024828Y039798D01*
X024736Y039727D01*
X024666Y039635D01*
X024621Y039528D01*
X024606Y039413D01*
X024621Y039299D01*
X024666Y039191D01*
X024736Y0391D01*
X024828Y039029D01*
X024935Y038985D01*
X02505Y03897D01*
X025165Y038985D01*
X025272Y039029D01*
X025364Y0391D01*
X025434Y039191D01*
X025479Y039299D01*
X025494Y039413D01*
X025479Y039528D01*
X025434Y039635D01*
X025364Y039727D01*
X025272Y039798D01*
X025165Y039842D01*
X02505Y039857D01*
D02*
G37*
G36*
X02905Y038857D02*
X028935Y038842D01*
X028828Y038798D01*
X028736Y038727D01*
X028666Y038635D01*
X028621Y038528D01*
X028606Y038413D01*
X028621Y038299D01*
X028666Y038191D01*
X028736Y0381D01*
X028828Y038029D01*
X028916Y037993D01*
X028906Y037943D01*
X028194D01*
X028184Y037993D01*
X028272Y038029D01*
X028364Y0381D01*
X028434Y038191D01*
X028479Y038299D01*
X028494Y038413D01*
X028479Y038528D01*
X028434Y038635D01*
X028364Y038727D01*
X028272Y038798D01*
X028165Y038842D01*
X02805Y038857D01*
X027935Y038842D01*
X027828Y038798D01*
X027736Y038727D01*
X027666Y038635D01*
X027621Y038528D01*
X027606Y038413D01*
X027621Y038299D01*
X027666Y038191D01*
X027736Y0381D01*
X027828Y038029D01*
X027916Y037993D01*
X027906Y037943D01*
X027194D01*
X027184Y037993D01*
X027272Y038029D01*
X027364Y0381D01*
X027434Y038191D01*
X027479Y038299D01*
X027494Y038413D01*
X027479Y038528D01*
X027434Y038635D01*
X027364Y038727D01*
X027272Y038798D01*
X027165Y038842D01*
X02705Y038857D01*
X026935Y038842D01*
X026828Y038798D01*
X026736Y038727D01*
X026666Y038635D01*
X026621Y038528D01*
X026606Y038413D01*
X026621Y038299D01*
X026666Y038191D01*
X026736Y0381D01*
X026828Y038029D01*
X026916Y037993D01*
X026906Y037943D01*
X026194D01*
X026184Y037993D01*
X026272Y038029D01*
X026364Y0381D01*
X026434Y038191D01*
X026479Y038299D01*
X026494Y038413D01*
X026479Y038528D01*
X026434Y038635D01*
X026364Y038727D01*
X026272Y038798D01*
X026165Y038842D01*
X02605Y038857D01*
X025935Y038842D01*
X025828Y038798D01*
X025736Y038727D01*
X025666Y038635D01*
X025621Y038528D01*
X025606Y038413D01*
X025621Y038299D01*
X025666Y038191D01*
X025736Y0381D01*
X025828Y038029D01*
X025916Y037993D01*
X025906Y037943D01*
X025405D01*
X02539Y037993D01*
X025438Y038025D01*
X025479Y038086D01*
X025494Y038158D01*
Y038668D01*
X025479Y038741D01*
X025438Y038802D01*
X025377Y038843D01*
X025305Y038857D01*
X024795D01*
X024723Y038843D01*
X024662Y038802D01*
X024621Y038741D01*
X024606Y038668D01*
Y038158D01*
X024621Y038086D01*
X024662Y038025D01*
X02471Y037993D01*
X024695Y037943D01*
X019059D01*
X018812Y03819D01*
X018835Y038247D01*
X018849Y03835D01*
X018835Y038453D01*
X018795Y038549D01*
X018732Y038632D01*
X018649Y038695D01*
X018553Y038735D01*
X01845Y038749D01*
X018347Y038735D01*
X018251Y038695D01*
X018168Y038632D01*
X018105Y038549D01*
X018065Y038453D01*
X018051Y03835D01*
X018065Y038247D01*
X018105Y038151D01*
X018168Y038068D01*
X018251Y038005D01*
X018347Y037965D01*
X01845Y037951D01*
X018553Y037965D01*
X01861Y037988D01*
X018899Y037699D01*
X018899Y037699D01*
X018945Y037668D01*
X019Y037657D01*
X029643D01*
X029645Y037657D01*
X029648Y037653D01*
X029623Y037603D01*
X018754D01*
X018732Y037632D01*
X018649Y037695D01*
X018553Y037735D01*
X01845Y037749D01*
X018347Y037735D01*
X018251Y037695D01*
X018168Y037632D01*
X018105Y037549D01*
X018065Y037453D01*
X018051Y03735D01*
X018065Y037247D01*
X018105Y037151D01*
X018168Y037068D01*
X018251Y037005D01*
X018347Y036965D01*
X01845Y036951D01*
X018553Y036965D01*
X018649Y037005D01*
X018732Y037068D01*
X018795Y037151D01*
X018835Y037247D01*
X018842Y037297D01*
X029705D01*
X02973Y03728D01*
X0298Y037266D01*
X02987Y03728D01*
X02993Y03732D01*
X02997Y03738D01*
X029984Y03745D01*
X02997Y03752D01*
X02993Y03758D01*
X029907Y037595D01*
Y037655D01*
X02993Y03767D01*
X02997Y03773D01*
X029984Y0378D01*
X02997Y03787D01*
X02993Y03793D01*
X02987Y03797D01*
X0298Y037984D01*
X02973Y03797D01*
X02969Y037943D01*
X029194D01*
X029184Y037993D01*
X029272Y038029D01*
X029364Y0381D01*
X029434Y038191D01*
X029479Y038299D01*
X029494Y038413D01*
X029479Y038528D01*
X029434Y038635D01*
X029364Y038727D01*
X029272Y038798D01*
X029165Y038842D01*
X02905Y038857D01*
D02*
G37*
G36*
X038026Y038604D02*
X03565D01*
X035572Y038588D01*
X035506Y038544D01*
X035137Y038175D01*
X0346D01*
Y037425D01*
Y036675D01*
X034638Y036661D01*
Y036105D01*
X034637Y036101D01*
X034638Y036097D01*
Y036095D01*
X034638Y036092D01*
X034638Y036091D01*
Y036004D01*
X034434D01*
X034362Y036077D01*
Y036661D01*
X033898D01*
Y036D01*
X03393D01*
X033942Y035942D01*
X033986Y035876D01*
X034115Y035746D01*
X034096Y0357D01*
X033898D01*
Y035589D01*
X033848Y035568D01*
X033498Y035918D01*
X033482Y035935D01*
X033475Y035944D01*
Y03645D01*
X032725D01*
Y03575D01*
X033229D01*
X033232Y035748D01*
X033256Y035728D01*
X033722Y035262D01*
X033772Y035228D01*
X03383Y035217D01*
X033898D01*
Y035039D01*
X034362D01*
Y035596D01*
X034638D01*
Y035144D01*
X034637Y035141D01*
X034638Y035137D01*
X034638Y035134D01*
X034638Y035132D01*
Y035039D01*
X034664D01*
X034666Y035D01*
Y034879D01*
X034665Y034864D01*
X034661Y034843D01*
X034657Y034828D01*
X034656Y034825D01*
X034546D01*
Y034075D01*
X03455D01*
Y033375D01*
X03525D01*
Y033552D01*
X035272Y033563D01*
X0353Y033566D01*
X03535Y0335D01*
X035423Y033444D01*
X035509Y033409D01*
X0356Y033397D01*
X035691Y033409D01*
X035777Y033444D01*
X03585Y0335D01*
X035906Y033573D01*
X035941Y033659D01*
X035953Y03375D01*
X035941Y033841D01*
X035906Y033927D01*
X03585Y034D01*
X035777Y034056D01*
X035691Y034091D01*
X0356Y034103D01*
X035509Y034091D01*
X035423Y034056D01*
X03535Y034D01*
X0353Y033934D01*
X035272Y033937D01*
X03525Y033948D01*
Y034125D01*
X035246D01*
Y034825D01*
X035084D01*
X035083Y034828D01*
X035079Y034843D01*
X035075Y034864D01*
X035074Y034879D01*
Y03502D01*
X035075Y035039D01*
X035102D01*
Y035111D01*
X035103Y035134D01*
X035126Y035152D01*
X035149Y035164D01*
X035168Y035165D01*
X035193Y035166D01*
X035199Y035166D01*
X035225D01*
X035275Y035151D01*
Y035151D01*
X035372D01*
X035376Y03515D01*
X03538Y035151D01*
X036025D01*
Y035851D01*
X035275D01*
Y035584D01*
X035272Y035582D01*
X035257Y035578D01*
X035235Y035575D01*
X035221Y035574D01*
X035156D01*
X035141Y035575D01*
X03512Y035578D01*
X035105Y035583D01*
X035102Y035584D01*
Y0357D01*
X035004D01*
X034985Y035746D01*
X035014Y035776D01*
X035058Y035842D01*
X035074Y03592D01*
Y035992D01*
X035075Y036D01*
X035102D01*
Y036091D01*
X035102Y036092D01*
X035102Y036095D01*
Y036097D01*
X035103Y036101D01*
X035102Y036105D01*
Y036278D01*
X035138Y036332D01*
X035154Y03641D01*
Y036621D01*
X035155Y036635D01*
X035159Y036657D01*
X035163Y036672D01*
X035164Y036675D01*
X035275D01*
Y036051D01*
X036025D01*
Y036142D01*
X036025Y03615D01*
X036035Y036174D01*
X036069Y036185D01*
X036104Y036174D01*
X036113Y03615D01*
X036114Y036142D01*
Y036097D01*
X036786D01*
Y03673D01*
X036114D01*
Y03666D01*
X036113Y036652D01*
X036104Y036629D01*
X036069Y036618D01*
X036035Y036629D01*
X036025Y036652D01*
X036025Y03666D01*
Y036751D01*
X0353D01*
Y037425D01*
Y037762D01*
X035734Y038196D01*
X037146D01*
Y037489D01*
X037937D01*
Y03813D01*
X037987Y038151D01*
X038155Y037982D01*
X038143Y037885D01*
X038156Y037781D01*
X038196Y037685D01*
X038259Y037603D01*
X038337Y037543D01*
Y037226D01*
X038259Y037167D01*
X038196Y037084D01*
X038156Y036988D01*
X038143Y036885D01*
X038156Y036781D01*
X038196Y036685D01*
X038259Y036603D01*
X038342Y036539D01*
X038438Y0365D01*
X038541Y036486D01*
X038645Y0365D01*
X038741Y036539D01*
X038823Y036603D01*
X038887Y036685D01*
X038926Y036781D01*
X03894Y036885D01*
X038926Y036988D01*
X038887Y037084D01*
X038823Y037167D01*
X038745Y037226D01*
Y037543D01*
X038823Y037603D01*
X038887Y037685D01*
X038926Y037781D01*
X03894Y037885D01*
X038926Y037988D01*
X038887Y038084D01*
X038823Y038167D01*
X038741Y03823D01*
X038645Y03827D01*
X038541Y038283D01*
X038444Y03827D01*
X03817Y038544D01*
X038104Y038588D01*
X038026Y038604D01*
D02*
G37*
G36*
X037541Y037283D02*
X037438Y03727D01*
X037342Y03723D01*
X037259Y037167D01*
X037196Y037084D01*
X037156Y036988D01*
X037143Y036885D01*
X037156Y036781D01*
X037196Y036685D01*
X037259Y036603D01*
X037342Y036539D01*
X037438Y0365D01*
X037541Y036486D01*
X037645Y0365D01*
X037741Y036539D01*
X037823Y036603D01*
X037887Y036685D01*
X037926Y036781D01*
X03794Y036885D01*
X037926Y036988D01*
X037887Y037084D01*
X037823Y037167D01*
X037741Y03723D01*
X037645Y03727D01*
X037541Y037283D01*
D02*
G37*
G36*
Y036283D02*
X037438Y03627D01*
X037342Y03623D01*
X037259Y036167D01*
X037196Y036084D01*
X037156Y035988D01*
X037143Y035885D01*
X037156Y035781D01*
X037196Y035685D01*
X037259Y035603D01*
X037342Y035539D01*
X037438Y0355D01*
X037541Y035486D01*
X037645Y0355D01*
X037741Y035539D01*
X037823Y035603D01*
X037887Y035685D01*
X037926Y035781D01*
X03794Y035885D01*
X037926Y035988D01*
X037887Y036084D01*
X037823Y036167D01*
X037741Y03623D01*
X037645Y03627D01*
X037541Y036283D01*
D02*
G37*
G36*
X02468Y03416D02*
X0237D01*
Y03374D01*
X02468D01*
Y03416D01*
D02*
G37*
G36*
X021D02*
X02002D01*
Y03374D01*
X021D01*
Y03416D01*
D02*
G37*
G36*
X02468Y03366D02*
X0237D01*
Y03324D01*
X02468D01*
Y03366D01*
D02*
G37*
G36*
X0221Y030179D02*
X022012Y030162D01*
X022Y030154D01*
X021D01*
Y03016D01*
X020903D01*
X020899Y030161D01*
X020895Y03016D01*
X020893D01*
X02089Y03016D01*
X020889Y03016D01*
X02002D01*
Y02974D01*
X020895D01*
X020899Y029739D01*
X020901Y02974D01*
X020903Y029739D01*
X020918Y02974D01*
X021D01*
Y029744D01*
X021057Y029746D01*
X022D01*
X022012Y029738D01*
X0221Y029721D01*
X022188Y029738D01*
X0222Y029746D01*
X0237D01*
Y02974D01*
X023797D01*
X023801Y029739D01*
X023805Y02974D01*
X023807D01*
X02381Y02974D01*
X023811Y02974D01*
X02468D01*
Y03016D01*
X023805D01*
X023801Y030161D01*
X023799Y03016D01*
X023797Y030161D01*
X023782Y03016D01*
X0237D01*
Y030156D01*
X023643Y030154D01*
X0222D01*
X022188Y030162D01*
X0221Y030179D01*
D02*
G37*
G36*
X038541Y028283D02*
X038438Y02827D01*
X038342Y02823D01*
X038259Y028167D01*
X038196Y028084D01*
X038156Y027988D01*
X038143Y027885D01*
X038156Y027781D01*
X038196Y027685D01*
X038259Y027603D01*
X038342Y027539D01*
X038438Y0275D01*
X038541Y027486D01*
X038645Y0275D01*
X038741Y027539D01*
X038823Y027603D01*
X038887Y027685D01*
X038926Y027781D01*
X03894Y027885D01*
X038926Y027988D01*
X038887Y028084D01*
X038823Y028167D01*
X038741Y02823D01*
X038645Y02827D01*
X038541Y028283D01*
D02*
G37*
G36*
X037541D02*
X037438Y02827D01*
X037342Y02823D01*
X037259Y028167D01*
X037196Y028084D01*
X037156Y027988D01*
X037143Y027885D01*
X037156Y027781D01*
X037196Y027685D01*
X037259Y027603D01*
X037342Y027539D01*
X037438Y0275D01*
X037541Y027486D01*
X037645Y0275D01*
X037741Y027539D01*
X037823Y027603D01*
X037887Y027685D01*
X037926Y027781D01*
X03794Y027885D01*
X037926Y027988D01*
X037887Y028084D01*
X037823Y028167D01*
X037741Y02823D01*
X037645Y02827D01*
X037541Y028283D01*
D02*
G37*
G36*
X01958Y02831D02*
X01888D01*
Y02756D01*
X019077D01*
Y027471D01*
X018917D01*
Y026798D01*
X01955D01*
Y027471D01*
X019383D01*
Y02756D01*
X01958D01*
Y02831D01*
D02*
G37*
G36*
X038541Y027283D02*
X038438Y02727D01*
X038342Y02723D01*
X038259Y027167D01*
X038196Y027084D01*
X038156Y026988D01*
X038143Y026885D01*
X038156Y026781D01*
X038196Y026685D01*
X038259Y026603D01*
X038342Y026539D01*
X038438Y0265D01*
X038541Y026486D01*
X038645Y0265D01*
X038741Y026539D01*
X038823Y026603D01*
X038887Y026685D01*
X038926Y026781D01*
X03894Y026885D01*
X038926Y026988D01*
X038887Y027084D01*
X038823Y027167D01*
X038741Y02723D01*
X038645Y02727D01*
X038541Y027283D01*
D02*
G37*
G36*
X037541D02*
X037438Y02727D01*
X037342Y02723D01*
X037259Y027167D01*
X037196Y027084D01*
X037156Y026988D01*
X037143Y026885D01*
X037156Y026781D01*
X037196Y026685D01*
X037259Y026603D01*
X037342Y026539D01*
X037438Y0265D01*
X037541Y026486D01*
X037645Y0265D01*
X037741Y026539D01*
X037823Y026603D01*
X037887Y026685D01*
X037926Y026781D01*
X03794Y026885D01*
X037926Y026988D01*
X037887Y027084D01*
X037823Y027167D01*
X037741Y02723D01*
X037645Y02727D01*
X037541Y027283D01*
D02*
G37*
G36*
X038541Y026283D02*
X038438Y02627D01*
X038342Y02623D01*
X038259Y026167D01*
X038196Y026084D01*
X038156Y025988D01*
X038143Y025885D01*
X038156Y025781D01*
X038196Y025685D01*
X038259Y025603D01*
X038342Y025539D01*
X038438Y0255D01*
X038541Y025486D01*
X038645Y0255D01*
X038741Y025539D01*
X038823Y025603D01*
X038887Y025685D01*
X038926Y025781D01*
X03894Y025885D01*
X038926Y025988D01*
X038887Y026084D01*
X038823Y026167D01*
X038741Y02623D01*
X038645Y02627D01*
X038541Y026283D01*
D02*
G37*
G36*
Y025283D02*
X038438Y02527D01*
X038342Y02523D01*
X038259Y025167D01*
X038196Y025084D01*
X038156Y024988D01*
X038143Y024885D01*
X038156Y024781D01*
X038196Y024685D01*
X038259Y024603D01*
X038342Y024539D01*
X038438Y0245D01*
X038541Y024486D01*
X038645Y0245D01*
X038741Y024539D01*
X038823Y024603D01*
X038887Y024685D01*
X038926Y024781D01*
X03894Y024885D01*
X038926Y024988D01*
X038887Y025084D01*
X038823Y025167D01*
X038741Y02523D01*
X038645Y02527D01*
X038541Y025283D01*
D02*
G37*
G36*
X037541D02*
X037438Y02527D01*
X037342Y02523D01*
X037259Y025167D01*
X037196Y025084D01*
X037156Y024988D01*
X037143Y024885D01*
X037156Y024781D01*
X037196Y024685D01*
X037259Y024603D01*
X037342Y024539D01*
X037438Y0245D01*
X037541Y024486D01*
X037645Y0245D01*
X037741Y024539D01*
X037823Y024603D01*
X037887Y024685D01*
X037926Y024781D01*
X03794Y024885D01*
X037926Y024988D01*
X037887Y025084D01*
X037823Y025167D01*
X037741Y02523D01*
X037645Y02527D01*
X037541Y025283D01*
D02*
G37*
G36*
X02431Y024449D02*
X024186Y024433D01*
X02407Y024385D01*
X023971Y024309D01*
X023895Y02421D01*
X023847Y024094D01*
X023831Y02397D01*
X023847Y023846D01*
X023895Y02373D01*
X023971Y023631D01*
X02407Y023555D01*
X024186Y023507D01*
X02431Y023491D01*
X024434Y023507D01*
X02455Y023555D01*
X024649Y023631D01*
X024725Y02373D01*
X024773Y023846D01*
X024789Y02397D01*
X024773Y024094D01*
X024725Y02421D01*
X024649Y024309D01*
X02455Y024385D01*
X024434Y024433D01*
X02431Y024449D01*
D02*
G37*
G36*
X037541Y024283D02*
X037438Y02427D01*
X037342Y02423D01*
X037259Y024167D01*
X037196Y024084D01*
X037156Y023988D01*
X037143Y023885D01*
X037156Y023781D01*
X037196Y023685D01*
X037259Y023603D01*
X037342Y023539D01*
X037438Y0235D01*
X037541Y023486D01*
X037645Y0235D01*
X037741Y023539D01*
X037823Y023603D01*
X037887Y023685D01*
X037926Y023781D01*
X03794Y023885D01*
X037926Y023988D01*
X037887Y024084D01*
X037823Y024167D01*
X037741Y02423D01*
X037645Y02427D01*
X037541Y024283D01*
D02*
G37*
G36*
X038541Y023283D02*
X038438Y02327D01*
X038342Y02323D01*
X038259Y023167D01*
X038196Y023084D01*
X038156Y022988D01*
X038143Y022885D01*
X038156Y022781D01*
X038196Y022685D01*
X038259Y022603D01*
X038342Y022539D01*
X038438Y0225D01*
X038541Y022486D01*
X038645Y0225D01*
X038741Y022539D01*
X038823Y022603D01*
X038887Y022685D01*
X038926Y022781D01*
X03894Y022885D01*
X038926Y022988D01*
X038887Y023084D01*
X038823Y023167D01*
X038741Y02323D01*
X038645Y02327D01*
X038541Y023283D01*
D02*
G37*
G36*
X037541D02*
X037438Y02327D01*
X037342Y02323D01*
X037259Y023167D01*
X037196Y023084D01*
X037156Y022988D01*
X037143Y022885D01*
X037156Y022781D01*
X037196Y022685D01*
X037259Y022603D01*
X037342Y022539D01*
X037438Y0225D01*
X037541Y022486D01*
X037645Y0225D01*
X037741Y022539D01*
X037823Y022603D01*
X037887Y022685D01*
X037926Y022781D01*
X03794Y022885D01*
X037926Y022988D01*
X037887Y023084D01*
X037823Y023167D01*
X037741Y02323D01*
X037645Y02327D01*
X037541Y023283D01*
D02*
G37*
G36*
Y022283D02*
X037438Y02227D01*
X037342Y02223D01*
X037259Y022167D01*
X037196Y022084D01*
X037156Y021988D01*
X037143Y021885D01*
X037156Y021781D01*
X037196Y021685D01*
X037259Y021603D01*
X037342Y021539D01*
X037438Y0215D01*
X037541Y021486D01*
X037645Y0215D01*
X037741Y021539D01*
X037823Y021603D01*
X037887Y021685D01*
X037926Y021781D01*
X03794Y021885D01*
X037926Y021988D01*
X037887Y022084D01*
X037823Y022167D01*
X037741Y02223D01*
X037645Y02227D01*
X037541Y022283D01*
D02*
G37*
G36*
X038541Y021283D02*
X038438Y02127D01*
X038342Y02123D01*
X038259Y021167D01*
X038196Y021084D01*
X038156Y020988D01*
X038143Y020885D01*
X038156Y020781D01*
X038196Y020685D01*
X038259Y020603D01*
X038342Y020539D01*
X038438Y0205D01*
X038541Y020486D01*
X038645Y0205D01*
X038741Y020539D01*
X038823Y020603D01*
X038887Y020685D01*
X038926Y020781D01*
X03894Y020885D01*
X038926Y020988D01*
X038887Y021084D01*
X038823Y021167D01*
X038741Y02123D01*
X038645Y02127D01*
X038541Y021283D01*
D02*
G37*
G36*
X037541D02*
X037438Y02127D01*
X037342Y02123D01*
X037259Y021167D01*
X037196Y021084D01*
X037156Y020988D01*
X037143Y020885D01*
X037156Y020781D01*
X037196Y020685D01*
X037259Y020603D01*
X037342Y020539D01*
X037438Y0205D01*
X037541Y020486D01*
X037645Y0205D01*
X037741Y020539D01*
X037823Y020603D01*
X037887Y020685D01*
X037926Y020781D01*
X03794Y020885D01*
X037926Y020988D01*
X037887Y021084D01*
X037823Y021167D01*
X037741Y02123D01*
X037645Y02127D01*
X037541Y021283D01*
D02*
G37*
G36*
X038541Y020283D02*
X038438Y02027D01*
X038342Y02023D01*
X038259Y020167D01*
X038196Y020084D01*
X038156Y019988D01*
X038143Y019885D01*
X038156Y019781D01*
X038196Y019685D01*
X038259Y019603D01*
X038342Y019539D01*
X038438Y0195D01*
X038541Y019486D01*
X038645Y0195D01*
X038741Y019539D01*
X038823Y019603D01*
X038887Y019685D01*
X038926Y019781D01*
X03894Y019885D01*
X038926Y019988D01*
X038887Y020084D01*
X038823Y020167D01*
X038741Y02023D01*
X038645Y02027D01*
X038541Y020283D01*
D02*
G37*
G36*
X037541D02*
X037438Y02027D01*
X037342Y02023D01*
X037259Y020167D01*
X037196Y020084D01*
X037156Y019988D01*
X037143Y019885D01*
X037156Y019781D01*
X037196Y019685D01*
X037259Y019603D01*
X037342Y019539D01*
X037438Y0195D01*
X037541Y019486D01*
X037645Y0195D01*
X037741Y019539D01*
X037823Y019603D01*
X037887Y019685D01*
X037926Y019781D01*
X03794Y019885D01*
X037926Y019988D01*
X037887Y020084D01*
X037823Y020167D01*
X037741Y02023D01*
X037645Y02027D01*
X037541Y020283D01*
D02*
G37*
G36*
X02426Y020334D02*
X024136Y020317D01*
X02402Y02027D01*
X023921Y020193D01*
X023845Y020094D01*
X023797Y019979D01*
X023781Y019855D01*
X023797Y019731D01*
X023845Y019615D01*
X023921Y019516D01*
X02402Y01944D01*
X024136Y019392D01*
X02426Y019376D01*
X024384Y019392D01*
X0245Y01944D01*
X024599Y019516D01*
X024675Y019615D01*
X024723Y019731D01*
X024739Y019855D01*
X024723Y019979D01*
X024675Y020094D01*
X024599Y020193D01*
X0245Y02027D01*
X024384Y020317D01*
X02426Y020334D01*
D02*
G37*
G36*
X038541Y019283D02*
X038438Y01927D01*
X038342Y01923D01*
X038259Y019167D01*
X038196Y019084D01*
X038156Y018988D01*
X038143Y018885D01*
X038156Y018781D01*
X038196Y018685D01*
X038259Y018603D01*
X038342Y018539D01*
X038438Y0185D01*
X038541Y018486D01*
X038645Y0185D01*
X038741Y018539D01*
X038823Y018603D01*
X038887Y018685D01*
X038926Y018781D01*
X03894Y018885D01*
X038926Y018988D01*
X038887Y019084D01*
X038823Y019167D01*
X038741Y01923D01*
X038645Y01927D01*
X038541Y019283D01*
D02*
G37*
G36*
X0253Y021634D02*
X02523Y02162D01*
X02517Y02158D01*
X02513Y02152D01*
X025116Y02145D01*
X02513Y02138D01*
X02517Y02132D01*
X02523Y02128D01*
X025259Y021275D01*
X027052Y019482D01*
X027026Y019454D01*
X026989Y019445D01*
X026971Y019445D01*
X02658D01*
Y018435D01*
X02702D01*
Y019395D01*
X02702Y019407D01*
X02707Y019436D01*
X02708Y01943D01*
Y018435D01*
X02752D01*
Y019445D01*
X027453D01*
Y01945D01*
X027441Y019509D01*
X027408Y019558D01*
X025475Y021491D01*
X02547Y02152D01*
X02543Y02158D01*
X02537Y02162D01*
X0253Y021634D01*
D02*
G37*
G36*
X0315Y019953D02*
X02925D01*
X029191Y019941D01*
X029142Y019908D01*
X028692Y019458D01*
X028683Y019445D01*
X02858D01*
Y018435D01*
X02902D01*
Y019319D01*
X02903Y019326D01*
X02908Y019299D01*
Y018435D01*
X02952D01*
Y019445D01*
X029177D01*
X029157Y019491D01*
X029313Y019647D01*
X031437D01*
X03334Y017744D01*
X033311Y017702D01*
X033224Y017738D01*
X0331Y017754D01*
X032976Y017738D01*
X03286Y01769D01*
X032841Y017675D01*
X031468Y019048D01*
X031419Y019081D01*
X03136Y019093D01*
X03002D01*
Y019445D01*
X02958D01*
Y018435D01*
X03002D01*
Y018787D01*
X031297D01*
X032646Y017438D01*
X03265Y017433D01*
X032651Y017432D01*
X032637Y017399D01*
X032621Y017275D01*
Y017125D01*
X032637Y017001D01*
X032685Y016885D01*
X032761Y016786D01*
X03286Y01671D01*
X032976Y016662D01*
X0331Y016646D01*
X033224Y016662D01*
X03334Y01671D01*
X033439Y016786D01*
X033515Y016885D01*
X033563Y017001D01*
X033575Y017092D01*
X033625D01*
X033637Y017001D01*
X033685Y016885D01*
X033761Y016786D01*
X03386Y01671D01*
X033976Y016662D01*
X0341Y016646D01*
X034224Y016662D01*
X03434Y01671D01*
X034439Y016786D01*
X034515Y016885D01*
X034563Y017001D01*
X034575Y017092D01*
X034625D01*
X034637Y017001D01*
X034685Y016885D01*
X034761Y016786D01*
X03486Y01671D01*
X034976Y016662D01*
X0351Y016646D01*
X035224Y016662D01*
X03534Y01671D01*
X035439Y016786D01*
X035515Y016885D01*
X035563Y017001D01*
X035579Y017125D01*
Y017275D01*
X035563Y017399D01*
X035515Y017515D01*
X035439Y017614D01*
X03534Y01769D01*
X035224Y017738D01*
X0351Y017754D01*
X034976Y017738D01*
X03486Y01769D01*
X034761Y017614D01*
X034685Y017515D01*
X034637Y017399D01*
X034625Y017308D01*
X034575D01*
X034563Y017399D01*
X034515Y017515D01*
X034439Y017614D01*
X03434Y01769D01*
X034224Y017738D01*
X0341Y017754D01*
X033976Y017738D01*
X03386Y01769D01*
X033841Y017675D01*
X031608Y019908D01*
X031559Y019941D01*
X0315Y019953D01*
D02*
G37*
G36*
X02802Y019445D02*
X02758D01*
Y018435D01*
X027647D01*
Y01834D01*
X02756Y018253D01*
X0237D01*
X023641Y018241D01*
X023592Y018208D01*
X023059Y017675D01*
X02304Y01769D01*
X022924Y017738D01*
X0228Y017754D01*
X022676Y017738D01*
X02256Y01769D01*
X022461Y017614D01*
X022385Y017515D01*
X022337Y017399D01*
X022321Y017275D01*
Y017125D01*
X022337Y017001D01*
X022385Y016885D01*
X022461Y016786D01*
X02256Y01671D01*
X022676Y016662D01*
X0228Y016646D01*
X022924Y016662D01*
X02304Y01671D01*
X023139Y016786D01*
X023215Y016885D01*
X023263Y017001D01*
X023275Y017092D01*
X023325D01*
X023337Y017001D01*
X023385Y016885D01*
X023461Y016786D01*
X02356Y01671D01*
X023676Y016662D01*
X0238Y016646D01*
X023924Y016662D01*
X02404Y01671D01*
X024139Y016786D01*
X024215Y016885D01*
X024263Y017001D01*
X024275Y017092D01*
X024325D01*
X024337Y017001D01*
X024385Y016885D01*
X024461Y016786D01*
X02456Y01671D01*
X024676Y016662D01*
X0248Y016646D01*
X024924Y016662D01*
X02504Y01671D01*
X025139Y016786D01*
X025215Y016885D01*
X025263Y017001D01*
X025279Y017125D01*
Y017275D01*
X025263Y017399D01*
X025215Y017515D01*
X025139Y017614D01*
X02504Y01769D01*
X025022Y017697D01*
X025032Y017747D01*
X026887D01*
X027035Y017599D01*
X027008Y017555D01*
X026975Y017555D01*
X02658D01*
Y016545D01*
X02702D01*
Y017497D01*
X027038Y017514D01*
X02707Y017527D01*
X02708Y017521D01*
Y016545D01*
X02752D01*
Y017555D01*
X027452D01*
X027441Y017609D01*
X027408Y017658D01*
X027165Y017901D01*
X027185Y017947D01*
X027624D01*
X027682Y017959D01*
X027732Y017992D01*
X027908Y018168D01*
X027941Y018218D01*
X027953Y018276D01*
Y018435D01*
X02802D01*
Y019445D01*
D02*
G37*
G36*
X02952Y017555D02*
X02908D01*
Y016593D01*
X02902D01*
Y017555D01*
X02858D01*
Y016545D01*
X028747D01*
X028774Y016495D01*
X028765Y01645D01*
X028776Y016395D01*
X028807Y016349D01*
X028853Y016318D01*
X028908Y016307D01*
X0292D01*
X0292Y016307D01*
X029255Y016318D01*
X029301Y016349D01*
X029401Y016449D01*
X029401Y016449D01*
X029432Y016495D01*
X029442Y016545D01*
X02952D01*
Y017555D01*
D02*
G37*
G36*
X02852D02*
X02808D01*
Y016545D01*
X02852D01*
Y017555D01*
D02*
G37*
G36*
X02802D02*
X02758D01*
Y016545D01*
X02802D01*
Y017555D01*
D02*
G37*
G36*
X038041Y017844D02*
X037886Y017829D01*
X037738Y017783D01*
X0376Y01771D01*
X03748Y017611D01*
X037381Y017491D01*
X037308Y017354D01*
X037263Y017205D01*
X037248Y01705D01*
X037263Y016895D01*
X037308Y016746D01*
X037381Y016609D01*
X03748Y016489D01*
X0376Y01639D01*
X037738Y016317D01*
X037886Y016271D01*
X038041Y016256D01*
X038196Y016271D01*
X038345Y016317D01*
X038482Y01639D01*
X038603Y016489D01*
X038701Y016609D01*
X038775Y016746D01*
X03882Y016895D01*
X038835Y01705D01*
X03882Y017205D01*
X038775Y017354D01*
X038701Y017491D01*
X038603Y017611D01*
X038482Y01771D01*
X038345Y017783D01*
X038196Y017829D01*
X038041Y017844D01*
D02*
G37*
%LPD*%
G36*
X029743Y037744D02*
X029739Y037747D01*
X029735Y03775D01*
X029731Y037752D01*
X029726Y037754D01*
X02972Y037756D01*
X029714Y037757D01*
X029707Y037759D01*
X029699Y037759D01*
X029683Y03776D01*
Y03784D01*
X029691Y03784D01*
X029707Y037841D01*
X029714Y037843D01*
X02972Y037844D01*
X029726Y037846D01*
X029731Y037848D01*
X029735Y03785D01*
X029739Y037853D01*
X029743Y037856D01*
Y037744D01*
D02*
G37*
G36*
Y037394D02*
X029741Y037395D01*
X029739Y037396D01*
X029736Y037397D01*
X029732Y037398D01*
X029727Y037399D01*
X029714Y037399D01*
X02969Y0374D01*
Y0375D01*
X029699Y0375D01*
X029732Y037502D01*
X029736Y037503D01*
X029739Y037504D01*
X029741Y037505D01*
X029743Y037506D01*
Y037394D01*
D02*
G37*
G36*
X035131Y037524D02*
X035114Y037518D01*
X035099Y037508D01*
X035086Y037494D01*
X035075Y037476D01*
X035066Y037454D01*
X035059Y037428D01*
X035058Y037425D01*
X035059Y037421D01*
X035066Y037395D01*
X035075Y037373D01*
X035086Y037355D01*
X035099Y037341D01*
X035114Y037331D01*
X035131Y037325D01*
X03515Y037323D01*
X03475D01*
X034769Y037325D01*
X034786Y037331D01*
X034801Y037341D01*
X034814Y037355D01*
X034825Y037373D01*
X034834Y037395D01*
X034841Y037421D01*
X034842Y037425D01*
X034841Y037428D01*
X034834Y037454D01*
X034825Y037476D01*
X034814Y037494D01*
X034801Y037508D01*
X034786Y037518D01*
X034769Y037524D01*
X03475Y037526D01*
X03515D01*
X035131Y037524D01*
D02*
G37*
G36*
Y036774D02*
X035114Y036768D01*
X035099Y036758D01*
X035086Y036744D01*
X035075Y036726D01*
X035066Y036704D01*
X035059Y036678D01*
X035054Y036648D01*
X035051Y036614D01*
X03505Y036576D01*
X035025D01*
X035018Y036567D01*
X03501Y036561D01*
X035001Y036559D01*
X03475D01*
X034769Y036561D01*
X034786Y036567D01*
X034801Y036577D01*
X034814Y036591D01*
X034825Y036609D01*
X034834Y036631D01*
X034841Y036657D01*
X034843Y036668D01*
X034841Y036678D01*
X034834Y036704D01*
X034825Y036726D01*
X034814Y036744D01*
X034801Y036758D01*
X034786Y036768D01*
X034769Y036774D01*
X03475Y036776D01*
X03515D01*
X035131Y036774D01*
D02*
G37*
G36*
X036216Y036201D02*
X036214Y03622D01*
X036208Y036237D01*
X036198Y036252D01*
X036184Y036265D01*
X036166Y036276D01*
X036144Y036285D01*
X036118Y036292D01*
X036087Y036297D01*
X036069Y036299D01*
X036051Y036297D01*
X036021Y036292D01*
X035995Y036285D01*
X035973Y036276D01*
X035955Y036265D01*
X035941Y036252D01*
X035931Y036237D01*
X035925Y03622D01*
X035923Y036201D01*
Y036601D01*
X035925Y036582D01*
X035931Y036565D01*
X035941Y03655D01*
X035955Y036537D01*
X035973Y036526D01*
X035995Y036517D01*
X036021Y03651D01*
X036051Y036505D01*
X036069Y036504D01*
X036087Y036505D01*
X036118Y03651D01*
X036144Y036517D01*
X036166Y036526D01*
X036184Y036537D01*
X036198Y03655D01*
X036208Y036565D01*
X036214Y036582D01*
X036216Y036601D01*
Y036201D01*
D02*
G37*
G36*
X034995Y036099D02*
X03499Y036094D01*
X034985Y036085D01*
X034981Y036072D01*
X034978Y036056D01*
X034975Y036036D01*
X034971Y035985D01*
X03497Y03592D01*
X03477D01*
X03477Y035954D01*
X034762Y036056D01*
X034759Y036072D01*
X034755Y036085D01*
X03475Y036094D01*
X034745Y036099D01*
X034739Y036101D01*
X035001D01*
X034995Y036099D01*
D02*
G37*
G36*
X033366Y035961D02*
X033362Y035953D01*
X033362Y035943D01*
X033364Y035931D01*
X03337Y035918D01*
X033379Y035903D01*
X033391Y035886D01*
X033406Y035868D01*
X033445Y035826D01*
X033349Y03578D01*
X033329Y035799D01*
X033294Y035829D01*
X033278Y03584D01*
X033263Y035849D01*
X03325Y035855D01*
X033237Y035858D01*
X033226Y035859D01*
X033216Y035857D01*
X033207Y035852D01*
X033373Y035968D01*
X033366Y035961D01*
D02*
G37*
G36*
X035376Y035252D02*
X035374Y035256D01*
X035368Y035259D01*
X035358Y035261D01*
X035344Y035263D01*
X035326Y035265D01*
X035248Y035269D01*
X035194Y03527D01*
X035163Y035269D01*
X035128Y035266D01*
X035098Y035261D01*
X035072Y035254D01*
X03505Y035245D01*
X035032Y035234D01*
X035018Y035221D01*
X035008Y035206D01*
X035002Y035189D01*
X035Y03517D01*
Y03557D01*
X035002Y035551D01*
X035008Y035534D01*
X035018Y035519D01*
X035032Y035506D01*
X03505Y035495D01*
X035072Y035486D01*
X035098Y035479D01*
X035128Y035474D01*
X035163Y035471D01*
X035188Y03547D01*
X035214Y035471D01*
X035248Y035474D01*
X035278Y035479D01*
X035304Y035486D01*
X035326Y035495D01*
X035344Y035506D01*
X035358Y035519D01*
X035368Y035534D01*
X035374Y035551D01*
X035376Y03557D01*
Y035252D01*
D02*
G37*
G36*
X034Y03527D02*
X033999Y035279D01*
X033996Y035288D01*
X033991Y035295D01*
X033984Y035302D01*
X033975Y035307D01*
X033964Y035312D01*
X033951Y035315D01*
X033936Y035318D01*
X033918Y035319D01*
X033899Y03532D01*
Y03542D01*
X033918Y03542D01*
X033936Y035422D01*
X033951Y035424D01*
X033964Y035428D01*
X033975Y035432D01*
X033984Y035438D01*
X033991Y035444D01*
X033996Y035452D01*
X033999Y03546D01*
X034Y03547D01*
Y03527D01*
D02*
G37*
G36*
X034995Y035139D02*
X03499Y035133D01*
X034985Y035123D01*
X034981Y035109D01*
X034978Y035091D01*
X034975Y035069D01*
X034971Y035013D01*
X03497Y034941D01*
X03477D01*
X03477Y034979D01*
X034762Y035091D01*
X034759Y035109D01*
X034755Y035123D01*
X03475Y035133D01*
X034745Y035139D01*
X034739Y035141D01*
X035001D01*
X034995Y035139D01*
D02*
G37*
G36*
X034971Y034886D02*
X034974Y034851D01*
X034979Y034821D01*
X034986Y034795D01*
X034995Y034773D01*
X035006Y034755D01*
X035019Y034741D01*
X035034Y034731D01*
X035051Y034725D01*
X03507Y034723D01*
X03467D01*
X034689Y034725D01*
X034706Y034731D01*
X034721Y034741D01*
X034734Y034755D01*
X034745Y034773D01*
X034754Y034795D01*
X034761Y034821D01*
X034766Y034851D01*
X034769Y034886D01*
X03477Y034924D01*
X03497D01*
X034971Y034886D01*
D02*
G37*
G36*
Y034186D02*
X034972Y034176D01*
X03507D01*
X035051Y034174D01*
X035034Y034168D01*
X035019Y034158D01*
X035006Y034144D01*
X034995Y034126D01*
X034986Y034104D01*
X034985Y0341D01*
X034986Y034095D01*
X034995Y034073D01*
X035006Y034055D01*
X035019Y034041D01*
X035034Y034031D01*
X035051Y034025D01*
X03507Y034023D01*
X034972D01*
X034971Y034014D01*
X03497Y033976D01*
X03477D01*
X034769Y034014D01*
X034768Y034023D01*
X03467D01*
X034689Y034025D01*
X034706Y034031D01*
X034721Y034041D01*
X034734Y034055D01*
X034745Y034073D01*
X034754Y034095D01*
X034755Y0341D01*
X034754Y034104D01*
X034745Y034126D01*
X034734Y034144D01*
X034721Y034158D01*
X034706Y034168D01*
X034689Y034174D01*
X03467Y034176D01*
X034768D01*
X034769Y034186D01*
X03477Y034224D01*
X03497D01*
X034971Y034186D01*
D02*
G37*
G36*
X023801Y029841D02*
X023799Y029843D01*
X023793Y029844D01*
X023783Y029846D01*
X023751Y029848D01*
X023601Y02985D01*
Y03005D01*
X023801Y030059D01*
Y029841D01*
D02*
G37*
G36*
X020901Y030057D02*
X020907Y030056D01*
X020917Y030054D01*
X020949Y030052D01*
X021099Y03005D01*
Y02985D01*
X020899Y029841D01*
Y030059D01*
X020901Y030057D01*
D02*
G37*
G36*
X01932Y027661D02*
X019312Y027658D01*
X019304Y027653D01*
X019298Y027646D01*
X019293Y027637D01*
X019288Y027626D01*
X019284Y027612D01*
X019282Y027597D01*
X019281Y02758D01*
X01928Y027561D01*
X01918D01*
X01918Y02758D01*
X019178Y027597D01*
X019175Y027612D01*
X019172Y027626D01*
X019167Y027637D01*
X019162Y027646D01*
X019155Y027653D01*
X019148Y027658D01*
X019139Y027661D01*
X01913Y027662D01*
X01933D01*
X01932Y027661D01*
D02*
G37*
G36*
X019281Y02745D02*
X019282Y027433D01*
X019284Y027418D01*
X019288Y027405D01*
X019293Y027394D01*
X019298Y027385D01*
X019304Y027378D01*
X019312Y027373D01*
X01932Y027369D01*
X01933Y027368D01*
X01913D01*
X019139Y027369D01*
X019148Y027373D01*
X019155Y027378D01*
X019162Y027385D01*
X019167Y027394D01*
X019172Y027405D01*
X019175Y027418D01*
X019178Y027433D01*
X01918Y02745D01*
X01918Y02747D01*
X01928D01*
X019281Y02745D01*
D02*
G37*
G36*
X02538Y021447D02*
X025381Y021445D01*
X025383Y021442D01*
X025385Y021438D01*
X025388Y021435D01*
X025396Y021425D01*
X025413Y021407D01*
X025343Y021337D01*
X025336Y021343D01*
X025312Y021365D01*
X025308Y021367D01*
X025305Y021369D01*
X025303Y02137D01*
X025301Y02137D01*
X02538Y021449D01*
X02538Y021447D01*
D02*
G37*
G36*
X02735Y019425D02*
X027352Y019407D01*
X027355Y019392D01*
X027358Y019379D01*
X027362Y019368D01*
X027368Y019359D01*
X027374Y019352D01*
X027382Y019347D01*
X02739Y019344D01*
X0274Y019343D01*
X0272D01*
X027209Y019344D01*
X027218Y019347D01*
X027225Y019352D01*
X027232Y019359D01*
X027238Y019368D01*
X027242Y019379D01*
X027246Y019392D01*
X027248Y019407D01*
X02725Y019425D01*
X02725Y019444D01*
X02735D01*
X02735Y019425D01*
D02*
G37*
G36*
X029919Y01903D02*
X029922Y019022D01*
X029927Y019015D01*
X029934Y019008D01*
X029943Y019002D01*
X029954Y018998D01*
X029967Y018994D01*
X029982Y018992D01*
X03Y01899D01*
X030019Y01899D01*
Y01889D01*
X03Y018889D01*
X029982Y018888D01*
X029967Y018886D01*
X029954Y018882D01*
X029943Y018878D01*
X029934Y018872D01*
X029927Y018865D01*
X029922Y018858D01*
X029919Y01885D01*
X029918Y01884D01*
Y01904D01*
X029919Y01903D01*
D02*
G37*
G36*
X033777Y017594D02*
X033792Y017582D01*
X033805Y017572D01*
X033818Y017564D01*
X033829Y017559D01*
X03384Y017557D01*
X033849Y017556D01*
X033858Y017558D01*
X033865Y017563D01*
X033872Y01757D01*
X033751Y017408D01*
X033756Y017417D01*
X033759Y017426D01*
X033759Y017436D01*
X033758Y017446D01*
X033754Y017458D01*
X033748Y01747D01*
X03374Y017483D01*
X033729Y017497D01*
X033717Y017512D01*
X033702Y017527D01*
X033762Y017609D01*
X033777Y017594D01*
D02*
G37*
G36*
X032777D02*
X032792Y017582D01*
X032805Y017572D01*
X032818Y017564D01*
X032829Y017559D01*
X03284Y017557D01*
X032849Y017556D01*
X032858Y017558D01*
X032865Y017563D01*
X032872Y01757D01*
X032751Y017408D01*
X032756Y017417D01*
X032759Y017426D01*
X032759Y017436D01*
X032758Y017446D01*
X032754Y017458D01*
X032748Y01747D01*
X03274Y017483D01*
X032729Y017497D01*
X032717Y017512D01*
X032702Y017527D01*
X032762Y017609D01*
X032777Y017594D01*
D02*
G37*
G36*
X027891Y018536D02*
X027882Y018533D01*
X027875Y018528D01*
X027868Y018521D01*
X027863Y018512D01*
X027858Y018501D01*
X027854Y018488D01*
X027852Y018473D01*
X02785Y018455D01*
X02785Y018436D01*
X02775D01*
X02775Y018455D01*
X027748Y018473D01*
X027745Y018488D01*
X027742Y018501D01*
X027738Y018512D01*
X027732Y018521D01*
X027726Y018528D01*
X027718Y018533D01*
X02771Y018536D01*
X0277Y018537D01*
X0279D01*
X027891Y018536D01*
D02*
G37*
G36*
X024198Y017527D02*
X024183Y017512D01*
X024171Y017497D01*
X02416Y017483D01*
X024152Y01747D01*
X024146Y017458D01*
X024142Y017446D01*
X024141Y017436D01*
X024141Y017426D01*
X024144Y017417D01*
X024149Y017408D01*
X024028Y01757D01*
X024035Y017563D01*
X024042Y017558D01*
X024051Y017556D01*
X02406Y017557D01*
X024071Y017559D01*
X024082Y017564D01*
X024095Y017572D01*
X024108Y017582D01*
X024123Y017594D01*
X024138Y017609D01*
X024198Y017527D01*
D02*
G37*
G36*
X023198D02*
X023183Y017512D01*
X023171Y017497D01*
X02316Y017483D01*
X023152Y01747D01*
X023146Y017458D01*
X023142Y017446D01*
X023141Y017436D01*
X023141Y017426D01*
X023144Y017417D01*
X023149Y017408D01*
X023028Y01757D01*
X023035Y017563D01*
X023042Y017558D01*
X023051Y017556D01*
X02306Y017557D01*
X023071Y017559D01*
X023082Y017564D01*
X023095Y017572D01*
X023108Y017582D01*
X023123Y017594D01*
X023138Y017609D01*
X023198Y017527D01*
D02*
G37*
G36*
X02735Y017531D02*
X027352Y017515D01*
X027354Y0175D01*
X027357Y017488D01*
X027362Y017477D01*
X027367Y017468D01*
X027373Y017461D01*
X02738Y017457D01*
X027387Y017454D01*
X027396Y017453D01*
X027204D01*
X027213Y017454D01*
X02722Y017457D01*
X027227Y017461D01*
X027233Y017468D01*
X027238Y017477D01*
X027243Y017488D01*
X027246Y0175D01*
X027248Y017515D01*
X02725Y017531D01*
X02725Y01755D01*
X02735D01*
X02735Y017531D01*
D02*
G37*
D17*
X01855Y03745D02*
X0298D01*
X03245Y030474D02*
X034974D01*
X031494D02*
X03245D01*
Y0342D01*
X03205Y030899D02*
Y03425D01*
X031839Y030688D02*
X03205Y030899D01*
X03355Y03261D02*
Y03355D01*
X03235Y03475D02*
X03355Y03355D01*
X029842Y03475D02*
X03235D01*
X030972Y033426D02*
X031494D01*
X03065Y033105D02*
X030972Y033426D01*
X03065Y03275D02*
Y033105D01*
X029742Y03465D02*
X029842Y03475D01*
X01845Y03735D02*
X01855Y03745D01*
X031512Y030688D02*
X031839D01*
X031494Y03067D02*
X031512Y030688D01*
X026039Y032639D02*
X027006D01*
X0258Y0324D02*
X026039Y032639D01*
X0253Y02145D02*
X0273Y01945D01*
Y01894D02*
Y01945D01*
X02419Y03445D02*
X02425D01*
X02365D02*
X02419D01*
X02355Y03435D02*
X02365Y03445D01*
X02355Y03105D02*
Y03435D01*
X02295Y03045D02*
X02355Y03105D01*
X02051Y03045D02*
X02295D01*
X0233Y03295D02*
Y03505D01*
X0213Y03095D02*
X0233Y03295D01*
X02051Y03095D02*
X0213D01*
X02305Y03335D02*
Y0343D01*
X02115Y03145D02*
X02305Y03335D01*
X02051Y03145D02*
X02115D01*
X01923Y029203D02*
X019233Y0292D01*
X01923Y029203D02*
Y03005D01*
X017903Y025003D02*
Y026631D01*
Y02305D02*
Y025003D01*
X017907Y025D01*
X017903Y026631D02*
X018386Y027114D01*
X017907Y025D02*
X018407D01*
X01893Y02445D02*
X0196D01*
X01833Y02385D02*
X01893Y02445D01*
X02085Y02174D02*
Y026D01*
Y02174D02*
X02103Y02156D01*
X02085Y026D02*
X02245Y0276D01*
X02426Y022565D02*
X028955Y027259D01*
X030333Y020833D02*
Y029706D01*
X03053Y02033D02*
Y029706D01*
X0298Y0203D02*
X030333Y020833D01*
X02745Y0363D02*
X02765Y0365D01*
X0284D01*
X030333Y034194D02*
X03053D01*
X030333Y033597D02*
Y034194D01*
X030135Y0334D02*
X030333Y033597D01*
X02965Y0334D02*
X030135D01*
X029545Y033505D02*
X02965Y0334D01*
X029545Y033505D02*
Y034194D01*
X03065Y03275D02*
X030958Y032442D01*
X031494D01*
X029939Y030289D02*
X03025Y0306D01*
X029939Y029706D02*
Y030289D01*
X028639Y030289D02*
X02865Y0303D01*
X028329Y030289D02*
X028639D01*
X028185Y030145D02*
X028329Y030289D01*
X028185Y029724D02*
Y030145D01*
X028167Y029706D02*
X028185Y029724D01*
X02797Y029706D02*
Y03017D01*
X0284Y0306D01*
X02945D01*
X028364Y030964D02*
Y034194D01*
X0273Y0299D02*
X028364Y030964D01*
X028167Y031067D02*
Y034194D01*
X02725Y03015D02*
X028167Y031067D01*
X03095Y0303D02*
X0319Y02935D01*
X03095Y0303D02*
Y03057D01*
X03105Y03067D01*
X031494D01*
X029742Y029706D02*
Y030308D01*
X02945Y0306D02*
X029742Y030308D01*
X027555Y032245D02*
X02785Y03195D01*
X027006Y032245D02*
X027555D01*
X027442Y032442D02*
X02785Y03285D01*
X027006Y032442D02*
X027442D01*
X034974Y030474D02*
X0363Y0318D01*
X03805Y02385D02*
Y02595D01*
Y021393D02*
Y02385D01*
X038085Y023885D01*
X038541D01*
X03805Y02595D02*
Y028393D01*
X037985Y025885D02*
X03805Y02595D01*
X037541Y025885D02*
X037985D01*
X038541Y031885D02*
X039Y031426D01*
Y029343D02*
Y031426D01*
X038541Y028885D02*
X039Y029343D01*
X03805Y028393D02*
X038541Y028885D01*
X038007Y029457D02*
Y03335D01*
X03805Y021393D02*
X038541Y021885D01*
X03805Y019393D02*
Y021393D01*
X037541Y018885D02*
X03805Y019393D01*
X02745Y0354D02*
X0279Y03495D01*
X0289D01*
X029152Y034698D01*
X029348Y034194D02*
Y034798D01*
X0295Y03495D01*
X0301D01*
X0304Y03525D01*
Y0359D01*
X0299Y0364D02*
X0304Y0359D01*
X029456Y035956D02*
X0299Y0364D01*
X029085Y035956D02*
X029456D01*
X02745Y0354D02*
X027494Y035444D01*
X028415D01*
Y035435D02*
Y035444D01*
X029152Y034194D02*
Y034698D01*
X0267Y02295D02*
X027085Y022565D01*
X0363Y0318D02*
Y034D01*
X03065Y03185D02*
X031045Y032245D01*
X031494D01*
X028955Y033615D02*
Y034194D01*
X02875Y03341D02*
X028955Y033615D01*
X0273Y02855D02*
X027774Y029024D01*
X0218Y02855D02*
X0273D01*
X01975Y0265D02*
X0218Y02855D01*
X027774Y029024D02*
Y029706D01*
X01843Y03005D02*
X01975Y03137D01*
X029742Y034194D02*
Y03465D01*
X0267Y0299D02*
X0273D01*
X027085Y022565D02*
X028385D01*
X0297Y02125D01*
X0277Y02225D02*
X0287Y02125D01*
X027Y02225D02*
X0277D01*
X0263Y02295D02*
X027Y02225D01*
X0263Y03015D02*
X02725D01*
X02285Y03365D02*
Y03505D01*
X02115Y03195D02*
X02285Y03365D01*
X02051Y03195D02*
X02115D01*
X024049Y035501D02*
X025441Y034109D01*
X020751Y035501D02*
X024049D01*
X025441Y033059D02*
Y034109D01*
X0225Y0337D02*
Y03505D01*
X02125Y03245D02*
X0225Y0337D01*
X02051Y03245D02*
X02125D01*
X0319Y02935D02*
X0379D01*
X038007Y029457D01*
Y03335D02*
X038541Y033885D01*
X0363Y034D02*
X0367Y0344D01*
X038026D01*
X038511Y034885D01*
X038541D01*
X035337Y0394D02*
X036237Y0403D01*
X03405Y03995D02*
X0344Y0403D01*
X035337D01*
X029545Y029706D02*
X02955Y029701D01*
Y0291D02*
Y029701D01*
X0245Y0179D02*
X02695D01*
X0237Y0181D02*
X027624D01*
X0238Y0172D02*
X0245Y0179D01*
X0228Y0172D02*
X0237Y0181D01*
X02678Y01703D02*
X0268Y01705D01*
X0273D02*
Y01755D01*
X02695Y0179D02*
X0273Y01755D01*
X02925Y0198D02*
X0315D01*
X0283Y01955D02*
X02905Y0203D01*
X0298D01*
X0283Y01894D02*
Y01955D01*
X0315Y0198D02*
X0341Y0172D01*
X0288Y01935D02*
X02925Y0198D01*
X0288Y01894D02*
Y01935D01*
X03136Y01894D02*
X0331Y0172D01*
X0298Y01894D02*
X03136D01*
X0278Y018276D02*
Y01894D01*
X027624Y0181D02*
X0278Y018276D01*
X028955Y027259D02*
Y029706D01*
X02431Y02668D02*
X02678D01*
X028758Y028658D01*
Y029706D01*
X01832Y02156D02*
X02103D01*
X02245Y0276D02*
X0272D01*
X028561Y028961D01*
Y029706D01*
X017903Y02305D02*
X017953Y023D01*
X018407D01*
X01923Y027138D02*
X019233Y027135D01*
X01923Y027138D02*
Y027935D01*
Y025003D02*
X019233Y025D01*
X01923Y025003D02*
Y0259D01*
Y023003D02*
X019233Y023D01*
X01923Y023003D02*
Y02385D01*
X0196Y02445D02*
X0199Y02475D01*
Y0254D01*
X0227Y0282D01*
X0274D01*
X028364Y029164D01*
Y029706D01*
X01833Y0259D02*
X01893Y0265D01*
X01975D01*
X017903Y028361D02*
X01833Y027935D01*
X017903Y028361D02*
Y030603D01*
X01915Y03185D01*
Y0325D01*
X0201Y03345D01*
X02051D01*
X01833Y03005D02*
X01843D01*
X01975Y03137D02*
Y03256D01*
X02014Y03295D01*
X02051D01*
X025664Y032836D02*
X027006D01*
X025441Y033059D02*
X025664Y032836D01*
X0197Y03445D02*
X020751Y035501D01*
X0197Y0336D02*
Y03445D01*
X01845Y03235D02*
X0197Y0336D01*
X01845Y03335D02*
X01945Y03435D01*
Y0348D01*
X02095Y0363D01*
X023806D01*
X01845Y03435D02*
X0207Y0366D01*
X023806Y0363D02*
X02585Y034256D01*
X0207Y0366D02*
X02395D01*
X02585Y0333D02*
Y034256D01*
Y0333D02*
X026117Y033033D01*
X027006D01*
X0264Y03323D02*
X027006D01*
X0263Y03333D02*
X0264Y03323D01*
X0263Y03333D02*
Y03425D01*
X02395Y0366D02*
X0263Y03425D01*
X0201Y037D02*
X02435D01*
X01845Y03535D02*
X0201Y037D01*
X02435D02*
X027006Y034344D01*
Y033426D02*
Y034344D01*
X025648Y031852D02*
X027006D01*
X02455Y03295D02*
X025648Y031852D01*
X02419Y03295D02*
X02455D01*
X02419Y03245D02*
X024646D01*
X025441Y031655D01*
X027006D01*
X024854Y03195D02*
X025346Y031458D01*
X02419Y03195D02*
X024854D01*
X025346Y031458D02*
X027006D01*
X02419Y03145D02*
X024379Y031261D01*
X027006D01*
X024304Y031064D02*
X027006D01*
X02419Y03095D02*
X024304Y031064D01*
X02419Y03045D02*
X025D01*
X025417Y030867D01*
X027006D01*
X0331Y0361D02*
X03383Y03537D01*
X03413D01*
D18*
X019233Y023D02*
D03*
X018407D02*
D03*
X019233Y025D02*
D03*
X018407D02*
D03*
X019233Y0292D02*
D03*
X018407D02*
D03*
X019233Y027135D02*
D03*
X018407D02*
D03*
X035337Y0394D02*
D03*
X036163D02*
D03*
D19*
X01923Y02385D02*
D03*
X01833D02*
D03*
X01923Y0259D02*
D03*
X01833D02*
D03*
X01923Y027935D02*
D03*
X01833D02*
D03*
X01923Y03005D02*
D03*
X01833D02*
D03*
X03495Y0378D02*
D03*
X03405D02*
D03*
X03495Y03705D02*
D03*
X03405D02*
D03*
X033996Y03445D02*
D03*
X034896D02*
D03*
X034Y03375D02*
D03*
X0349D02*
D03*
X036237Y0403D02*
D03*
X035337D02*
D03*
D20*
X028415Y035956D02*
D03*
X029085D02*
D03*
Y035444D02*
D03*
X028415D02*
D03*
D21*
X027006Y030474D02*
D03*
Y03067D02*
D03*
Y030867D02*
D03*
Y031064D02*
D03*
Y031261D02*
D03*
Y031458D02*
D03*
Y031655D02*
D03*
Y031852D02*
D03*
Y032048D02*
D03*
Y032245D02*
D03*
Y032442D02*
D03*
Y032639D02*
D03*
Y032836D02*
D03*
Y033033D02*
D03*
Y03323D02*
D03*
Y033426D02*
D03*
X031494D02*
D03*
Y03323D02*
D03*
Y033033D02*
D03*
Y032836D02*
D03*
Y032639D02*
D03*
Y032442D02*
D03*
Y032245D02*
D03*
Y032048D02*
D03*
Y031852D02*
D03*
Y031655D02*
D03*
Y031458D02*
D03*
Y031261D02*
D03*
Y031064D02*
D03*
Y030867D02*
D03*
Y03067D02*
D03*
Y030474D02*
D03*
D22*
X027774Y034194D02*
D03*
X02797D02*
D03*
X028167D02*
D03*
X028364D02*
D03*
X028561D02*
D03*
X028758D02*
D03*
X028955D02*
D03*
X029152D02*
D03*
X029348D02*
D03*
X029545D02*
D03*
X029742D02*
D03*
X029939D02*
D03*
X030136D02*
D03*
X030333D02*
D03*
X03053D02*
D03*
X030726D02*
D03*
Y029706D02*
D03*
X03053D02*
D03*
X030333D02*
D03*
X030136D02*
D03*
X029939D02*
D03*
X029742D02*
D03*
X029545D02*
D03*
X029348D02*
D03*
X029152D02*
D03*
X028955D02*
D03*
X028758D02*
D03*
X028561D02*
D03*
X028364D02*
D03*
X028167D02*
D03*
X02797D02*
D03*
X027774D02*
D03*
D23*
X03565Y036401D02*
D03*
Y035501D02*
D03*
X0331Y0352D02*
D03*
Y0361D02*
D03*
X0299Y0355D02*
D03*
Y0364D02*
D03*
X02745Y0363D02*
D03*
Y0354D02*
D03*
D24*
X03645Y036413D02*
D03*
Y035587D02*
D03*
D25*
X03487Y03633D02*
D03*
X0345D02*
D03*
X03413D02*
D03*
Y03537D02*
D03*
X03487D02*
D03*
D26*
X0298Y01894D02*
D03*
X0293D02*
D03*
X0288D02*
D03*
X0283D02*
D03*
X0278D02*
D03*
X0273D02*
D03*
X0268D02*
D03*
Y01705D02*
D03*
X0273D02*
D03*
X0278D02*
D03*
X0283D02*
D03*
X0288D02*
D03*
X0293D02*
D03*
X0298D02*
D03*
D27*
X02419Y02995D02*
D03*
Y03045D02*
D03*
Y03095D02*
D03*
Y03145D02*
D03*
Y03195D02*
D03*
Y03245D02*
D03*
Y03295D02*
D03*
Y03345D02*
D03*
Y03395D02*
D03*
Y03445D02*
D03*
X02051D02*
D03*
Y03395D02*
D03*
Y03345D02*
D03*
Y03295D02*
D03*
Y03245D02*
D03*
Y03195D02*
D03*
Y03145D02*
D03*
Y03095D02*
D03*
Y03045D02*
D03*
Y02995D02*
D03*
D43*
X03105Y039413D02*
D03*
X03005D02*
D03*
X02905D02*
D03*
X02805D02*
D03*
X02705D02*
D03*
X02605D02*
D03*
X02505D02*
D03*
X03105Y038413D02*
D03*
X03005D02*
D03*
X02905D02*
D03*
X02805D02*
D03*
X02705D02*
D03*
X02605D02*
D03*
D51*
X0293Y01655D02*
Y01705D01*
X0292Y01645D02*
X0293Y01655D01*
X028908Y01645D02*
X0292D01*
X01845Y03835D02*
X019Y0378D01*
X0298D01*
D52*
X0269Y02205D02*
X0277Y02125D01*
X024481Y02205D02*
X0269D01*
X024475Y022045D02*
X024481Y02205D01*
X023295Y022045D02*
X024475D01*
X0229Y02165D02*
X023295Y022045D01*
D53*
X02243Y02668D02*
X02406Y02505D01*
X0257D01*
X03035Y0384D02*
X03345D01*
X0257Y0233D02*
X0295D01*
X029844Y035444D02*
X0299Y0355D01*
X029085Y035444D02*
X029844D01*
X028071Y0363D02*
X028415Y035956D01*
X02745Y0363D02*
X028071D01*
X0298Y01645D02*
Y01705D01*
X03487Y03378D02*
Y03537D01*
X033996Y033754D02*
Y03445D01*
Y033754D02*
X034Y03375D01*
X0221Y02995D02*
X02419D01*
X02051D02*
X0221D01*
X03345Y0384D02*
X03405Y0378D01*
X03245Y03585D02*
X0331Y0352D01*
X03245Y03585D02*
Y0364D01*
X0331Y03705D01*
X03405D01*
X03495D02*
Y0378D01*
X035413Y03865D02*
X036163Y0394D01*
X0349Y03865D02*
X035413D01*
X03565Y0384D02*
X038026D01*
X03505Y0378D02*
X03565Y0384D01*
X038026D02*
X038541Y037885D01*
X036163Y0394D02*
X036813Y03875D01*
X038341D01*
X039007Y038084D01*
Y03635D02*
Y038084D01*
X038541Y035885D02*
X039007Y03635D01*
X03514Y03261D02*
X03543D01*
X034Y03375D02*
X03514Y03261D01*
X03385Y03445D02*
X033996D01*
X0331Y0352D02*
X03385Y03445D01*
X03487Y03378D02*
X0349Y03375D01*
X038057Y0354D02*
X038541Y035885D01*
X036637Y0354D02*
X038057D01*
X03645Y035587D02*
X036637Y0354D01*
X036438Y036401D02*
X03645Y036413D01*
X03565Y036401D02*
X036438D01*
X035519Y03537D02*
X03565Y035501D01*
X03487Y03537D02*
X035519D01*
X03413Y03602D02*
Y03633D01*
Y03602D02*
X03435Y0358D01*
X03475D01*
X03487Y03592D01*
Y03633D01*
X0345D02*
Y0366D01*
X03405Y03705D02*
X0345Y0366D01*
X03405Y03705D02*
Y0378D01*
X03487Y03633D02*
X03495Y03641D01*
Y03705D01*
X03405Y0378D02*
X0349Y03865D01*
X038541Y036885D02*
Y037885D01*
D54*
X0321Y0172D02*
D03*
X0218D02*
D03*
D55*
X0331D02*
D03*
X0341D02*
D03*
X0351D02*
D03*
X0228D02*
D03*
X0238D02*
D03*
X0248D02*
D03*
D56*
X0297Y02125D02*
D03*
X0287D02*
D03*
X0277D02*
D03*
X01845Y03435D02*
D03*
Y03335D02*
D03*
Y03535D02*
D03*
Y03635D02*
D03*
Y03735D02*
D03*
Y03835D02*
D03*
X03405Y03895D02*
D03*
X038541Y018885D02*
D03*
X037541D02*
D03*
X038541Y019885D02*
D03*
X037541D02*
D03*
X038541Y020885D02*
D03*
X037541D02*
D03*
X038541Y021885D02*
D03*
X037541D02*
D03*
X038541Y022885D02*
D03*
X037541D02*
D03*
X038541Y023885D02*
D03*
X037541D02*
D03*
X038541Y024885D02*
D03*
X037541D02*
D03*
X038541Y025885D02*
D03*
X037541D02*
D03*
X038541Y026885D02*
D03*
X037541D02*
D03*
X038541Y027885D02*
D03*
X037541D02*
D03*
X038541Y028885D02*
D03*
X037541D02*
D03*
X038541Y029885D02*
D03*
X037541D02*
D03*
X038541Y030885D02*
D03*
X037541D02*
D03*
X038541Y031885D02*
D03*
X037541D02*
D03*
X038541Y032885D02*
D03*
X037541D02*
D03*
X038541Y033885D02*
D03*
X037541D02*
D03*
X038541Y034885D02*
D03*
X037541D02*
D03*
X038541Y035885D02*
D03*
X037541D02*
D03*
X038541Y036885D02*
D03*
X037541D02*
D03*
X038541Y037885D02*
D03*
D57*
X0267Y02125D02*
D03*
D58*
X01845Y03235D02*
D03*
X03405Y03995D02*
D03*
X037541Y037885D02*
D03*
D59*
X0295Y0233D02*
D03*
D60*
X02426Y019855D02*
D03*
X02238Y022565D02*
D03*
X02426D02*
D03*
X02238Y019855D02*
D03*
X02431Y02397D02*
D03*
X02243Y02668D02*
D03*
X02431D02*
D03*
X02243Y02397D02*
D03*
X02103Y02156D02*
D03*
X01832Y01968D02*
D03*
Y02156D02*
D03*
X02103Y01968D02*
D03*
X03543Y03261D02*
D03*
X03355Y0299D02*
D03*
X03543D02*
D03*
X03355Y03261D02*
D03*
D61*
X038041Y01705D02*
D03*
X01875Y039885D02*
D03*
X038041D02*
D03*
X01875Y01705D02*
D03*
D62*
X02505Y038413D02*
D03*
D63*
X0298Y03745D02*
D03*
Y0378D02*
D03*
X03245Y0342D02*
D03*
X03205Y03425D02*
D03*
X0258Y0324D02*
D03*
X0253Y02145D02*
D03*
X0233Y03505D02*
D03*
X0184Y0292D02*
D03*
Y0271D02*
D03*
X0257Y02505D02*
D03*
X02425Y03445D02*
D03*
X0284Y0365D02*
D03*
X0299Y0355D02*
D03*
X02965Y0334D02*
D03*
X03065Y03275D02*
D03*
X03025Y0306D02*
D03*
X02865Y0303D02*
D03*
X02785Y03195D02*
D03*
X0229Y02165D02*
D03*
X0267Y02295D02*
D03*
X0298Y01645D02*
D03*
X03065Y03185D02*
D03*
X02945Y0306D02*
D03*
X02785Y03285D02*
D03*
X02875Y03341D02*
D03*
X0349Y03375D02*
D03*
X0267Y0299D02*
D03*
X0263Y02295D02*
D03*
Y03015D02*
D03*
X02305Y0343D02*
D03*
X02285Y03505D02*
D03*
X0225D02*
D03*
X036163Y0394D02*
D03*
X02955Y0291D02*
D03*
X02678Y01703D02*
D03*
X0293Y0191D02*
D03*
X03053Y02033D02*
D03*
D64*
X0257Y0233D02*
D03*
X0356Y03375D02*
D03*
D65*
X0221Y02995D02*
D03*
M02*
