G04*
G04 #@! TF.GenerationSoftware,Altium Limited,Altium Designer,18.1.5 (160)*
G04*
G04 Layer_Color=255*
%FSTAX24Y24*%
%MOIN*%
G70*
G01*
G75*
%ADD19R,0.0500X0.0550*%
%ADD23R,0.0550X0.0500*%
%ADD43C,0.0680*%
%ADD54R,0.0750X0.0900*%
%ADD55O,0.0750X0.0900*%
%ADD56C,0.0591*%
%ADD57R,0.0591X0.0591*%
%ADD58R,0.0591X0.0591*%
%ADD59C,0.0600*%
%ADD60C,0.0750*%
%ADD61C,0.1380*%
G04:AMPARAMS|DCode=62|XSize=68mil|YSize=68mil|CornerRadius=8.5mil|HoleSize=0mil|Usage=FLASHONLY|Rotation=90.000|XOffset=0mil|YOffset=0mil|HoleType=Round|Shape=RoundedRectangle|*
%AMROUNDEDRECTD62*
21,1,0.0680,0.0510,0,0,90.0*
21,1,0.0510,0.0680,0,0,90.0*
1,1,0.0170,0.0255,0.0255*
1,1,0.0170,0.0255,-0.0255*
1,1,0.0170,-0.0255,-0.0255*
1,1,0.0170,-0.0255,0.0255*
%
%ADD62ROUNDEDRECTD62*%
D19*
X0294Y0306D02*
D03*
X0303D02*
D03*
X02375Y021635D02*
D03*
X02285D02*
D03*
Y020835D02*
D03*
X02375D02*
D03*
X023Y02575D02*
D03*
X0239D02*
D03*
Y025D02*
D03*
X023D02*
D03*
X02875Y03341D02*
D03*
X02965D02*
D03*
X0336Y03095D02*
D03*
X0345D02*
D03*
Y0317D02*
D03*
X0336D02*
D03*
D23*
X03065Y03185D02*
D03*
Y03275D02*
D03*
X02785Y03285D02*
D03*
Y03195D02*
D03*
X0193Y0202D02*
D03*
Y0211D02*
D03*
X01995D02*
D03*
Y0202D02*
D03*
D43*
X03105Y039413D02*
D03*
X03005D02*
D03*
X02905D02*
D03*
X02805D02*
D03*
X02705D02*
D03*
X02605D02*
D03*
X02505D02*
D03*
X03105Y038413D02*
D03*
X03005D02*
D03*
X02905D02*
D03*
X02805D02*
D03*
X02705D02*
D03*
X02605D02*
D03*
D54*
X0321Y0172D02*
D03*
X0218D02*
D03*
D55*
X0331D02*
D03*
X0341D02*
D03*
X0351D02*
D03*
X0228D02*
D03*
X0238D02*
D03*
X0248D02*
D03*
D56*
X0297Y02125D02*
D03*
X0287D02*
D03*
X0277D02*
D03*
X01845Y03435D02*
D03*
Y03335D02*
D03*
Y03535D02*
D03*
Y03635D02*
D03*
Y03735D02*
D03*
Y03835D02*
D03*
X03405Y03895D02*
D03*
X038541Y018885D02*
D03*
X037541D02*
D03*
X038541Y019885D02*
D03*
X037541D02*
D03*
X038541Y020885D02*
D03*
X037541D02*
D03*
X038541Y021885D02*
D03*
X037541D02*
D03*
X038541Y022885D02*
D03*
X037541D02*
D03*
X038541Y023885D02*
D03*
X037541D02*
D03*
X038541Y024885D02*
D03*
X037541D02*
D03*
X038541Y025885D02*
D03*
X037541D02*
D03*
X038541Y026885D02*
D03*
X037541D02*
D03*
X038541Y027885D02*
D03*
X037541D02*
D03*
X038541Y028885D02*
D03*
X037541D02*
D03*
X038541Y029885D02*
D03*
X037541D02*
D03*
X038541Y030885D02*
D03*
X037541D02*
D03*
X038541Y031885D02*
D03*
X037541D02*
D03*
X038541Y032885D02*
D03*
X037541D02*
D03*
X038541Y033885D02*
D03*
X037541D02*
D03*
X038541Y034885D02*
D03*
X037541D02*
D03*
X038541Y035885D02*
D03*
X037541D02*
D03*
X038541Y036885D02*
D03*
X037541D02*
D03*
X038541Y037885D02*
D03*
D57*
X0267Y02125D02*
D03*
D58*
X01845Y03235D02*
D03*
X03405Y03995D02*
D03*
X037541Y037885D02*
D03*
D59*
X0295Y0233D02*
D03*
D60*
X02426Y019855D02*
D03*
X02238Y022565D02*
D03*
X02426D02*
D03*
X02238Y019855D02*
D03*
X02431Y02397D02*
D03*
X02243Y02668D02*
D03*
X02431D02*
D03*
X02243Y02397D02*
D03*
X02103Y02156D02*
D03*
X01832Y01968D02*
D03*
Y02156D02*
D03*
X02103Y01968D02*
D03*
X03543Y03261D02*
D03*
X03355Y0299D02*
D03*
X03543D02*
D03*
X03355Y03261D02*
D03*
D61*
X038041Y01705D02*
D03*
X01875Y039885D02*
D03*
X038041D02*
D03*
X01875Y01705D02*
D03*
D62*
X02505Y038413D02*
D03*
M02*
